<?xml version="1.0" encoding="utf-8"?>
<!-- Generator: Adobe Illustrator 27.5.0, SVG Export Plug-In . SVG Version: 6.00 Build 0)  -->
<svg version="1.1" xmlns="http://www.w3.org/2000/svg" xmlns:xlink="http://www.w3.org/1999/xlink" x="0px" y="0px"
	 viewBox="0 0 500 500" style="enable-background:new 0 0 500 500;" xml:space="preserve">
<g id="Background_Simple">
	<g>
		<path style="fill:#92E3A9;" d="M283.591,19.081c0,0-83.18-10.579-149.396,49.67c-66.216,60.249-85.491,155.34-103.137,231.994
			c-17.646,76.653,16.693,143.198,81.57,162.785c64.877,19.587,93.823-36.51,174.452-56.552
			c80.629-20.042,104.984-13.211,162.294-73.756c57.31-60.545,45.827-171.448-24.783-239.936
			C353.981,24.798,283.591,19.081,283.591,19.081z"/>
		<path style="opacity:0.7;fill:#FFFFFF;" d="M283.591,19.081c0,0-83.18-10.579-149.396,49.67
			c-66.216,60.249-85.491,155.34-103.137,231.994c-17.646,76.653,16.693,143.198,81.57,162.785
			c64.877,19.587,93.823-36.51,174.452-56.552c80.629-20.042,104.984-13.211,162.294-73.756
			c57.31-60.545,45.827-171.448-24.783-239.936C353.981,24.798,283.591,19.081,283.591,19.081z"/>
	</g>
</g>
<g id="Landscape">
	
		<line style="fill:none;stroke:#263238;stroke-linecap:round;stroke-linejoin:round;stroke-miterlimit:10;" x1="25.219" y1="207.281" x2="480" y2="207.281"/>
	<g>
		<path style="fill:none;stroke:#263238;stroke-linecap:round;stroke-linejoin:round;stroke-miterlimit:10;" d="M48.752,207.306
			c0,0,64.238-40.912,73.628-40.912c9.39,0,69.836,40.476,69.836,40.476s125.587-47.519,136.737-46.932
			c11.15,0.587,41.08,15.845,42.84,16.432c1.761,0.587,26.409-6.455,34.038-3.521c7.629,2.934,60.002,34.484,60.002,34.484
			L48.752,207.306z"/>
		<path style="fill:none;stroke:#263238;stroke-miterlimit:10;" d="M172.804,207.302C166.008,202.717,153.438,193.876,152,191
			c-2-4-8,0-15-2s-14.62-22.606-14.62-22.606c-9.39,0-73.628,40.912-73.628,40.912L172.804,207.302z"/>
		<path style="fill:none;stroke:#263238;stroke-miterlimit:10;" d="M335.408,181.292c-7.498-5.831-11.663-10.413-11.663-10.413
			l3.465-10.801c-18.668,2.778-134.994,46.792-134.994,46.792s-0.126-0.084-0.357-0.238l-1.077,0.41l275.052,0.291
			c0,0-0.092-0.055-0.253-0.152c-8.251-1.632-19.972-3.961-21.042-4.229c-1.666-0.416-16.245-2.083-16.245-2.083
			s-14.578-4.582-17.494-6.248c-2.916-1.666-13.329-12.079-12.079-14.162c1.25-2.083,5.415-7.914,5.415-7.914l-1.063-0.29
			c-9.568-1.006-29.693,4.644-31.278,4.115l-17.225,5.338C354.568,181.709,342.905,187.124,335.408,181.292z"/>
	</g>
	<g>
		<polyline style="fill:none;stroke:#263238;stroke-linecap:round;stroke-linejoin:round;stroke-miterlimit:10;" points="
			486.663,349.631 255.862,207.281 13.931,356.354 		"/>
		
			<line style="fill:none;stroke:#263238;stroke-linecap:round;stroke-linejoin:round;stroke-miterlimit:10;" x1="155.435" y1="253.173" x2="49.319" y2="313.677"/>
		
			<line style="fill:none;stroke:#263238;stroke-linecap:round;stroke-linejoin:round;stroke-miterlimit:10;" x1="76.314" y1="289.476" x2="22.325" y2="318.332"/>
		
			<line style="fill:none;stroke:#263238;stroke-linecap:round;stroke-linejoin:round;stroke-miterlimit:10;" x1="345.326" y1="250.38" x2="397.453" y2="279.236"/>
		
			<line style="fill:none;stroke:#263238;stroke-linecap:round;stroke-linejoin:round;stroke-miterlimit:10;" x1="393.73" y1="269.928" x2="452.372" y2="300.646"/>
	</g>
</g>
<g id="Arrows">
	<polygon style="fill:#92E3A9;" points="419.306,466 483.303,466 400.776,388.629 411.835,388.629 353.036,356.836 351.475,388.629 
		362.535,388.629 	"/>
	<polygon style="fill:#92E3A9;" points="15.197,466 79.194,466 135.965,388.629 147.025,388.629 145.464,356.836 86.665,388.629 
		97.725,388.629 	"/>
	<polygon style="fill:#92E3A9;" points="192.152,466 302.348,466 276.516,355.801 293.445,355.801 247.25,317 201.055,355.801 
		217.984,355.801 	"/>
</g>
<g id="Clouds">
	<g>
		<g>
			<g>
				<g>
					<path style="fill:none;stroke:#263238;stroke-linecap:round;stroke-linejoin:round;stroke-miterlimit:10;" d="M441.006,121.21
						c-3.853-2.102-5.604-0.35-7.006-2.102c-1.401-1.751,3.853-6.305-6.655-10.859c0,0-0.7-9.807-15.062-10.158
						c-14.361-0.35-10.508,9.808-14.361,12.26c-3.853,2.452-4.904-1.401-8.757,1.051c-3.853,2.452-2.102,7.356-5.254,8.057
						c-3.152,0.7-7.356-3.152-11.209-0.701c-3.853,2.452-3.853,4.553-5.604,4.553c-1.751,0-5.254-1.401-7.356,0
						c-2.102,1.401-4.553,3.153-4.553,3.153h88.62C443.808,126.464,444.859,123.312,441.006,121.21z"/>
				</g>
			</g>
			<path style="fill:none;stroke:#263238;stroke-linecap:round;stroke-linejoin:round;stroke-miterlimit:10;" d="M388.581,119.771
				c-0.416,0.24-0.928,0.485-1.563,0.739"/>
			<path style="fill:none;stroke:#263238;stroke-linecap:round;stroke-linejoin:round;stroke-miterlimit:10;" d="M407.54,103.408
				c0,0-2.779,1.069-3.42,4.275s-2.138,5.344-3.848,5.558c-1.71,0.214-8.123-0.427-9.192,1.924c-0.375,0.826-0.461,1.52-0.599,2.147
				"/>
		</g>
		<g>
			<g>
				<g>
					
						<line style="fill:none;stroke:#263238;stroke-linecap:round;stroke-linejoin:round;stroke-miterlimit:10;" x1="379.706" y1="119" x2="385.857" y2="119"/>
					<path style="fill:none;stroke:#263238;stroke-linecap:round;stroke-linejoin:round;stroke-miterlimit:10;" d="M434,119h41.42
						c0,0,3.329-9.988-8.878-16.647c-12.208-6.658-17.756-1.11-22.196-6.658c-4.439-5.549,12.207-19.977-21.086-34.405
						c0,0-2.219-31.073-47.721-32.183c-45.501-1.11-33.294,31.074-45.501,38.843c-12.208,7.769-15.537-4.439-27.745,3.329
						c-12.209,7.769-6.659,23.306-16.647,25.526c-9.988,2.219-23.305-9.988-35.514-2.22c-12.207,7.768-12.207,14.427-17.756,14.427
						c-5.549,0-16.648-4.439-23.306,0c-6.658,4.439-14.427,9.988-14.427,9.988h178.059"/>
				</g>
			</g>
			<path style="fill:none;stroke:#263238;stroke-linecap:round;stroke-linejoin:round;stroke-miterlimit:10;" d="M300.445,97.794
				c-1.317,0.761-2.941,1.536-4.954,2.341"/>
			<path style="fill:none;stroke:#263238;stroke-linecap:round;stroke-linejoin:round;stroke-miterlimit:10;" d="M306.463,90.005
				c0.437-1.987,0.707-4.186,1.897-6.803c3.386-7.45,23.705-5.418,29.123-6.095c5.418-0.677,10.159-7.45,12.191-17.61
				c2.032-10.159,10.837-13.546,10.837-13.546"/>
		</g>
	</g>
	<g>
		<g>
			<g>
				<path style="fill:none;stroke:#263238;stroke-linecap:round;stroke-linejoin:round;stroke-miterlimit:10;" d="M104.974,160.081
					c-2.457-1.34-3.574-0.223-4.467-1.34c-0.893-1.117,2.457-4.021-4.244-6.924c0,0-0.447-6.254-9.604-6.477
					c-9.157-0.223-6.701,6.254-9.157,7.817c-2.457,1.563-3.127-0.893-5.584,0.67c-2.457,1.564-1.34,4.691-3.35,5.137
					c-2.01,0.447-4.69-2.01-7.147-0.447c-2.457,1.563-2.457,2.904-3.574,2.904c-1.117,0-3.35-0.893-4.691,0
					c-1.34,0.893-2.903,2.01-2.903,2.01h56.508C106.761,163.431,107.431,161.421,104.974,160.081z"/>
			</g>
		</g>
		<path style="fill:none;stroke:#263238;stroke-linecap:round;stroke-linejoin:round;stroke-miterlimit:10;" d="M71.546,159.163
			c-0.265,0.153-0.592,0.309-0.997,0.471"/>
		<path style="fill:none;stroke:#263238;stroke-linecap:round;stroke-linejoin:round;stroke-miterlimit:10;" d="M83.634,148.73
			c0,0-1.772,0.682-2.181,2.726C81.045,153.501,80.09,154.864,79,155c-1.09,0.136-5.18-0.273-5.861,1.227
			c-0.239,0.527-0.294,0.969-0.382,1.369"/>
	</g>
</g>
<g id="Character">
	<g>
		<g>
			<polygon style="fill:#FFFFFF;stroke:#263238;stroke-linecap:round;stroke-linejoin:round;stroke-miterlimit:10;" points="
				234.71,106.131 237.245,120.497 256.006,119.99 259.217,105.793 			"/>
			<path style="fill:#FFFFFF;stroke:#263238;stroke-linecap:round;stroke-linejoin:round;stroke-miterlimit:10;" d="M230.654,95.99
				c0,0-3.042-1.69-3.042,3.042c0,4.732,4.563,7.775,5.915,7.775s1.521-1.183,1.183-2.704
				C234.372,102.581,230.654,95.99,230.654,95.99z"/>
			<path style="fill:#FFFFFF;stroke:#263238;stroke-linecap:round;stroke-linejoin:round;stroke-miterlimit:10;" d="M260.898,95.959
				c0,0,2.877-1.958,3.305,2.755c0.427,4.713-3.843,8.155-5.189,8.277c-1.347,0.122-1.622-1.041-1.422-2.586
				C257.791,102.859,260.898,95.959,260.898,95.959z"/>
			<path style="fill:#263238;stroke:#263238;stroke-linecap:round;stroke-linejoin:round;stroke-miterlimit:10;" d="M233.442,77.45
				c0,0-4.703,6.172-4.703,11.463c0,5.29,3.233,12.638,5.29,16.753s4.703,8.817,6.172,9.111c1.47,0.294,11.757,0.294,13.52-0.882
				c1.763-1.176,4.703-4.115,5.878-10.287c1.176-6.172,2.939-15.284,2.939-15.284s6.466-0.882,7.348-4.997
				c0.882-4.115-4.997-6.466-6.76-9.111c-1.763-2.645,3.233-4.996-1.763-8.23c-4.997-3.233-9.111-0.882-12.638,0.294
				c-3.527,1.176-3.233-3.821-7.348-1.763c-4.115,2.057-3.821,5.29-3.821,5.29s-2.939-0.294-2.939-1.764
				c0-1.469-2.939-1.469-3.821,3.233C229.915,75.98,233.442,77.45,233.442,77.45z"/>
		</g>
		<path style="fill:#FFFFFF;stroke:#263238;stroke-linecap:round;stroke-linejoin:round;stroke-miterlimit:10;" d="M259.048,116.948
			c0,0-13.014,0-18.592,0.507c-5.577,0.507-7.606,6.93-7.606,6.93s9.972-1.69,17.747-2.028c7.775-0.338,12.676-0.169,12.676-0.169
			L259.048,116.948z"/>
		<g>
			<path style="fill:#92E3A9;stroke:#263238;stroke-linecap:round;stroke-linejoin:round;stroke-miterlimit:10;" d="
				M296.071,129.232c0,0,16.729,66.08,16.45,68.31c-0.279,2.231-30.67,11.989-30.67,11.989l-3.067-10.595l13.104-9.48l-6.413-17.844
				C285.476,171.613,293.562,133.415,296.071,129.232z"/>
			<g>
				<path style="fill:#263238;stroke:#263238;stroke-linecap:round;stroke-linejoin:round;stroke-miterlimit:10;" d="
					M310.981,196.876c0.085-0.677-2.245-11.754-3.698-16.508l-20.672-14.023c-0.7,3.21,0.069,4.514,0.069,4.514l7.528,20.866
					l-15.424,7.211l3.142,9.033C281.927,207.97,310.702,199.107,310.981,196.876z"/>
				<path style="fill:#263238;stroke:#263238;stroke-linecap:round;stroke-linejoin:round;stroke-miterlimit:10;" d="
					M288.904,156.04l19.415,22.547c-0.681-2.826-1.41-5.823-2.162-8.893L289,155.616
					C288.968,155.758,288.936,155.899,288.904,156.04z"/>
			</g>
		</g>
		<g>
			<path style="fill:#FFFFFF;stroke:#263238;stroke-linecap:round;stroke-linejoin:round;stroke-miterlimit:10;" d="
				M180.386,243.144c0,0-4.282,13.778-4.655,16.571c-0.372,2.793-1.862,4.096-0.559,6.517c1.303,2.421,7.448,5.027,8.751,5.586
				c1.303,0.559,3.91-1.676,3.91-1.676s1.49,1.117,2.607-1.303c1.117-2.421,1.49-6.889,1.49-8.937c0-2.048-3.724-7.448-4.096-9.124
				c-0.372-1.676-0.559-4.096-0.559-4.096L180.386,243.144z"/>
			<path style="fill:none;stroke:#263238;stroke-linecap:round;stroke-linejoin:round;stroke-miterlimit:10;" d="M187.089,253.384
				c0,0,0.186,5.958-0.186,6.703c-0.372,0.745-6.331,4.096-6.331,4.096"/>
			
				<line style="fill:none;stroke:#263238;stroke-linecap:round;stroke-linejoin:round;stroke-miterlimit:10;" x1="182.248" y1="263.252" x2="184.855" y2="267.163"/>
			<path style="fill:none;stroke:#263238;stroke-linecap:round;stroke-linejoin:round;stroke-miterlimit:10;" d="M186.903,260.087
				c0,0,2.048-0.372,2.234,1.303c0.186,1.676-0.745,7.82-1.303,8.751"/>
		</g>
		<path style="fill:#263238;stroke:#263238;stroke-linecap:round;stroke-linejoin:round;stroke-miterlimit:10;" d="M227.482,398.012
			c0,0,0.836,9.759,2.509,11.153c1.673,1.394,6.692,2.788,9.48,1.952c2.788-0.836,5.019-2.788,5.019-2.788l0.558-11.432
			C245.048,396.896,233.616,400.521,227.482,398.012z"/>
		<path style="fill:#263238;stroke:#263238;stroke-linecap:round;stroke-linejoin:round;stroke-miterlimit:10;" d="M214.657,250.796
			c0,0,5.019,43.774,5.298,51.581c0.279,7.807-2.788,23.699-1.673,32.064c1.115,8.365,5.019,34.016,5.019,34.016l3.346,18.402
			c0,0-2.788,3.625-1.952,6.134c0.836,2.509,1.952,5.855,1.952,5.855s5.298,3.346,9.48,3.625c4.182,0.279,7.807-1.952,8.365-3.067
			c0.558-1.115,1.394-12.547,1.394-15.335c0-2.788-1.673-10.037-1.952-15.614c-0.279-5.576,1.952-30.112,1.952-37.919
			c0-7.807,0.836-30.391,1.115-31.227c0.279-0.837,1.673-37.64,1.673-37.64l0.558-5.576L214.657,250.796z"/>
		<g>
			<path style="fill:#263238;stroke:#263238;stroke-linecap:round;stroke-linejoin:round;stroke-miterlimit:10;" d="
				M246.999,380.446c0,0-4.74,3.904-4.74,7.528s1.394,6.692,1.394,6.692l2.231,1.115c0,0-0.837,2.23-1.952,6.692
				c-1.115,4.461,2.509,17.008,3.067,18.123c0.558,1.115,5.855,1.394,5.855,1.394s3.346-3.903,4.74-8.365
				c1.394-4.461,1.394-15.335,1.394-18.402c0-3.067,0.836-6.97,0.836-6.97S254.249,376.264,246.999,380.446z"/>
			<path style="fill:#636363;stroke:#263238;stroke-linecap:round;stroke-linejoin:round;stroke-miterlimit:10;" d="
				M250.066,385.186c-3.903-3.067-6.97,0.837-6.97,0.837l-0.542,0.325c-0.18,0.539-0.294,1.086-0.294,1.626
				c0,3.625,1.394,6.692,1.394,6.692l2.231,1.115c0,0-0.836,2.231-1.952,6.692c-1.115,4.461,2.509,17.008,3.067,18.123
				c0.558,1.115,5.855,1.394,5.855,1.394s1.952-2.281,3.495-5.346c0.72-5.069,0.72-10.934-0.707-16.402
				C253.97,393.829,253.97,388.253,250.066,385.186z"/>
		</g>
		<g>
			<path style="fill:#92E3A9;stroke:#263238;stroke-linecap:round;stroke-linejoin:round;stroke-miterlimit:10;" d="
				M247.836,256.373l11.989,59.109c0,0-6.97,19.238-7.528,27.324c-0.558,8.086-4.182,30.67-4.461,32.9
				c-0.279,2.231-0.837,4.74-0.837,4.74s5.576-0.558,8.365,2.509c2.788,3.067,5.855,10.316,5.855,10.316s8.086-22.026,10.874-28.16
				c2.788-6.134,11.71-30.391,11.989-38.755c0.279-8.365,2.788-53.533,2.788-59.667s0-13.941,0-13.941
				S250.624,256.652,247.836,256.373z"/>
			<path style="fill:none;stroke:#263238;stroke-linecap:round;stroke-linejoin:round;stroke-miterlimit:10;" d="M279.9,320.779
				c-4.182-5.576-17.844-5.576-17.844-5.576s7.249-2.23,15.056-1.673"/>
			<path style="fill:#263238;stroke:#263238;stroke-linecap:round;stroke-linejoin:round;stroke-miterlimit:10;" d="
				M247.836,256.373l4.149,20.458c3.016-2.572,18.687-15.487,34.885-20.564c0-2.097,0-3.518,0-3.518
				S250.624,256.652,247.836,256.373z"/>
		</g>
		
			<rect x="180.419" y="262.579" style="fill:#263238;stroke:#263238;stroke-linecap:round;stroke-linejoin:round;stroke-miterlimit:10;" width="3.724" height="18.247"/>
		
			<rect x="175.171" y="278.33" style="fill:#263238;stroke:#263238;stroke-linecap:round;stroke-linejoin:round;stroke-miterlimit:10;" width="14.22" height="58.551"/>
		<g>
			<path style="fill:#92E3A9;stroke:#263238;stroke-linecap:round;stroke-linejoin:round;stroke-miterlimit:10;" d="
				M232.851,124.384c0,0-0.401,0.239-1.046,0.623c-2.502,1.491-8.676,5.176-9.341,5.619c-0.837,0.558-21.469,7.528-21.469,10.316
				c0,2.788-5.576,36.804-5.576,36.804s-10.037,20.911-11.432,25.93c-1.394,5.019-5.855,41.822-5.855,41.822l11.989,6.134
				c0,0,11.432-26.209,15.893-38.756c4.461-12.547,8.643-31.506,8.643-31.506l3.067,19.517l-13.941,48.235
				c0,0,20.354,8.365,33.458,9.48c13.104,1.115,32.343-0.558,38.756-1.952c6.413-1.394,20.354-3.346,20.354-3.346
				s-4.461-17.008-7.249-25.372c-2.788-8.365-5.576-27.603-5.576-27.603l-0.279-1.394l12.826-69.704l-28.997-4.461l-3.801-2.584
				C263.273,122.187,241.008,121.488,232.851,124.384z"/>
			<polygon style="fill:#263238;stroke:#263238;stroke-linecap:round;stroke-linejoin:round;stroke-miterlimit:10;" points="
				214.47,179.428 207.686,156.556 212.877,188.845 			"/>
			<path style="fill:none;stroke:#263238;stroke-linecap:round;stroke-linejoin:round;stroke-miterlimit:10;" d="M244.903,154.571
				c0.682,0.79,1.297,1.465,1.817,1.985"/>
			<path style="fill:none;stroke:#263238;stroke-linecap:round;stroke-linejoin:round;stroke-miterlimit:10;" d="M229.434,134.251
				c0,0,7.577,10.607,13.179,17.561"/>
			<path style="fill:none;stroke:#263238;stroke-linecap:round;stroke-linejoin:round;stroke-miterlimit:10;" d="M227.203,135.645
				c0,0,7.528,10.595,10.595,15.335"/>
			<path style="fill:none;stroke:#263238;stroke-linecap:round;stroke-linejoin:round;stroke-miterlimit:10;" d="M282.029,203.166
				c0,0-11.112,23.507-15.386,29.49"/>
			<path style="fill:none;stroke:#263238;stroke-linecap:round;stroke-linejoin:round;stroke-miterlimit:10;" d="M268.926,237.753
				c-0.899,1.787-1.809,3.526-2.711,5.161"/>
			<path style="fill:none;stroke:#263238;stroke-linecap:round;stroke-linejoin:round;stroke-miterlimit:10;" d="M280.319,212.142
				c0,0-4.154,10.507-9.137,20.991"/>
			<path style="fill:none;stroke:#263238;stroke-linecap:round;stroke-linejoin:round;stroke-miterlimit:10;" d="M233.94,225.187
				c0.648,0.814,1.294,1.598,1.93,2.341"/>
			<path style="fill:none;stroke:#263238;stroke-linecap:round;stroke-linejoin:round;stroke-miterlimit:10;" d="M220.057,202.312
				c-0.715,1.072,5.441,11.702,11.974,20.404"/>
			<path style="fill:none;stroke:#263238;stroke-linecap:round;stroke-linejoin:round;stroke-miterlimit:10;" d="M220.911,209.15
				c0,0,5.984,13.249,8.975,17.951"/>
		</g>
	</g>
</g>
<g id="Graphics">
	
		<circle style="fill:none;stroke:#263238;stroke-linecap:round;stroke-linejoin:round;stroke-miterlimit:10;" cx="429.5" cy="153.5" r="3.5"/>
	
		<circle style="fill:none;stroke:#263238;stroke-linecap:round;stroke-linejoin:round;stroke-miterlimit:10;" cx="134.5" cy="329" r="3.5"/>
	
		<circle style="fill:none;stroke:#263238;stroke-linecap:round;stroke-linejoin:round;stroke-miterlimit:10;" cx="52" cy="236.5" r="3.5"/>
	
		<circle style="fill:none;stroke:#263238;stroke-linecap:round;stroke-linejoin:round;stroke-miterlimit:10;" cx="134" cy="133" r="4"/>
	
		<circle style="fill:none;stroke:#263238;stroke-linecap:round;stroke-linejoin:round;stroke-miterlimit:10;" cx="182.5" cy="58.5" r="3.5"/>
	<g>
		<polygon style="fill:none;stroke:#263238;stroke-linecap:round;stroke-linejoin:round;stroke-miterlimit:10;" points="
			104.725,52.808 112.378,59.422 116.165,59.422 104.725,49.535 93.285,59.422 97.072,59.422 		"/>
		<polygon style="fill:none;stroke:#263238;stroke-linecap:round;stroke-linejoin:round;stroke-miterlimit:10;" points="
			104.725,60.355 112.378,66.969 116.165,66.969 104.725,57.082 93.285,66.969 97.072,66.969 		"/>
	</g>
	<g>
		<polygon style="fill:none;stroke:#263238;stroke-linecap:round;stroke-linejoin:round;stroke-miterlimit:10;" points="
			445.613,232.294 450.555,236.564 453,236.564 445.613,230.18 438.227,236.564 440.672,236.564 		"/>
		<polygon style="fill:none;stroke:#263238;stroke-linecap:round;stroke-linejoin:round;stroke-miterlimit:10;" points="
			445.613,237.166 450.555,241.437 453,241.437 445.613,235.053 438.227,241.437 440.672,241.437 		"/>
	</g>
	<g>
		<polygon style="fill:none;stroke:#263238;stroke-linecap:round;stroke-linejoin:round;stroke-miterlimit:10;" points="
			377,143.393 384.653,150.006 388.44,150.006 377,140.12 365.56,150.006 369.347,150.006 		"/>
		<polygon style="fill:none;stroke:#263238;stroke-linecap:round;stroke-linejoin:round;stroke-miterlimit:10;" points="377,150.94 
			384.653,157.553 388.44,157.553 377,147.667 365.56,157.553 369.347,157.553 		"/>
	</g>
	<g>
		<polygon style="fill:none;stroke:#263238;stroke-linecap:round;stroke-linejoin:round;stroke-miterlimit:10;" points="
			431,357.453 438.653,364.067 442.44,364.067 431,354.18 419.56,364.067 423.347,364.067 		"/>
		<polygon style="fill:none;stroke:#263238;stroke-linecap:round;stroke-linejoin:round;stroke-miterlimit:10;" points="431,365 
			438.653,371.614 442.44,371.614 431,361.727 419.56,371.614 423.347,371.614 		"/>
	</g>
	<g>
		<polygon style="fill:none;stroke:#263238;stroke-linecap:round;stroke-linejoin:round;stroke-miterlimit:10;" points="
			101.78,247.616 106.61,251.79 109,251.79 101.78,245.551 94.56,251.79 96.95,251.79 		"/>
		<polygon style="fill:none;stroke:#263238;stroke-linecap:round;stroke-linejoin:round;stroke-miterlimit:10;" points="
			101.78,252.379 106.61,256.553 109,256.553 101.78,250.314 94.56,256.553 96.95,256.553 		"/>
	</g>
	<g>
		<polygon style="fill:none;stroke:#263238;stroke-linecap:round;stroke-linejoin:round;stroke-miterlimit:10;" points="
			69.17,367.826 74,372 76.39,372 69.17,365.76 61.95,372 64.34,372 		"/>
		<polygon style="fill:none;stroke:#263238;stroke-linecap:round;stroke-linejoin:round;stroke-miterlimit:10;" points="
			69.17,372.589 74,376.763 76.39,376.763 69.17,370.523 61.95,376.763 64.34,376.763 		"/>
	</g>
</g>
</svg>
