<?xml version="1.0" encoding="utf-8"?>
<!-- Generator: Adobe Illustrator 27.5.0, SVG Export Plug-In . SVG Version: 6.00 Build 0)  -->
<svg version="1.1" xmlns="http://www.w3.org/2000/svg" xmlns:xlink="http://www.w3.org/1999/xlink" x="0px" y="0px"
	 viewBox="0 0 500 500" style="enable-background:new 0 0 500 500;" xml:space="preserve">
<g id="BACKGROUND">
	<rect style="fill:#FFFFFF;" width="500" height="500"/>
</g>
<g id="OBJECTS">
	<path style="fill:#FAF2E4;" d="M102.595,51.008c-28.59,9.347-49.259,28.077-50.04,63.868
		c-1.514,69.392-3.027,138.876,1.289,208.362c1.099,17.694,2.661,35.737,9.733,52.289c16.331,38.223,60.141,47.165,97.757,51.948
		c45.634,5.802,91.551,2.654,136.909-0.686c23.574-1.736,47.148-3.481,70.713-5.325c49.566-3.879,61.393-48.427,68.205-88.492
		c10.581-62.231,18.059-125.65,14.439-189.294c-2.699-47.454-23.671-84.27-76.932-88.684c-43.079-3.57-86.187-6.476-129.299-9.226
		C198.265,42.764,147.673,36.271,102.595,51.008z"/>
	<g>
		<path style="fill:#ECE5D8;" d="M412.546,172.624c-25.858-2.059-51.716-4.118-77.573-6.177
			c9.585-21.999,13.117-69.119,13.927-105.012c25.858,2.059,51.715,4.118,77.573,6.177
			C425.662,103.504,420.791,159.047,412.546,172.624z"/>
		<path style="fill:#FFFFFF;" d="M402.517,166.067c-25.858-2.059-51.715-4.118-77.573-6.177
			c9.488-20.772,23.299-64.501,23.955-98.455c25.858,2.059,51.715,4.118,77.573,6.177
			C425.817,101.565,410.702,153.257,402.517,166.067z"/>
		<g>
			<path style="fill:#CB545F;" d="M368.072,141.114c-1.402,7.439,11.295,8.365,12.683,1.01
				C382.182,134.564,369.493,133.575,368.072,141.114z"/>
			<path style="fill:#CB545F;" d="M394.468,84.679c-9.389-8.123-29.156-8.479-33.771,4.997c-0.844,2.463,1.162,5.482,3.94,5.703
				c1.236,0.098,1.853,0.147,3.089,0.246c1.844,0.147,3.409-0.985,4.015-2.698c2.782-7.871,18.633-4.849,16.798,4.977
				c-1.96,10.494-14.891,14.867-17.127,25.637c-0.36,1.735,0.908,3.471,2.732,3.616c1.773,0.141,2.66,0.212,4.433,0.353
				c1.57,0.125,3.1-0.911,3.475-2.456c1.415-5.82,5.748-9.08,10.01-12.333C400.114,106.576,402.293,91.449,394.468,84.679z"/>
		</g>
	</g>
	<g>
		<path style="fill:#ECE5D8;" d="M159.594,386.096c-24.306,0-48.612,0-72.918,0c7.317-21.262,7.111-65.537,5.199-99.124
			c24.306,0,48.612,0,72.918,0C166.705,320.559,166.286,372.801,159.594,386.096z"/>
		<path style="fill:#FFFFFF;" d="M149.739,380.717c-24.306,0-48.612,0-72.918,0c7.317-20.108,16.966-61.981,15.053-93.745
			c24.306,0,48.612,0,72.918,0C166.705,318.736,156.431,368.144,149.739,380.717z"/>
		<g>
			<path style="fill:#E8B23F;" d="M115.709,359.971c-0.756,7.052,11.173,6.974,11.922,0
				C128.401,352.804,116.475,352.824,115.709,359.971z"/>
			<path style="fill:#E8B23F;" d="M136.167,305.295c-9.374-6.889-27.864-5.751-31.172,7.179c-0.605,2.364,1.493,5.034,4.104,5.034
				c1.161,0,1.742,0,2.904,0c1.734,0,3.111-1.174,3.549-2.819c2.013-7.559,17.043-5.915,16.06,3.4
				c-1.05,9.948-12.803,14.994-14.091,25.22c-0.207,1.648,1.106,3.174,2.821,3.174c1.667,0,2.5,0,4.167,0
				c1.476,0,2.828-1.081,3.063-2.552c0.889-5.542,4.694-8.909,8.433-12.264C143.07,325.328,143.98,311.036,136.167,305.295z"/>
		</g>
	</g>
	<g>
		<polygon style="fill:#ECE5D8;" points="430.864,305.04 361.474,297.013 371.794,207.803 438.728,210.756 		"/>
		
			<rect x="362.223" y="206.246" transform="matrix(0.9934 0.1149 -0.1149 0.9934 31.4916 -43.9746)" style="fill:#FFFFFF;" width="69.853" height="89.805"/>
		<g>
			<path style="fill:#65AFAA;" d="M393.585,265.002c-1.632-0.189-2.744-1.715-2.479-3.337c1.749-10.707,14.355-12.762,16.41-22.323
				c2.137-9.255-11.414-11.862-14.693-4.969c-0.714,1.5-2.22,2.454-3.87,2.263l-2.763-0.32c-2.485-0.288-3.967-2.882-3.004-5.19
				c4.713-11.3,23.38-11.946,31.12-3.317c6.121,7.355,3.922,18.45-4.526,24.837c-3.976,2.952-7.926,5.535-9.152,10.718
				c-0.325,1.376-1.674,2.259-3.078,2.097L393.585,265.002z M388.727,277.422c0.447-7.254,12.525-5.773,11.345,1.313
				C399.612,285.783,387.541,284.413,388.727,277.422z"/>
		</g>
	</g>
	<g>
		<polygon style="fill:#ECE5D8;" points="157.652,191.28 85.025,197.437 77.108,104.065 146.174,93.227 		"/>
		
			<rect x="75.57" y="96.291" transform="matrix(0.9964 -0.0845 0.0845 0.9964 -11.6923 9.9745)" style="fill:#FFFFFF;" width="72.888" height="93.707"/>
		<g>
			<path style="fill:#697FD0;" d="M111.237,158.051c-1.708,0.145-3.161-1.186-3.226-2.899
				c-0.428-11.313,12.039-16.024,12.161-26.228c0.269-9.908-14.13-9.768-16.055-2.04c-0.419,1.682-1.763,2.97-3.49,3.116
				l-2.892,0.245c-2.601,0.22-4.654-2.126-4.147-4.686c2.48-12.533,21.438-17.058,31.14-9.836
				c7.783,6.255,7.831,18.057,0.514,26.338c-3.455,3.842-6.96,7.302-7.141,12.856c-0.048,1.474-1.244,2.657-2.714,2.781
				L111.237,158.051z M108.841,171.76c-1.044-7.512,11.614-8.497,11.875-1.006C121.704,178.057,109.075,179.154,108.841,171.76z"/>
		</g>
	</g>
	<g>
		<g>
			<g>
				<path style="fill:#98A7D3;" d="M199.438,349.888c-5.037,22.276-7.368,42.812-13.519,76.711
					c-5.822,32.086-9.782,73.402-9.782,73.402h62.239l6.417-44.427L250.564,500h71.826c0,0-2.422-5.598-2.834-73.027
					c-0.339-55.473-4.289-89.939-4.289-89.939L199.438,349.888z"/>
				<path style="fill:#8493C2;" d="M226.57,404.332c12.501-1.304,25.036-3.444,37.446-5.742
					c11.543-2.137,31.358-6.515,41.985-11.373c5.909-2.701,11.991-5.529,17.21-9.056c-2.666-27.905-8.085-42.948-8.085-42.948
					l-115.689,14.675c-3.429,15.165-7.182,31.623-9.309,52.272C202.527,405.283,213.257,405.721,226.57,404.332z"/>
				
					<line style="fill:none;stroke:#646F9C;stroke-width:1.3878;stroke-miterlimit:10;" x1="246.212" y1="431.149" x2="249.053" y2="381.213"/>
				<path style="fill:none;stroke:#646F9C;stroke-width:1.3878;stroke-miterlimit:10;" d="M192.396,407.546
					c0,0,13.441-5.077,14.844-31.274"/>
				<path style="fill:none;stroke:#646F9C;stroke-width:1.3878;stroke-miterlimit:10;" d="M287.132,365.752
					c0,0,1.888,31.179,22.811,32.183"/>
			</g>
			<path style="fill:none;stroke:#646F9C;stroke-width:1.3878;stroke-miterlimit:10;" d="M240.203,380.508
				c-0.469,15.925-3.08,28.997,0.478,33.343c3.58,4.373,6.502,4.734,6.502,4.734"/>
			<polygon style="fill:#8493C2;" points="238.376,500 235.166,500 247.184,427.415 257.931,500 250.564,500 243.783,474.77 			"/>
		</g>
		<path style="fill:#E8B3A0;" d="M261.492,109.51c-0.961,4.339,1.873,36.92,5.667,43.766c1.602,2.891,19.821,11.154,19.821,11.154
			s-13.746,57.909-25.897,60.042c-12.15,2.133-48.266-50.207-48.266-50.207s17.476-9.271,18.468-11.332
			c2.701-5.606-1.884-40.757-1.884-40.757L261.492,109.51z"/>
		<path style="fill:#D49684;" d="M232.111,157.171c2.88,2.158,27.116-0.127,35.334-3.44c0.016-0.006,0.031-0.014,0.047-0.02
			c-0.14-0.154-0.26-0.301-0.333-0.434c-3.793-6.846-6.628-39.428-5.667-43.766l-32.09,12.666
			C229.401,122.176,231.755,144.881,232.111,157.171z"/>
		<path style="fill:#E7B2A1;" d="M262.321,131.218c-2.043,4.631-4.779,14.595-15.056,21.811c-3.93,2.759-10.951,4.227-14.516,3.12
			c-6.778-2.105-19.719-11.878-22.397-19.487c-1.437-4.063-4.353-8.993-5.834-14.054c-1.288-4.399-4.096-9.644-4.689-12.509
			c-1.974-9.534-1.458-20.759,5.094-25.671c17.832-13.374,53.046-6.263,54.965,0.24c1.805,6.13,3.041,17.482,5.053,25.626
			C266.457,116.429,265.773,123.394,262.321,131.218z"/>
		<path style="fill:#D49684;" d="M216.82,98.227l7.046-2.888l4.892-13.544l3.363,11.326l3.568-0.999c0,0-1.829-6.145,0.094-13.097
			l4.796,11.35c0,0,6.772,1.347,11.548,0.897c4.776-0.451,6.152,0.062,6.152,0.062l-16.398-19.246l-16.258-0.219l-16.345,9.602
			l-2.537,13.205L216.82,98.227z"/>
		<g>
			<path style="fill:#2A2D33;" d="M200.835,109.285l0.052-16.708l-3.227-0.197c-5.175-0.317-3.368,5.738-4.019,11.694l8.152,13.076
				C201.428,112.997,200.835,109.285,200.835,109.285z"/>
			<path style="fill:#2A2D33;" d="M242.301,80.201c4.14,3.86,7.119,2.344,11.973,4.154c4.854,1.811,12.255,22.936,12.255,22.936
				s3.144-7.094,2.664-15.278c-0.131-2.239,0.788-8.202-0.695-13.859c-3.042-11.6-6.832-13.667-11.318-14.532
				c-4.689-0.903-8.935,2.253-8.935,2.253L242.301,80.201z"/>
		</g>
		<path style="fill:#E7B2A1;" d="M261.928,100.905c0.821-2.068,3.386-6.656,5.931-5.454c2.545,1.202,6.239,11.553,4.435,17.461
			c-1.69,5.535-6.97,6.385-6.97,6.385l-4.179-14.096L261.928,100.905z"/>
		<path style="fill:#2A2D33;" d="M249.616,80.584c0,0,2.413,10.755,4.987,13.299c4.739,4.682,8.666,16.877,8.666,16.877
			l-0.025-12.312l-0.138-10.396L249.616,80.584z"/>
		<path style="fill:#D49684;" d="M264.28,102.947c0.377-3.258,2.915-4.754,4.007-2.951c1.092,1.803,0.259,2.704,0.259,2.704
			s-1.398-2.192-2.384-1.135c-0.987,1.057-0.537,4.092,0.165,4.138c0.702,0.045,3.078,0.084,2.779,1.491
			c-0.298,1.407-1.611,0.584-1.389,2.802c0.222,2.218,0.817,4.001,0.817,4.001s-1.694-1.485-3.164-4.649
			C263.898,106.183,264.135,104.199,264.28,102.947z"/>
		<path style="fill:#2A2D33;" d="M232.541,77.802c4.142,1.807,6.457,11.592,5.769,13.711c0,0,14.217-1.129,17.662-5.172
			c3.106-3.645,1.884-9.898,1.884-9.898l-8.769-7.286l-12.64,1.97L232.541,77.802z"/>
		<path style="fill:#2A2D33;" d="M245.695,58.514c-2.182-1.428-12.202-5.002-27.887,2.357
			c-11.429,5.362-18.903,13.171-21.496,18.365c-4.535,9.082-4.148,16.761-2.67,24.837c0,0,5.712-0.389,5.717-0.399
			c0.118-0.318,5.247-0.166,17.462-5.447c0.63-4.705,4.062-11.29,4.062-11.29c-0.718,3.851-0.398,7.146,0.158,9.6
			c4.225-1.449,11.082-3.417,11.082-3.417c-0.814-6.233,2.874-14.534,3.662-14.095l14.847-5.675l2.649-4.659
			C253.28,68.692,251.42,62.26,245.695,58.514z"/>
		<g>
			<path style="fill:#302426;" d="M228.105,104.92c0,0-0.714-2.363,0.455-4.467c0,0,8.3-4.263,18.05-0.225
				c0,0-1.508,0.634-2.134,0.776C242.878,101.363,233.25,101.336,228.105,104.92z"/>
			<path style="fill:#302426;" d="M217.298,107.684c0,0-0.609-2.05-2.584-3.024c0,0-5.182,0.835-10.344,9.262
				c0,0,0.879,0.819,2.155-0.277C207.802,112.549,212.321,107.22,217.298,107.684z"/>
			<path style="fill:#D49684;" d="M224.831,115.848c-0.514,1.662-0.917,3.347-1.303,5.035c-0.398,1.686-0.716,3.386-1.034,5.086
				l-0.217,1.278l-0.108,0.639c-0.012,0.258-0.023,0.519-0.02,0.775c0.062,0.258,0.113,0.531,0.224,0.768
				c0.147,0.215,0.258,0.479,0.463,0.622c0.36,0.36,0.802,0.552,1.228,0.663c1.72,0.435,2.559,0.387,4.166-0.083
				c0,0,0.906-0.584,0.102-0.664c-0.799-0.049-3.303,0.243-3.99-0.044c-0.684-0.296-1.2-0.746-1.218-1.399
				c0.02-0.173,0.025-0.341,0.03-0.512l0.12-0.635l0.239-1.27c0.291-1.697,0.582-3.393,0.793-5.103
				C224.53,119.294,224.736,117.582,224.831,115.848z"/>
		</g>
		<g>
			<path style="fill:#BD8675;" d="M224.984,140.261c0.641-1.432,1.725-2.651,3.002-3.601c1.278-0.957,2.787-1.664,4.388-1.967
				c1.591-0.3,3.26-0.32,4.803,0.105c0.789,0.127,1.51,0.503,2.235,0.782c0.701,0.355,1.362,0.786,1.982,1.243
				c-0.795-0.059-1.521-0.238-2.261-0.323l-1.098-0.115c-0.359-0.054-0.719-0.078-1.08-0.076c-1.432-0.118-2.829,0.061-4.191,0.301
				c-1.365,0.26-2.694,0.721-3.982,1.345C227.491,138.583,226.247,139.354,224.984,140.261z"/>
		</g>
		<g>
			<path style="fill:#D49684;" d="M218.885,96.038c-6.03-2.365-17.297,2.345-17.297,2.345s-7.522,2.687-12.56,7.436
				c5.425,0.5,10.77,1.405,16.049,2.539c2.618,0.563,5.225,1.165,7.841,1.736c2.159,0.472,4.391,0.778,6.546,1.282
				c0.263-0.277,1.024-1.065,1.218-1.347c0.793-1.153-1.636-2.337-3.087-2.698c1.034,0.201,1.616,1.099,3.217-0.155
				c2.186-1.713,2.253-3.008,1.549-3.585c-1.335-1.093-7.009-0.949-7.009-0.949s7.085,0.148,8.176-0.866
				C224.62,100.762,224.914,98.402,218.885,96.038z"/>
			<path style="fill:#E7B2A1;" d="M223.331,101.08c-0.995,0.498-2.827,0.612-4.188,0.367c-2.057-0.331-3.681-0.36-3.681-0.36
				s5.218,1.295,6.61,2.228c0.114,0.076,0.226,0.176,0.289,0.275c0.581,0.771-0.506,1.979-1.75,2.546l-0.024,0
				c-0.305,0.142-0.581,0.235-0.877,0.279c-1.677,0.265-4.16,0.073-4.16,0.073s4.236,2.161,4.731,3.078
				c0.063,0.099,0.076,0.222,0.064,0.345c-0.033,1.104-2.078,3.178-3.628,2.88c-1.741-0.326-3.249-1.825-4.033-1.25
				c-0.808,0.575-5.91,4.386-7.272,4.656c-1.362,0.27-3.369,8.775-8.324,14.085c-4.955,5.311-8.822,6.886-11.59,11.18
				c-2.793,4.294-9.402,23.783-9.402,23.783l-15.613-7.345c0.024-0.245,3.687-8.793,7.008-16.562
				c2.435-5.625,4.687-10.861,5.258-12.25c1.358-3.264,6.561-16.202,8.074-19.316c1.492-3.139,6.849-11.117,9.207-13.922
				c2.334-2.805,8.2-8.247,10.968-9.253c2.768-1.006,12.781-3.356,14.841-3.319c0.509,0.009,0.864,0.113,1.089,0.289l0.148,0.224
				l0.022,0.025c0,0,0,0-0.002,0.025c0.232,0.618-0.577,1.707-2.314,2.854c-2.693,1.743-8.171,3.143-9.286,3.884
				c-1.089,0.717-3.944,2.629-4.957,3.814c-0.93,1.088-4.363,4.462-4.738,4.824c0.049,0.001,0.126-0.047,0.252-0.094
				c1.852-0.826,11.84-5.188,13.719-5.032c2.046,0.184,7.321,0.891,8.758,1.358c1.012,0.337,3.154,1.798,4.46,3.122
				c0.53,0.549,0.941,1.072,1.025,1.466C224.117,100.481,223.84,100.844,223.331,101.08z"/>
			<path style="fill:#D49684;" d="M205.373,108.27c-0.806,0.55-4.531,2.423-4.991,2.66c0.45-0.384,4.187-3.385,5.29-4.004
				c1.155-0.642,6.01-2.642,7.322-2.398c1.312,0.244,5.65,1.597,7.592,1.607c-0.305,0.142-0.581,0.235-0.877,0.279
				c-1.677,0.265-4.16,0.073-4.16,0.073c-1.031-0.141-2.664-0.833-3.575-0.702C211.088,105.918,206.254,107.697,205.373,108.27z"/>
			<path style="fill:#D49684;" d="M220.345,109.911c-0.033,1.104-2.078,3.178-3.628,2.88c-1.741-0.326-3.249-1.825-4.033-1.25
				c-0.808,0.575-5.91,4.386-7.272,4.656c-1.362,0.27-3.369,8.775-8.324,14.085c-4.955,5.311-8.822,6.886-11.59,11.18
				c-2.793,4.294-9.402,23.783-9.402,23.783l-15.613-7.345c0.024-0.245,3.687-8.793,7.008-16.562
				c5.837,2.435,11.537,1.751,14.786-1.48c4.373-4.315,4.459-5.828,8.325-7.894c3.89-2.066,7.914-8.003,10.457-12.313
				c3.02-5.117,5.28-5.864,8.16-7.592c3.055-1.833,4.483-1.921,5.436-1.564c1.161,0.435,2.254,0.957,3.599,0.858
				C219.574,111.255,219.743,110.612,220.345,109.911z"/>
			<path style="fill:#D49684;" d="M219.143,101.448c-2.057-0.331-3.681-0.36-3.681-0.36s5.218,1.295,6.61,2.228
				c0.114,0.076,0.226,0.176,0.289,0.275c-1.118-0.241-9.848-2.653-10.648-2.668c-0.824-0.015-5.688,1.322-6.735,1.598
				c-0.996,0.252-7.663,2.661-8.493,2.966l7.552-4.038c0,0,7.433-2.543,9.948-1.933c2.542,0.585,6.704,1.248,9.345,1.565
				C222.336,101.578,220.504,101.693,219.143,101.448z"/>
			<path style="fill:#D49684;" d="M200.539,94.393c-0.93,1.088-4.363,4.462-4.738,4.824c-0.026,0.024-0.026,0.024-0.026,0.024
				s0.497-2.396,2.061-4.012c1.564-1.616,5.579-4.981,7.842-6.29c2.287-1.309,6.517-1.602,8.54-2.695
				c1.92-1.021,2.767-2.257,2.878-2.403c0.232,0.618-0.577,1.707-2.314,2.854c-2.693,1.743-8.171,3.143-9.286,3.884
				C204.407,91.296,201.551,93.209,200.539,94.393z"/>
			<path style="fill:#D49684;" d="M222.99,98.571c-1.456-0.517-3.097-1.135-4.376-1.722c-2.976-1.378-7.499-2.072-9.422-2.032
				c-1.753,0.042-11.352,3.651-13.139,4.306c1.852-0.826,11.84-5.188,13.719-5.032c2.046,0.184,7.321,0.891,8.758,1.358
				C219.542,95.786,221.684,97.247,222.99,98.571z"/>
		</g>
		<path style="fill:#E69362;" d="M329.932,270.375c-2.414,14.987-3.79,35.609-1.48,44.89c2.289,9.264-2.776,22.229-8.733,25.501
			c0,0,0.721,4.238-3.188,8.42c-3.909,4.182-22.432,30.161-52.531,35.817c-30.1,5.636-60.951-3.343-68.924-9.386
			c-7.973-6.043-2.516-15.872-2.516-15.872c-0.059-0.013-0.137-0.004-0.197-0.017c-0.158-0.022-0.295-0.026-0.433-0.05
			c-0.947-0.189-2.832-0.903-4.658-3.467c-1.784-2.51-3.487-6.815-4.188-14.176c-1.719-17.982,6.177-51.476,9.086-68.833
			c2.929-17.34,1.348-67.955-1.093-72.021c-2.44-4.047-5.155-8.083-5.155-8.083s22.15-20.337,42.947-28.139
			c0,0,2.18,10.14,14.668,8.185c13.426-2.079,21.379-7.985,27.428-17.095c0,0,6.43,2.466,17.474,5.087
			c11.024,2.643,34.521,15.363,38.672,18.945c1.552,1.339,2.68,12.341,3.352,26.338C331.58,229.607,331.444,261.023,329.932,270.375
			z"/>
		<path style="fill:#CF774E;" d="M326.602,331.727c-6.643,1.652-13.227,3.647-19.708,6.085c-8.178,3.077-16.1,6.935-24.102,10.514
			c-4.015,1.796-8.046,3.551-12.114,5.199c-4.137,1.676-8.337,3.069-12.582,4.353c-8.491,2.569-17.162,4.608-25.881,5.204
			c-7.722,0.529-15.246-0.462-22.71-1.745c-7.627-1.311-15.255-3.113-22.563-5.639c0.11,0.17,0.219,0.355,0.33,0.511
			c1.825,2.565,3.711,3.278,4.658,3.467c0.138,0.024,0.275,0.028,0.433,0.05c0.059,0.013,0.137,0.004,0.197,0.017
			c0,0-5.458,9.829,2.516,15.872c7.973,6.043,38.824,15.023,68.924,9.386c30.099-5.656,48.622-31.634,52.531-35.817
			c3.909-4.182,3.188-8.42,3.188-8.42C322.388,339.3,324.872,335.881,326.602,331.727z"/>
		<path style="fill:#CF774E;" d="M281.026,159.222c-6.443-1.798-10.053-3.18-10.053-3.18c-6.058,9.121-14.019,15.014-27.434,17.104
			c-12.485,1.946-14.672-8.183-14.672-8.183c-2.786,1.043-5.594,2.316-8.372,3.731c2.097,4.688,4.878,9.243,9.391,11.721
			c4.957,2.721,11.045,2.513,16.722,1.652C253.876,180.966,270.509,177.058,281.026,159.222z"/>
		<path style="fill:#E69362;" d="M204.701,177.908c-3.023,0.919-21.95,12.195-25.095,13.96c-3.145,1.765-24.63,15.538-32.21,18.981
			c-7.58,3.443-14.099,10.265-11.617,13.953s18.266,20.876,23.893,22.799c5.627,1.924,13.983-1.254,22.028-3.118
			c8.045-1.864,21.342-7.967,21.342-7.967l11.647-52.178L204.701,177.908z"/>
		<path style="fill:#E69362;" d="M182.798,156.071c-0.665,1.2-1.199,2.23-1.642,3.2c-0.532,1.134-0.941,2.172-1.308,3.289
			c-0.685,2.063,0.808,4.634,0.658,8.612c-0.12,3.124-3.527,11.651-5.956,17.37c-0.01,0.022-0.01,0.032-0.01,0.032
			c-1.351,3.19-2.393,5.497-2.393,5.497s2.245,22.177,3.089,22.752l5.093,28.527c0,0-15.839,4.297-24.907,5.109
			c-9.058,0.81-20.639,1.397-26.861-3.015c-6.223-4.411-5.211-24.377-2.891-34.938c1.994-9.096,8.617-27.977,13.037-36.144
			c4.213-7.772,8.617-19.141,13.014-22.805c2.64-2.184,4.397-1.123,5.197-3.135c0.488-1.223,1.747-7.753,3.451-9.663
			c1.704-1.91,1.693-2.769,5.512-0.897c3.818,1.883,12.98,8.249,16.08,9.585C185.051,150.786,184.226,153.475,182.798,156.071z"/>
		<path style="fill:#CF774E;" d="M180.506,171.171c-0.12,3.124-3.527,11.651-5.956,17.37c0.079-0.568,1.461-10.119,1.206-15.412
			c-0.259-5.469-0.927-10.794-7.125-13.678c-9.997-4.651-11.712-8.977-11.714-9.028c0,0,6.446,4.069,13.599,7.363
			c7.043,3.244,7.642,2.222,10.639,1.484c-0.532,1.134-0.941,2.172-1.308,3.289C179.164,164.622,180.657,167.194,180.506,171.171z"
			/>
		<path style="fill:none;stroke:#CF774E;stroke-width:1.4687;stroke-miterlimit:10;" d="M165.05,232.041
			c0,0,4.05-19.457,7.081-37.977"/>
		<path style="fill:#CF774E;" d="M173.128,247.167c0,0,16.171-13.9,20.591-22.785c4.419-8.885,10.674-24.017,10.674-24.017
			s-8.322,33.423-10.652,40.097C193.74,240.461,184.04,245.132,173.128,247.167z"/>
		<path style="fill:#CF774E;" d="M187.271,356.209c4.83,0.818,11.887,1.998,22.098,3.71c28.089,4.674,47.073,0.697,77.61-14.8
			c30.537-15.497,21.575-54.16,30.177-83.218c5.162-17.431,10.139-40.12,13.307-55.485c1.117,23.191,0.98,54.607-0.532,63.959
			c-2.414,14.987-3.79,35.609-1.48,44.89c2.289,9.264-2.776,22.229-8.733,25.501c-5.558-1.542-16.044,1.761-29.632,9.313
			c-13.588,7.572-31.824,18.25-53.01,17.991c-21.165-0.242-30.455-6.983-44.517-8.327c-0.059-0.013-0.137-0.004-0.197-0.017
			c-0.158-0.022-0.295-0.026-0.433-0.05l-2.007-0.837l-0.02-0.017L187.271,356.209z"/>
		<path style="fill:none;stroke:#CF774E;stroke-width:1.4687;stroke-miterlimit:10;" d="M319.808,252.447
			c-8.153-14.594-17.341-29.574-19.423-49.706"/>
		<g>
			<path style="fill:#E7B2A1;" d="M353.211,337.03c-8.207,7.839-14.876,14.682-15.798,17.787
				c-2.148,7.205-10.971,14.759-12.285,19.144c-1.314,4.385-6.414,10.603-9.085,12.999c-1.335,1.208-2.435,1.134-3.213,0.729
				c-0.796-0.363-1.229-1.061-1.229-1.061s-3.535,4.219-5.656,4.749c-0.992,0.247-1.549-0.005-1.616-0.88
				c-0.001-0.02-0.001-0.02-0.001-0.039c-0.089-0.971,0.405-2.734,1.555-5.452c2.19-5.208,0.999-8.824,0.999-8.824
				s-0.037,0.063-0.132,0.172c-0.019,0.022-0.018,0.041-0.037,0.063c-0.376,0.513-1.333,1.914-2.256,3.724
				c-0.074,0.126-0.148,0.272-0.221,0.456c-0.665,1.31-1.245,2.827-1.59,4.337c-0.998,4.468-5.202,9.86-7.366,8.373
				c-1.063-0.746-0.754-3.41-0.044-6.432c0.018-0.041,0.018-0.061,0.037-0.083c0.746-3.105,1.932-6.573,2.554-8.644
				c1.206-4.078,2.532-7.464,2.532-7.464s-2.372-1.876-4.846-0.09c-2.494,1.768-10.132,7.738-12.693,9.847
				c-2.582,2.092-5.252,4.488-7.12,3.067c-0.141-0.102-0.242-0.228-0.325-0.356c-0.914-1.626,2.858-5.184,6.859-9.553
				c4.324-4.699,8.456-9.279,17.469-13.262c8.993-4.001,25.231-15.87,30.313-21.419c2.218-2.424,5.173-6.403,8.438-11.083
				c2.416,2.008,5.059,3.756,7.718,5.384C348.449,334.614,350.784,335.906,353.211,337.03z"/>
			<path style="fill:#D49684;" d="M304.125,365.752c-0.183,0.432-3.092,7.094-4.92,11.359c-1.06,2.473-2.697,6.579-3.933,9.68
				c0.746-3.105,1.932-6.573,2.554-8.644c1.206-4.078,2.532-7.464,2.532-7.464s-2.372-1.876-4.846-0.09
				c-2.494,1.768-10.132,7.738-12.693,9.847c-2.582,2.092-5.252,4.488-7.12,3.067c-0.141-0.102-0.242-0.228-0.325-0.356
				c4.662-2.048,13.391-7.59,15.728-10.008c2.601-2.722,5.667-4.397,8.148-5.32C301.594,366.975,303.835,365.883,304.125,365.752z"
				/>
			<path style="fill:#D49684;" d="M311.288,366.566c-0.222,1.045-2.512,11.877-3.079,13.805c-0.603,2.029-1.095,3.242-2.488,6.36
				c-0.476,1.073-0.964,2.423-1.393,3.727c-0.089-0.971,0.405-2.734,1.555-5.452c2.19-5.208,0.999-8.824,0.999-8.824
				s-0.037,0.063-0.132,0.172c0.446-0.795,0.89-1.649,1.251-2.631C308.945,371.281,310.955,367.212,311.288,366.566z"/>
			<path style="fill:#D49684;" d="M318.643,373.522c-0.08,0.578-1.112,6.462-2.569,8.783c-0.635,1.012-1.921,3.177-3.244,5.384
				c-0.796-0.363-1.229-1.061-1.229-1.061s3.032-5.262,4.119-7.483C316.754,377.068,318.439,373.898,318.643,373.522z"/>
		</g>
		<g>
			<path style="fill:#E69362;" d="M295.084,163.301c12.426,3.722,32.352,10.517,41.633,24.37
				c9.281,13.852,45.077,71.602,52.262,83.746c7.185,12.145,7.691,29.408-7.196,49.406c-10.171,13.662-24.336,34.59-31.013,38.694
				s-12.208,1.355-12.208,1.355s-3.922,5.161-8.606,7.724c-4.684,2.563-19.792-7.975-17.28-14.726
				c2.511-6.751,5.12-10.778,5.12-10.778s-5.016-1.446,5.257-21.194c10.273-19.749,20.115-34.062,20.115-34.062
				s-22.828-33.591-29.544-52.49C306.906,216.448,295.084,163.301,295.084,163.301z"/>
			<path style="fill:#CF774E;" d="M374.281,326.046c-3.409,4.356-13.717,20.786-17.875,23.57c-4.378,2.93-7.931,4.804-13.02,4.945
				c-4.802,0.134-9.216-1.214-13.496-2.962c-4.389-1.792-9.082-4.345-12.436-7.95c-0.243,0.407-0.607,1.045-1.062,1.899
				c0.882,1.906,1.992,3.692,3.094,5.278c1.867,2.687,5.074,5.164,4.855,8.884c-0.151,2.571-1.858,4.748-3.89,6.316
				c3.614,2.363,7.506,3.663,9.503,2.57c4.684-2.563,8.606-7.724,8.606-7.724s5.531,2.75,12.208-1.355
				c6.678-4.104,21.836-25.867,31.746-39.719c5.121-7.158,9.205-13.355,10.367-21.878
				C386.817,307.384,381.236,317.159,374.281,326.046z"/>
			<path style="fill:none;stroke:#CF774E;stroke-width:1.4687;stroke-miterlimit:10;" d="M343.166,287.836
				c0,0,1.081-5.326,10.751-11.526"/>
		</g>
		<g>
			<g>
				<path style="fill:#4A3227;" d="M232.25,112.33c0,0,2.922,0.658,6.14-0.723c4.998-2.145,5.957-6.33,5.957-6.33
					S240.231,110.78,232.25,112.33z"/>
			</g>
			<g>
				<path style="fill:#4A3227;" d="M220.007,116.887c0,0-1.875,2.443-5.04,3.438c-4.915,1.545-7.831-1.198-7.831-1.198
					S213.136,120.864,220.007,116.887z"/>
			</g>
		</g>
	</g>
</g>
</svg>
