<?xml version="1.0" encoding="utf-8"?>
<!-- Generator: Adobe Illustrator 27.5.0, SVG Export Plug-In . SVG Version: 6.00 Build 0)  -->
<svg version="1.1" xmlns="http://www.w3.org/2000/svg" xmlns:xlink="http://www.w3.org/1999/xlink" x="0px" y="0px"
	 viewBox="0 0 500 500" style="enable-background:new 0 0 500 500;" xml:space="preserve">
<g id="Background_Complete">
	<rect x="416.779" y="398.494" style="fill:#EBEBEB;" width="33.122" height="0.25"/>
	<rect x="322.527" y="401.208" style="fill:#EBEBEB;" width="8.693" height="0.25"/>
	<rect x="396.586" y="389.208" style="fill:#EBEBEB;" width="19.192" height="0.25"/>
	<rect x="52.459" y="390.888" style="fill:#EBEBEB;" width="43.193" height="0.25"/>
	<rect x="104.556" y="390.888" style="fill:#EBEBEB;" width="6.333" height="0.25"/>
	<rect x="131.471" y="395.111" style="fill:#EBEBEB;" width="93.676" height="0.25"/>
	<g>
		<path style="fill:#EBEBEB;" d="M238.401,337.8H45.302c-3.147,0-5.708-2.561-5.708-5.708V60.66c0-3.147,2.561-5.708,5.708-5.708
			h193.099c3.146,0,5.707,2.561,5.707,5.708v271.432C244.108,335.239,241.547,337.8,238.401,337.8z M45.302,55.203
			c-3.01,0-5.458,2.448-5.458,5.458v271.432c0,3.01,2.448,5.458,5.458,5.458h193.099c3.009,0,5.457-2.448,5.457-5.458V60.66
			c0-3.009-2.448-5.458-5.457-5.458H45.302z"/>
		<g>
			<path style="fill:#EBEBEB;" d="M454.698,337.8H261.599c-3.146,0-5.707-2.561-5.707-5.708V60.66c0-3.147,2.561-5.708,5.707-5.708
				h193.099c3.148,0,5.708,2.561,5.708,5.708v271.432C460.406,335.239,457.845,337.8,454.698,337.8z M261.599,55.203
				c-3.009,0-5.457,2.448-5.457,5.458v271.432c0,3.01,2.448,5.458,5.457,5.458h193.099c3.01,0,5.458-2.448,5.458-5.458V60.66
				c0-3.009-2.448-5.458-5.458-5.458H261.599z"/>
		</g>
	</g>
	<rect y="382.398" style="fill:#EBEBEB;" width="500" height="0.25"/>
	<g>
		<g>
			<rect x="53.376" y="181.59" style="fill:#EBEBEB;" width="109.892" height="200.662"/>
			<rect x="69.49" y="157.058" style="fill:#F0F0F0;" width="77.665" height="13.312"/>
			<rect x="59.029" y="186.462" style="fill:#FAFAFA;" width="98.586" height="195.79"/>
			<rect x="59.029" y="275.018" style="fill:#F0F0F0;" width="98.586" height="24.92"/>
			<rect x="59.029" y="357.611" style="fill:#F0F0F0;" width="98.586" height="24.92"/>
			<path style="fill:#FFFFFF;" d="M151.013,296.798v-19.624c0.004-1.045-0.84-1.895-1.884-1.899c-0.005,0-0.01,0-0.014,0l0,0
				c-1.049,0-1.899,0.85-1.899,1.899v19.624c0,1.049,0.85,1.899,1.899,1.899l0,0C150.163,298.697,151.013,297.847,151.013,296.798z"
				/>
			<g>
				<rect x="66.73" y="189.547" style="fill:#E0E0E0;" width="17.153" height="82.436"/>
				<rect x="68.446" y="191.377" style="fill:#EBEBEB;" width="13.846" height="78.749"/>
				<polygon style="fill:#F5F5F5;" points="82.292,202.512 68.446,207.952 68.446,221.292 82.292,215.852 				"/>
				<polygon style="fill:#F5F5F5;" points="82.292,218.576 68.446,224.015 68.446,229.124 82.292,223.684 				"/>
				<polygon style="fill:#F5F5F5;" points="82.292,246.334 68.446,251.77 68.446,256.879 82.292,251.439 				"/>
			</g>
		</g>
		<g>
			<path style="fill:#F5F5F5;" d="M387.421,108.029c0,2.291-0.933,4.374-2.436,5.878c-1.504,1.504-3.586,2.436-5.878,2.436H318
				c-4.583,0-8.305-3.722-8.305-8.314c0-2.291,0.933-4.375,2.436-5.878c1.503-1.503,3.577-2.436,5.869-2.436h61.107
				C383.698,99.715,387.421,103.437,387.421,108.029z"/>
			<path style="fill:#E6E6E6;" d="M362.746,100.902v14.316h-44.203c-3.946,0-7.15-3.205-7.15-7.158c0-1.973,0.803-3.766,2.098-5.06
				c1.294-1.294,3.08-2.098,5.053-2.098H362.746z"/>
		</g>
		<g>
			<g>
				<path style="fill:#F5F5F5;" d="M314.371,144.209c0,6.2-4.841,11.272-10.947,11.642c-0.238,0.015-31.289,0.011-31.583-0.011
					c-6.023-0.457-10.77-5.491-10.77-11.631c0-6.087,4.664-11.087,10.615-11.615c0.483-8.78,7.76-15.754,16.664-15.754
					c8.965,0,16.279,7.069,16.672,15.935C310.357,133.848,314.371,138.56,314.371,144.209z"/>
			</g>
			<polygon style="fill:#E6E6E6;" points="298.525,173.215 288.095,183.646 277.664,173.215 281.773,173.215 281.773,155.985 
				295.025,155.985 295.025,173.215 			"/>
		</g>
		<g>
			<g>
				<path style="fill:#E0E0E0;" d="M421.867,273.708c0-1.478-0.218-2.907-0.628-4.25l3.729-3.28l-2.348-4.067l-4.706,1.592
					c-1.947-2.079-4.492-3.587-7.361-4.254l-0.977-4.868h-4.696l-0.974,4.868c-2.869,0.666-5.417,2.175-7.364,4.254l-4.706-1.592
					l-2.348,4.067l3.729,3.28c-0.407,1.343-0.628,2.772-0.628,4.25c0,1.481,0.221,2.907,0.628,4.254l-3.729,3.276l2.348,4.067
					l4.706-1.592c1.947,2.078,4.495,3.587,7.364,4.257l0.974,4.868h4.696l0.977-4.868c2.869-0.67,5.414-2.179,7.361-4.257
					l4.706,1.592l2.348-4.067l-3.729-3.276C421.649,276.616,421.867,275.19,421.867,273.708z M407.228,281.612
					c-4.202,0-7.606-3.408-7.606-7.609c0-4.202,3.404-7.61,7.606-7.61c4.202,0,7.61,3.408,7.61,7.61
					C414.837,278.204,411.43,281.612,407.228,281.612z"/>
			</g>
			<g>
				<path style="fill:#EBEBEB;" d="M442.627,286.842c-0.402-1.003-0.939-1.913-1.583-2.712l1.637-3.24l-2.7-2.12l-2.759,2.361
					c-1.887-0.88-4.023-1.211-6.151-0.882l-1.988-3.036l-3.185,1.278l0.664,3.567c-1.765,1.233-3.083,2.95-3.838,4.89l-3.625,0.201
					l-0.486,3.398l3.422,1.21c0.089,1.022,0.328,2.052,0.73,3.054c0.403,1.005,0.941,1.912,1.584,2.715l-1.638,3.238l2.7,2.12
					l2.759-2.36c1.887,0.88,4.026,1.21,6.154,0.884l1.985,3.038l3.185-1.278l-0.662-3.568c1.764-1.235,3.08-2.951,3.835-4.891
					l3.626-0.201l0.486-3.398l-3.421-1.208C443.271,288.874,443.03,287.847,442.627,286.842z M434.847,296.188
					c-2.85,1.143-6.087-0.242-7.231-3.092c-1.144-2.85,0.238-6.089,3.089-7.232c2.85-1.144,6.09,0.241,7.233,3.091
					C439.082,291.805,437.697,295.044,434.847,296.188z"/>
			</g>
		</g>
		<g>
			<g>
				
					<rect x="392.835" y="160.128" transform="matrix(0.0052 -1 1 0.0052 226.5171 606.2496)" style="fill:#E0E0E0;" width="50.285" height="58.285"/>
				
					<rect x="388.992" y="154.72" transform="matrix(-1 -0.0052 0.0052 -1 835.4263 321.0394)" style="fill:#E6E6E6;" width="58.285" height="9.408"/>
				<polygon style="fill:#F5F5F5;" points="387.004,212.843 445.288,213.148 447.251,164.281 388.967,163.976 				"/>
				<polygon style="fill:#EBEBEB;" points="401.928,176.051 430.78,176.202 431.126,167.602 402.274,167.451 				"/>
				<polygon style="fill:#E0E0E0;" points="435.191,187.336 442.897,187.377 443.206,179.672 435.5,179.632 				"/>
				<polygon style="fill:#E0E0E0;" points="424.259,187.279 431.965,187.32 432.275,179.615 424.569,179.575 				"/>
				<g>
					<polygon style="fill:#E0E0E0;" points="434.773,197.728 442.479,197.769 442.789,190.064 435.083,190.024 					"/>
				</g>
				<g>
					<polygon style="fill:#EBEBEB;" points="434.356,208.12 442.062,208.161 442.371,200.456 434.665,200.416 					"/>
				</g>
				<polygon style="fill:#E0E0E0;" points="423.842,197.671 431.548,197.711 431.857,190.007 424.151,189.967 				"/>
				<polygon style="fill:#E0E0E0;" points="412.91,197.614 420.616,197.654 420.926,189.95 413.22,189.909 				"/>
				<polygon style="fill:#E0E0E0;" points="401.979,197.556 409.685,197.597 409.994,189.892 402.288,189.852 				"/>
				<polygon style="fill:#E0E0E0;" points="391.047,197.499 398.753,197.539 399.063,189.835 391.357,189.795 				"/>
				<polygon style="fill:#EBEBEB;" points="423.424,208.063 431.13,208.103 431.44,200.399 423.734,200.359 				"/>
				<polygon style="fill:#EBEBEB;" points="412.493,208.006 420.199,208.046 420.508,200.342 412.802,200.301 				"/>
				<polygon style="fill:#E0E0E0;" points="401.561,207.948 409.267,207.989 409.577,200.284 401.871,200.244 				"/>
				<polygon style="fill:none;" points="413.328,187.222 421.034,187.262 421.343,179.558 413.637,179.517 				"/>
				<polygon style="fill:#EBEBEB;" points="413.328,187.222 421.034,187.262 421.343,179.558 413.637,179.517 				"/>
				<polygon style="fill:none;" points="402.396,187.164 410.102,187.205 410.412,179.5 402.706,179.46 				"/>
				<polygon style="fill:#EBEBEB;" points="402.396,187.164 410.102,187.205 410.412,179.5 402.706,179.46 				"/>
				<polygon style="fill:none;" points="391.465,187.107 399.171,187.148 399.48,179.443 391.774,179.403 				"/>
				<polygon style="fill:#EBEBEB;" points="391.465,187.107 399.171,187.148 399.48,179.443 391.774,179.403 				"/>
				<polygon style="fill:#E0E0E0;" points="390.63,207.891 398.336,207.931 398.645,200.227 390.939,200.187 				"/>
			</g>
			<path style="fill:#E6E6E6;" d="M417.978,152.156c-1.859,0-3.366,1.507-3.366,3.366c0,1.859,1.507,3.366,3.366,3.366
				c1.859,0,3.366-1.507,3.366-3.366C421.343,153.663,419.836,152.156,417.978,152.156z M417.978,158.077
				c-1.411,0-2.556-1.144-2.556-2.556c0-1.411,1.144-2.555,2.556-2.555c1.411,0,2.555,1.144,2.555,2.555
				C420.533,156.933,419.389,158.077,417.978,158.077z"/>
		</g>
	</g>
</g>
<g id="Background_Simple" style="display:none;">
	<path style="display:inline;fill:#EBEBEB;" d="M-88.921,392.426c0.238,0,0.475,0,0.713,0"/>
	<g style="display:inline;">
		<g>
			<path style="fill:#407BFF;" d="M166.486,69.151c-34.434,5.828-72.926,29.682-89.354,58.289
				c-16.427,28.608-20.45,62.597-14.254,94.482c6.195,31.885,22.179,61.724,43.285,87.569
				c28.457,34.845,69.914,62.962,116.326,70.89c44.974,7.682,92.726-10.497,131.46-32.999
				c38.734-22.502,69.722-57.475,81.803-98.296c4.727-15.972,6.443-33.502-0.569-48.737c-9.793-21.277-35.153-33.739-60.068-35.531
				c-24.914-1.792-40.145,5.342-63.383,13.849C304.52,156.69,279.584,50.009,166.486,69.151z"/>
		</g>
		<g style="opacity:0.9;">
			<path style="fill:#FFFFFF;" d="M166.486,69.151c-34.434,5.828-72.926,29.682-89.354,58.289
				c-16.427,28.608-20.45,62.597-14.254,94.482c6.195,31.885,22.179,61.724,43.285,87.569
				c28.457,34.845,69.914,62.962,116.326,70.89c44.974,7.682,92.726-10.497,131.46-32.999
				c38.734-22.502,69.722-57.475,81.803-98.296c4.727-15.972,6.443-33.502-0.569-48.737c-9.793-21.277-35.153-33.739-60.068-35.531
				c-24.914-1.792-40.145,5.342-63.383,13.849C304.52,156.69,279.584,50.009,166.486,69.151z"/>
		</g>
	</g>
</g>
<g id="Shadow">
	<ellipse id="_x3C_Path_x3E__359_" style="fill:#F5F5F5;" cx="250" cy="415.693" rx="193.889" ry="11.323"/>
</g>
<g id="Character">
	<g>
		<g>
			<g>
				<g>
					<path style="fill:#B25B52;" d="M326.686,229.721l-10.617,0.544l-4.062-3.47c-0.465-0.397-1.052-0.622-1.663-0.637l-3.772-0.095
						c-0.84-0.021-1.64,0.355-2.16,1.015l-1.075,1.365c-0.367,0.466-0.568,1.041-0.571,1.634l-0.009,1.777
						c-0.006,1.063,0.621,2.027,1.594,2.454l5.952,2.609c0.466,0.204,0.981,0.271,1.483,0.192l4.562-0.718l12.628,0.692
						L326.686,229.721z"/>
				</g>
				<g>
					<path style="fill:#263238;" d="M322.92,236.253c0.017,1.239,0.922,2.283,2.144,2.492c3.261,0.557,9.566,1.01,15.11-2.23
						c7.893-4.613,6.168-31.128,4.538-38.094c-1.824-7.793-2.022-13.369-2.022-13.369c-4.739,0.917-10.464,5.556-10.721,14.587
						c-0.257,9.03,1.939,23.514,1.499,25.894c-0.282,1.528-5.338,1.998-8.922,2.139c-1.648,0.065-2.821,1.636-2.389,3.228
						C322.546,232.334,322.891,234.176,322.92,236.253z"/>
				</g>
				<path style="opacity:0.5;fill:#FFFFFF;" d="M322.92,236.253c0.017,1.239,0.922,2.283,2.144,2.492
					c3.261,0.557,9.566,1.01,15.11-2.23c7.893-4.613,6.168-31.128,4.538-38.094c-1.824-7.793-2.022-13.369-2.022-13.369
					c-3.906,0.482-10.464,5.556-10.721,14.587c-0.257,9.03,1.939,23.514,1.499,25.894c-0.282,1.528-5.338,1.998-8.922,2.139
					c-1.648,0.065-2.821,1.636-2.389,3.228C322.546,232.334,322.891,234.176,322.92,236.253z"/>
			</g>
			<g>
				<g>
					<g>
						<polygon style="fill:#B25B52;" points="347.839,411.351 340.254,411.351 339.932,393.796 347.516,393.796 						"/>
						<path style="fill:#263238;" d="M340.328,410.476h8.294c0.306-0.001,0.569,0.216,0.627,0.516l1.336,6.718
							c0.117,0.62-0.291,1.218-0.911,1.335c-0.07,0.013-0.142,0.02-0.213,0.02c-2.986-0.055-7.299-0.23-11.059-0.23
							c-4.387,0-4.746,0.24-9.888,0.24c-3.115,0-3.898-3.142-2.59-3.428c5.962-1.299,7.372-1.438,12.57-4.608
							C339.043,410.687,339.677,410.493,340.328,410.476z"/>
						<polygon style="opacity:0.2;" points="339.932,393.805 340.098,402.855 347.682,402.855 347.516,393.805 						"/>
						<path style="fill:#407BFF;" d="M336.974,410.496c-0.641,0.06-1.282-0.103-1.816-0.463c-0.243-0.216-0.36-0.541-0.309-0.863
							c0.012-0.196,0.126-0.372,0.3-0.463c0.908-0.517,3.886,1.008,4.222,1.189c0.086,0.041,0.122,0.144,0.081,0.23
							c-0.026,0.053-0.077,0.09-0.135,0.097C338.545,410.387,337.761,410.478,336.974,410.496z M335.684,408.944
							c-0.115-0.002-0.229,0.02-0.336,0.064c-0.068,0.039-0.109,0.112-0.109,0.191c-0.038,0.212,0.038,0.429,0.2,0.572
							c0.445,0.408,1.67,0.481,3.332,0.2C337.808,409.455,336.764,409.108,335.684,408.944z"/>
						<path style="fill:#407BFF;" d="M339.316,410.233h-0.073c-0.908-0.409-2.633-2.016-2.479-2.869c0-0.191,0.182-0.445,0.672-0.49
							c0.352-0.043,0.705,0.066,0.972,0.3c0.908,0.781,1.08,2.796,1.089,2.878c0.001,0.063-0.025,0.123-0.073,0.164
							C339.391,410.228,339.353,410.235,339.316,410.233z M337.546,407.237h-0.109c-0.318,0-0.345,0.154-0.354,0.2
							c-0.091,0.499,1.089,1.77,1.997,2.324c-0.057-0.844-0.374-1.65-0.908-2.306C337.998,407.305,337.775,407.228,337.546,407.237z
							"/>
					</g>
					<g>
						<polygon style="fill:#B25B52;" points="403.287,406.381 396.048,408.642 390.507,391.981 397.746,389.72 						"/>
						<path style="fill:#263238;" d="M395.857,407.785l7.917-2.472c0.292-0.092,0.607,0.036,0.752,0.306l3.278,6.014
							c0.297,0.557,0.085,1.249-0.472,1.546c-0.063,0.034-0.129,0.061-0.198,0.083c-2.867,0.837-7.036,1.956-10.624,3.077
							c-4.187,1.307-4.459,1.643-9.367,3.176c-2.973,0.928-4.658-1.838-3.494-2.5c5.304-3.018,6.609-3.57,10.625-8.145
							C394.693,408.369,395.241,407.995,395.857,407.785z"/>
						<polygon style="opacity:0.2;" points="390.509,391.99 393.726,401.665 400.966,399.404 397.749,389.729 						"/>
						<path style="fill:#407BFF;" d="M392.661,408.804c-0.593,0.249-1.255,0.284-1.871,0.099c-0.296-0.134-0.505-0.409-0.552-0.731
							c-0.047-0.191,0.009-0.392,0.148-0.531c0.712-0.765,4.01-0.197,4.384-0.123c0.094,0.014,0.16,0.101,0.146,0.196
							c-0.008,0.059-0.046,0.109-0.1,0.133C394.129,408.231,393.408,408.552,392.661,408.804z M390.968,407.706
							c-0.11,0.033-0.213,0.087-0.302,0.161c-0.053,0.058-0.071,0.14-0.047,0.215c0.027,0.214,0.164,0.399,0.361,0.486
							c0.547,0.257,1.738-0.039,3.24-0.803C393.147,407.561,392.047,407.541,390.968,407.706z"/>
						<path style="fill:#407BFF;" d="M394.819,407.854l-0.069,0.022c-0.988-0.119-3.114-1.139-3.221-2
							c-0.057-0.182,0.041-0.479,0.495-0.668c0.323-0.146,0.693-0.147,1.017-0.004c1.099,0.475,1.865,2.347,1.898,2.423
							c0.02,0.059,0.013,0.125-0.021,0.178C394.888,407.828,394.855,407.845,394.819,407.854z M392.236,405.522l-0.104,0.033
							c-0.303,0.095-0.283,0.25-0.278,0.296c0.062,0.504,1.568,1.365,2.599,1.623c-0.306-0.789-0.849-1.464-1.554-1.931
							C392.688,405.453,392.451,405.445,392.236,405.522z"/>
					</g>
					<g>
						<g>
							<g>
								<g>
									<path style="fill:#263238;" d="M335.055,253.141l1.715,88.974l0.457,54.265c0.038,1.566,1.167,2.814,2.547,2.814h9.024
										c1.308,0,2.404-1.119,2.534-2.598c1.076-12.177,5.387-31.485,3.461-54.237c0,0,6.48-59.724,6.87-77.954l-1.461-16.215
										L335.055,253.141z"/>
									<path style="opacity:0.1;fill:#FFFFFF;" d="M335.055,253.141l1.715,88.974l0.457,54.265
										c0.038,1.566,1.167,2.814,2.547,2.814h9.024c1.308,0,2.404-1.119,2.534-2.598c1.076-12.177,5.387-31.485,3.461-54.237
										c0,0,6.48-59.724,6.87-77.954l-1.461-16.215L335.055,253.141z"/>
									<path style="opacity:0.1;" d="M355.951,270.308c0,0-0.994,21.572,1.539,45.956c0,0,2.181-24.495,3.392-34.306
										L355.951,270.308z"/>
									<path style="fill:#263238;" d="M350.759,253.768l19.087,90.738l18.375,52.871c0.499,1.4,1.881,2.103,3.133,1.596
										l9.411-3.461c1.211-0.491,1.892-1.945,1.568-3.357c-2.661-11.598-4.964-30.847-13.774-50.721
										c0,0-5.263-57.561-12.336-88.344L350.759,253.768z"/>
									<path style="opacity:0.1;fill:#FFFFFF;" d="M350.759,253.768l19.087,90.738l18.375,52.871
										c0.499,1.4,1.881,2.103,3.133,1.596l9.411-3.461c1.211-0.491,1.892-1.945,1.568-3.357
										c-2.661-11.598-4.964-30.847-13.774-50.721c0,0-5.263-57.561-12.336-88.344L350.759,253.768z"/>
									<path style="fill:#B25B52;" d="M362.357,181.611c-1.547-4.786-1.221-11.653-0.703-15.951l-10.376,10.258
										c0.612,1.858,0.944,3.858,0.656,5.703c-0.144,0.922-0.871,1.644-1.798,1.75l-4.413,1.381l-0.521,3.417l2.666,0.689
										l3.584,3.66l8.637-3.66l9.256-4.303c0,0-1.68-0.62-4.312-0.808C364.051,183.676,362.66,182.548,362.357,181.611z"/>
									<path style="opacity:0.2;enable-background:new    ;" d="M357.433,170.634l-5.978,5.858
										c0.319,1.092,0.529,2.22,0.571,3.329c2.436-0.56,5.426-2.856,6.193-5.617C358.724,172.503,358.083,170.781,357.433,170.634
										z"/>
									<path style="fill:#B25B52;" d="M363.22,157.896c-0.445,7.884-0.315,12.516-4.28,16.571
										c-5.955,6.112-15.702,2.52-17.604-5.316c-1.724-7.108-0.688-18.772,7.011-21.936c5.484-2.287,11.783,0.304,14.07,5.788
										C363.063,154.549,363.337,156.225,363.22,157.896z"/>
									<path style="fill:#263238;" d="M350.702,159.976c-0.06,0.643-0.443,1.131-0.862,1.09c-0.419-0.041-0.706-0.586-0.647-1.229
										c0.06-0.642,0.443-1.122,0.863-1.081C350.476,158.798,350.763,159.343,350.702,159.976z"/>
									<path style="fill:#263238;" d="M343.486,159.443c-0.061,0.634-0.444,1.122-0.863,1.081
										c-0.419-0.041-0.707-0.586-0.646-1.22c0.061-0.634,0.442-1.131,0.862-1.09
										C343.259,158.255,343.546,158.801,343.486,159.443z"/>
									<path style="fill:#263238;" d="M353.522,157.006c0.063-0.014,0.123-0.04,0.175-0.078c0.129-0.16,0.113-0.393-0.037-0.534
										c-0.9-0.812-2.134-1.144-3.319-0.893c-0.201,0.057-0.319,0.266-0.262,0.467c0.057,0.201,0.266,0.319,0.467,0.262l0,0
										c0.94-0.189,1.914,0.084,2.618,0.735C353.268,157.04,353.403,157.055,353.522,157.006z"/>
									<path style="fill:#263238;" d="M340.754,156.485c0.114,0.059,0.25,0.054,0.36-0.013c0.811-0.498,1.81-0.582,2.692-0.226
										c0.185,0.094,0.412,0.019,0.505-0.166c0.094-0.185,0.019-0.412-0.166-0.505c-1.117-0.481-2.398-0.391-3.437,0.242
										c-0.176,0.098-0.24,0.321-0.141,0.497c0.002,0.003,0.004,0.006,0.006,0.01
										C340.612,156.396,340.677,156.454,340.754,156.485z"/>
									<path style="fill:#263238;" d="M363.11,161.352c-1.155-1.155-2.692-1.792-4.326-1.792h-3.628
										c-0.132-2.036-1.813-3.656-3.882-3.656c-2.007,0-3.646,1.527-3.863,3.477c-0.275-0.11-0.584-0.11-0.859,0
										c-0.217-1.95-1.856-3.477-3.863-3.477c-2.154,0-3.906,1.752-3.906,3.906s1.752,3.907,3.906,3.907
										c2.107,0,3.818-1.68,3.892-3.77c0.236-0.188,0.564-0.188,0.8,0c0.074,2.089,1.785,3.77,3.893,3.77
										c2.068,0,3.75-1.621,3.882-3.657h3.628c1.501,0,2.911,0.584,3.972,1.645l1.171,1.171l0.353-0.354L363.11,161.352z
										 M342.689,163.217c-1.878,0-3.406-1.528-3.406-3.407c0-1.878,1.528-3.406,3.406-3.406c1.878,0,3.406,1.528,3.406,3.406
										C346.096,161.689,344.567,163.217,342.689,163.217z M351.274,163.217c-1.878,0-3.406-1.528-3.406-3.407
										c0-1.878,1.528-3.406,3.406-3.406c1.879,0,3.407,1.528,3.407,3.406C354.681,161.689,353.153,163.217,351.274,163.217z"/>
									<path style="fill:#263238;" d="M360.543,156.021c-0.688,1.958-0.671,4.156,0.048,6.103c0.452-0.212,0.67-0.264,1.168-0.305
										c0.498-0.041,1.044,0.128,1.32,0.544c0.319,0.48,0.196,1.115,0.059,1.675c-0.612,2.498-1.287,4.979-2.025,7.443
										c3.953-3.942,6.373-9.352,6.859-14.913C365.635,156.363,362.88,156.226,360.543,156.021z"/>
									<path style="fill:#B25B52;" d="M367.099,165.231c-1.055,1.678-2.728,2.874-4.658,3.327
										c-2.571,0.566-3.718-1.755-2.889-4.109c0.743-2.11,2.979-4.961,5.498-4.486
										C367.57,160.439,368.372,163.145,367.099,165.231z"/>
									<path style="fill:#9D2724;" d="M346.582,159.829c-1.11,1.787-2.222,3.412-3.776,4.829c0.952,1.252,2.914,1.129,2.914,1.129
										L346.582,159.829z"/>
									<path style="fill:#407BFF;" d="M370.082,184.11c0,0-0.309-0.115-0.942-0.273l-1.34-0.134l-2.021-0.472l-0.034,0.023
										c-0.663,0.462-10.241,7.051-13.345,8.372l-0.948,0.172c-2.762-4.031-2.762-8.567-2.762-8.567l-1.1,0.079
										c-0.488,0.508-1.258,0.663-1.258,0.663c-0.309,0.045-0.614,0.088-0.93,0.137l-2.848,2.118c0,0-6.043,13.146-7.499,45.792
										l-0.48,24.687h46.42L370.082,184.11z"/>
									<g style="opacity:0.4;enable-background:new    ;">
										<path d="M350.061,189.242c0.012,0.036,0.024,0.072,0.048,0.108l-0.048-0.096V189.242z"/>
									</g>
									<path style="fill:#407BFF;" d="M350.061,189.242c0.012,0.036,0.024,0.072,0.048,0.108l-0.048-0.096V189.242z"/>
									<g>
										<path style="fill:#263238;" d="M348.689,183.234c0,0-6.573,2.775-8.983,20.522c-2.41,17.747-3.378,51.055-2.629,66.607
											c0.308,6.401,1.339,12.759-3.481,12.102c0,0-0.243-12.102,0.195-39.928C334.228,214.711,331.38,183.745,348.689,183.234z"
											/>
									</g>
									<g style="opacity:0.6;">
										<path style="fill:#FFFFFF;" d="M348.689,183.234c0,0-6.573,2.775-8.983,20.522c-2.41,17.747-2.346,34.741-2.895,53.357
											c-0.458,15.563,2.777,26.135-3.216,25.352c0,0-0.243-12.102,0.195-39.928C334.228,214.711,331.38,183.745,348.689,183.234
											z"/>
									</g>
									<g>
										<g>
											<path style="fill:#263238;" d="M368.408,183.234c0,0-7.888,4.382-8.764,32.135c-0.877,27.753-2.193,67.753,7.155,68.63
												c9.348,0.876,19.573-4.382,19.573-4.382s0.944,2.518-0.801-10.234c-1.457-10.649-3.932-23.172-4.894-33.272
												c-1.112-11.677,5.258-43.82,1.168-47.034C377.756,185.863,368.408,183.234,368.408,183.234z"/>
										</g>
										<path style="opacity:0.6;fill:#FFFFFF;" d="M368.408,183.234c0,0-7.888,4.382-8.764,32.135
											c-0.877,27.753-2.193,67.753,7.155,68.63c9.348,0.876,19.573-4.382,19.573-4.382s0.944,2.518-0.801-10.234
											c-1.457-10.649-3.932-23.172-4.894-33.272c-1.112-11.677,5.258-43.82,1.168-47.034
											C377.756,185.863,368.408,183.234,368.408,183.234z"/>
										<g style="opacity:0.3;">
											<path d="M374.5,261.179l-6.532,0.94c-1.789,0.257-3.449-0.985-3.706-2.774l-0.179-1.242l13.012-1.871l0.179,1.242
												C377.531,259.263,376.289,260.922,374.5,261.179z"/>
										</g>
										<g>
											<path style="fill:#B25B52;" d="M372.077,229.553l-10.534,1.436l-4.34-3.116c-0.497-0.356-1.101-0.531-1.711-0.495
												l-3.766,0.223c-0.839,0.05-1.605,0.492-2.067,1.193l-0.956,1.451c-0.326,0.495-0.478,1.085-0.431,1.676l0.14,1.771
												c0.084,1.06,0.789,1.968,1.795,2.311l6.15,2.099c0.482,0.164,1,0.187,1.495,0.066l4.485-1.099l12.641-0.374
												L372.077,229.553z"/>
										</g>
										<g>
											<path style="fill:#263238;" d="M368.874,236.378c0.121,1.233,1.111,2.198,2.346,2.302
												c3.296,0.28,9.617,0.201,14.868-3.495c7.476-5.262,3.525-31.537,1.314-38.341c-2.473-7.612-8.151-9.731-8.151-9.731
												c-7.06-4.037-7.329,3.199-6.825,12.219c0.505,9.02,6.294,23.066,6.056,25.474c-0.153,1.546-5.151,2.44-8.711,2.883
												c-1.637,0.203-2.674,1.868-2.109,3.418C368.172,232.505,368.671,234.311,368.874,236.378z"/>
										</g>
										<path style="opacity:0.2;enable-background:new    ;" d="M372.426,199.333l2.552,27.439c0,0,7.836,2.426,6.696-5.265
											c-1.139-7.691-9.357-24.462-9.357-24.462L372.426,199.333z"/>
										<path style="opacity:0.6;fill:#FFFFFF;" d="M368.874,236.378c0.121,1.233,1.111,2.198,2.346,2.302
											c3.296,0.28,9.617,0.201,14.868-3.495c7.476-5.262,3.525-31.537,1.314-38.341c-2.473-7.612-8.151-9.731-8.151-9.731
											c-7.06-4.037-7.329,3.199-6.825,12.219c0.505,9.02,6.294,23.066,6.056,25.474c-0.153,1.546-5.151,2.44-8.711,2.883
											c-1.637,0.203-2.674,1.868-2.109,3.418C368.172,232.505,368.671,234.311,368.874,236.378z"/>
									</g>
								</g>
								<path style="fill:#263238;" d="M348.481,169.226c1.428-0.32,2.661-1.213,3.413-2.468c0.048-0.089,0.016-0.201-0.073-0.251
									c-0.092-0.043-0.202-0.008-0.251,0.081c-0.838,1.355-2.259,2.243-3.845,2.402c-0.103,0.003-0.183,0.089-0.18,0.192
									c0.003,0.102,0.089,0.183,0.192,0.18c0.008,0,0.017-0.001,0.025-0.003C348.004,169.331,348.245,169.286,348.481,169.226z"/>
							</g>
						</g>
					</g>
				</g>
			</g>
		</g>
		<path style="fill:#407BFF;" d="M365.74,183.248l-14.601,13.797l-0.563-1.031c-2.11-3.908-2.781-8.439-1.882-12.779
			c0,0,0,2.829,1.367,6.006l1.726-4.196c0.06,1.582,0.575,3.32,0.575,3.32l0.983-1.031l2.865,2.182
			C360.19,187.084,365.273,183.583,365.74,183.248z"/>
		<path style="opacity:0.2;fill:#FFFFFF;enable-background:new    ;" d="M365.74,183.248l-14.601,13.797l-0.563-1.031
			c-2.11-3.908-2.781-8.439-1.882-12.779c0,0,0,2.829,1.367,6.006l1.726-4.196c0.06,1.582,0.575,3.32,0.575,3.32l0.983-1.031
			l2.865,2.182C360.19,187.084,365.273,183.583,365.74,183.248z"/>
		<path style="fill:#407BFF;" d="M352.358,188.361c-2.233,1.3-4.173,2.592-6.083,4.331c0.154-1.555,0.309-3.11,0.463-4.665
			c0.164-1.651,0.338-3.34,1.046-4.841c0.708-1.501,2.066-2.803,3.716-2.977c0.142-0.015,0.408-0.289,0.551-0.289
			C351.514,182.516,351.637,185.809,352.358,188.361z"/>
		<path style="opacity:0.6;fill:#FFFFFF;" d="M352.358,188.361c-2.233,1.3-4.173,2.592-6.083,4.331
			c0.154-1.555,0.309-3.11,0.463-4.665c0.164-1.651,0.338-3.34,1.046-4.841c0.708-1.501,2.066-2.803,3.716-2.977
			c0.142-0.015,0.408-0.289,0.551-0.289C351.514,182.516,351.637,185.809,352.358,188.361z"/>
		<path style="fill:#407BFF;" d="M352.358,188.361l5.428,5.374c0,0,8.124-9.258,7.959-11.821l-4.081-3.245L352.358,188.361z"/>
		<path style="opacity:0.6;fill:#FFFFFF;" d="M352.358,188.361l5.428,5.374c0,0,8.124-9.258,7.959-11.821l-4.081-3.245
			L352.358,188.361z"/>
		<path style="fill:#263238;" d="M360.747,156.836c-0.461,0.139-0.979,0.068-1.305-0.286c-0.366-0.396-0.484-0.935-0.579-1.455
			c-0.274-1.503-0.444-2.919-0.478-4.378c-0.035-1.51-1.258-2.736-2.768-2.716c-1.61,0.021-3.259,0.636-4.48,1.652
			c-0.483-0.35-2.939,0.025-3.493-0.195c0,0,0.661-1.513-0.685-1.38c-1.443,0.439-1.503,0.824-2.607,2.125
			c-0.286,0.337-1.059,1.743-1.377,2.05c-0.318,0.307-0.35,0.682-0.35,0.682c-0.117-2.251,1.268-5.271,3.123-6.551
			c1.263-0.872,1.535-2.945,2.941-3.562c3.716-1.629,8.147,0.433,12.163,1.012c13.203,1.903,8.042,14.632,6.843,14.378
			C365.412,158.641,360.747,156.836,360.747,156.836z"/>
	</g>
</g>
<g id="Desk">
	<g>
		<g>
			<path style="fill:none;stroke:#407BFF;stroke-width:4;stroke-miterlimit:10;" d="M296.012,408.659h-30.1
				c-2.977,0-5.389-2.413-5.389-5.39V243.607h40.879v159.662C301.401,406.246,298.988,408.659,296.012,408.659z"/>
			<g>
				<path style="fill:#263238;" d="M273.478,414.176c0,2.714-2.2,4.914-4.914,4.914c-2.714,0-4.914-2.2-4.914-4.914
					c0-2.714,2.2-4.914,4.914-4.914C271.278,409.263,273.478,411.463,273.478,414.176z"/>
				<path style="fill:#263238;" d="M298.482,414.176c0,2.714-2.2,4.914-4.914,4.914c-2.714,0-4.914-2.2-4.914-4.914
					c0-2.714,2.2-4.914,4.914-4.914C296.282,409.263,298.482,411.463,298.482,414.176z"/>
			</g>
		</g>
		<g>
			<path style="fill:none;stroke:#407BFF;stroke-width:4;stroke-miterlimit:10;" d="M359.242,408.673h-30.101
				c-2.977,0-5.39-2.413-5.39-5.389V243.607h40.88v159.676C364.631,406.26,362.218,408.673,359.242,408.673z"/>
			<g>
				<path style="fill:#263238;" d="M336.72,414.176c0,2.714-2.2,4.914-4.914,4.914c-2.714,0-4.914-2.2-4.914-4.914
					c0-2.714,2.2-4.914,4.914-4.914C334.52,409.263,336.72,411.463,336.72,414.176z"/>
				<path style="fill:#263238;" d="M361.724,414.176c0,2.714-2.2,4.914-4.914,4.914c-2.714,0-4.914-2.2-4.914-4.914
					c0-2.714,2.2-4.914,4.914-4.914C359.525,409.263,361.724,411.463,361.724,414.176z"/>
			</g>
		</g>
		<g>
			<path style="fill:#263238;" d="M373.57,245.51c0,1.606-0.647,3.057-1.702,4.112c-1.055,1.055-2.493,1.702-4.1,1.702H256.117
				c-3.201,0-5.802-2.601-5.802-5.814c0-1.594,0.647-3.057,1.702-4.1c1.055-1.055,2.493-1.702,4.1-1.702h111.651
				C370.968,239.708,373.57,242.31,373.57,245.51z"/>
			<path style="opacity:0.2;fill:#FFFFFF;" d="M373.57,245.51c0,1.606-0.647,3.057-1.702,4.112c-1.055,1.055-2.493,1.702-4.1,1.702
				h-46.907c-3.213,0-5.814-2.601-5.814-5.814c0-1.594,0.647-3.057,1.702-4.1c1.055-1.055,2.505-1.702,4.112-1.702h46.907
				C370.968,239.708,373.57,242.31,373.57,245.51z"/>
		</g>
	</g>
</g>
<g id="Device_2">
	<g>
		<g>
			<g>
				<g>
					<g>
						<path style="fill:#407BFF;" d="M327.336,239.992l-60.116-0.415c-0.727-0.004-1.317-0.602-1.313-1.329l0,0
							c0.004-0.727,0.602-1.318,1.329-1.313l60.116,0.415c0.727,0.004,1.318,0.602,1.313,1.329l0,0
							C328.66,239.405,328.062,239.996,327.336,239.992z"/>
						<path style="opacity:0.2;" d="M327.336,239.992l-60.116-0.415c-0.727-0.004-1.317-0.602-1.313-1.329l0,0
							c0.004-0.727,0.602-1.318,1.329-1.313l60.116,0.415c0.727,0.004,1.318,0.602,1.313,1.329l0,0
							C328.66,239.405,328.062,239.996,327.336,239.992z"/>
					</g>
				</g>
				<g>
					<g>
						<g>
							<g>
								<g>
									<g>
										<g>
											<g>
												<g>
													<path style="fill:#407BFF;" d="M323.52,237.33h-0.8l-54.67-0.38h-0.16c-0.32-0.02-0.64-0.06-0.94-0.15
														c-1.88-0.48-3.49-2.14-3.82-4.09l-5.66-33.21c-0.36-2.12,0.92-3.86,2.9-4.13c0.19-0.04,0.39-0.05,0.59-0.05l54.56,0.39
														h0.84c2.32,0.01,4.54,1.91,4.93,4.23l5.65,33.21C327.34,235.44,325.8,237.31,323.52,237.33z"/>
												</g>
												<g style="opacity:0.6;">
													<path style="fill:#FFFFFF;" d="M325.49,233.2l-5.66-33.22c-0.33-1.95-1.94-3.6-3.82-4.07c-0.37-0.1-0.74-0.16-1.1-0.16
														l-54.54-0.38c-1.98,0.27-3.26,2.01-2.9,4.13l5.66,33.21c0.33,1.95,1.94,3.61,3.82,4.09c0.3,0.09,0.62,0.13,0.94,0.15
														h0.16l54.67,0.38C324.63,236.99,325.85,235.27,325.49,233.2z"/>
												</g>
												<g>
													<path style="fill:#FFFFFF;" d="M287.869,217.8c1.345,0,2.523,1.088,2.642,2.433c0.035,0.399-0.027,0.785-0.177,1.12
														c0.243-0.232,0.444-0.502,0.591-0.811c0.24-0.489,0.35-1.055,0.297-1.654c-0.163-1.834-1.775-3.314-3.609-3.314
														c-1.828,0-3.183,1.48-3.02,3.314c0.053,0.598,0.264,1.165,0.591,1.654c0.259,0.386,0.585,0.721,0.97,0.991
														c-0.022-0.026-0.044-0.058-0.066-0.09c-0.244-0.36-0.397-0.772-0.436-1.21
														C285.533,218.887,286.524,217.8,287.869,217.8z"/>
												</g>
											</g>
										</g>
									</g>
								</g>
							</g>
						</g>
					</g>
				</g>
			</g>
			<path style="fill:#407BFF;" d="M324.794,238.496c-0.008,0.06-0.015,0.121-0.011,0.183c0.008,0.726,0.61,1.317,1.336,1.31
				l33.817-0.418c0.664-0.003,1.219-0.511,1.3-1.164c0.006-0.049,0.014-0.109,0.009-0.171c-0.003-0.565-0.384-1.055-0.891-1.229
				c-0.012-0.002-0.024-0.003-0.024-0.003c-0.142-0.042-0.274-0.071-0.422-0.065l-33.828,0.404c-0.491,0-0.933,0.289-1.145,0.705
				C324.857,238.184,324.814,238.339,324.794,238.496z"/>
			<path style="opacity:0.6;fill:#FFFFFF;" d="M324.794,238.496c-0.008,0.06-0.015,0.121-0.011,0.183
				c0.008,0.726,0.61,1.317,1.336,1.31l33.817-0.418c0.664-0.003,1.219-0.511,1.3-1.164c0.006-0.049,0.014-0.109,0.009-0.171
				c-0.003-0.565-0.384-1.055-0.891-1.229c-0.012-0.002-0.024-0.003-0.024-0.003c-0.142-0.042-0.274-0.071-0.422-0.065
				l-33.828,0.404c-0.491,0-0.933,0.289-1.145,0.705C324.857,238.184,324.814,238.339,324.794,238.496z"/>
		</g>
	</g>
</g>
<g id="Cable">
	<g>
		<path style="fill:none;stroke:#263238;stroke-width:2.5;stroke-miterlimit:10;" d="M167.434,339.618
			c0,0-2.164,72.874,34.629,75.157c0,0,14.003,2.79,22.249-12.329c1.194-2.19,7.692-11.433,13.395-59.209
			c3.912-32.772,4.968-82.833,4.968-82.833c1.567-16.797,10.291-21.354,22.229-21.428l13.104,0.09"/>
		<path style="fill:#263238;" d="M175.83,357.45c0.12,1.74-1.26,3.23-3.01,3.23h-10.2c-1.59,0-2.9-1.23-3.01-2.81l-1.35-19.25h16.25
			L175.83,357.45z"/>
	</g>
</g>
<g id="Device_1">
	<g>
		<g>
			<g>
				<g>
					<g>
						<g>
							<path style="fill:#407BFF;" d="M94.66,73.754h7.79c-7.841,0-13.753,6.356-13.205,14.197l16.535,236.469
								c0.548,7.841,7.349,14.197,15.19,14.197h-7.79c-7.841,0-14.642-6.356-15.19-14.197L81.455,87.952
								C80.907,80.111,86.819,73.754,94.66,73.754z"/>
							<path style="fill:#263238;" d="M94.66,73.754h7.79c-7.841,0-13.753,6.356-13.205,14.197l16.535,236.469
								c0.548,7.841,7.349,14.197,15.19,14.197h-7.79c-7.841,0-15.74-6.356-16.288-14.197L80.357,87.952
								C79.809,80.111,86.819,73.754,94.66,73.754z"/>
						</g>
						<path style="fill:#407BFF;" d="M115.504,338.618h95.381c7.841,0,13.753-6.356,13.205-14.197L207.555,87.952
							c-0.548-7.841-7.349-14.197-15.19-14.197H96.983c-7.841,0-13.753,6.356-13.205,14.197l16.535,236.469
							C100.863,332.262,107.663,338.618,115.504,338.618z"/>
						<g style="opacity:0.6;">
							<path style="fill:#FFFFFF;" d="M192.107,78.31c5.445,0,10.184,4.432,10.565,9.881l16.536,236.469
								c0.177,2.536-0.632,4.905-2.277,6.672c-1.641,1.762-3.936,2.731-6.462,2.731h-95.382c-5.445,0-10.184-4.432-10.565-9.88
								L87.986,87.713c-0.177-2.535,0.631-4.905,2.277-6.672c1.641-1.761,3.936-2.732,6.462-2.732H192.107z"/>
						</g>
						<g>
							<g>
								<polygon style="fill:#407BFF;" points="212.434,270.611 104.029,270.611 93.283,116.938 201.688,116.938 								"/>
								<polygon style="opacity:0.8;fill:#FFFFFF;" points="212.434,270.611 104.029,270.611 93.283,116.938 201.688,116.938 
																	"/>
								<g>
									<path style="fill:#263238;" d="M125.396,248.394c-0.067-0.958,0.617-1.65,1.601-1.65c0.522,0,0.983,0.188,1.306,0.535
										l-0.359,0.362c-0.251-0.252-0.548-0.376-0.882-0.376c-0.664,0-1.112,0.468-1.065,1.128c0.046,0.659,0.56,1.127,1.223,1.127
										c0.334,0,0.614-0.124,0.83-0.38l0.41,0.366c-0.273,0.348-0.708,0.535-1.235,0.535
										C126.244,250.042,125.463,249.351,125.396,248.394z"/>
									<path style="fill:#263238;" d="M131.688,246.79l0.224,3.207h-0.595l-0.096-1.375h-1.657l0.096,1.375h-0.595l-0.224-3.207
										h0.595l0.093,1.323h1.657l-0.093-1.323H131.688z"/>
									<path style="fill:#263238;" d="M135.139,249.497l0.035,0.5h-2.403l-0.224-3.207h2.339l0.035,0.498h-1.744l0.058,0.834
										h1.547l0.034,0.491h-1.547l0.062,0.884H135.139z"/>
									<path style="fill:#263238;" d="M135.482,248.394c-0.067-0.958,0.617-1.65,1.602-1.65c0.522,0,0.983,0.188,1.305,0.535
										l-0.359,0.362c-0.251-0.252-0.548-0.376-0.882-0.376c-0.664,0-1.112,0.468-1.066,1.128c0.046,0.659,0.56,1.127,1.224,1.127
										c0.334,0,0.614-0.124,0.829-0.38l0.41,0.366c-0.273,0.348-0.709,0.535-1.235,0.535
										C136.331,250.042,135.549,249.351,135.482,248.394z"/>
									<path style="fill:#263238;" d="M140.16,248.654l-0.472,0.523l0.058,0.82h-0.595l-0.224-3.207h0.595l0.115,1.645
										l1.469-1.645h0.668l-1.246,1.434l1.552,1.773h-0.696L140.16,248.654z"/>
									<path style="fill:#263238;" d="M142.262,246.79h0.595l0.224,3.207h-0.595L142.262,246.79z"/>
									<path style="fill:#263238;" d="M146.569,246.79l0.224,3.207h-0.49l-1.919-2.172l0.152,2.172h-0.59l-0.224-3.207h0.49
										l1.919,2.171l-0.152-2.171H146.569z"/>
									<path style="fill:#263238;" d="M149.727,248.356h0.563l0.089,1.278c-0.315,0.271-0.773,0.407-1.226,0.407
										c-0.994,0-1.774-0.691-1.841-1.648c-0.067-0.958,0.617-1.65,1.62-1.65c0.536,0,0.997,0.178,1.323,0.521l-0.35,0.367
										c-0.27-0.252-0.566-0.367-0.909-0.367c-0.682,0-1.13,0.463-1.084,1.128c0.046,0.65,0.56,1.127,1.237,1.127
										c0.229,0,0.45-0.046,0.648-0.165L149.727,248.356z"/>
									<path style="fill:#263238;" d="M152.855,247.288l0.068,0.977h1.547l0.036,0.505h-1.547l0.085,1.228h-0.595l-0.224-3.207
										h2.339l0.035,0.498H152.855z"/>
									<path style="fill:#263238;" d="M154.987,248.394c-0.066-0.949,0.617-1.65,1.61-1.65c0.994,0,1.774,0.696,1.841,1.65
										c0.066,0.952-0.617,1.648-1.611,1.648C155.835,250.042,155.053,249.341,154.987,248.394z M157.838,248.394
										c-0.046-0.656-0.56-1.128-1.205-1.128c-0.646,0-1.093,0.472-1.047,1.128c0.046,0.654,0.56,1.127,1.205,1.127
										C157.436,249.52,157.884,249.048,157.838,248.394z"/>
									<path style="fill:#263238;" d="M161.277,249.997l-0.72-0.939c-0.04,0.005-0.082,0.005-0.123,0.005h-0.723l0.065,0.935
										h-0.595l-0.224-3.207h1.318c0.842,0,1.395,0.431,1.444,1.141c0.034,0.485-0.188,0.843-0.611,1.012l0.811,1.055H161.277z
										 M160.283,247.293h-0.696l0.089,1.278h0.696c0.522,0,0.775-0.237,0.747-0.641
										C161.091,247.527,160.805,247.293,160.283,247.293z"/>
									<path style="fill:#263238;" d="M163.664,248.6l-0.126-1.81h0.595l0.125,1.786c0.046,0.66,0.364,0.944,0.881,0.944
										c0.518,0,0.79-0.284,0.744-0.944l-0.124-1.786h0.586l0.126,1.81c0.065,0.935-0.426,1.442-1.3,1.442
										C164.292,250.042,163.73,249.534,163.664,248.6z"/>
									<path style="fill:#263238;" d="M169.938,247.931c0.049,0.705-0.442,1.141-1.285,1.141h-0.723l0.064,0.926h-0.595
										l-0.224-3.207h1.318C169.336,246.79,169.888,247.221,169.938,247.931z M169.338,247.931
										c-0.028-0.403-0.315-0.638-0.837-0.638h-0.696l0.089,1.274h0.696C169.113,248.567,169.366,248.334,169.338,247.931z"/>
									<path style="fill:#263238;" d="M170.452,246.79h1.401c1.039,0,1.794,0.641,1.861,1.604
										c0.067,0.962-0.598,1.604-1.637,1.604h-1.401L170.452,246.79z M172.014,249.493c0.714,0,1.146-0.436,1.1-1.1
										c-0.046-0.665-0.539-1.101-1.253-1.101h-0.778l0.154,2.2H172.014z"/>
									<path style="fill:#263238;" d="M176.437,249.254h-1.602l-0.264,0.743h-0.613l1.218-3.207h0.586l1.67,3.207h-0.622
										L176.437,249.254z M176.208,248.787l-0.702-1.402l-0.502,1.402H176.208z"/>
									<path style="fill:#263238;" d="M178.139,247.293h-1.062l-0.035-0.503h2.719l0.035,0.503h-1.062l0.189,2.704h-0.595
										L178.139,247.293z"/>
									<path style="fill:#263238;" d="M182.801,249.497l0.035,0.5h-2.403l-0.224-3.207h2.339l0.035,0.498h-1.744l0.058,0.834
										h1.547l0.034,0.491h-1.547l0.062,0.884H182.801z"/>
									<path style="fill:#263238;" d="M183.206,249.657l0.174-0.462c0.271,0.206,0.689,0.353,1.082,0.353
										c0.499,0,0.697-0.179,0.68-0.417c-0.048-0.692-1.921-0.238-2.004-1.43c-0.037-0.518,0.345-0.957,1.224-0.957
										c0.385,0,0.795,0.1,1.087,0.283l-0.155,0.463c-0.3-0.17-0.622-0.252-0.901-0.252c-0.494,0-0.682,0.192-0.665,0.436
										c0.048,0.683,1.916,0.238,1.999,1.416c0.036,0.514-0.351,0.952-1.229,0.952
										C183.997,250.042,183.487,249.887,183.206,249.657z"/>
								</g>
								<g>
									<path style="fill:none;stroke:#407BFF;stroke-miterlimit:10;" d="M194.959,248.185c0.119,1.708-0.467,3.261-1.51,4.382
										c-1.043,1.121-2.547,1.816-4.255,1.816h-64.199c-3.417,0-6.386-2.775-6.626-6.199c-0.119-1.709,0.467-3.262,1.51-4.383
										c1.043-1.121,2.54-1.816,4.249-1.816h64.199C191.75,241.986,194.719,244.761,194.959,248.185z"/>
								</g>
							</g>
							<g>
								<path style="fill:#263238;" d="M132.605,205.261c-0.097-1.39,0.897-2.395,2.327-2.395c0.758,0,1.43,0.273,1.897,0.778
									l-0.522,0.525c-0.365-0.366-0.797-0.545-1.282-0.545c-0.965,0-1.616,0.679-1.549,1.636c0.067,0.958,0.813,1.637,1.777,1.637
									c0.486,0,0.892-0.18,1.206-0.552l0.596,0.532c-0.397,0.505-1.03,0.778-1.795,0.778
									C133.837,207.656,132.703,206.651,132.605,205.261z"/>
								<path style="fill:#263238;" d="M141.747,202.933l0.326,4.656h-0.865l-0.14-1.996h-2.408l0.14,1.996h-0.865l-0.326-4.656
									h0.865l0.134,1.922h2.409l-0.135-1.922H141.747z"/>
								<path style="fill:#263238;" d="M146.762,206.864l0.051,0.725h-3.493l-0.326-4.656h3.4l0.051,0.725h-2.535l0.085,1.211h2.249
									l0.049,0.711h-2.248l0.089,1.284H146.762z"/>
								<path style="fill:#263238;" d="M147.259,205.261c-0.097-1.39,0.897-2.395,2.327-2.395c0.758,0,1.43,0.273,1.898,0.778
									l-0.522,0.525c-0.365-0.366-0.796-0.545-1.283-0.545c-0.964,0-1.615,0.679-1.548,1.636c0.067,0.958,0.813,1.637,1.777,1.637
									c0.486,0,0.892-0.18,1.206-0.552l0.596,0.532c-0.397,0.505-1.03,0.778-1.795,0.778
									C148.491,207.656,147.356,206.651,147.259,205.261z"/>
								<path style="fill:#263238;" d="M154.056,205.64l-0.686,0.758l0.083,1.19h-0.865l-0.326-4.656h0.865l0.167,2.388l2.135-2.388
									h0.972l-1.811,2.081l2.256,2.574h-1.011L154.056,205.64z"/>
								<path style="fill:#263238;" d="M157.109,202.933h0.865l0.326,4.656h-0.865L157.109,202.933z"/>
								<path style="fill:#263238;" d="M163.368,202.933l0.326,4.656h-0.712l-2.788-3.153l0.22,3.153h-0.858l-0.326-4.656h0.712
									l2.789,3.153l-0.22-3.153H163.368z"/>
								<path style="fill:#263238;" d="M167.955,205.208h0.818l0.129,1.856c-0.458,0.393-1.122,0.592-1.781,0.592
									c-1.444,0-2.579-1.005-2.676-2.395c-0.097-1.39,0.897-2.395,2.354-2.395c0.778,0,1.449,0.26,1.922,0.758l-0.508,0.532
									c-0.392-0.366-0.822-0.532-1.321-0.532c-0.991,0-1.643,0.672-1.576,1.636c0.066,0.944,0.813,1.637,1.798,1.637
									c0.333,0,0.654-0.067,0.941-0.24L167.955,205.208z"/>
								<path style="fill:#263238;" d="M169.746,207.083c-0.023-0.333,0.208-0.552,0.507-0.552s0.561,0.219,0.584,0.552
									c0.023,0.319-0.208,0.552-0.507,0.552C170.031,207.636,169.768,207.403,169.746,207.083z"/>
								<path style="fill:#263238;" d="M171.368,207.083c-0.023-0.333,0.208-0.552,0.507-0.552c0.299,0,0.561,0.219,0.584,0.552
									c0.022,0.319-0.208,0.552-0.507,0.552C171.653,207.636,171.391,207.403,171.368,207.083z"/>
								<path style="fill:#263238;" d="M172.991,207.083c-0.023-0.333,0.207-0.552,0.507-0.552c0.299,0,0.561,0.219,0.584,0.552
									c0.023,0.319-0.208,0.552-0.507,0.552C173.275,207.636,173.013,207.403,172.991,207.083z"/>
							</g>
							<path style="fill:#407BFF;" d="M191.154,193.774c0.119,1.708-0.468,3.262-1.51,4.382c-1.043,1.121-2.547,1.817-4.256,1.817
								h-64.199c-3.417,0-6.386-2.775-6.626-6.199c-0.119-1.709,0.467-3.262,1.51-4.383c1.043-1.121,2.54-1.816,4.249-1.816h64.199
								C187.945,187.575,190.915,190.35,191.154,193.774z"/>
							<path style="opacity:0.4;" d="M166.077,188.297l0.757,10.825h-45.622c-2.984,0-5.576-2.423-5.785-5.413
								c-0.104-1.492,0.408-2.848,1.318-3.827c0.91-0.979,2.218-1.586,3.71-1.586H166.077z"/>
							<g>
								<g>
									<g>
										<g>
											<g>
												<path style="fill:#407BFF;" d="M184.375,168.899c0.144-0.756,0.225-1.513,0.247-2.267l3.451-0.905
													c-0.017-0.445-0.047-0.889-0.097-1.33l-3.592-0.859c-0.282-1.543-0.801-3.035-1.529-4.425l2.414-2.541
													c-0.238-0.391-0.489-0.774-0.754-1.149l-3.412,1.021c-0.992-1.229-2.167-2.32-3.491-3.225l0.73-3.502
													c-0.392-0.232-0.795-0.447-1.204-0.653l-2.322,2.625c-0.715-0.302-1.459-0.556-2.229-0.753
													c-0.77-0.197-1.536-0.33-2.295-0.406l-1.15-3.514c-0.446-0.014-0.89-0.015-1.33,0.004l-0.612,3.532
													c-1.531,0.174-2.993,0.589-4.34,1.219l-2.722-2.592c-0.376,0.211-0.744,0.435-1.102,0.674l1.264,3.483
													c-1.166,0.905-2.18,2.004-2.997,3.266l-3.57-0.975c-0.206,0.376-0.394,0.763-0.572,1.159l2.8,2.506
													c-0.254,0.694-0.456,1.42-0.601,2.176s-0.225,1.513-0.247,2.267l-3.451,0.905c0.018,0.445,0.047,0.889,0.097,1.33
													l3.592,0.859c0.282,1.543,0.801,3.035,1.529,4.425l-2.414,2.541c0.238,0.391,0.489,0.774,0.754,1.149l3.412-1.021
													c0.991,1.229,2.167,2.32,3.491,3.225l-0.73,3.502c0.392,0.232,0.795,0.447,1.204,0.653l2.322-2.625
													c0.716,0.302,1.459,0.556,2.229,0.753c0.77,0.197,1.536,0.331,2.295,0.406l1.15,3.514
													c0.446,0.014,0.89,0.015,1.33-0.004l0.612-3.532c1.531-0.174,2.993-0.589,4.34-1.22l2.723,2.592
													c0.376-0.211,0.744-0.435,1.102-0.674l-1.264-3.483c1.166-0.906,2.18-2.004,2.997-3.266l3.57,0.975
													c0.206-0.375,0.394-0.763,0.572-1.159l-2.8-2.506C184.028,170.381,184.231,169.654,184.375,168.899z"/>
												<path style="opacity:0.2;fill:#FFFFFF;" d="M184.375,168.899c0.144-0.756,0.225-1.513,0.247-2.267l3.451-0.905
													c-0.017-0.445-0.047-0.889-0.097-1.33l-3.592-0.859c-0.282-1.543-0.801-3.035-1.529-4.425l2.414-2.541
													c-0.238-0.391-0.489-0.774-0.754-1.149l-3.412,1.021c-0.992-1.229-2.167-2.32-3.491-3.225l0.73-3.502
													c-0.392-0.232-0.795-0.447-1.204-0.653l-2.322,2.625c-0.715-0.302-1.459-0.556-2.229-0.753
													c-0.77-0.197-1.536-0.33-2.295-0.406l-1.15-3.514c-0.446-0.014-0.89-0.015-1.33,0.004l-0.612,3.532
													c-1.531,0.174-2.993,0.589-4.34,1.219l-2.722-2.592c-0.376,0.211-0.744,0.435-1.102,0.674l1.264,3.483
													c-1.166,0.905-2.18,2.004-2.997,3.266l-3.57-0.975c-0.206,0.376-0.394,0.763-0.572,1.159l2.8,2.506
													c-0.254,0.694-0.456,1.42-0.601,2.176s-0.225,1.513-0.247,2.267l-3.451,0.905c0.018,0.445,0.047,0.889,0.097,1.33
													l3.592,0.859c0.282,1.543,0.801,3.035,1.529,4.425l-2.414,2.541c0.238,0.391,0.489,0.774,0.754,1.149l3.412-1.021
													c0.991,1.229,2.167,2.32,3.491,3.225l-0.73,3.502c0.392,0.232,0.795,0.447,1.204,0.653l2.322-2.625
													c0.716,0.302,1.459,0.556,2.229,0.753c0.77,0.197,1.536,0.331,2.295,0.406l1.15,3.514
													c0.446,0.014,0.89,0.015,1.33-0.004l0.612-3.532c1.531-0.174,2.993-0.589,4.34-1.22l2.723,2.592
													c0.376-0.211,0.744-0.435,1.102-0.674l-1.264-3.483c1.166-0.906,2.18-2.004,2.997-3.266l3.57,0.975
													c0.206-0.375,0.394-0.763,0.572-1.159l-2.8-2.506C184.028,170.381,184.231,169.654,184.375,168.899z"/>
											</g>
											
												<ellipse transform="matrix(0.6946 -0.7194 0.7194 0.6946 -66.9544 172.64)" style="opacity:0.3;" cx="169.868" cy="165.183" rx="9.011" ry="9.664"/>
										</g>
									</g>
									<g>
										<g>
											<path style="fill:#407BFF;" d="M152.164,147.917l-3.543,0.059c-0.517-0.965-1.114-1.882-1.78-2.745l1.612-3.043
												c-1.019-1.159-2.151-2.216-3.375-3.155l-2.916,1.825c-0.905-0.607-1.859-1.139-2.856-1.588l-0.189-3.548
												c-1.41-0.528-2.878-0.922-4.388-1.155l-1.508,3.106c-0.526-0.046-1.055-0.074-1.59-0.074
												c-0.534,0-1.06,0.028-1.579,0.074l-1.943-3.106c-1.478,0.234-2.89,0.627-4.227,1.155l0.307,3.548
												c-0.934,0.449-1.813,0.982-2.634,1.588l-3.171-1.825c-1.093,0.939-2.077,1.996-2.934,3.155l2.038,3.043
												c-0.546,0.862-1.015,1.78-1.396,2.745l-3.552-0.059c-0.432,1.373-0.725,2.813-0.854,4.307l3.227,1.725
												c-0.009,0.522,0,1.05,0.037,1.585c0.037,0.534,0.102,1.062,0.185,1.585l-2.985,1.725
												c0.338,1.494,0.832,2.934,1.456,4.307l3.544-0.059c0.517,0.965,1.114,1.882,1.78,2.745l-1.612,3.043
												c1.02,1.159,2.151,2.216,3.375,3.155l2.916-1.825c0.905,0.607,1.859,1.139,2.856,1.588l0.189,3.548
												c1.41,0.528,2.878,0.922,4.388,1.155l1.508-3.106c0.526,0.046,1.055,0.074,1.59,0.074c0.534,0,1.06-0.028,1.579-0.074
												l1.943,3.106c1.477-0.234,2.89-0.627,4.227-1.155l-0.307-3.548c0.934-0.449,1.814-0.982,2.633-1.588l3.171,1.825
												c1.093-0.938,2.077-1.996,2.934-3.155l-2.038-3.043c0.546-0.862,1.015-1.78,1.396-2.745l3.552,0.059
												c0.432-1.373,0.725-2.814,0.854-4.307l-3.227-1.725c0.009-0.523,0-1.05-0.037-1.585
												c-0.037-0.534-0.102-1.062-0.184-1.585l2.985-1.725C153.282,150.73,152.789,149.29,152.164,147.917z"/>
											<path style="opacity:0.3;fill:#FFFFFF;" d="M152.164,147.917l-3.543,0.059c-0.517-0.965-1.114-1.882-1.78-2.745
												l1.612-3.043c-1.019-1.159-2.151-2.216-3.375-3.155l-2.916,1.825c-0.905-0.607-1.859-1.139-2.856-1.588l-0.189-3.548
												c-1.41-0.528-2.878-0.922-4.388-1.155l-1.508,3.106c-0.526-0.046-1.055-0.074-1.59-0.074
												c-0.534,0-1.06,0.028-1.579,0.074l-1.943-3.106c-1.478,0.234-2.89,0.627-4.227,1.155l0.307,3.548
												c-0.934,0.449-1.813,0.982-2.634,1.588l-3.171-1.825c-1.093,0.939-2.077,1.996-2.934,3.155l2.038,3.043
												c-0.546,0.862-1.015,1.78-1.396,2.745l-3.552-0.059c-0.432,1.373-0.725,2.813-0.854,4.307l3.227,1.725
												c-0.009,0.522,0,1.05,0.037,1.585c0.037,0.534,0.102,1.062,0.185,1.585l-2.985,1.725
												c0.338,1.494,0.832,2.934,1.456,4.307l3.544-0.059c0.517,0.965,1.114,1.882,1.78,2.745l-1.612,3.043
												c1.02,1.159,2.151,2.216,3.375,3.155l2.916-1.825c0.905,0.607,1.859,1.139,2.856,1.588l0.189,3.548
												c1.41,0.528,2.878,0.922,4.388,1.155l1.508-3.106c0.526,0.046,1.055,0.074,1.59,0.074c0.534,0,1.06-0.028,1.579-0.074
												l1.943,3.106c1.477-0.234,2.89-0.627,4.227-1.155l-0.307-3.548c0.934-0.449,1.814-0.982,2.633-1.588l3.171,1.825
												c1.093-0.938,2.077-1.996,2.934-3.155l-2.038-3.043c0.546-0.862,1.015-1.78,1.396-2.745l3.552,0.059
												c0.432-1.373,0.725-2.814,0.854-4.307l-3.227-1.725c0.009-0.523,0-1.05-0.037-1.585
												c-0.037-0.534-0.102-1.062-0.184-1.585l2.985-1.725C153.282,150.73,152.789,149.29,152.164,147.917z"/>
										</g>
										<path style="opacity:0.4;" d="M147.484,155.534c0.564,8.063-5.515,14.599-13.578,14.599
											c-8.063,0-15.056-6.536-15.62-14.599c-0.564-8.063,5.515-14.599,13.578-14.599
											C139.926,140.935,146.92,147.471,147.484,155.534z"/>
									</g>
								</g>
								<path style="fill:#263238;" d="M135.753,155.534c0.114,1.633-1.117,2.957-2.75,2.957c-1.633,0-3.05-1.324-3.164-2.957
									c-0.114-1.633,1.117-2.957,2.75-2.957S135.638,153.901,135.753,155.534z"/>
								<path style="fill:#263238;" d="M172.825,165.183c0.114,1.633-1.117,2.957-2.75,2.957c-1.633,0-3.05-1.324-3.164-2.957
									c-0.114-1.633,1.117-2.957,2.75-2.957C171.294,162.225,172.711,163.549,172.825,165.183z"/>
							</g>
							<path style="opacity:0.2;fill:#FFFFFF;" d="M168.791,334.062h-38.042L162.121,78.31h30.616c2.79,0,5.288,1.169,7.053,3.037
								L168.791,334.062z"/>
							<polygon style="opacity:0.2;fill:#FFFFFF;" points="120.305,334.062 111.748,334.062 143.12,78.31 151.678,78.31 							"/>
						</g>
						<g>
							<line style="fill:none;stroke:#263238;stroke-miterlimit:10;" x1="189.035" y1="108.534" x2="198.688" y2="108.534"/>
							<line style="fill:none;stroke:#263238;stroke-miterlimit:10;" x1="189.234" y1="111.385" x2="198.887" y2="111.385"/>
							<line style="fill:none;stroke:#263238;stroke-miterlimit:10;" x1="189.434" y1="114.237" x2="199.087" y2="114.237"/>
						</g>
						<g>
							<polygon style="fill:none;stroke:#FFFFFF;stroke-miterlimit:10;" points="194.803,329.211 185.304,329.211 184.64,319.713 
								194.138,319.713 							"/>
							<g>
								<polygon style="fill:none;stroke:#FFFFFF;stroke-miterlimit:10;" points="142.615,329.693 134.537,324.944 141.95,320.195 
																	"/>
							</g>
							<path style="fill:none;stroke:#FFFFFF;stroke-miterlimit:10;" d="M170.07,324.462c0.183,2.623-1.794,4.749-4.417,4.749
								c-2.623,0-4.898-2.126-5.081-4.749s1.794-4.749,4.417-4.749C167.611,319.713,169.886,321.839,170.07,324.462z"/>
						</g>
					</g>
				</g>
				<g>
					
						<line style="fill:none;stroke:#407BFF;stroke-linecap:round;stroke-linejoin:round;stroke-miterlimit:10;" x1="81.025" y1="108.029" x2="83.458" y2="141.202"/>
					
						<line style="fill:none;stroke:#407BFF;stroke-linecap:round;stroke-linejoin:round;stroke-miterlimit:10;" x1="79.916" y1="92.917" x2="80.559" y2="101.671"/>
				</g>
			</g>
		</g>
		<g>
			<path style="fill:#263238;" d="M109.076,113.302l0.238-0.633c0.371,0.282,0.943,0.483,1.482,0.483
				c0.684,0,0.955-0.245,0.932-0.571c-0.066-0.947-2.632-0.326-2.746-1.957c-0.049-0.708,0.473-1.31,1.677-1.31
				c0.527,0,1.088,0.138,1.488,0.389l-0.213,0.633c-0.411-0.232-0.852-0.345-1.234-0.345c-0.677,0-0.935,0.264-0.912,0.596
				c0.065,0.935,2.625,0.327,2.738,1.938c0.049,0.702-0.479,1.304-1.684,1.304C110.161,113.829,109.462,113.616,109.076,113.302z"/>
			<path style="fill:#263238;" d="M115.118,112.217l0.108,1.549h-0.815l-0.107-1.536l-1.924-2.854h0.872l1.435,2.139l1.149-2.139
				h0.803L115.118,112.217z"/>
			<path style="fill:#263238;" d="M116.984,113.302l0.238-0.633c0.371,0.282,0.943,0.483,1.482,0.483
				c0.684,0,0.955-0.245,0.932-0.571c-0.066-0.947-2.631-0.326-2.746-1.957c-0.05-0.708,0.473-1.31,1.677-1.31
				c0.527,0,1.089,0.138,1.488,0.389l-0.213,0.633c-0.412-0.232-0.852-0.345-1.234-0.345c-0.678,0-0.935,0.264-0.912,0.596
				c0.065,0.935,2.625,0.327,2.738,1.938c0.049,0.702-0.479,1.304-1.684,1.304C118.068,113.829,117.37,113.616,116.984,113.302z"/>
			<path style="fill:#263238;" d="M121.904,110.066h-1.455l-0.048-0.69h3.725l0.048,0.69h-1.455l0.258,3.7h-0.815L121.904,110.066z"
				/>
			<path style="fill:#263238;" d="M128.294,113.083l0.048,0.683h-3.293l-0.307-4.39h3.205l0.048,0.684h-2.39l0.08,1.141h2.119
				l0.047,0.671h-2.12l0.084,1.21H128.294z"/>
			<path style="fill:#263238;" d="M133.288,113.766l-0.21-2.91l-1.274,2.408h-0.364l-1.608-2.371l0.201,2.872h-0.778l-0.307-4.39
				h0.671l1.947,2.91l1.509-2.91h0.671l0.313,4.39H133.288z"/>
			<path style="fill:#263238;" d="M136.809,111.854l-0.173-2.477h0.816l0.171,2.446c0.063,0.903,0.498,1.292,1.206,1.292
				s1.083-0.389,1.02-1.292l-0.171-2.446h0.803l0.173,2.477c0.089,1.28-0.583,1.976-1.781,1.976
				C137.669,113.829,136.899,113.133,136.809,111.854z"/>
			<path style="fill:#263238;" d="M145.41,110.938c0.068,0.966-0.605,1.561-1.76,1.561h-0.991l0.088,1.267h-0.815l-0.307-4.39h1.806
				C144.585,109.377,145.342,109.966,145.41,110.938z M144.588,110.938c-0.039-0.552-0.431-0.872-1.146-0.872h-0.953l0.122,1.743
				h0.953C144.279,111.81,144.626,111.49,144.588,110.938z"/>
			<path style="fill:#263238;" d="M146.12,109.377h1.919c1.423,0,2.457,0.878,2.549,2.195c0.092,1.317-0.819,2.195-2.243,2.195
				h-1.919L146.12,109.377z M148.26,113.077c0.978,0,1.57-0.596,1.506-1.505c-0.063-0.909-0.739-1.505-1.717-1.505h-1.066
				l0.211,3.01H148.26z"/>
			<path style="fill:#263238;" d="M154.324,112.751h-2.195l-0.362,1.016h-0.84l1.668-4.39h0.803l2.289,4.39h-0.852L154.324,112.751z
				 M154.009,112.111l-0.962-1.919l-0.688,1.919H154.009z"/>
			<path style="fill:#263238;" d="M156.661,110.066h-1.455l-0.048-0.69h3.725l0.048,0.69h-1.455l0.259,3.7h-0.815L156.661,110.066z"
				/>
			<path style="fill:#263238;" d="M163.052,113.083l0.048,0.683h-3.292l-0.307-4.39h3.205l0.048,0.684h-2.389l0.08,1.141h2.12
				l0.047,0.671h-2.12l0.085,1.21H163.052z"/>
		</g>
		<g>
			<g>
				<polyline style="fill:none;stroke:#263238;stroke-miterlimit:10;" points="98.513,114.542 95.356,111.385 98.513,108.229 				
					"/>
			</g>
			<line style="fill:none;stroke:#263238;stroke-miterlimit:10;" x1="95.356" y1="111.385" x2="105.814" y2="111.385"/>
		</g>
		<g>
			<g>
				<g>
					<g>
						<path style="fill:#FFFFFF;" d="M172.031,90.657c0.111,1.265-0.825,2.29-2.09,2.29c-1.265,0-2.38-1.025-2.49-2.29
							c-0.111-1.265,0.825-2.29,2.09-2.29C170.806,88.367,171.921,89.392,172.031,90.657z"/>
					</g>
				</g>
				<g>
					<g>
						<path style="fill:#FFFFFF;" d="M172.938,89.466c-0.235,0-0.442-0.19-0.462-0.425c-0.092-1.046-1.426-1.865-3.038-1.865
							c-1.632,0-2.766,1.243-2.712,1.865c0.021,0.235-0.153,0.425-0.388,0.425s-0.442-0.19-0.462-0.425
							c-0.107-1.222,1.482-2.715,3.488-2.715c2.089,0,3.83,1.192,3.963,2.715C173.346,89.275,173.172,89.466,172.938,89.466z"/>
					</g>
					<g>
						<path style="fill:#FFFFFF;" d="M173.657,87.489c-0.235,0-0.442-0.19-0.462-0.425c-0.09-1.028-1.876-1.865-3.981-1.865
							c-2.205,0-3.703,1.308-3.655,1.865c0.02,0.235-0.153,0.425-0.388,0.425c-0.235,0-0.442-0.19-0.462-0.425
							c-0.107-1.222,1.917-2.715,4.431-2.715c2.661,0,4.77,1.167,4.906,2.715C174.065,87.299,173.892,87.489,173.657,87.489z"/>
					</g>
					<g>
						<path style="fill:#FFFFFF;" d="M174.376,85.513c-0.235,0-0.442-0.19-0.462-0.425c-0.079-0.901-2.076-1.865-4.924-1.865
							c-2.891,0-4.64,1.385-4.598,1.865c0.021,0.235-0.153,0.425-0.388,0.425s-0.442-0.19-0.462-0.425
							c-0.107-1.222,2.352-2.715,5.374-2.715c3.251,0,5.711,1.142,5.849,2.715C174.785,85.322,174.611,85.513,174.376,85.513z"/>
					</g>
				</g>
				<g>
					<g>
						<polygon style="fill:#FFFFFF;" points="179.236,92.947 177.889,92.947 177.547,89.041 178.895,89.041 						"/>
					</g>
					<g>
						<polygon style="fill:#FFFFFF;" points="181.088,92.947 179.741,92.947 179.263,87.48 180.61,87.48 						"/>
					</g>
					<g>
						<polygon style="fill:#FFFFFF;" points="182.941,92.947 181.593,92.947 180.979,85.919 182.326,85.919 						"/>
					</g>
					<g>
						<polygon style="fill:#FFFFFF;" points="184.793,92.947 183.446,92.947 182.694,84.358 184.041,84.358 						"/>
					</g>
					<g>
						<polygon style="fill:#FFFFFF;" points="186.645,92.947 185.298,92.947 184.41,82.798 185.757,82.798 						"/>
					</g>
				</g>
				<g>
					<g>
						<g>
							<polygon style="fill:#FFFFFF;" points="196.781,92.947 191.73,92.947 190.942,83.943 195.993,83.943 							"/>
						</g>
					</g>
					<g>
						<g>
							<polygon style="fill:#FFFFFF;" points="195.059,83.943 191.876,83.943 191.819,83.282 195.001,83.282 							"/>
						</g>
					</g>
				</g>
			</g>
		</g>
	</g>
</g>
</svg>
