<?xml version="1.0" encoding="utf-8"?>
<!-- Generator: Adobe Illustrator 27.5.0, SVG Export Plug-In . SVG Version: 6.00 Build 0)  -->
<svg version="1.1" xmlns="http://www.w3.org/2000/svg" xmlns:xlink="http://www.w3.org/1999/xlink" x="0px" y="0px"
	 viewBox="0 0 500 500" style="enable-background:new 0 0 500 500;" xml:space="preserve">
<g id="Background_Simple">
	<g>
		<path style="fill:#92E3A9;" d="M482.767,243.253c-5.184,43.903-25.23,94.949-65.266,118.399
			c-60.491,35.438-55.428,89.944-173.499,113.64c-18.409,3.696-35.879,5.252-52.352,4.944c-8.855-0.164-17.428-0.878-25.695-2.095
			C90.913,467.179,40.414,415.018,21.886,352.053c-24.381-82.81,24.302-137.024,56.571-169.688
			c32.269-32.664,55.902-134.44,171.792-158.647c17.67-3.683,35.74-5.563,53.805-5.112c41.233,1.012,86.207,14.551,117.327,42.811
			c2.337,2.123,4.609,4.325,6.824,6.593C471.459,112.407,489.838,183.399,482.767,243.253z"/>
		<path style="opacity:0.7;fill:#FFFFFF;" d="M482.767,243.253c-5.184,43.903-25.23,94.949-65.266,118.399
			c-60.491,35.438-55.428,89.944-173.499,113.64c-18.409,3.696-35.879,5.252-52.352,4.944c-8.855-0.164-17.428-0.878-25.695-2.095
			C90.913,467.179,40.414,415.018,21.886,352.053c-24.381-82.81,24.302-137.024,56.571-169.688
			c32.269-32.664,55.902-134.44,171.792-158.647c17.67-3.683,35.74-5.563,53.805-5.112c41.233,1.012,86.207,14.551,117.327,42.811
			c2.337,2.123,4.609,4.325,6.824,6.593C471.459,112.407,489.838,183.399,482.767,243.253z"/>
	</g>
</g>
<g id="Gears">
	<g>
		<path style="fill:none;stroke:#263238;stroke-width:0.75;stroke-miterlimit:10;" d="M228.532,93.965l-6.727-7.464l-12.06,8.762
			l4.921,8.533c-3.811,3.754-7.053,8.081-9.588,12.845l-9.833-2.085l-4.607,14.178l8.993,4.009
			c-0.465,2.818-0.719,5.707-0.719,8.657c0,2.502,0.186,4.96,0.523,7.369l-9.188,4.095l4.607,14.178l9.63-2.042
			c2.418,4.827,5.553,9.23,9.267,13.073l-5.03,8.721l12.06,8.762l6.591-7.314c4.692,2.441,9.795,4.196,15.181,5.137l1.056,10.005
			h14.907l1.033-9.785c5.417-0.808,10.563-2.441,15.31-4.764l6.727,7.464l12.06-8.762l-4.921-8.533
			c3.811-3.754,7.053-8.081,9.588-12.844l9.833,2.085l4.607-14.178l-8.993-4.009c0.465-2.818,0.719-5.707,0.719-8.657
			c0-2.502-0.186-4.96-0.523-7.369l9.188-4.096l-4.607-14.178l-9.63,2.042c-2.418-4.828-5.553-9.23-9.267-13.073l5.03-8.721
			l-12.06-8.762l-6.591,7.314c-4.692-2.441-9.795-4.196-15.181-5.137l-1.056-10.005h-14.907l-1.033,9.785
			c-2.606,0.389-5.149,0.968-7.616,1.724 M276.613,158.199c-5.4,7.993-14.544,13.248-24.915,13.248
			c-16.594,0-30.047-13.453-30.047-30.047c0-16.595,13.453-30.047,30.047-30.047c16.594,0,30.047,13.452,30.047,30.047
			c0,2.896-0.41,5.696-1.174,8.346"/>
		<path style="fill:none;stroke:#263238;stroke-width:0.75;stroke-miterlimit:10;" d="M376.533,93.811
			c0-1.592-0.119-3.156-0.333-4.69l5.848-2.607l-2.932-9.023l-6.129,1.3c-1.539-3.072-3.534-5.874-5.898-8.32l3.201-5.55
			l-7.676-5.577l-4.195,4.655c-2.986-1.554-6.234-2.67-9.662-3.269l-0.672-6.368h-9.488l-0.657,6.228
			c-3.448,0.514-6.723,1.554-9.744,3.032l-4.281-4.75l-7.676,5.577l3.132,5.431c-2.426,2.389-4.489,5.143-6.102,8.175l-6.258-1.327
			l-2.932,9.023l5.724,2.551c-0.296,1.794-0.457,3.632-0.457,5.51c0,1.592,0.119,3.156,0.333,4.69l-5.847,2.606l2.932,9.023
			l6.129-1.3c1.539,3.072,3.534,5.874,5.898,8.32l-3.201,5.55l7.676,5.577l4.195-4.655c2.986,1.554,6.234,2.67,9.662,3.269
			l0.672,6.368h9.488l0.657-6.227c3.447-0.514,6.723-1.554,9.744-3.032l4.281,4.75l7.676-5.577l-3.132-5.431
			c2.426-2.389,4.489-5.143,6.102-8.175l6.258,1.327l2.932-9.023l-5.724-2.551C376.372,97.527,376.533,95.688,376.533,93.811z
			 M331.988,78.132c3.102-2.171,6.878-3.445,10.952-3.445c10.561,0,19.123,8.562,19.123,19.123c0,10.561-8.562,19.123-19.123,19.123
			c-10.561,0-19.123-8.562-19.123-19.123c0-3.077,0.727-5.985,2.018-8.561"/>
	</g>
</g>
<g id="Floor">
	<g>
		
			<line style="fill:none;stroke:#263238;stroke-linecap:round;stroke-linejoin:round;stroke-miterlimit:10;" x1="462.255" y1="428.86" x2="489.585" y2="428.86"/>
		
			<line style="fill:none;stroke:#263238;stroke-linecap:round;stroke-linejoin:round;stroke-miterlimit:10;" x1="27.859" y1="428.86" x2="455.063" y2="428.86"/>
	</g>
</g>
<g id="Plant">
	<g>
		<g>
			
				<line style="fill:none;stroke:#263238;stroke-width:2;stroke-miterlimit:10;" x1="377.361" y1="232.093" x2="395.889" y2="409.63"/>
			<g>
				<g>
					
						<line style="fill:none;stroke:#263238;stroke-width:2;stroke-miterlimit:10;" x1="392.903" y1="375.654" x2="384.504" y2="366.782"/>
					<path style="fill:#92E3A9;stroke:#263238;stroke-miterlimit:10;" d="M387.056,369.44c0,0,0.24-3.924-3.343-7.125
						c-2.156-1.925-13.503-6.699-14.579-2.702C367.962,363.96,379.576,372.496,387.056,369.44z"/>
					
						<line style="fill:none;stroke:#263238;stroke-width:0.5;stroke-miterlimit:10;" x1="387.056" y1="369.44" x2="376.253" y2="362.709"/>
				</g>
				<g>
					
						<line style="fill:none;stroke:#263238;stroke-width:2;stroke-miterlimit:10;" x1="395.01" y1="395.845" x2="386.611" y2="386.973"/>
					<path style="fill:#92E3A9;stroke:#263238;stroke-miterlimit:10;" d="M389.163,389.631c0,0,0.24-3.924-3.343-7.125
						c-2.156-1.926-13.503-6.699-14.58-2.703C370.069,384.15,381.683,392.687,389.163,389.631z"/>
					
						<line style="fill:none;stroke:#263238;stroke-width:0.5;stroke-miterlimit:10;" x1="389.163" y1="389.631" x2="378.361" y2="382.9"/>
				</g>
				<g>
					
						<line style="fill:none;stroke:#263238;stroke-width:2;stroke-miterlimit:10;" x1="387.761" y1="326.384" x2="379.362" y2="317.512"/>
					<path style="fill:#92E3A9;stroke:#263238;stroke-miterlimit:10;" d="M381.914,320.17c0,0,0.24-3.924-3.343-7.125
						c-2.156-1.925-13.503-6.699-14.58-2.703C362.82,314.689,374.434,323.225,381.914,320.17z"/>
					
						<line style="fill:none;stroke:#263238;stroke-width:0.5;stroke-miterlimit:10;" x1="381.914" y1="320.17" x2="371.111" y2="313.439"/>
				</g>
				<g>
					
						<line style="fill:none;stroke:#263238;stroke-width:2;stroke-miterlimit:10;" x1="389.868" y1="346.575" x2="381.469" y2="337.703"/>
					<path style="fill:#92E3A9;stroke:#263238;stroke-miterlimit:10;" d="M384.021,340.361c0,0,0.24-3.924-3.343-7.125
						c-2.156-1.926-13.503-6.699-14.579-2.703C364.927,334.88,376.541,343.417,384.021,340.361z"/>
					
						<line style="fill:none;stroke:#263238;stroke-width:0.5;stroke-miterlimit:10;" x1="384.021" y1="340.361" x2="373.219" y2="333.63"/>
				</g>
				<g>
					
						<line style="fill:none;stroke:#263238;stroke-width:2;stroke-miterlimit:10;" x1="384.338" y1="293.585" x2="375.939" y2="284.713"/>
					<path style="fill:#92E3A9;stroke:#263238;stroke-miterlimit:10;" d="M378.491,287.371c0,0,0.24-3.924-3.343-7.125
						c-2.156-1.925-13.503-6.699-14.58-2.702C359.397,281.89,371.011,290.427,378.491,287.371z"/>
					
						<line style="fill:none;stroke:#263238;stroke-width:0.5;stroke-miterlimit:10;" x1="378.491" y1="287.371" x2="367.688" y2="280.64"/>
				</g>
				<g>
					
						<line style="fill:none;stroke:#263238;stroke-width:2;stroke-miterlimit:10;" x1="380.9" y1="260.643" x2="372.501" y2="251.771"/>
					<path style="fill:#92E3A9;stroke:#263238;stroke-miterlimit:10;" d="M375.053,254.429c0,0,0.24-3.924-3.343-7.125
						c-2.156-1.926-13.503-6.699-14.58-2.703C355.959,248.948,367.573,257.484,375.053,254.429z"/>
					
						<line style="fill:none;stroke:#263238;stroke-width:0.5;stroke-miterlimit:10;" x1="375.053" y1="254.429" x2="364.251" y2="247.698"/>
				</g>
				<g>
					
						<line style="fill:none;stroke:#263238;stroke-width:2;stroke-miterlimit:10;" x1="391.491" y1="363.707" x2="397.878" y2="353.293"/>
					<path style="fill:#92E3A9;stroke:#263238;stroke-miterlimit:10;" d="M395.93,356.42c0,0-1.045-3.79,1.8-7.661
						c1.712-2.329,11.829-9.343,13.707-5.655C413.481,347.115,403.879,357.865,395.93,356.42z"/>
					
						<line style="fill:none;stroke:#263238;stroke-width:0.5;stroke-miterlimit:10;" x1="395.93" y1="356.42" x2="405.657" y2="347.124"/>
				</g>
				<g>
					
						<line style="fill:none;stroke:#263238;stroke-width:2;stroke-miterlimit:10;" x1="385.946" y1="310.574" x2="392.333" y2="300.159"/>
					<path style="fill:#92E3A9;stroke:#263238;stroke-miterlimit:10;" d="M390.385,303.287c0,0-1.045-3.79,1.8-7.661
						c1.712-2.329,11.829-9.343,13.707-5.655C407.935,293.982,398.334,304.732,390.385,303.287z"/>
					
						<line style="fill:none;stroke:#263238;stroke-width:0.5;stroke-miterlimit:10;" x1="390.385" y1="303.287" x2="400.112" y2="293.99"/>
				</g>
				<g>
					
						<line style="fill:none;stroke:#263238;stroke-width:2;stroke-miterlimit:10;" x1="383.51" y1="287.224" x2="389.896" y2="276.809"/>
					<path style="fill:#92E3A9;stroke:#263238;stroke-miterlimit:10;" d="M387.948,279.937c0,0-1.045-3.79,1.8-7.662
						c1.712-2.329,11.829-9.342,13.707-5.655C405.499,270.632,395.897,281.382,387.948,279.937z"/>
					
						<line style="fill:none;stroke:#263238;stroke-width:0.5;stroke-miterlimit:10;" x1="387.948" y1="279.937" x2="397.675" y2="270.64"/>
				</g>
				<g>
					
						<line style="fill:none;stroke:#263238;stroke-width:2;stroke-miterlimit:10;" x1="379.937" y1="252.993" x2="386.324" y2="242.578"/>
					<path style="fill:#92E3A9;stroke:#263238;stroke-miterlimit:10;" d="M384.375,245.706c0,0-1.045-3.79,1.8-7.662
						c1.712-2.329,11.829-9.342,13.707-5.654C401.926,236.401,392.325,247.151,384.375,245.706z"/>
					
						<line style="fill:none;stroke:#263238;stroke-width:0.5;stroke-miterlimit:10;" x1="384.375" y1="245.706" x2="394.102" y2="236.409"/>
					<path style="fill:#92E3A9;stroke:#263238;stroke-miterlimit:10;" d="M377.205,231.107c0,0-1.045-3.79,1.8-7.661
						c1.712-2.329,11.829-9.343,13.707-5.655C394.756,221.801,385.155,232.552,377.205,231.107z"/>
					
						<line style="fill:none;stroke:#263238;stroke-width:0.5;stroke-miterlimit:10;" x1="377.205" y1="231.107" x2="386.932" y2="221.81"/>
					<path style="fill:#92E3A9;stroke:#263238;stroke-miterlimit:10;" d="M377.769,231.508c0,0-3.879,0.642-7.431-2.594
						c-2.137-1.947-8.051-12.743-4.186-14.225C370.356,213.078,380.04,223.754,377.769,231.508z"/>
					
						<line style="fill:none;stroke:#263238;stroke-width:0.5;stroke-miterlimit:10;" x1="377.769" y1="231.508" x2="369.543" y2="220.86"/>
				</g>
			</g>
		</g>
		<g>
			
				<line style="fill:none;stroke:#263238;stroke-width:2;stroke-miterlimit:10;" x1="426.23" y1="256.543" x2="407.806" y2="434.091"/>
			<g>
				<g>
					
						<line style="fill:none;stroke:#263238;stroke-width:2;stroke-miterlimit:10;" x1="411.879" y1="400.228" x2="405.487" y2="389.817"/>
					<path style="fill:#92E3A9;stroke:#263238;stroke-miterlimit:10;" d="M407.437,392.944c0,0,1.043-3.791-1.804-7.661
						c-1.714-2.328-11.834-9.336-13.711-5.647C389.881,383.648,399.488,394.393,407.437,392.944z"/>
					
						<line style="fill:none;stroke:#263238;stroke-width:0.5;stroke-miterlimit:10;" x1="407.437" y1="392.944" x2="398.252" y2="384.132"/>
				</g>
				<g>
					
						<line style="fill:none;stroke:#263238;stroke-width:2;stroke-miterlimit:10;" x1="416.992" y1="350.955" x2="410.599" y2="340.544"/>
					<path style="fill:#92E3A9;stroke:#263238;stroke-miterlimit:10;" d="M412.549,343.67c0,0,1.043-3.791-1.804-7.66
						c-1.713-2.328-11.834-9.336-13.711-5.647C394.993,334.375,404.601,345.12,412.549,343.67z"/>
					
						<line style="fill:none;stroke:#263238;stroke-width:0.5;stroke-miterlimit:10;" x1="412.549" y1="343.67" x2="403.365" y2="334.859"/>
				</g>
				<g>
					
						<line style="fill:none;stroke:#263238;stroke-width:2;stroke-miterlimit:10;" x1="414.897" y1="371.147" x2="408.504" y2="360.736"/>
					<path style="fill:#92E3A9;stroke:#263238;stroke-miterlimit:10;" d="M410.454,363.862c0,0,1.043-3.791-1.804-7.66
						c-1.714-2.328-11.834-9.336-13.711-5.647C392.898,354.568,402.506,365.312,410.454,363.862z"/>
					
						<line style="fill:none;stroke:#263238;stroke-width:0.5;stroke-miterlimit:10;" x1="410.454" y1="363.862" x2="401.269" y2="355.051"/>
				</g>
				<g>
					
						<line style="fill:none;stroke:#263238;stroke-width:2;stroke-miterlimit:10;" x1="420.396" y1="318.154" x2="414.003" y2="307.743"/>
					<path style="fill:#92E3A9;stroke:#263238;stroke-miterlimit:10;" d="M415.953,310.869c0,0,1.043-3.791-1.805-7.66
						c-1.713-2.328-11.834-9.336-13.711-5.647C398.397,301.574,408.004,312.319,415.953,310.869z"/>
					
						<line style="fill:none;stroke:#263238;stroke-width:0.5;stroke-miterlimit:10;" x1="415.953" y1="310.869" x2="406.768" y2="302.058"/>
				</g>
				<g>
					
						<line style="fill:none;stroke:#263238;stroke-width:2;stroke-miterlimit:10;" x1="423.814" y1="285.21" x2="417.422" y2="274.798"/>
					<path style="fill:#92E3A9;stroke:#263238;stroke-miterlimit:10;" d="M419.372,277.925c0,0,1.043-3.791-1.805-7.66
						c-1.713-2.328-11.834-9.336-13.711-5.647C401.815,268.63,411.423,279.375,419.372,277.925z"/>
					
						<line style="fill:none;stroke:#263238;stroke-width:0.5;stroke-miterlimit:10;" x1="419.372" y1="277.925" x2="410.187" y2="269.114"/>
				</g>
				<g>
					
						<line style="fill:none;stroke:#263238;stroke-width:2;stroke-miterlimit:10;" x1="412.958" y1="388.246" x2="421.352" y2="379.37"/>
					<path style="fill:#92E3A9;stroke:#263238;stroke-miterlimit:10;" d="M418.802,382.03c0,0-0.243-3.924,3.339-7.127
						c2.155-1.927,13.499-6.707,14.578-2.711C437.892,376.537,426.283,385.08,418.802,382.03z"/>
					
						<line style="fill:none;stroke:#263238;stroke-width:0.5;stroke-miterlimit:10;" x1="418.802" y1="382.03" x2="430.234" y2="374.935"/>
				</g>
				<g>
					
						<line style="fill:none;stroke:#263238;stroke-width:2;stroke-miterlimit:10;" x1="418.471" y1="335.11" x2="426.866" y2="326.233"/>
					<path style="fill:#92E3A9;stroke:#263238;stroke-miterlimit:10;" d="M424.315,328.893c0,0-0.243-3.924,3.339-7.127
						c2.155-1.927,13.499-6.707,14.578-2.711C443.406,323.401,431.797,331.944,424.315,328.893z"/>
					
						<line style="fill:none;stroke:#263238;stroke-width:0.5;stroke-miterlimit:10;" x1="424.315" y1="328.893" x2="435.748" y2="321.798"/>
				</g>
				<g>
					
						<line style="fill:none;stroke:#263238;stroke-width:2;stroke-miterlimit:10;" x1="420.895" y1="311.759" x2="429.289" y2="302.882"/>
					<path style="fill:#92E3A9;stroke:#263238;stroke-miterlimit:10;" d="M426.738,305.542c0,0-0.243-3.924,3.339-7.127
						c2.155-1.927,13.499-6.707,14.578-2.711C445.829,300.049,434.22,308.592,426.738,305.542z"/>
					
						<line style="fill:none;stroke:#263238;stroke-width:0.5;stroke-miterlimit:10;" x1="426.738" y1="305.542" x2="438.171" y2="298.447"/>
				</g>
				<g>
					
						<line style="fill:none;stroke:#263238;stroke-width:2;stroke-miterlimit:10;" x1="424.447" y1="277.525" x2="432.841" y2="268.649"/>
					<path style="fill:#92E3A9;stroke:#263238;stroke-miterlimit:10;" d="M430.291,271.308c0,0-0.243-3.924,3.339-7.127
						c2.155-1.927,13.499-6.707,14.578-2.711C449.381,265.816,437.772,274.359,430.291,271.308z"/>
					
						<line style="fill:none;stroke:#263238;stroke-width:0.5;stroke-miterlimit:10;" x1="430.291" y1="271.308" x2="441.723" y2="264.213"/>
					<path style="fill:#92E3A9;stroke:#263238;stroke-miterlimit:10;" d="M426.28,255.546c0,0-0.243-3.924,3.339-7.127
						c2.155-1.927,13.499-6.707,14.578-2.711C445.37,250.053,433.762,258.596,426.28,255.546z"/>
					
						<line style="fill:none;stroke:#263238;stroke-width:0.5;stroke-miterlimit:10;" x1="426.28" y1="255.546" x2="437.713" y2="248.451"/>
					<path style="fill:#92E3A9;stroke:#263238;stroke-miterlimit:10;" d="M426.749,256.054c0,0-3.928-0.17-6.737-4.068
						c-1.69-2.345-5.254-14.128-1.168-14.782C423.289,236.493,430.568,248.934,426.749,256.054z"/>
					
						<line style="fill:none;stroke:#263238;stroke-width:0.5;stroke-miterlimit:10;" x1="426.749" y1="256.054" x2="420.892" y2="243.941"/>
				</g>
			</g>
		</g>
		
			<line style="fill:none;stroke:#263238;stroke-width:2;stroke-miterlimit:10;" x1="405.117" y1="184.245" x2="405.117" y2="408.766"/>
		<g>
			<g>
				
					<line style="fill:none;stroke:#263238;stroke-width:2;stroke-miterlimit:10;" x1="405.296" y1="375.007" x2="397.862" y2="365.311"/>
				<path style="fill:#92E3A9;stroke:#263238;stroke-miterlimit:10;" d="M400.125,368.22c0,0,0.646-3.878-2.586-7.433
					c-1.944-2.139-12.734-8.064-14.22-4.201C381.703,360.787,392.368,370.482,400.125,368.22z"/>
				
					<line style="fill:none;stroke:#263238;stroke-width:0.5;stroke-miterlimit:10;" x1="400.125" y1="368.22" x2="390.08" y2="360.404"/>
			</g>
			<g>
				
					<line style="fill:none;stroke:#263238;stroke-width:2;stroke-miterlimit:10;" x1="405.296" y1="332.813" x2="397.862" y2="323.118"/>
				<path style="fill:#92E3A9;stroke:#263238;stroke-miterlimit:10;" d="M400.125,326.026c0,0,0.646-3.878-2.586-7.433
					c-1.944-2.139-12.734-8.064-14.22-4.202C381.703,318.593,392.368,328.289,400.125,326.026z"/>
				
					<line style="fill:none;stroke:#263238;stroke-width:0.5;stroke-miterlimit:10;" x1="400.125" y1="326.026" x2="390.08" y2="318.21"/>
			</g>
			<g>
				
					<line style="fill:none;stroke:#263238;stroke-width:2;stroke-miterlimit:10;" x1="405.296" y1="283.276" x2="397.862" y2="273.58"/>
				<path style="fill:#92E3A9;stroke:#263238;stroke-miterlimit:10;" d="M400.125,276.489c0,0,0.646-3.878-2.586-7.433
					c-1.944-2.139-12.734-8.064-14.22-4.201C381.703,269.056,392.368,278.751,400.125,276.489z"/>
				
					<line style="fill:none;stroke:#263238;stroke-width:0.5;stroke-miterlimit:10;" x1="400.125" y1="276.489" x2="390.08" y2="268.672"/>
			</g>
			<g>
				
					<line style="fill:none;stroke:#263238;stroke-width:2;stroke-miterlimit:10;" x1="405.296" y1="250.299" x2="397.862" y2="240.603"/>
				<path style="fill:#92E3A9;stroke:#263238;stroke-miterlimit:10;" d="M400.125,243.512c0,0,0.646-3.878-2.586-7.433
					c-1.944-2.139-12.734-8.064-14.22-4.201C381.703,236.079,392.368,245.774,400.125,243.512z"/>
				
					<line style="fill:none;stroke:#263238;stroke-width:0.5;stroke-miterlimit:10;" x1="400.125" y1="243.512" x2="390.08" y2="235.695"/>
			</g>
			<g>
				
					<line style="fill:none;stroke:#263238;stroke-width:2;stroke-miterlimit:10;" x1="405.296" y1="217.178" x2="397.862" y2="207.482"/>
				<path style="fill:#92E3A9;stroke:#263238;stroke-miterlimit:10;" d="M400.125,210.391c0,0,0.646-3.878-2.586-7.433
					c-1.944-2.139-12.734-8.064-14.22-4.201C381.703,202.957,392.368,212.653,400.125,210.391z"/>
				
					<line style="fill:none;stroke:#263238;stroke-width:0.5;stroke-miterlimit:10;" x1="400.125" y1="210.391" x2="390.08" y2="202.574"/>
			</g>
			<g>
				
					<line style="fill:none;stroke:#263238;stroke-width:2;stroke-miterlimit:10;" x1="405.132" y1="387.891" x2="412.565" y2="378.195"/>
				<path style="fill:#92E3A9;stroke:#263238;stroke-miterlimit:10;" d="M410.302,381.104c0,0-0.646-3.878,2.586-7.433
					c1.944-2.139,12.735-8.064,14.22-4.201C428.724,373.671,418.059,383.366,410.302,381.104z"/>
				
					<line style="fill:none;stroke:#263238;stroke-width:0.5;stroke-miterlimit:10;" x1="410.302" y1="381.104" x2="420.942" y2="372.867"/>
			</g>
			<g>
				
					<line style="fill:none;stroke:#263238;stroke-width:2;stroke-miterlimit:10;" x1="405.132" y1="320.785" x2="412.565" y2="311.089"/>
				<path style="fill:#92E3A9;stroke:#263238;stroke-miterlimit:10;" d="M410.302,313.998c0,0-0.646-3.878,2.586-7.433
					c1.944-2.139,12.735-8.064,14.22-4.201C428.724,306.565,418.059,316.26,410.302,313.998z"/>
				
					<line style="fill:none;stroke:#263238;stroke-width:0.5;stroke-miterlimit:10;" x1="410.302" y1="313.998" x2="420.942" y2="305.761"/>
			</g>
			<g>
				
					<line style="fill:none;stroke:#263238;stroke-width:2;stroke-miterlimit:10;" x1="405.132" y1="287.664" x2="412.565" y2="277.968"/>
				<path style="fill:#92E3A9;stroke:#263238;stroke-miterlimit:10;" d="M410.302,280.877c0,0-0.646-3.878,2.586-7.433
					c1.944-2.139,12.735-8.064,14.22-4.202C428.724,273.444,418.059,283.139,410.302,280.877z"/>
				
					<line style="fill:none;stroke:#263238;stroke-width:0.5;stroke-miterlimit:10;" x1="410.302" y1="280.877" x2="420.942" y2="272.64"/>
			</g>
			<g>
				
					<line style="fill:none;stroke:#263238;stroke-width:2;stroke-miterlimit:10;" x1="405.132" y1="243.887" x2="412.565" y2="234.191"/>
				<path style="fill:#92E3A9;stroke:#263238;stroke-miterlimit:10;" d="M410.302,237.099c0,0-0.646-3.878,2.586-7.433
					c1.944-2.139,12.735-8.064,14.22-4.202C428.724,229.666,418.059,239.362,410.302,237.099z"/>
				
					<line style="fill:none;stroke:#263238;stroke-width:0.5;stroke-miterlimit:10;" x1="410.302" y1="237.099" x2="420.942" y2="228.862"/>
			</g>
			<g>
				
					<line style="fill:none;stroke:#263238;stroke-width:2;stroke-miterlimit:10;" x1="405.132" y1="209.469" x2="412.565" y2="199.774"/>
				<path style="fill:#92E3A9;stroke:#263238;stroke-miterlimit:10;" d="M410.302,202.682c0,0-0.646-3.878,2.586-7.433
					c1.944-2.139,12.735-8.065,14.22-4.202C428.724,195.249,418.059,204.945,410.302,202.682z"/>
				
					<line style="fill:none;stroke:#263238;stroke-width:0.5;stroke-miterlimit:10;" x1="410.302" y1="202.682" x2="420.942" y2="194.445"/>
				<path style="fill:#92E3A9;stroke:#263238;stroke-miterlimit:10;" d="M404.686,187.418c0,0-0.646-3.878,2.586-7.433
					c1.944-2.139,12.734-8.064,14.22-4.201C423.108,179.984,412.443,189.68,404.686,187.418z"/>
				
					<line style="fill:none;stroke:#263238;stroke-width:0.5;stroke-miterlimit:10;" x1="404.686" y1="187.418" x2="415.326" y2="179.181"/>
				<path style="fill:#92E3A9;stroke:#263238;stroke-miterlimit:10;" d="M405.205,187.875c0,0-3.925,0.236-7.121-3.351
					c-1.923-2.158-6.684-13.51-2.687-14.582C399.745,168.776,408.269,180.399,405.205,187.875z"/>
				
					<line style="fill:none;stroke:#263238;stroke-width:0.5;stroke-miterlimit:10;" x1="405.205" y1="187.875" x2="398.129" y2="176.431"/>
			</g>
		</g>
		<polygon style="fill:#263238;stroke:#263238;stroke-miterlimit:10;" points="414.354,437.085 390.576,437.085 387.604,406.946 
			417.326,406.946 		"/>
	</g>
</g>
<g id="Book">
	<g>
		<polygon style="fill:#92E3A9;stroke:#263238;stroke-linecap:round;stroke-linejoin:round;stroke-miterlimit:10;" points="
			308.835,441.866 82.231,441.866 82.231,153.635 308.835,151.803 		"/>
		<polygon style="fill:#FFFFFF;stroke:#263238;stroke-linecap:round;stroke-linejoin:round;stroke-miterlimit:10;" points="
			305.312,441.811 300.441,443.701 78.707,445.361 78.707,153.635 305.312,153.635 		"/>
		<polygon style="fill:#FFFFFF;stroke:#263238;stroke-linecap:round;stroke-linejoin:round;stroke-miterlimit:10;" points="
			300.441,443.701 296.111,445.361 73.836,445.361 73.836,153.635 300.441,153.635 		"/>
		
			<rect x="69.506" y="153.635" style="fill:#FFFFFF;stroke:#263238;stroke-linecap:round;stroke-linejoin:round;stroke-miterlimit:10;" width="226.605" height="291.725"/>
		<g>
			
				<line style="fill:none;stroke:#263238;stroke-linecap:round;stroke-linejoin:round;stroke-miterlimit:10;" x1="232.103" y1="188.785" x2="281.83" y2="188.785"/>
			
				<line style="fill:none;stroke:#263238;stroke-width:4;stroke-linecap:round;stroke-linejoin:round;stroke-miterlimit:10;" x1="213.127" y1="188.785" x2="232.103" y2="188.785"/>
			
				<line style="fill:none;stroke:#263238;stroke-linecap:round;stroke-linejoin:round;stroke-miterlimit:10;" x1="213.127" y1="209.893" x2="281.83" y2="209.893"/>
			
				<line style="fill:none;stroke:#263238;stroke-linecap:round;stroke-linejoin:round;stroke-miterlimit:10;" x1="213.127" y1="231.002" x2="281.83" y2="231.002"/>
			
				<line style="fill:none;stroke:#263238;stroke-linecap:round;stroke-linejoin:round;stroke-miterlimit:10;" x1="243.747" y1="252.111" x2="281.83" y2="252.111"/>
			
				<line style="fill:none;stroke:#263238;stroke-width:4;stroke-linecap:round;stroke-linejoin:round;stroke-miterlimit:10;" x1="213.127" y1="252.111" x2="243.747" y2="252.111"/>
			
				<line style="fill:none;stroke:#263238;stroke-linecap:round;stroke-linejoin:round;stroke-miterlimit:10;" x1="213.127" y1="273.22" x2="281.83" y2="273.22"/>
			
				<line style="fill:none;stroke:#263238;stroke-linecap:round;stroke-linejoin:round;stroke-miterlimit:10;" x1="225.202" y1="294.328" x2="281.83" y2="294.328"/>
			
				<line style="fill:none;stroke:#263238;stroke-width:4;stroke-linecap:round;stroke-linejoin:round;stroke-miterlimit:10;" x1="213.127" y1="294.328" x2="225.202" y2="294.328"/>
			
				<line style="fill:none;stroke:#263238;stroke-linecap:round;stroke-linejoin:round;stroke-miterlimit:10;" x1="213.127" y1="315.437" x2="281.83" y2="315.437"/>
			
				<line style="fill:none;stroke:#263238;stroke-linecap:round;stroke-linejoin:round;stroke-miterlimit:10;" x1="213.127" y1="336.546" x2="281.83" y2="336.546"/>
			
				<line style="fill:none;stroke:#263238;stroke-linecap:round;stroke-linejoin:round;stroke-miterlimit:10;" x1="236.416" y1="357.655" x2="281.83" y2="357.655"/>
			
				<line style="fill:none;stroke:#263238;stroke-width:4;stroke-linecap:round;stroke-linejoin:round;stroke-miterlimit:10;" x1="213.127" y1="357.655" x2="236.416" y2="357.655"/>
			
				<line style="fill:none;stroke:#263238;stroke-linecap:round;stroke-linejoin:round;stroke-miterlimit:10;" x1="213.127" y1="378.764" x2="281.83" y2="378.764"/>
			
				<line style="fill:none;stroke:#263238;stroke-linecap:round;stroke-linejoin:round;stroke-miterlimit:10;" x1="213.127" y1="399.872" x2="281.83" y2="399.872"/>
		</g>
		<path style="fill:#FFFFFF;stroke:#263238;stroke-linecap:round;stroke-linejoin:round;stroke-miterlimit:10;" d="M205.235,450.367
			l-4.926,2.828l-134.425-7.228c-3.097-0.167-5.524-2.727-5.524-5.829V157.195c0-3.093,2.413-5.65,5.501-5.827l134.859-7.768
			l4.514,0.943V450.367z"/>
		<path style="fill:#FFFFFF;stroke:#263238;stroke-linecap:round;stroke-linejoin:round;stroke-miterlimit:10;" d="M200.309,453.195
			l-4.102,2.385l-130.434-9.515c-3.051-0.223-5.413-2.763-5.413-5.822V157.147c0-3.074,2.383-5.62,5.45-5.824l130.396-8.665
			l4.514,0.943L200.309,453.195z"/>
		<path style="fill:#FFFFFF;stroke:#263238;stroke-linecap:round;stroke-linejoin:round;stroke-miterlimit:10;" d="M196.207,455.58
			l-5.149,2.701L65.637,446.18c-2.993-0.289-5.277-2.803-5.277-5.81V157.101c0-3.054,2.355-5.592,5.401-5.821l125.435-9.408
			l5.011,0.786V455.58z"/>
		<g>
			<path style="fill:#92E3A9;stroke:#263238;stroke-linecap:round;stroke-linejoin:round;stroke-miterlimit:10;" d="
				M191.057,460.263L63.508,446.242c-2.959-0.325-5.199-2.825-5.199-5.802V156.915c0-2.977,2.24-5.477,5.199-5.802l127.549-14.021
				V460.263z"/>
		</g>
	</g>
</g>
<g id="Speech_Bubble">
	<g>
		<path style="fill:#263238;stroke:#263238;stroke-miterlimit:10;" d="M346.837,183.099h-52.045c-2.593,0-4.695,2.102-4.695,4.696
			v24.064c0,2.593,2.102,4.695,4.695,4.695h10.122l-3.281,11.894l14.181-11.894h31.023c2.593,0,4.695-2.102,4.695-4.695v-24.064
			C351.533,185.201,349.43,183.099,346.837,183.099z"/>
		<g>
			<circle style="fill:#FFFFFF;" cx="307.834" cy="200.356" r="2.9"/>
			<circle style="fill:#FFFFFF;" cx="320.03" cy="200.356" r="2.9"/>
			<circle style="fill:#FFFFFF;" cx="332.227" cy="200.356" r="2.9"/>
		</g>
	</g>
</g>
<g id="Character">
	<g>
		<g>
			<path style="fill:#B5B5B5;stroke:#263238;stroke-linecap:round;stroke-miterlimit:10;" d="M266.587,237.348
				c0,0-0.223,5.055,0.683,7.386c0.906,2.33,2.201,4.66,1.424,6.084c-0.777,1.424-2.201,2.201-1.035,3.236
				c1.165,1.036,3.107,1.165,3.107,1.165s0.906,3.883,2.977,6.861c2.071,2.977,4.789-3.316,4.789-3.316l4.143,5.258
				c0,0,5.437-6.731,9.709-9.709c4.272-2.977,5.566-4.401,5.566-4.401l-2.862-2.947c0,0,1.444-13.507-5.97-17.445
				C277.578,223.389,268.497,231.238,266.587,237.348z"/>
			<path style="fill:#263238;stroke:#263238;stroke-linecap:round;stroke-miterlimit:10;" d="M270.04,236.075
				c0,0-0.669,5.188,0,5.355c0.669,0.167,3.347,0,3.347,0s1.613,5.621,2.45,8.968c0.837,3.347,0.258,7.735-1.248,8.404
				c-1.506,0.669-2.913-0.25-2.913-0.25s-1.021,5.488,2.996,6.158c2.047,0.341,3.243,0.258,4.692-1.035
				c1.472-1.314,1.95-3.412,1.241-5.253c-1.804-4.683-5.248-13.911-4.875-15.152c0.502-1.673,8.134,8.357,8.429,9.041
				c0.295,0.684,5.42-0.774,8.265-2.113c2.845-1.339,2.664-3.235,2.664-3.235s-0.113-14.365-2.623-16.579
				c-5.37-4.735-13.555-5.355-17.572-3.849c-4.016,1.506-9.204,4.686-9.371,7.029c-0.167,2.343,0.837,2.008,3.012,0.167
				s4.853-2.845,4.853-2.845S270.709,233.732,270.04,236.075z"/>
			<g>
				<path style="fill:none;stroke:#263238;stroke-linecap:round;stroke-miterlimit:10;" d="M271.542,257.031
					c0,0,2.33-1.036,2.33-2.718"/>
				<path style="fill:#263238;" d="M269.352,248.393c0.166,0.732,0.498,1.281,0.742,1.226c0.244-0.055,0.307-0.694,0.142-1.426
					c-0.166-0.732-0.498-1.281-0.742-1.226C269.25,247.023,269.187,247.661,269.352,248.393z"/>
				<path style="fill:none;stroke:#263238;stroke-linecap:round;stroke-miterlimit:10;" d="M270.247,245.769
					c0,0-1.036-1.035-2.071-0.388"/>
			</g>
		</g>
		<path style="fill:#B5B5B5;stroke:#263238;stroke-linecap:round;stroke-miterlimit:10;" d="M276.662,246.087
			c0,0-1.461-5.912,1.891-5.666c3.352,0.246,4.234,8.52,3.068,9.284c-1.166,0.764-2.87-0.476-2.87-0.476"/>
		<path style="fill:#92E3A9;stroke:#263238;stroke-linecap:round;stroke-miterlimit:10;" d="M304.513,254.149
			c0,0-4.57-4.391-6.564-4.238c-1.995,0.153-9.191,2.702-11.953,5.924c-2.762,3.222-3.836,6.598-3.836,6.598L304.513,254.149z"/>
		<g>
			<path style="fill:none;stroke:#263238;stroke-linecap:round;stroke-miterlimit:10;" d="M246.487,239.292
				c7.945-2.507,17.513,5.37,21.371,17.595s0.545,24.168-7.4,26.675c-7.945,2.507-17.513-5.37-21.371-17.595
				C235.229,253.742,238.542,241.799,246.487,239.292z M240.72,265.451c3.42,10.836,11.901,17.819,18.944,15.597
				c7.043-2.223,9.979-12.809,6.56-23.645c-3.42-10.836-11.901-17.819-18.944-15.597
				C240.237,244.029,237.301,254.615,240.72,265.451z"/>
			<path style="fill:#B5B5B5;stroke:#263238;stroke-linecap:round;stroke-miterlimit:10;" d="M241.935,240.885l4.551-1.593
				c-7.945,2.507-11.258,14.45-7.4,26.675c3.858,12.225,13.426,20.102,21.371,17.595l-4.551,1.593
				c-7.945,2.507-17.513-5.37-21.371-17.595C230.677,255.335,233.991,243.392,241.935,240.885z"/>
			<g>
				<path style="fill:none;stroke:#263238;stroke-linecap:round;stroke-miterlimit:10;" d="M242.917,244.793
					c-0.124,0.146-0.239,0.303-0.357,0.456C242.678,245.095,242.793,244.939,242.917,244.793z"/>
				<path style="fill:none;stroke:#263238;stroke-linecap:round;stroke-miterlimit:10;" d="M242.098,245.887
					c-0.113,0.169-0.22,0.344-0.327,0.521C241.878,246.231,241.985,246.056,242.098,245.887z"/>
				<path style="fill:none;stroke:#263238;stroke-linecap:round;stroke-miterlimit:10;" d="M256.647,281.449
					c-2.089-0.07-4.22-0.827-6.244-2.151C252.427,280.621,254.558,281.38,256.647,281.449z"/>
				<path style="fill:#B5B5B5;stroke:#263238;stroke-linecap:round;stroke-miterlimit:10;" d="M261.999,258.987
					c-3.139-9.947-10.542-16.641-17.183-15.955c0.753-0.531,1.576-0.946,2.464-1.226c7.043-2.223,15.524,4.76,18.944,15.597
					c3.42,10.837,0.483,21.423-6.56,23.645c-0.578,0.182-1.167,0.297-1.761,0.358C263.121,277.733,264.987,268.456,261.999,258.987z
					"/>
				<path style="fill:none;stroke:#263238;stroke-linecap:round;stroke-miterlimit:10;" d="M257.904,281.406
					c-0.414,0.043-0.831,0.057-1.25,0.043C257.073,281.463,257.49,281.449,257.904,281.406z"/>
				<path style="fill:none;stroke:#263238;stroke-linecap:round;stroke-miterlimit:10;" d="M239.451,253.693
					c-0.021,0.189-0.031,0.385-0.048,0.577C239.42,254.077,239.43,253.882,239.451,253.693z"/>
				<path style="fill:none;stroke:#263238;stroke-linecap:round;stroke-miterlimit:10;" d="M247.956,277.374
					c-0.366-0.339-0.726-0.695-1.078-1.071C247.23,276.679,247.59,277.035,247.956,277.374z"/>
				<path style="fill:none;stroke:#263238;stroke-linecap:round;stroke-miterlimit:10;" d="M243.479,244.192
					c0.118-0.12,0.23-0.247,0.352-0.36C243.708,243.945,243.597,244.073,243.479,244.192z"/>
				<path style="fill:none;stroke:#263238;stroke-linecap:round;stroke-miterlimit:10;" d="M239.309,256.094
					c0.003-0.23,0.004-0.462,0.014-0.689C239.313,255.632,239.313,255.864,239.309,256.094z"/>
				<path style="fill:none;stroke:#263238;stroke-linecap:round;stroke-miterlimit:10;" d="M240.22,249.96
					c-0.056,0.185-0.118,0.365-0.17,0.554C240.101,250.324,240.163,250.145,240.22,249.96z"/>
				<path style="fill:none;stroke:#263238;stroke-linecap:round;stroke-miterlimit:10;" d="M240.75,248.461
					c-0.079,0.194-0.16,0.386-0.233,0.586C240.59,248.846,240.671,248.655,240.75,248.461z"/>
				<path style="fill:none;stroke:#263238;stroke-linecap:round;stroke-miterlimit:10;" d="M239.74,251.852
					c-0.014,0.073-0.035,0.142-0.048,0.215C239.705,251.994,239.725,251.926,239.74,251.852z"/>
				<path style="fill:none;stroke:#263238;stroke-linecap:round;stroke-miterlimit:10;" d="M241.375,247.11
					c-0.098,0.186-0.193,0.373-0.284,0.566C241.182,247.483,241.278,247.296,241.375,247.11z"/>
				<path style="fill:none;stroke:#263238;stroke-linecap:round;stroke-miterlimit:10;" d="M239.499,259.768
					c-0.03-0.252-0.054-0.501-0.077-0.751C239.445,259.266,239.469,259.516,239.499,259.768z"/>
				<path style="fill:none;stroke:#263238;stroke-linecap:round;stroke-miterlimit:10;" d="M239.343,257.918
					c-0.013-0.247-0.025-0.492-0.031-0.736C239.318,257.425,239.33,257.671,239.343,257.918z"/>
				<path style="fill:none;stroke:#263238;stroke-linecap:round;stroke-miterlimit:10;" d="M241.379,267.329
					c0.205,0.53,0.423,1.048,0.651,1.556C241.802,268.377,241.584,267.859,241.379,267.329z"/>
				<path style="fill:none;stroke:#263238;stroke-linecap:round;stroke-miterlimit:10;" d="M239.78,261.644
					c-0.045-0.245-0.08-0.487-0.119-0.73C239.699,261.158,239.735,261.4,239.78,261.644z"/>
				<path style="fill:none;stroke:#263238;stroke-linecap:round;stroke-miterlimit:10;" d="M242.132,269.111
					c0.227,0.494,0.465,0.977,0.713,1.448C242.597,270.088,242.359,269.606,242.132,269.111z"/>
				<path style="fill:none;stroke:#263238;stroke-linecap:round;stroke-miterlimit:10;" d="M240.186,263.541
					c-0.052-0.209-0.092-0.416-0.139-0.624C240.094,263.125,240.134,263.332,240.186,263.541z"/>
				<path style="fill:none;stroke:#263238;stroke-linecap:round;stroke-miterlimit:10;" d="M248.028,277.441
					c0.362,0.332,0.731,0.646,1.104,0.941C248.758,278.086,248.39,277.773,248.028,277.441z"/>
				<path style="fill:none;stroke:#263238;stroke-linecap:round;stroke-miterlimit:10;" d="M249.208,278.442
					c0.378,0.295,0.761,0.572,1.149,0.827C249.969,279.013,249.586,278.737,249.208,278.442z"/>
				<path style="fill:none;stroke:#263238;stroke-linecap:round;stroke-miterlimit:10;" d="M246.847,276.269
					c-0.713-0.764-1.395-1.603-2.039-2.507C245.452,274.666,246.134,275.505,246.847,276.269z"/>
				<path style="fill:none;stroke:#263238;stroke-linecap:round;stroke-miterlimit:10;" d="M243.865,272.343
					c0.282,0.454,0.572,0.896,0.872,1.322C244.437,273.239,244.147,272.797,243.865,272.343z"/>
				<path style="fill:none;stroke:#263238;stroke-linecap:round;stroke-miterlimit:10;" d="M242.966,270.786
					c0.252,0.469,0.513,0.927,0.785,1.372C243.479,271.714,243.218,271.256,242.966,270.786z"/>
				<path style="fill:none;stroke:#263238;stroke-linecap:round;stroke-miterlimit:10;" d="M240.72,265.451
					c0.184,0.583,0.385,1.152,0.598,1.712C241.106,266.604,240.904,266.034,240.72,265.451z"/>
			</g>
		</g>
		<path style="fill:#263238;" d="M254.844,284.188c0.743-0.169,1.503,0.253,1.728,0.98c0.003,0.008,0.005,0.017,0.008,0.025
			l1.417,5.164c0.959,3.44,1.831,6.898,2.735,10.349c1.732,6.919,4.44,18.658,5.805,25.655c0.328,1.69-0.796,3.353-2.536,3.637
			c-1.633,0.267-3.168-0.906-3.538-2.519c-1.58-6.894-3.863-18.666-5.083-25.636c-0.577-3.521-1.186-7.035-1.708-10.567
			l-0.805-5.294c-0.001-0.004-0.001-0.009-0.001-0.013c-0.088-0.741,0.412-1.425,1.139-1.591L254.844,284.188z"/>
		<path style="fill:#B5B5B5;stroke:#263238;stroke-linecap:round;stroke-miterlimit:10;" d="M267.838,309.216
			c0,0-1.721-2.395-2.152-3.041c-0.43-0.646-2.691-3.552-2.798-5.059c-0.108-1.507-0.538-2.906-1.399-2.045
			c-0.861,0.861-1.184,2.583-0.753,3.659c0.431,1.076,0.646,2.368,0.646,2.368s-4.305-1.292-4.951-1.076
			c-0.646,0.215-2.153,0.969-2.153,2.045c0,1.076,1.184,2.045,1.184,2.045s0.43,5.381,1.399,6.35
			c0.969,0.969,7.857,2.153,7.857,2.153L267.838,309.216z"/>
		<path style="fill:#FFFFFF;stroke:#263238;stroke-linecap:round;stroke-miterlimit:10;" d="M267.838,309.216l-2.152-0.027
			c0,0-1.399,2.153-1.507,4.197c-0.108,2.045,0.323,4.52,0.323,4.52l1.83,0.108L267.838,309.216z"/>
		<path style="fill:#263238;stroke:#263238;stroke-miterlimit:10;" d="M348.114,441.467c0,0,1.047,8.03,0.815,8.496
			c-0.233,0.466-3.259,2.56-6.866,2.328c-3.608-0.233-7.448-1.513-7.448-1.513s-6.75,0.233-7.448,0.233
			c-0.698,0,1.28-13.151,1.513-13.5c0.233-0.349,7.448-0.466,7.448-0.466L348.114,441.467z"/>
		<path style="fill:#FFFFFF;stroke:#263238;stroke-linecap:round;stroke-linejoin:round;stroke-miterlimit:10;" d="M358.702,327.412
			c0,0,0.404-2.222-4.646,14.949c-5.051,17.172-7.273,30.909-7.475,33.737c-0.202,2.828,3.838,17.576,4.04,30.505
			s-2.626,27.475-2.626,28.889c0,1.414,0.606,3.838,0.606,4.848s-0.202,2.02-0.202,2.02s-8.687-0.404-11.313-1.414
			c-2.626-1.01-5.657-2.626-5.657-2.626s-0.202-23.434-0.404-34.141c-0.202-10.707,3.03-53.333,5.05-60.202
			c2.02-6.869,3.434-12.525,3.434-12.525L358.702,327.412z"/>
		<path style="fill:#263238;stroke:#263238;stroke-miterlimit:10;" d="M312.642,440.341c0,0-6.774,5.083-8.52,6.247
			c-1.746,1.164-9.078,0.465-10.358,1.28c-1.28,0.815-2.211,1.513-1.513,3.259c0.698,1.746,13.151,4.772,18.272,5.121
			c5.121,0.349,18.737,0.815,20.599-0.116c1.862-0.931,1.28-5.004,1.047-6.517c-0.233-1.513-0.233-2.56-0.233-2.56L312.642,440.341z
			"/>
		<path style="fill:#FFFFFF;stroke:#263238;stroke-linecap:round;stroke-linejoin:round;stroke-miterlimit:10;" d="M314.662,348.422
			c0,0,2.626,58.586,2.626,72.121c0,13.535-4.646,19.798-4.646,19.798s-0.808,1.616,4.848,4.444
			c5.657,2.828,14.546,3.838,14.546,3.838s1.616-5.859,1.414-6.869c-0.202-1.01-0.202-3.434-0.404-4.04
			c-0.202-0.606,3.434-26.465,2.828-39.798c-0.606-13.333,2.424-33.333,3.434-37.778s7.071-22.424,7.071-22.424l3.636-7.879
			c0,0-11.313,1.414-17.172,4.04C326.985,336.503,314.662,348.422,314.662,348.422z"/>
		<path style="fill:none;stroke:#263238;stroke-linecap:round;stroke-miterlimit:10;" d="M318.887,377.512
			c0,0,4.591,15.647,12.139,26.668"/>
		<path style="fill:none;stroke:#263238;stroke-linecap:round;stroke-miterlimit:10;" d="M325.074,400.012
			c0,0,4.219,7.031,7.594,10.407"/>
		<path style="fill:#263238;stroke:#263238;stroke-linecap:round;stroke-miterlimit:10;" d="M321.979,346.849
			c0,0,15.09-6.938,19.252-7.458c4.163-0.52,5.03-0.52,5.03-0.52s3.296-2.949,6.591-2.949c3.296,0,3.296,0,3.296,0l2.602-7.458
			c0,0-15.409,1.121-19.238,2.989C335.681,333.32,321.979,346.849,321.979,346.849z"/>
		<path style="fill:#92E3A9;stroke:#263238;stroke-linecap:round;stroke-miterlimit:10;" d="M323.091,261.245
			c0,0,19.722,19.606,20.419,21.231c0.696,1.624,8.585,15.082,8.585,15.082l-9.513,3.828l-21.463-37.821
			C321.119,263.565,321.467,260.317,323.091,261.245z"/>
		<path style="fill:none;stroke:#263238;stroke-linecap:round;stroke-miterlimit:10;" d="M338.421,289.539
			c0,0,1.426-2.852,3.644-4.277"/>
		<g>
			<polygon style="fill:#263238;stroke:#263238;stroke-linecap:round;stroke-miterlimit:10;" points="287.512,284.987 
				283.96,336.149 289.407,342.781 292.96,334.491 290.355,285.224 			"/>
			<path style="fill:#92E3A9;stroke:#263238;stroke-linecap:round;stroke-miterlimit:10;" d="M282.691,262.494
				c0,0-7.931,6.201-7.499,9.95c0.433,3.749,3.317,18.314,3.317,18.314l-3.317,18.314l-7.354,0.144c0,0-2.163,4.47-2.019,6.778
				c0.144,2.307,0.721,3.749,0.721,3.749s18.891,2.452,20.621,1.73c1.73-0.721,5.047-17.16,5.047-17.16l12.358,20.94l9.273,26.647
				l28.841-18.17l22.784-5.48c0,0-2.163-7.499-4.615-10.238c-2.451-2.74-16.872-16.728-16.872-16.728s-18.026-39.368-22.784-41.675
				c-4.759-2.307-20.765-5.912-20.765-5.912L282.691,262.494z"/>
			
				<line style="fill:none;stroke:#263238;stroke-linecap:round;stroke-miterlimit:10;" x1="292.208" y1="304.314" x2="298.121" y2="282.827"/>
			<g>
				
					<line style="fill:none;stroke:#263238;stroke-linecap:round;stroke-miterlimit:10;" x1="297.256" y1="290.037" x2="312.109" y2="287.586"/>
				
					<line style="fill:none;stroke:#263238;stroke-linecap:round;stroke-miterlimit:10;" x1="311.41" y1="291.202" x2="314.128" y2="291.335"/>
				
					<line style="fill:none;stroke:#263238;stroke-linecap:round;stroke-miterlimit:10;" x1="299.284" y1="290.607" x2="308.861" y2="291.077"/>
				<polyline style="fill:none;stroke:#263238;stroke-linecap:round;stroke-miterlimit:10;" points="312.109,321.855 
					321.862,317.52 322.946,319.868 312.289,324.926 312.109,323.3 				"/>
				<path style="fill:none;stroke:#263238;stroke-linecap:round;stroke-miterlimit:10;" d="M303.439,257.371
					c0,0,5.961,4.154,7.767,11.199"/>
			</g>
		</g>
		<path style="fill:none;stroke:#263238;stroke-linecap:round;stroke-miterlimit:10;" d="M275.192,309.072
			c0,0-0.433,3.749-0.433,5.047"/>
		<path style="fill:#B5B5B5;stroke:#263238;stroke-linecap:round;stroke-miterlimit:10;" d="M343.397,297.439
			c0,0,3.104-5.519,3.38-5.795c0.276-0.276,3.104,0,3.656,0.552c0.552,0.552,3.38,2.07,3.38,2.621c0,0.552-0.345,0.966-0.828,0.966
			c-0.483,0-1.863-0.897-1.863-0.897l-4.967,2.414c0,0-1.104,1.035-1.862,0.69L343.397,297.439z"/>
		<g>
			<path style="fill:#B5B5B5;stroke:#263238;stroke-linecap:round;stroke-miterlimit:10;" d="M345.466,296.267
				c0,0,4.553-2.207,4.967-2c0.414,0.207,1.242,0.966,1.173,1.449c-0.069,0.483,1.725,2.069,1.863,2.966
				c0.138,0.897,1.38,3.725,1.449,4.691c0.069,0.966-0.414,1.518-3.173,2.966c-2.759,1.449-3.725-0.276-4.691-1.38
				c-0.966-1.104-4.277-6.07-4.484-6.691C342.362,297.646,345.466,296.267,345.466,296.267z"/>
			<path style="fill:#B5B5B5;stroke:#263238;stroke-linecap:round;stroke-miterlimit:10;" d="M351.605,295.715
				c0,0-5.587,5.105-6.415,5.588"/>
			<path style="fill:#B5B5B5;stroke:#263238;stroke-linecap:round;stroke-miterlimit:10;" d="M353.468,298.681
				c0,0-5.243,5.174-6.346,5.519"/>
			<path style="fill:#B5B5B5;stroke:#263238;stroke-linecap:round;stroke-miterlimit:10;" d="M354.296,301.647
				c0,0-3.863,3.932-4.622,4.208"/>
		</g>
	</g>
</g>
<g id="Text">
	<g>
		<path style="fill:#263238;" d="M76.456,249.357l9.843-78.336l13.353-1.27l10.056,78.375l-10.981,0.406l-1.78-16.525l-7.79,0.384
			l-1.82,16.563L76.456,249.357z M90.199,222.01l5.629-0.32l-2.821-30.411L90.199,222.01z"/>
		<path style="fill:#263238;" d="M114.961,218.535V208.31l17.737-1.169v10.357L114.961,218.535z"/>
		<path style="fill:#263238;" d="M139.108,247.038v-10.806l14.001-59.338l-13.371,1.155v-12.111l26.054-2.478v10.298l-14.466,60.615
			l14.612-0.668v12.339L139.108,247.038z"/>
	</g>
</g>
</svg>
