<?xml version="1.0" encoding="utf-8"?>
<!-- Generator: Adobe Illustrator 27.5.0, SVG Export Plug-In . SVG Version: 6.00 Build 0)  -->
<svg version="1.1" xmlns="http://www.w3.org/2000/svg" xmlns:xlink="http://www.w3.org/1999/xlink" x="0px" y="0px"
	 viewBox="0 0 500 500" style="enable-background:new 0 0 500 500;" xml:space="preserve">
<g id="Background_Simple">
	<g>
		<path style="fill:#92E3A9;" d="M472.683,127.917c-11.839-51.927-59.247-75.491-105.01-92.825
			C304.981,11.346,233.808-3.924,181.298,48.066c-19.154,18.965-36.549,39.855-55.322,59.119
			c-6.417,6.584-12.889,13.114-19.436,19.569c-24.037,23.697-49.812,46.63-71.524,72.544
			c-23.34,27.858-42.163,133.266,8.282,191.241c50.445,57.975,107.667,38.399,152.842,29.364
			c45.175-9.035,94.867,17.317,155.854,17.317s117.455-19.576,134.772-85.079c17.316-65.501-6.774-91.101-9.035-141.544
			C476.543,184.112,478.798,154.741,472.683,127.917z"/>
		<path style="opacity:0.7;fill:#FFFFFF;" d="M472.683,127.917c-11.839-51.927-59.247-75.491-105.01-92.825
			C304.981,11.346,233.808-3.924,181.298,48.066c-19.154,18.965-36.549,39.855-55.322,59.119
			c-6.417,6.584-12.889,13.114-19.436,19.569c-24.037,23.697-49.812,46.63-71.524,72.544
			c-23.34,27.858-42.163,133.266,8.282,191.241c50.445,57.975,107.667,38.399,152.842,29.364
			c45.175-9.035,94.867,17.317,155.854,17.317s117.455-19.576,134.772-85.079c17.316-65.501-6.774-91.101-9.035-141.544
			C476.543,184.112,478.798,154.741,472.683,127.917z"/>
	</g>
</g>
<g id="Floor_00000098221700982723551810000000528985824456195760_">
	<g>
		
			<line style="fill:none;stroke:#263238;stroke-linecap:round;stroke-linejoin:round;stroke-miterlimit:10;" x1="66.096" y1="469.541" x2="19.07" y2="469.541"/>
		
			<line style="fill:none;stroke:#263238;stroke-linecap:round;stroke-linejoin:round;stroke-miterlimit:10;" x1="487.019" y1="469.541" x2="74.479" y2="469.541"/>
	</g>
</g>
<g id="Plant_00000021088482074575017780000015770680559032489359_">
	<g>
		<g>
			<path style="fill:#92E3A9;stroke:#263238;stroke-linecap:round;stroke-linejoin:round;stroke-miterlimit:10;" d="
				M160.067,361.044c0,0-1.796,4.94-5.614,5.614c-3.817,0.674-10.554-6.737-6.288-10.554
				C152.432,352.286,158.271,358.349,160.067,361.044z"/>
			<path style="fill:#92E3A9;stroke:#263238;stroke-linecap:round;stroke-linejoin:round;stroke-miterlimit:10;" d="
				M165.906,336.792c0,0-5.614,13.698-3.368,20.435c2.245,6.737,16.168,11.677,20.21,2.919c4.042-8.758-4.94-21.108-8.309-23.803
				C171.071,333.648,167.029,334.546,165.906,336.792z"/>
			<path style="fill:#92E3A9;stroke:#263238;stroke-linecap:round;stroke-linejoin:round;stroke-miterlimit:10;" d="M198.691,342.63
				c0,0-9.656,8.758-10.779,17.515c-1.123,8.758,5.389,11.902,12.126,10.779c6.737-1.123,10.105-18.189,8.084-26.049
				C206.102,337.016,198.691,342.63,198.691,342.63z"/>
			<g>
				<path style="fill:#92E3A9;stroke:#263238;stroke-linecap:round;stroke-linejoin:round;stroke-miterlimit:10;" d="
					M200.488,391.134c0,0-10.779,0.449-11.228,5.614c-0.449,5.165,4.716,6.288,9.88,1.796
					C204.305,394.054,204.979,391.359,200.488,391.134z"/>
				<path style="fill:none;stroke:#263238;stroke-miterlimit:10;" d="M189.438,397.979c0,0,8.495-3.886,12.32-4.561"/>
			</g>
			<g>
				<path style="fill:#92E3A9;stroke:#263238;stroke-linecap:round;stroke-linejoin:round;stroke-miterlimit:10;" d="M202.89,424.93
					c0,0-7.917-7.328-11.897-4.005c-3.98,3.323-1.135,7.777,5.691,8.274C203.511,429.695,205.897,428.273,202.89,424.93z"/>
				<path style="fill:none;stroke:#263238;stroke-miterlimit:10;" d="M190.246,421.919c0,0,8.745,3.285,11.921,5.522"/>
			</g>
			<g>
				<path style="fill:#92E3A9;stroke:#263238;stroke-linecap:round;stroke-linejoin:round;stroke-miterlimit:10;" d="
					M161.127,422.772c0,0,10.914-10.101,16.4-5.521c5.486,4.58,1.564,10.721-7.846,11.405
					C160.271,429.341,156.982,427.381,161.127,422.772z"/>
				<path style="fill:none;stroke:#263238;stroke-miterlimit:10;" d="M178.557,418.621c0,0-12.055,4.528-16.433,7.612"/>
			</g>
			<path style="fill:#92E3A9;stroke:#263238;stroke-linecap:round;stroke-linejoin:round;stroke-miterlimit:10;" d="
				M173.765,401.913c0,0-1.123,5.389-5.165,7.41c-4.042,2.021-11.228-2.246-7.41-8.758
				C165.007,394.054,171.744,399.218,173.765,401.913z"/>
			<path style="fill:#92E3A9;stroke:#263238;stroke-linecap:round;stroke-linejoin:round;stroke-miterlimit:10;" d="
				M164.334,385.072c0,0-2.021-4.491-9.881-1.572c-7.859,2.919-11.003,7.41-6.063,8.982
				C153.331,394.054,164.334,385.072,164.334,385.072z"/>
			<path style="fill:none;stroke:#263238;stroke-miterlimit:10;" d="M162.829,384.867c0,0-8.326,0.9-12.826,4.726"/>
			<path style="fill:#92E3A9;stroke:#263238;stroke-linecap:round;stroke-linejoin:round;stroke-miterlimit:10;" d="M186.79,331.178
				c0,0,1.347,3.144,4.042,2.47c2.695-0.673,3.368-4.716,7.635-3.593s7.859,6.063,7.859,3.818c0-2.246-5.389-8.084-11.452-8.084
				C188.811,325.788,187.014,328.258,186.79,331.178z"/>
			<path style="fill:none;stroke:#263238;stroke-miterlimit:10;" d="M164.334,385.072c0,0,9.669-1.856,13.696,8.881
				c0.395,1.053,0.729,2.155,1.009,3.286"/>
			<path style="fill:#92E3A9;stroke:#263238;stroke-linecap:round;stroke-linejoin:round;stroke-miterlimit:10;" d="
				M204.688,374.669c0,0,2.021-4.491,9.881-1.572c7.859,2.919,11.003,7.41,6.063,8.982
				C215.691,383.652,204.688,374.669,204.688,374.669z"/>
			<path style="fill:none;stroke:#263238;stroke-miterlimit:10;" d="M206.484,374.966c0,0,8.101-0.45,11.926,4.276"/>
			<path style="fill:none;stroke:#263238;stroke-miterlimit:10;" d="M204.688,374.669c0,0-3.205-0.615-6.693,0.912"/>
			<path style="fill:none;stroke:#263238;stroke-miterlimit:10;" d="M169.488,366.614c-4.739-4.839-9.421-5.57-9.421-5.57
				s-6.914-1.83-9.615,0.645"/>
			<g>
				<line style="fill:none;stroke:#263238;stroke-miterlimit:10;" x1="170.45" y1="341.738" x2="170.03" y2="339.862"/>
				<path style="fill:none;stroke:#263238;stroke-miterlimit:10;" d="M181.385,441.013c0,0,1.007-38.672,0-50.416
					c-1.007-11.744-5.704-25.501-5.704-25.501l-4.785-21.369"/>
				<line style="fill:none;stroke:#263238;stroke-miterlimit:10;" x1="201.343" y1="350.041" x2="202.208" y2="348.188"/>
				<path style="fill:none;stroke:#263238;stroke-miterlimit:10;" d="M183.734,440.97c0,0,0.336-35.274,1.678-45.34
					c1.342-10.066,6.711-25.837,6.711-25.837l8.239-17.649"/>
				<path style="fill:none;stroke:#263238;stroke-miterlimit:10;" d="M189.438,397.979c0,0-2.349,20.223-3.691,43.04"/>
				<path style="fill:none;stroke:#263238;stroke-miterlimit:10;" d="M178.03,440.97c0,0,0.671-32.254-0.671-36.616
					c-1.342-4.362-3.593-2.441-3.593-2.441s-6.211,0.73-8.461,4.331"/>
				<path style="fill:none;stroke:#263238;stroke-miterlimit:10;" d="M179.571,399.751c1.756,9.836,0.136,41.253,0.136,41.253"/>
				<path style="fill:none;stroke:#263238;stroke-miterlimit:10;" d="M196.092,376.636c-1.943,1.33-3.811,3.477-5.1,6.915
					c-4.027,10.738-3.567,57.468-3.567,57.468"/>
				<path style="fill:none;stroke:#263238;stroke-miterlimit:10;" d="M170.657,367.894c2.098,2.463,4.132,5.793,5.695,10.288
					c5.369,15.435,7.382,55.406,6.375,62.788"/>
				<path style="fill:none;stroke:#263238;stroke-miterlimit:10;" d="M184.292,382.339c-0.327,19.48-0.558,58.631-0.558,58.631"/>
			</g>
			<path style="fill:none;stroke:#263238;stroke-miterlimit:10;" d="M184.333,379.915c0.221-12.881,0.482-25.488,0.743-32.268
				c0.671-17.448,1.713-16.47,1.713-16.47s1.242-3.918,8.218-3.467"/>
			<g>
				<path style="fill:#92E3A9;stroke:#263238;stroke-linecap:round;stroke-linejoin:round;stroke-miterlimit:10;" d="
					M175.74,394.625c0,0-5.614-5.006-3.368-7.468s16.168-4.268,20.21-1.067c4.042,3.201-4.94,7.714-8.309,8.699
					C180.905,395.774,176.863,395.446,175.74,394.625z"/>
				<path style="fill:none;stroke:#263238;stroke-miterlimit:10;" d="M180.925,390.526c-0.078,0.507-0.125,1.011-0.125,1.495"/>
				<path style="fill:none;stroke:#263238;stroke-miterlimit:10;" d="M182.855,384.681c0,0-0.835,1.671-1.441,3.719"/>
			</g>
			<g>
				<path style="fill:#92E3A9;stroke:#263238;stroke-linecap:round;stroke-linejoin:round;stroke-miterlimit:10;" d="
					M175.74,427.358c0,0-5.614-5.006-3.368-7.468c2.246-2.462,16.168-4.268,20.21-1.067c4.042,3.201-4.94,7.715-8.309,8.699
					C180.905,428.507,176.863,428.178,175.74,427.358z"/>
				<path style="fill:none;stroke:#263238;stroke-miterlimit:10;" d="M182.855,417.414c0,0-2.055,4.11-2.055,7.339"/>
			</g>
			<g>
				<path style="fill:#92E3A9;stroke:#263238;stroke-linecap:round;stroke-linejoin:round;stroke-miterlimit:10;" d="
					M179.919,413.514c0,0-3.812-3.399-2.287-5.071c1.525-1.672,10.977-2.897,13.722-0.724c2.744,2.173-3.354,5.238-5.641,5.906
					C183.426,414.294,180.682,414.071,179.919,413.514z"/>
				<path style="fill:none;stroke:#263238;stroke-miterlimit:10;" d="M184.75,406.763c0,0-1.395,2.79-1.395,4.983"/>
			</g>
		</g>
		
			<rect x="174.647" y="435.402" style="fill:#263238;stroke:#263238;stroke-linecap:round;stroke-linejoin:round;stroke-miterlimit:10;" width="15.197" height="33.697"/>
	</g>
</g>
<g id="Character_4">
	<g>
		<g>
			<path style="fill:#263238;" d="M445.206,390.882c-5.663,0-10.343-3.44-10.62-3.648c-0.928-0.695-1.116-2.012-0.419-2.94
				c0.695-0.926,2.011-1.118,2.94-0.419c0.292,0.215,7.33,5.333,13.206,1.172c4.323-3.063,4.909-23.678,3.944-37.338
				c-0.082-1.157,0.789-2.16,1.947-2.242c1.166-0.066,2.161,0.791,2.242,1.946c0.416,5.887,2.1,35.532-5.705,41.061
				C450.228,390.253,447.627,390.882,445.206,390.882z"/>
		</g>
		
			<rect x="412.3" y="390.503" style="fill:#263238;stroke:#263238;stroke-linecap:round;stroke-linejoin:round;stroke-miterlimit:10;" width="6.99" height="51.419"/>
		<path style="fill:#8C8C8C;stroke:#263238;stroke-linecap:round;stroke-linejoin:round;stroke-miterlimit:10;" d="M443.18,385.553
			h-54.77c-2.112,0-3.824-1.712-3.824-3.824V374.3c0-2.112,1.712-3.824,3.824-3.824h54.77c2.112,0,3.824,1.712,3.824,3.824v7.429
			C447.003,383.841,445.292,385.553,443.18,385.553z"/>
		<path style="fill:#8C8C8C;stroke:#263238;stroke-linecap:round;stroke-linejoin:round;stroke-miterlimit:10;" d="M452.509,300.556
			c-0.552,1.236-0.989,2.529-1.365,3.83c-2.638,9.113-2.836,18.973-2.936,28.404c-0.039,3.749-1.018,9.82,0.438,13.299
			c1.814,4.335,9.989,6.323,12.244,1.437c2.843-6.161,1.123-14.343,2.492-20.98c1.518-7.361,5.703-16.468,3.877-23.915
			c-1.742-7.104-7.459-12.812-13.02-5.121C453.552,298.459,452.987,299.486,452.509,300.556z"/>
		
			<rect x="402.938" y="385.703" style="fill:#263238;stroke:#263238;stroke-linecap:round;stroke-linejoin:round;stroke-miterlimit:10;" width="25.713" height="6.99"/>
		<g>
			<path style="fill:#FFFFFF;stroke:#263238;stroke-linecap:round;stroke-linejoin:round;stroke-miterlimit:10;" d="
				M385.589,466.251c0,1.817-1.473,3.29-3.29,3.29s-3.29-1.473-3.29-3.29c0-1.817,1.473-3.29,3.29-3.29
				S385.589,464.434,385.589,466.251z"/>
			<path style="fill:#FFFFFF;stroke:#263238;stroke-linecap:round;stroke-linejoin:round;stroke-miterlimit:10;" d="
				M453.179,466.251c0,1.817-1.473,3.29-3.29,3.29c-1.817,0-3.29-1.473-3.29-3.29c0-1.817,1.473-3.29,3.29-3.29
				C451.706,462.961,453.179,464.434,453.179,466.251z"/>
			<path style="fill:#FFFFFF;stroke:#263238;stroke-linecap:round;stroke-linejoin:round;stroke-miterlimit:10;" d="
				M418.986,466.251c0,1.817-1.473,3.29-3.29,3.29c-1.817,0-3.29-1.473-3.29-3.29c0-1.817,1.473-3.29,3.29-3.29
				C417.513,462.961,418.986,464.434,418.986,466.251z"/>
			<polygon style="fill:#263238;stroke:#263238;stroke-linecap:round;stroke-linejoin:round;stroke-miterlimit:10;" points="
				418.011,441.922 415.795,442.006 413.579,441.922 377.414,462.363 377.414,465.354 382.305,465.354 382.305,462.762 
				415.795,450.986 449.285,462.762 449.285,465.354 454.176,465.354 454.176,462.363 			"/>
			<polygon style="fill:#263238;stroke:#263238;stroke-linecap:round;stroke-linejoin:round;stroke-miterlimit:10;" points="
				412.595,441.827 418.995,441.827 418.035,465.354 413.555,465.354 			"/>
		</g>
	</g>
	<g>
		<g>
			<path style="fill:#FFFFFF;stroke:#263238;stroke-linecap:round;stroke-linejoin:round;stroke-miterlimit:10;" d="
				M378.843,228.714c0,0-0.896,7.019,1.792,10.902c2.688,3.883,3.435,6.123,3.435,7.915c0,1.792-1.195,4.779,0,5.675
				c1.195,0.896,4.779,0,4.779,0s6.421,6.571,8.661,5.973c2.24-0.597,4.48-2.389,4.48-2.389s6.72,6.869,7.616,8.811
				c0.896,1.941,1.493,3.435,1.493,3.435l10.005-15.829c0,0-6.571-4.779-9.707-13.142c-3.136-8.363-3.136-19.413-12.693-21.803
				C389.147,215.871,379.889,224.682,378.843,228.714z"/>
			<path style="fill:none;stroke:#263238;stroke-linecap:round;stroke-linejoin:round;stroke-miterlimit:10;" d="M391.28,252.159
				c0,0,2.837-1.344,2.837-4.032"/>
			<path style="fill:none;stroke:#263238;stroke-linecap:round;stroke-linejoin:round;stroke-miterlimit:10;" d="M382.774,240.882
				c0,0-0.149-3.285,3.435-2.688"/>
			<path style="fill:#263238;" d="M387.69,243.195c0.559,0.866,0.648,1.804,0.198,2.095c-0.45,0.291-1.269-0.175-1.828-1.041
				c-0.559-0.866-0.648-1.804-0.197-2.095C386.312,241.863,387.131,242.329,387.69,243.195z"/>
		</g>
		<polygon style="fill:#263238;stroke:#263238;stroke-linecap:round;stroke-linejoin:round;stroke-miterlimit:10;" points="
			401.99,256.789 406.017,253.731 406.017,260.507 		"/>
		<g>
			<path style="fill:#FFFFFF;stroke:#263238;stroke-linecap:round;stroke-linejoin:round;stroke-miterlimit:10;" d="M341.25,365.115
				l-8.713,87.504c0,0-12.351,0.257-17.497-0.257c-5.146-0.515-10.035-2.573-9.521,0.257c0.515,2.83,8.234,7.462,11.064,8.749
				c2.83,1.287,6.433,2.058,8.748,3.345c2.316,1.287,7.205,4.889,9.263,4.374c2.059-0.515,6.69-19.298,6.69-19.298l23.895-76.954
				l26.76-2.058c0,0-40.397-10.807-44.514-11.322C343.309,358.94,341.25,365.115,341.25,365.115z"/>
			<path style="fill:#92E3A9;stroke:#263238;stroke-linecap:round;stroke-linejoin:round;stroke-miterlimit:10;" d="
				M327.905,459.824c-8.749-2.059-11.836-4.632-11.836-4.632l2.331-2.622c-1.276-0.049-2.435-0.116-3.36-0.208
				c-5.146-0.515-10.035-2.573-9.521,0.257c0.515,2.831,8.234,7.462,11.064,8.749c2.83,1.286,6.433,2.058,8.748,3.345
				c2.316,1.287,7.205,4.889,9.263,4.374c0.855-0.214,2.152-3.577,3.378-7.437C335.789,461.402,332.44,460.891,327.905,459.824z"/>
		</g>
		<g>
			<path style="fill:#FFFFFF;stroke:#263238;stroke-linecap:round;stroke-linejoin:round;stroke-miterlimit:10;" d="
				M405.114,325.782l-3.396,13.345c0,0-15.439,0.515-32.936,4.117c-17.497,3.602-33.708,8.491-34.222,11.579
				c-0.514,3.088,19.556,39.883,35.251,68.187c3.394,6.121,10.807,21.614,10.807,21.614s-2.83,7.719-5.661,12.094
				c-2.83,4.374-7.205,8.491-8.234,9.006c-1.029,0.515-4.117,1.801-3.088,3.088c1.029,1.287,11.579,0,12.351,0
				c0.772,0,9.006-7.205,11.322-9.263c2.316-2.059,11.322-8.749,11.064-11.322c-0.257-2.573-8.234-8.234-8.748-10.035
				c-0.515-1.801-10.807-24.187-11.322-26.246c-0.515-2.059-14.152-42.456-14.152-42.456s55.836,3.088,67.93,2.059
				c12.093-1.029,13.895-5.661,14.667-9.778c0.772-4.117-4.632-37.567-4.632-37.567l-36.023-0.257L405.114,325.782z"/>
			
				<line style="fill:none;stroke:#263238;stroke-linecap:round;stroke-linejoin:round;stroke-miterlimit:10;" x1="364.15" y1="369.49" x2="351.8" y2="364.343"/>
			<path style="fill:#92E3A9;stroke:#263238;stroke-linecap:round;stroke-linejoin:round;stroke-miterlimit:10;" d="
				M398.373,448.226c-0.126-1.263-2.113-3.27-4.164-5.199c-0.826,1.05-1.776,2.223-2.784,3.398
				c-3.088,3.602-16.21,16.468-16.21,16.468l-4.194-1.144c-1.926,2.116-3.692,3.671-4.297,3.974
				c-1.029,0.515-4.117,1.801-3.088,3.088s11.579,0,12.351,0c0.772,0,9.006-7.205,11.322-9.263
				C389.624,457.489,398.63,450.799,398.373,448.226z"/>
		</g>
		<g>
			<path style="fill:#92E3A9;stroke:#263238;stroke-linecap:round;stroke-linejoin:round;stroke-miterlimit:10;" d="
				M406.092,323.946l-0.978,1.837l-3.396,13.345c0,0-15.439,0.514-32.936,4.117c-5.247,1.08-10.374,2.276-15.001,3.505
				l11.949,22.827c9.146,0.491,55.464,2.899,66.35,1.973c12.093-1.029,13.895-5.661,14.667-9.778
				c0.772-4.117-4.632-37.567-4.632-37.567L406.092,323.946z"/>
			<path style="fill:none;stroke:#263238;stroke-linecap:round;stroke-linejoin:round;stroke-miterlimit:10;" d="M404.805,340.414
				c0,0,18.269,2.573,26.503,9.52"/>
			<path style="fill:none;stroke:#263238;stroke-linecap:round;stroke-linejoin:round;stroke-miterlimit:10;" d="M411.238,339.384
				c0,0,11.579,1.544,15.181,4.117"/>
		</g>
		<path style="fill:#FFFFFF;stroke:#263238;stroke-linecap:round;stroke-linejoin:round;stroke-miterlimit:10;" d="M358.6,301.283
			c0,0-4.02-0.35-5.943,0.874c-1.923,1.224-11.187,7.516-13.634,9.614c-2.447,2.098-4.72,5.768-4.894,6.293
			c-0.175,0.524,1.049,0.699,1.573,0.524c0.524-0.175,2.797-1.923,2.098-1.049c-0.699,0.874,0.532,1.087,0.532,1.087
			s12.928-7.555,13.976-7.38c1.049,0.175,3.146-0.524,4.545-1.573c1.398-1.049,5.069-2.972,5.069-2.972l41.253,8.041l6.293-5.768
			l-1.398-13.984l-9.264,7.691L358.6,301.283z"/>
		<path style="fill:#FFFFFF;stroke:#263238;stroke-linecap:round;stroke-linejoin:round;stroke-miterlimit:10;" d="M416.407,255.764
			c0,0-7.679,15.585-11.519,27.556c-3.84,11.971-1.807,14.681-0.904,15.359c0.904,0.678,2.936,2.259,2.936,2.259
			s-3.388,23.038-1.807,24.845c1.581,1.807,14.681,2.485,25.297,2.485c10.616,0,13.1-4.292,13.1-6.55
			c0-2.259-4.743-38.623-8.357-50.368C431.54,259.604,421.828,251.924,416.407,255.764z"/>
		<path style="fill:#FFFFFF;stroke:#263238;stroke-linecap:round;stroke-linejoin:round;stroke-miterlimit:10;" d="M411.304,254.595
			c0,0-8.607,8.346-7.825,10.954c0.783,2.608,4.173,2.347,4.173,2.347s-0.522,4.173,1.304,3.651
			c1.826-0.522,10.172-11.215,10.172-11.215S414.956,249.901,411.304,254.595z"/>
		<g>
			<g>
				<path style="fill:#FFFFFF;stroke:#263238;stroke-linecap:round;stroke-linejoin:round;stroke-miterlimit:10;" d="
					M415.965,273.623l-4.826,33.936c0,0-49.916-2.71-50.82-2.71c-0.904,0-10.842,4.517-14.907,6.776
					c-4.065,2.259-6.776,3.84-7.453,5.421c-0.678,1.581-0.678,1.581-0.678,1.581s3.162,0.678,6.098,0
					c2.936-0.677,5.195-1.807,5.195-1.807s5.872-0.678,7.905-2.033c2.033-1.355,6.55-5.195,6.55-5.195s39.301,10.616,43.366,11.293
					c4.066,0.678,13.778,4.743,16.036,2.485c1.88-1.88,7.518-34.756,9.353-45.716c0.452-2.698-0.218-5.473-1.915-7.619
					c-1.361-1.72-3.223-3.294-5.405-3.583C417.824,265.571,415.965,273.623,415.965,273.623z"/>
				<path style="fill:none;stroke:#263238;stroke-linecap:round;stroke-linejoin:round;stroke-miterlimit:10;" d="M429.871,270.035
					c-1.361-1.72-3.223-3.294-5.405-3.583c-6.642-0.88-8.501,7.172-8.501,7.172l-4.826,33.936c0,0-4.841-0.263-11.535-0.625
					c0.722,3.915,1.73,9.589,2.132,12.87c2.307,0.574,3.979,0.967,4.659,1.081c4.066,0.678,13.778,4.743,16.036,2.484
					c1.88-1.88,7.518-34.756,9.353-45.716C432.238,274.956,431.568,272.181,429.871,270.035z"/>
				<path style="fill:none;stroke:#263238;stroke-linecap:round;stroke-linejoin:round;stroke-miterlimit:10;" d="M412.869,309.89
					c0,0,7.303,10.433,6.521,7.825c-0.782-2.608-2.087-8.868-4.173-10.954"/>
			</g>
			<path style="fill:none;stroke:#263238;stroke-linecap:round;stroke-linejoin:round;stroke-miterlimit:10;" d="M343.38,318.626
				c0,0-0.08-1.432,0.884-1.983c0.964-0.551,5.784-2.755,6.198-2.892"/>
			<path style="fill:none;stroke:#263238;stroke-linecap:round;stroke-linejoin:round;stroke-miterlimit:10;" d="M340.684,318.985
				c0,0,0.689-2.204,1.24-2.617c0.551-0.413,6.335-3.719,6.335-3.719"/>
		</g>
		<path style="fill:#263238;stroke:#263238;stroke-linecap:round;stroke-linejoin:round;stroke-miterlimit:10;" d="M466.077,254.074
			c-0.261-10.954-14.606-7.825-17.475-12.519c-2.869-4.695,2.086-4.695-1.043-12.259c-3.13-7.564-16.432-1.565-22.952-2.608
			c-3.494-0.559-6.462-4.188-8.466-7.436c-1.078-3.221-1.958-5.687-6.012-9.741c-5.737-5.737-21.8,1.721-21.8,1.721
			s-17.21,9.466-16.923,14.916c0.287,5.45,23.521,8.892,25.529,8.892c2.008,0,2.295-5.163,4.876-3.729
			c2.434,1.352,3.072,4.469,2.898,6.025c-0.386,1.531-0.705,2.763-0.89,3.44c-0.861,3.155,2.531,4.691,2.009,14.863
			c-0.522,10.172,14.867,8.346,18.518,8.868s7.441,13.147,10.172,17.736c2.73,4.589,11.215,4.434,15.389,0.261
			c4.173-4.173,0.522-8.086,0.782-11.476C450.949,267.637,466.337,265.028,466.077,254.074z"/>
	</g>
</g>
<g id="Table">
	<g>
		<polygon style="fill:#FFFFFF;stroke:#263238;stroke-linecap:round;stroke-linejoin:round;stroke-miterlimit:10;" points="
			256.167,470.077 250.155,470.077 248.867,330.191 257.455,330.191 		"/>
		<polygon style="fill:#FFFFFF;stroke:#263238;stroke-linecap:round;stroke-linejoin:round;stroke-miterlimit:10;" points="
			366.321,470.077 360.309,470.077 359.021,330.191 367.609,330.191 		"/>
		
			<rect x="240.366" y="321.694" style="fill:#263238;stroke:#263238;stroke-linecap:round;stroke-linejoin:round;stroke-miterlimit:10;" width="136.771" height="9.222"/>
	</g>
</g>
<g id="Device">
	<g>
		<g>
			<path style="fill:#263238;" d="M298.498,321.768h-20.553c-1.285,0-2.441-0.66-3.095-1.766c-0.654-1.107-0.673-2.44-0.053-3.565
				l22.578-40.921c0.341-0.62,1.122-0.844,1.742-0.504c0.621,0.343,0.846,1.124,0.504,1.744l-22.577,40.92
				c-0.256,0.465-0.075,0.869,0.016,1.021c0.09,0.153,0.356,0.506,0.886,0.506h20.553c0.708,0,1.283,0.574,1.283,1.283
				C299.781,321.194,299.207,321.768,298.498,321.768z"/>
		</g>
		
			<rect x="298.498" y="237.904" transform="matrix(0.9818 -0.1901 0.1901 0.9818 -46.9578 62.2228)" style="fill:#FFFFFF;stroke:#263238;stroke-linecap:round;stroke-linejoin:round;stroke-miterlimit:10;" width="4.588" height="75.852"/>
	</g>
</g>
<g id="Character_3_00000048474419684638929400000006878854008314809518_">
	<polygon style="fill:#FFFFFF;stroke:#263238;stroke-linecap:round;stroke-linejoin:round;stroke-miterlimit:10;" points="
		362.352,320.067 325.445,319.017 325.445,321.474 362.352,321.474 	"/>
	<g>
		
			<circle style="fill:none;stroke:#263238;stroke-linecap:round;stroke-linejoin:round;stroke-miterlimit:10;" cx="365.076" cy="99.451" r="57.751"/>
		<g>
			<g>
				<g>
					<path style="fill:#FFFFFF;stroke:#263238;stroke-linecap:round;stroke-linejoin:round;stroke-miterlimit:10;" d="
						M326.303,142.23c0.409-16.337,0.721-32.564,0.538-33.481c-0.373-1.865-4.663-1.865-4.663-1.865s-3.358,8.767-4.104,17.161
						c-0.162,1.819-0.508,4.499-0.95,7.579C319.745,135.525,322.833,139.083,326.303,142.23z"/>
				</g>
			</g>
			<path style="fill:#92E3A9;stroke:#263238;stroke-linecap:round;stroke-linejoin:round;stroke-miterlimit:10;" d="
				M365.076,157.202c12.425,0,23.928-3.932,33.348-10.609l0.066-34.732c0,0-12.201-6.211-23.514-7.986
				c-11.313-1.775-45.031,3.327-45.031,3.327l-1.125,37.188C338.732,152.398,351.34,157.202,365.076,157.202z"/>
			<g>
				<path style="fill:#FFFFFF;stroke:#263238;stroke-linecap:round;stroke-linejoin:round;stroke-miterlimit:10;" d="
					M353.888,84.686c0,0-2.612,26.861-1.865,28.54c0.746,1.679,3.917,6.156,10.446,6.156c6.529,0,13.617-6.902,13.617-6.902
					l2.238-27.048c0,0-8.581,4.104-14.55,2.798C357.806,86.924,353.888,84.686,353.888,84.686z"/>
				<polygon style="fill:#263238;" points="362.787,95.239 377.391,104.511 378.55,83.648 				"/>
			</g>
			<g>
				<path style="fill:#FFFFFF;stroke:#263238;stroke-linecap:round;stroke-linejoin:round;stroke-miterlimit:10;" d="
					M347.793,62.115c0,0-1.865-4.29-3.731-0.933c-1.865,3.358,4.29,11.938,4.29,11.938L347.793,62.115z"/>
				<path style="fill:#FFFFFF;stroke:#263238;stroke-linecap:round;stroke-linejoin:round;stroke-miterlimit:10;" d="
					M383.608,62.115c0,0,1.865-4.29,3.731-0.933c1.865,3.358-5.248,12.49-5.248,12.49L383.608,62.115z"/>
				<path style="fill:#263238;" d="M348.352,64.54c0,0-1.865-6.715-1.865-8.581c0-1.865,3.358-1.865,3.358-1.865L348.352,64.54z"/>
				<path style="fill:#FFFFFF;stroke:#263238;stroke-linecap:round;stroke-linejoin:round;stroke-miterlimit:10;" d="
					M348.605,54.805c0,0-0.654,23.105,1.09,26.81c1.744,3.705,7.847,12.206,9.373,13.296c1.526,1.09,6.757,1.526,8.283,1.308
					c1.526-0.218,13.21-11.873,13.646-13.399c0.436-1.526,2.266-22.784,2.266-22.784l-0.218-17.655c0,0-4.359-2.398-10.899-1.962
					c-6.539,0.436-22.669,7.411-22.669,7.411L348.605,54.805z"/>
				<path style="fill:#263238;" d="M378.031,45.868c0,0-5.449,7.193-7.847,8.283c-2.398,1.09-1.962-3.487-1.962-3.487
					s-5.667,4.359-13.732,6.103c-8.065,1.744-14.604,2.18-16.784-0.872c-2.18-3.052,4.795-7.411,4.795-7.411s-5.449-3.27,0-9.155
					c5.449-5.885,19.399-12.424,29.426-8.501c10.027,3.924,8.065,7.629,8.065,7.629s7.629-1.09,8.283,5.013
					c0.654,6.103-3.923,13.078-3.923,13.078s-0.218,5.231-0.218,6.539c0,1.308-1.526,1.09-1.526,1.09l-0.654-6.539
					c0,0-2.398,0.218-3.705-4.359C376.941,48.702,378.031,45.868,378.031,45.868z"/>
				<path style="fill:none;stroke:#263238;stroke-linecap:round;stroke-linejoin:round;stroke-miterlimit:10;" d="M359.918,76.665
					c0,0,2.238,1.865,4.29,1.865s4.104-1.679,4.104-1.679"/>
				<path style="fill:none;stroke:#263238;stroke-linecap:round;stroke-linejoin:round;stroke-miterlimit:10;" d="M357.679,81.515
					c0,0,4.104,2.239,7.648,1.865c3.544-0.373,5.783-3.358,5.783-3.358"/>
				<path style="fill:none;stroke:#263238;stroke-linecap:round;stroke-linejoin:round;stroke-miterlimit:10;" d="M368.312,60.25
					c0,0,7.088-2.052,9.327,1.865"/>
				<path style="fill:none;stroke:#263238;stroke-linecap:round;stroke-linejoin:round;stroke-miterlimit:10;" d="M360.664,60.809
					c0,0-4.85-3.358-8.581,0.187"/>
				<path style="fill:#263238;" d="M358.612,65.622c0,1.525-0.685,2.761-1.531,2.761c-0.845,0-1.531-1.236-1.531-2.761
					c0-1.525,0.685-2.76,1.531-2.76C357.927,62.861,358.612,64.097,358.612,65.622z"/>
				<ellipse style="fill:#263238;" cx="371.526" cy="66.769" rx="1.531" ry="2.76"/>
			</g>
			<path style="fill:#FFFFFF;stroke:#263238;stroke-linecap:round;stroke-linejoin:round;stroke-miterlimit:10;" d="
				M415.246,128.051c-3.862-9.17-6.998-16.24-7.635-16.877c-1.865-1.865-24.996-13.617-24.996-13.617s-2.611-4.663-5.223-2.238
				c0,0-7.835,25.183-10.446,47.381c-0.464,3.945-0.822,8.94-1.097,14.485C387.011,156.905,405.421,145.252,415.246,128.051z"/>
			<path style="fill:#FFFFFF;stroke:#263238;stroke-linecap:round;stroke-linejoin:round;stroke-miterlimit:10;" d="M382.615,97.557
				c0,0,0.56,5.969,0.56,13.617c0,7.648-1.119,15.296-1.119,15.296s-4.104-1.119-8.208,0.187c-4.104,1.306-5.036,2.798-5.036,2.798
				s5.783-30.406,8.581-34.136C380.19,91.588,381.123,94.386,382.615,97.557z"/>
			<path style="fill:none;stroke:#263238;stroke-linecap:round;stroke-linejoin:round;stroke-miterlimit:10;" d="M393.905,147.149
				c-0.527-1.55-0.793-2.956-0.657-4.077c0.746-6.156,1.865-12.871,1.865-12.871"/>
			<path style="fill:#FFFFFF;stroke:#263238;stroke-linecap:round;stroke-linejoin:round;stroke-miterlimit:10;" d="
				M347.201,154.377c0.177-6.663,0.463-12.127,0.905-15.222c2.052-14.363,4.29-43.836,4.29-43.836
				c-2.238-0.56-6.342,3.358-6.342,3.358s-22.012,6.342-23.877,8.208c-0.875,0.875-1.011,15.202-0.909,30.174
				C328.088,144.996,337.019,151.066,347.201,154.377z"/>
			<path style="fill:#FFFFFF;stroke:#263238;stroke-linecap:round;stroke-linejoin:round;stroke-miterlimit:10;" d="M346.054,98.676
				c0,0-2.425,8.581-4.663,15.856c-2.238,7.275-2.798,11.192-2.798,11.192s2.238-3.171,5.596-0.746
				c3.358,2.425,5.41,4.477,5.41,4.477l3.161-34.117C352.759,95.338,348.292,94.759,346.054,98.676z"/>
		</g>
	</g>
</g>
<g id="Character_2_00000154406103081464020480000012198209698208232639_">
	<g>
		<g>
			<path style="fill:#92E3A9;stroke:#263238;stroke-linecap:round;stroke-linejoin:round;stroke-miterlimit:10;" d="M91.807,183.856
				c21.588,0,40.399-11.852,50.307-29.399l-3.49-4.143c-2.104-3.681-4.221-5.473-6.036-5.968
				c-3.485-0.951-28.354-4.642-28.354-4.642l-25.82,1.364c0,0-12.692,3.071-22.623,7.325l-11.098,11.098
				C55.156,174.231,72.353,183.856,91.807,183.856z"/>
			<g>
				<path style="fill:none;stroke:#263238;stroke-linecap:round;stroke-linejoin:round;stroke-miterlimit:10;" d="M97.396,157.883
					c-1.172,0.681-2.409,1.311-3.707,1.864"/>
				<path style="fill:none;stroke:#263238;stroke-linecap:round;stroke-linejoin:round;stroke-miterlimit:10;" d="M110.604,145.908
					c0,0-4.327,6.237-11.532,10.942"/>
				<path style="fill:none;stroke:#263238;stroke-linecap:round;stroke-linejoin:round;stroke-miterlimit:10;" d="M108.49,152.251
					c0,0-3.268,4.613-6.151,6.151"/>
			</g>
			<path style="fill:#263238;stroke:#263238;stroke-linecap:round;stroke-linejoin:round;stroke-miterlimit:10;" d="M78.193,74.688
				c0,0-11.192-2.571-13.31,0.302c-2.117,2.874,2.118,5.596,1.513,6.201c-0.605,0.605-13.612,7.26-12.554,13.764
				c1.059,6.504,9.831,13.159,10.134,14.974c0.302,1.815-10.134,2.42-11.495,5.143c-1.361,2.722-3.327,15.579,8.016,19.814
				c11.344,4.235,25.561-2.874,29.494-2.874c3.932,0,7.865,7.714,12.402,7.26c4.537-0.454,7.109-3.781,7.109-3.781
				s4.689,6.504,11.495,3.781c6.806-2.722,14.671-12.251,11.344-15.125s-7.109-3.781-4.689-6.353
				c2.42-2.571,7.411-9.378,6.655-15.276c-0.756-5.899-7.714-6.352-10.436-8.167c-2.723-1.815,3.025-4.84,2.874-9.831
				c-0.151-4.991-3.781-13.31-22.234-18.906c-18.452-5.596-27.527-2.874-28.435,1.815C75.168,72.117,78.193,74.688,78.193,74.688z"
				/>
			<path style="fill:#FFFFFF;stroke:#263238;stroke-linecap:round;stroke-linejoin:round;stroke-miterlimit:10;" d="M80.205,123.215
				c0,0-3.781,23.595-3.932,24.351c-0.151,0.756,6.655,7.562,15.881,6.352c9.226-1.21,13.915-7.411,13.915-7.411l-2.874-23.444
				c0,0-7.865,3.781-12.705,3.63C85.65,126.543,80.205,123.215,80.205,123.215z"/>
			<polygon style="fill:#263238;stroke:#263238;stroke-linecap:round;stroke-linejoin:round;stroke-miterlimit:10;" points="
				78.653,135.874 94.577,132.792 80.205,123.215 			"/>
			<g>
				<path style="fill:#FFFFFF;stroke:#263238;stroke-linecap:round;stroke-linejoin:round;stroke-miterlimit:10;" d="
					M71.799,102.412c0,0-2.664-3.375-3.908,0.888c-1.243,4.263,4.085,9.414,4.085,9.414L71.799,102.412z"/>
				<path style="fill:#FFFFFF;stroke:#263238;stroke-linecap:round;stroke-linejoin:round;stroke-miterlimit:10;" d="
					M109.978,102.412c0,0,2.664-3.375,3.908,0.888s-4.085,9.414-4.085,9.414L109.978,102.412z"/>
				<path style="fill:#FFFFFF;stroke:#263238;stroke-linecap:round;stroke-linejoin:round;stroke-miterlimit:10;" d="M80.172,81.083
					c0,0-7.627,7.406-8.733,9.617s-0.663,27.525,0.553,29.957c1.216,2.432,13.376,11.938,15.365,12.712
					c1.99,0.774,6.522,1.548,10.059-0.221c3.537-1.769,12.049-10.833,12.933-13.154c0.884-2.321-0.221-28.851-0.774-31.394
					c-0.553-2.543-13.928-11.607-19.566-12.049C84.372,76.108,80.172,81.083,80.172,81.083z"/>
				<path style="fill:none;stroke:#263238;stroke-linecap:round;stroke-linejoin:round;stroke-miterlimit:10;" d="M84.171,117.27
					c0,0,2.284,2.474,6.47,2.474c4.186,0,7.612-3.045,7.612-3.045"/>
				<path style="fill:#263238;stroke:#263238;stroke-linecap:round;stroke-linejoin:round;stroke-miterlimit:10;" d="M84.144,90.884
					c0,0-3.679,0.147-6.328,2.502c-2.649,2.355,0.147,2.796,1.177,2.355c1.03-0.441,3.973-2.207,6.034-2.207
					C87.087,93.534,86.793,90.737,84.144,90.884z"/>
				<path style="fill:#263238;stroke:#263238;stroke-linecap:round;stroke-linejoin:round;stroke-miterlimit:10;" d="M95.866,89.413
					c0,0,3.679,0.147,6.328,2.502c2.649,2.355-0.147,2.796-1.177,2.355c-1.03-0.442-3.973-2.208-6.034-2.208
					C92.922,92.062,93.217,89.266,95.866,89.413z"/>
				<path style="fill:#263238;stroke:#263238;stroke-linecap:round;stroke-linejoin:round;stroke-miterlimit:10;" d="M86.169,76.554
					c0,0,11.426,10.423,19.644,10.824c8.218,0.401,8.218,0.401,8.218,0.401s-18.041-2.405-23.653-14.633
					C90.379,73.146,84.164,67.934,86.169,76.554z"/>
				<path style="fill:none;stroke:#263238;stroke-linecap:round;stroke-linejoin:round;stroke-miterlimit:10;" d="M94.321,110.708
					c0,0-1.99,2.985-3.427,2.985c-1.437,0-2.874-1.658-2.874-1.658"/>
				<path style="fill:#263238;" d="M87.449,102.725c0,1.927-0.976,3.488-2.18,3.488c-1.204,0-2.18-1.562-2.18-3.488
					c0-1.927,0.976-3.489,2.18-3.489C86.473,99.236,87.449,100.798,87.449,102.725z"/>
				<ellipse style="fill:#263238;" cx="99.72" cy="102.872" rx="2.18" ry="3.489"/>
			</g>
		</g>
		
			<circle style="fill:none;stroke:#263238;stroke-linecap:round;stroke-linejoin:round;stroke-miterlimit:10;" cx="91.807" cy="126.105" r="57.751"/>
	</g>
</g>
<g id="Character_1">
	<g>
		<path style="fill:#92E3A9;stroke:#263238;stroke-linecap:round;stroke-linejoin:round;stroke-miterlimit:10;" d="M141.79,331.414
			c-1.026-6.231-5.974-13.955-5.974-13.955s-2.18,2.742-2.448,4.05c-0.268,1.308-6.543,15.398-8.444,26.579
			c-0.228,1.344-0.372,2.594-0.455,3.762C131.721,346.505,137.685,339.513,141.79,331.414z"/>
		<path style="fill:#92E3A9;stroke:#263238;stroke-linecap:round;stroke-linejoin:round;stroke-miterlimit:10;" d="M90.254,363.089
			c15.38,0,29.344-6.022,39.693-15.825c1.391-6.335,2.783-12.565,2.94-12.845c0.324-0.577,5.249-13.092,2.929-16.96
			c-2.32-3.868-24.51-15.039-24.51-15.039l-8.775-4.108c0,0-27.72,0.655-28.803,0.922c-1.083,0.267-16.54,7.338-26.344,13.791
			c-9.75,6.418-9.61,6.622-11.352,12.185C44.134,347.311,65.344,363.089,90.254,363.089z"/>
		<g>
			
				<circle style="fill:none;stroke:#263238;stroke-linecap:round;stroke-linejoin:round;stroke-miterlimit:10;" cx="90.254" cy="305.338" r="57.751"/>
			<path style="fill:#FFFFFF;stroke:#263238;stroke-linecap:round;stroke-linejoin:round;stroke-miterlimit:10;" d="M79.079,290.552
				c-3.422,0.151-6.49,2.147-8.051,5.196l-5.308,6.61c0,0-0.266-0.228,4.221,6.391c4.487,6.62,14.699,13.298,14.699,13.298
				s1.053-10.34,3.107-9.503c2.054,0.837,8.63,20.135,8.63,20.135s1.557-22.385,5.114-21.414c3.557,0.971,7.457,9.911,7.457,9.911
				s5.613-11.125,5.082-18.048c-0.531-6.923-9.983-10.177-9.983-10.177S88.354,290.143,79.079,290.552z"/>
			<path style="fill:#C2C2C2;stroke:#263238;stroke-linecap:round;stroke-linejoin:round;stroke-miterlimit:10;" d="
				M106.253,284.403l0.092,15.833c0,0-5.076,13.993-13.374,13.71c-8.298-0.283-17.456-16.817-17.456-16.817l1.021-11.734
				L106.253,284.403z"/>
			<g>
				<path style="fill:#A8A8A8;stroke:#263238;stroke-linecap:round;stroke-linejoin:round;stroke-miterlimit:10;" d="
					M76.771,240.876c0,0-5.371,5.289-6.158,8.355c-0.787,3.066,0.779,28.198,2.763,33.499c1.984,5.302,7.344,14.54,13.181,17.563
					c5.837,3.022,12.854,0.25,16.58-5.165c3.726-5.415,5.834-13.713,6.424-16.611c0.59-2.897,1.105-28.789-0.232-32.937
					c-1.337-4.149-11.38-9.884-17.793-10.193C85.124,235.08,79.541,238.33,76.771,240.876z"/>
				<path style="fill:none;stroke:#263238;stroke-linecap:round;stroke-linejoin:round;stroke-miterlimit:10;" d="M85.667,275.949
					c0,0,1.28,2.489,4.74,2.938c3.46,0.449,5.653-1.773,5.934-3.039"/>
				<path style="fill:#263238;stroke:#263238;stroke-linecap:round;stroke-linejoin:round;stroke-miterlimit:10;" d="
					M86.722,259.608c0,0-6.331,1.397-7.766,1.872c-1.435,0.476-2.177-2.043,1.791-3.077
					C84.715,257.368,88.751,257.248,86.722,259.608z"/>
				<path style="fill:#263238;stroke:#263238;stroke-linecap:round;stroke-linejoin:round;stroke-miterlimit:10;" d="M95.39,259.644
					c0,0,6.329,1.405,7.763,1.883c1.435,0.478,2.18-2.04-1.787-3.079C97.4,257.408,93.364,257.282,95.39,259.644z"/>
				<path style="fill:#263238;" d="M86.003,266.878c-0.085,1.111-0.809,1.961-1.617,1.899c-0.808-0.062-1.394-1.013-1.308-2.123
					c0.085-1.111,0.809-1.961,1.617-1.899C85.502,264.817,86.088,265.767,86.003,266.878z"/>
				<path style="fill:#263238;" d="M101.658,266.878c-0.085,1.111-0.809,1.961-1.617,1.899c-0.808-0.062-1.394-1.013-1.308-2.123
					c0.085-1.111,0.809-1.961,1.617-1.899C101.157,264.817,101.743,265.767,101.658,266.878z"/>
				<path style="fill:#263238;stroke:#263238;stroke-linecap:round;stroke-linejoin:round;stroke-miterlimit:10;" d="M88.93,278.958
					c0,0-7.215,0.55-8.156,3.236c-0.942,2.686-0.504,11.364,1.466,14.457c1.969,3.094,7.342,4.977,10.282,5.019
					c2.939,0.042,6.792-2.237,8.015-3.799c1.223-1.561,2.179-4.431,2.361-6.807c0.182-2.377,1.152-7.82-1.437-10.041
					C98.873,278.801,88.93,278.958,88.93,278.958z"/>
				<g>
					<path style="fill:#C2C2C2;stroke:#263238;stroke-linecap:round;stroke-linejoin:round;stroke-miterlimit:10;" d="
						M100.269,283.074c0,0-4.777,0.092-8.279,0.191c-3.502,0.099-8.075-0.069-8.075-0.069s1.405,7.913,7.621,8.39
						C97.752,292.064,100.269,283.074,100.269,283.074z"/>
					<path style="fill:none;stroke:#263238;stroke-linecap:round;stroke-linejoin:round;stroke-miterlimit:10;" d="M83.205,282.867
						c0,0,9.391,9.26,16.916-0.263"/>
				</g>
				<path style="fill:none;stroke:#263238;stroke-linecap:round;stroke-linejoin:round;stroke-miterlimit:10;" d="M85.3,271.139
					c0,0-2.77,2.546-3.895,2.828"/>
				<path style="fill:none;stroke:#263238;stroke-linecap:round;stroke-linejoin:round;stroke-miterlimit:10;" d="M98.112,271.938
					c0,0,1.899,1.617,3.179,1.715"/>
				<path style="fill:#A8A8A8;stroke:#263238;stroke-linecap:round;stroke-linejoin:round;stroke-miterlimit:10;" d="
					M70.813,265.798c0,0-2.87-3.347-4.346-0.885c-1.476,2.461,0.157,9.943,1.859,11.729c1.702,1.786,4.051,2.334,4.051,2.334
					L70.813,265.798z"/>
				<path style="fill:#A8A8A8;stroke:#263238;stroke-linecap:round;stroke-linejoin:round;stroke-miterlimit:10;" d="
					M110.276,264.411c0,0,3.529-2.856,4.317-1.14s0.817,6.132-0.518,9.156c-1.335,3.024-4.415,4.811-4.415,4.811L110.276,264.411z"
					/>
			</g>
		</g>
		<path style="fill:#92E3A9;stroke:#263238;stroke-linecap:round;stroke-linejoin:round;stroke-miterlimit:10;" d="M57.286,352.753
			c0.341-6.955-0.698-14.097-4.329-19.341c-8.346-12.054-13.868-13.747-13.868-13.747s-1.491,0.281-3.868,3.167
			C39.111,335.081,46.963,345.561,57.286,352.753z"/>
	</g>
</g>
<g id="Screen">
	<g>
		<path style="fill:#263238;" d="M283.07,222.693v-89.285c0-6.073-4.923-10.997-10.997-10.997h-87.96
			c-6.073,0-10.997,4.924-10.997,10.997v89.285c0,6.073,4.924,10.997,10.997,10.997h56.802l42.155,17.884l-19.615-17.884h8.618
			C278.146,233.69,283.07,228.767,283.07,222.693z"/>
		<g>
			<path style="fill:#FFFFFF;stroke:#263238;stroke-linecap:round;stroke-linejoin:round;stroke-miterlimit:10;" d="
				M275.423,226.156h-96.116v-91.579c0-3.344,2.711-6.056,6.056-6.056h84.005c3.344,0,6.056,2.711,6.056,6.056V226.156z"/>
			<path style="fill:#92E3A9;stroke:#263238;stroke-linecap:round;stroke-linejoin:round;stroke-miterlimit:10;" d="
				M275.423,141.279h-96.116v-6.702c0-3.344,2.711-6.056,6.056-6.056h84.005c3.344,0,6.056,2.711,6.056,6.056V141.279z"/>
			<path style="fill:#92E3A9;" d="M202.294,156.327c0,4.18-3.389,7.569-7.569,7.569c-4.18,0-7.569-3.389-7.569-7.569
				c0-4.18,3.389-7.568,7.569-7.568C198.906,148.759,202.294,152.147,202.294,156.327z"/>
			<rect x="187.143" y="172.873" style="fill:#B0B0B0;" width="11.908" height="3.457"/>
			<rect x="187.143" y="185.414" style="fill:#B0B0B0;" width="11.908" height="3.457"/>
			<rect x="187.143" y="197.954" style="fill:#B0B0B0;" width="11.908" height="3.457"/>
			<rect x="187.143" y="210.355" style="fill:#B0B0B0;" width="11.908" height="3.457"/>
			<rect x="209.322" y="147.137" style="fill:#92E3A9;" width="58.927" height="19.462"/>
			<g>
				
					<rect x="210.63" y="171.638" style="fill:none;stroke:#263238;stroke-linecap:round;stroke-linejoin:round;stroke-miterlimit:10;" width="54.796" height="27.398"/>
				<polygon style="fill:#263238;stroke:#263238;stroke-linecap:round;stroke-linejoin:round;stroke-miterlimit:10;" points="
					210.63,199.036 229.752,188.191 239.455,191.045 254.581,179.058 265.141,185.908 265.141,199.036 				"/>
				
					<circle style="fill:#263238;stroke:#263238;stroke-linecap:round;stroke-linejoin:round;stroke-miterlimit:10;" cx="220.905" cy="180.485" r="4.281"/>
			</g>
			<g>
				
					<line style="fill:none;stroke:#263238;stroke-linecap:round;stroke-linejoin:round;stroke-miterlimit:10;" x1="227.051" y1="204.867" x2="267.855" y2="204.867"/>
				
					<line style="fill:none;stroke:#263238;stroke-linecap:round;stroke-linejoin:round;stroke-miterlimit:10;" x1="209.992" y1="204.867" x2="224.276" y2="204.867"/>
				
					<line style="fill:none;stroke:#263238;stroke-linecap:round;stroke-linejoin:round;stroke-miterlimit:10;" x1="255.349" y1="210.312" x2="267.855" y2="210.312"/>
				
					<line style="fill:none;stroke:#263238;stroke-linecap:round;stroke-linejoin:round;stroke-miterlimit:10;" x1="223.167" y1="210.312" x2="251.743" y2="210.312"/>
				
					<line style="fill:none;stroke:#263238;stroke-linecap:round;stroke-linejoin:round;stroke-miterlimit:10;" x1="209.992" y1="210.312" x2="220.115" y2="210.312"/>
				
					<line style="fill:none;stroke:#263238;stroke-linecap:round;stroke-linejoin:round;stroke-miterlimit:10;" x1="236.484" y1="215.756" x2="267.855" y2="215.756"/>
				
					<line style="fill:none;stroke:#263238;stroke-linecap:round;stroke-linejoin:round;stroke-miterlimit:10;" x1="209.992" y1="215.756" x2="233.154" y2="215.756"/>
				
					<line style="fill:none;stroke:#263238;stroke-linecap:round;stroke-linejoin:round;stroke-miterlimit:10;" x1="256.736" y1="221.201" x2="267.855" y2="221.201"/>
				
					<line style="fill:none;stroke:#263238;stroke-linecap:round;stroke-linejoin:round;stroke-miterlimit:10;" x1="217.34" y1="221.201" x2="253.962" y2="221.201"/>
				
					<line style="fill:none;stroke:#263238;stroke-linecap:round;stroke-linejoin:round;stroke-miterlimit:10;" x1="209.992" y1="221.201" x2="214.288" y2="221.201"/>
			</g>
		</g>
	</g>
</g>
<g id="Stars">
	<g>
		<path style="fill:#92E3A9;stroke:#263238;stroke-linecap:round;stroke-linejoin:round;stroke-miterlimit:10;" d="M397.838,191.225
			H278.303c-3.319,0-6.009-2.691-6.009-6.009v-12.829c0-3.319,2.69-6.01,6.009-6.01h119.535c3.319,0,6.01,2.691,6.01,6.01v12.829
			C403.848,188.534,401.157,191.225,397.838,191.225z"/>
		<polygon style="fill:#FFFFFF;stroke:#263238;stroke-linecap:round;stroke-linejoin:round;stroke-miterlimit:10;" points="
			291.279,170.064 293.464,176.788 300.535,176.788 294.814,180.945 296.999,187.669 291.279,183.513 285.558,187.669 
			287.743,180.945 282.023,176.788 289.094,176.788 		"/>
		<polygon style="fill:#FFFFFF;stroke:#263238;stroke-linecap:round;stroke-linejoin:round;stroke-miterlimit:10;" points="
			314.846,170.064 317.031,176.788 324.102,176.788 318.381,180.945 320.566,187.669 314.846,183.513 309.125,187.669 
			311.31,180.945 305.59,176.788 312.661,176.788 		"/>
		<polygon style="fill:#FFFFFF;stroke:#263238;stroke-linecap:round;stroke-linejoin:round;stroke-miterlimit:10;" points="
			338.413,170.064 340.598,176.788 347.669,176.788 341.948,180.945 344.133,187.669 338.413,183.513 332.692,187.669 
			334.877,180.945 329.157,176.788 336.228,176.788 		"/>
		<polygon style="fill:#FFFFFF;stroke:#263238;stroke-linecap:round;stroke-linejoin:round;stroke-miterlimit:10;" points="
			361.98,170.064 364.165,176.788 371.236,176.788 365.516,180.945 367.701,187.669 361.98,183.513 356.259,187.669 
			358.444,180.945 352.724,176.788 359.795,176.788 		"/>
		<polygon style="fill:#FFFFFF;stroke:#263238;stroke-linecap:round;stroke-linejoin:round;stroke-miterlimit:10;" points="
			385.547,170.064 387.732,176.788 394.803,176.788 389.082,180.945 391.268,187.669 385.547,183.513 379.826,187.669 
			382.012,180.945 376.291,176.788 383.362,176.788 		"/>
	</g>
</g>
<g id="Like">
	<g>
		
			<ellipse transform="matrix(0.9707 -0.2403 0.2403 0.9707 -12.857 46.3079)" style="fill:#263238;stroke:#263238;stroke-miterlimit:10;" cx="183.416" cy="75.863" rx="36.811" ry="36.811"/>
		
			<ellipse transform="matrix(0.9707 -0.2402 0.2402 0.9707 -12.8525 46.2781)" style="fill:#92E3A9;stroke:#263238;stroke-linecap:round;stroke-linejoin:round;stroke-miterlimit:10;" cx="183.416" cy="75.863" rx="31.28" ry="31.28"/>
		<path style="fill:#FFFFFF;stroke:#263238;stroke-linecap:round;stroke-linejoin:round;stroke-miterlimit:10;" d="M200.242,73.197
			c1.581,0.662,2.763,1.586,2.773,3.289c0.009,1.598-0.78,2.781-2.446,3.458c0.16,0.122,0.275,0.228,0.408,0.308
			c0.815,0.49,1.347,1.186,1.662,2.027c0.679,1.813-0.739,4.003-2.781,4.293c-0.61,0.087-1.228,0.12-1.949,0.188
			c0.196,0.127,0.325,0.211,0.454,0.293c1.621,1.028,1.643,3.13,0.051,4.204c-0.49,0.33-0.989,0.514-1.628,0.505
			c-4.525-0.063-9.051-0.07-13.577-0.132c-3.368-0.046-6.689-0.497-9.989-1.114c-2.416-0.452-4.864-0.662-7.329-0.696
			c-0.434-0.006-0.872-0.035-1.299-0.103c-0.658-0.105-0.83-0.302-0.832-0.929c-0.014-3.747-0.031-7.493-0.024-11.239
			c0.003-1.538,0.054-3.076,0.095-4.613c0.016-0.607,0.232-0.887,0.884-0.954c1.115-0.116,2.24-0.152,3.36-0.228
			c0.63-0.043,1.259-0.095,1.889-0.148c0.761-0.063,1.393-0.385,1.944-0.862c1.289-1.117,2.3-2.446,3.251-3.813
			c1.026-1.476,1.973-3.001,3.031-4.456c0.725-0.997,1.556-1.931,2.386-2.857c1.158-1.291,1.873-2.761,2.244-4.399
			c0.318-1.401,0.667-2.795,1.008-4.191c0.053-0.217,0.125-0.431,0.206-0.641c0.351-0.917,1.051-1.282,2.056-0.99
			c1.836,0.533,2.943,1.734,3.39,3.46c0.411,1.587,0.224,3.175-0.217,4.721c-0.529,1.851-1.177,3.673-1.762,5.51
			c-0.188,0.591-0.371,1.187-0.496,1.791c-0.149,0.725,0.104,1.023,0.893,1.038c2.262,0.044,4.525,0.054,6.787,0.092
			c1.531,0.025,3.061,0.097,4.592,0.108c2.026,0.015,4.129,2.298,3.234,4.817c-0.335,0.942-0.948,1.661-1.922,2.089
			C200.488,73.067,200.394,73.12,200.242,73.197z"/>
	</g>
</g>
<g id="Chat">
	<g>
		<g>
			<path style="fill:#263238;stroke:#263238;stroke-linecap:round;stroke-linejoin:round;stroke-miterlimit:10;" d="M221.85,290.476
				h-88.634c-3.286,0-5.949-2.663-5.949-5.949v-32.078c0-3.286,2.663-5.949,5.949-5.949h88.634c3.286,0,5.949,2.663,5.949,5.949
				v32.078C227.799,287.813,225.135,290.476,221.85,290.476z"/>
			<polygon style="fill:#263238;stroke:#263238;stroke-linecap:round;stroke-linejoin:round;stroke-miterlimit:10;" points="
				133.216,246.5 121.747,246.5 127.19,255.062 			"/>
		</g>
		<g>
			
				<ellipse transform="matrix(0.2298 -0.9732 0.9732 0.2298 -141.4046 339.6076)" style="fill:#FFFFFF;stroke:#263238;stroke-linecap:round;stroke-linejoin:round;stroke-miterlimit:10;" cx="143.854" cy="259.14" rx="10.251" ry="10.251"/>
			<path style="fill:#FFFFFF;stroke:#263238;stroke-linecap:round;stroke-linejoin:round;stroke-miterlimit:10;" d="
				M143.854,269.391c2.812,0,5.357-1.134,7.209-2.967c-0.442-3.592-3.498-6.375-7.209-6.375c-3.711,0-6.767,2.783-7.209,6.375
				C138.497,268.257,141.043,269.391,143.854,269.391z"/>
			<path style="fill:#FFFFFF;stroke:#263238;stroke-linecap:round;stroke-linejoin:round;stroke-miterlimit:10;" d="
				M148.326,256.537c0,2.47-2.002,4.472-4.472,4.472c-2.47,0-4.472-2.002-4.472-4.472c0-2.469,2.002-4.471,4.472-4.471
				C146.324,252.065,148.326,254.067,148.326,256.537z"/>
		</g>
		
			<line style="fill:none;stroke:#FFFFFF;stroke-linecap:round;stroke-linejoin:round;stroke-miterlimit:10;" x1="162.053" y1="253.189" x2="200.18" y2="253.189"/>
		
			<line style="fill:none;stroke:#FFFFFF;stroke-linecap:round;stroke-linejoin:round;stroke-miterlimit:10;" x1="162.053" y1="257.035" x2="190.816" y2="257.035"/>
		
			<line style="fill:none;stroke:#FFFFFF;stroke-linecap:round;stroke-linejoin:round;stroke-miterlimit:10;" x1="162.053" y1="265.061" x2="218.909" y2="265.061"/>
		
			<line style="fill:none;stroke:#FFFFFF;stroke-linecap:round;stroke-linejoin:round;stroke-miterlimit:10;" x1="162.053" y1="271.583" x2="218.909" y2="271.583"/>
		
			<line style="fill:none;stroke:#FFFFFF;stroke-linecap:round;stroke-linejoin:round;stroke-miterlimit:10;" x1="162.053" y1="278.105" x2="189.867" y2="278.105"/>
		<g>
			
				<circle style="fill:#92E3A9;stroke:#263238;stroke-linecap:round;stroke-linejoin:round;stroke-miterlimit:10;" cx="197.738" cy="278.218" r="4.825"/>
			<path style="fill:none;stroke:#263238;stroke-width:0.5;stroke-linecap:round;stroke-linejoin:round;stroke-miterlimit:10;" d="
				M200.501,279.065c-0.362,1.183-1.462,2.043-2.763,2.043c-1.316,0-2.426-0.88-2.775-2.083"/>
			<g>
				<path style="fill:none;stroke:#263238;stroke-width:0.5;stroke-linecap:round;stroke-linejoin:round;stroke-miterlimit:10;" d="
					M194.784,277.138c0,0,0.933-0.933,2.177,0.078"/>
				<path style="fill:none;stroke:#263238;stroke-width:0.5;stroke-linecap:round;stroke-linejoin:round;stroke-miterlimit:10;" d="
					M198.515,277.138c0,0,0.933-0.933,2.177,0.078"/>
			</g>
		</g>
		<g>
			
				<circle style="fill:#92E3A9;stroke:#263238;stroke-linecap:round;stroke-linejoin:round;stroke-miterlimit:10;" cx="209.33" cy="278.218" r="4.825"/>
			<path style="fill:none;stroke:#263238;stroke-width:0.5;stroke-linecap:round;stroke-linejoin:round;stroke-miterlimit:10;" d="
				M212.094,279.065c-0.362,1.183-1.462,2.043-2.763,2.043c-1.316,0-2.426-0.88-2.775-2.083"/>
			<g>
				<path style="fill:none;stroke:#263238;stroke-width:0.5;stroke-linecap:round;stroke-linejoin:round;stroke-miterlimit:10;" d="
					M206.376,277.138c0,0,0.933-0.933,2.177,0.078"/>
				<path style="fill:none;stroke:#263238;stroke-width:0.5;stroke-linecap:round;stroke-linejoin:round;stroke-miterlimit:10;" d="
					M210.108,277.138c0,0,0.933-0.933,2.177,0.078"/>
			</g>
		</g>
	</g>
</g>
</svg>
