<?xml version="1.0" encoding="utf-8"?>
<!-- Generator: Adobe Illustrator 27.5.0, SVG Export Plug-In . SVG Version: 6.00 Build 0)  -->
<svg version="1.1" xmlns="http://www.w3.org/2000/svg" xmlns:xlink="http://www.w3.org/1999/xlink" x="0px" y="0px"
	 viewBox="0 0 500 500" style="enable-background:new 0 0 500 500;" xml:space="preserve">
<g id="BACKGROUND">
	<g>
		<rect style="fill:#C1C9FC;" width="500" height="500"/>
	</g>
</g>
<g id="OBJECTS">
	<g>
		<g>
			<g>
				<circle style="fill:#A0A8FB;" cx="45.753" cy="402.979" r="3.301"/>
			</g>
			<g>
				<g>
					<circle style="fill:#A0A8FB;" cx="72.188" cy="402.979" r="3.301"/>
				</g>
			</g>
		</g>
		<g>
			<g>
				<circle style="fill:#A0A8FB;" cx="45.753" cy="376.545" r="3.301"/>
			</g>
			<g>
				<g>
					<circle style="fill:#A0A8FB;" cx="72.188" cy="376.545" r="3.301"/>
				</g>
			</g>
		</g>
		<g>
			<g>
				<path style="fill:#A0A8FB;" d="M45.753,346.81c1.823,0,3.301,1.478,3.301,3.301c0,1.823-1.478,3.301-3.301,3.301
					s-3.301-1.478-3.301-3.301C42.452,348.288,43.93,346.81,45.753,346.81z"/>
			</g>
			<g>
				<g>
					<path style="fill:#A0A8FB;" d="M72.188,346.81c1.823,0,3.301,1.478,3.301,3.301c0,1.823-1.478,3.301-3.301,3.301
						c-1.823,0-3.301-1.478-3.301-3.301C68.886,348.288,70.364,346.81,72.188,346.81z"/>
				</g>
			</g>
		</g>
		<g>
			<circle style="fill:#A0A8FB;" cx="99.372" cy="402.979" r="3.301"/>
		</g>
		<g>
			<g>
				<circle style="fill:#A0A8FB;" cx="125.806" cy="402.979" r="3.301"/>
			</g>
		</g>
		<g>
			<circle style="fill:#A0A8FB;" cx="99.372" cy="376.545" r="3.301"/>
		</g>
		<g>
			<g>
				<circle style="fill:#A0A8FB;" cx="125.806" cy="376.545" r="3.301"/>
			</g>
		</g>
		<g>
			<path style="fill:#A0A8FB;" d="M99.372,346.81c1.823,0,3.301,1.478,3.301,3.301c0,1.823-1.478,3.301-3.301,3.301
				c-1.823,0-3.301-1.478-3.301-3.301C96.071,348.288,97.549,346.81,99.372,346.81z"/>
		</g>
		<g>
			<g>
				<path style="fill:#A0A8FB;" d="M125.806,346.81c1.823,0,3.301,1.478,3.301,3.301c0,1.823-1.478,3.301-3.301,3.301
					c-1.823,0-3.301-1.478-3.301-3.301C122.505,348.288,123.983,346.81,125.806,346.81z"/>
			</g>
		</g>
	</g>
	<g>
		<path style="fill:#DCE2FD;" d="M439.207,181.596c5.97,23.07,6.94,47.46,2.57,70.89c-4.28,22.99-13.86,45.05-28.66,63.22
			c-13.86,17-31.97,30.55-52.22,38.98c-20.68,8.6-43.05,11.3-65.17,7.81c-23.52-3.7-45.65-13.01-67.87-21.15
			c-21.98-8.04-44.96-15.41-68.67-14.32c-12.29,0.57-24.21,3.85-36.37,5.5c-11.05,1.51-22.84,1.59-32.74-4.27
			c-18.28-10.83-20.88-34.99-20.83-54.17c0.01-7.09,0.38-14.16,1.06-21.21c0.06-20.62,4.23-41.15,11.27-60.52
			c8.79-24.21,21.81-46.7,36.57-67.74c13.26-18.88,28.28-36.76,45.95-51.69c17.38-14.69,37.49-26.39,59.65-32.05
			c23.29-5.94,47.89-5.02,71.11,0.75c23.52,5.85,45.76,16.52,65.53,30.47c18.63,13.14,35.27,29.16,48.81,47.52
			C422.897,138.186,433.417,159.226,439.207,181.596z"/>
	</g>
	<g>
		<path style="fill:#A0A8FB;" d="M79.868,468.12h347.591c0,0-2.422,21.578-179.152,21.578S79.868,468.12,79.868,468.12z"/>
	</g>
	<g>
		<g>
			<path style="fill:#A0A8FB;" d="M442.401,58.915c0,16.827-16.596,30.48-37.074,30.48c-1.08,0-2.147-0.039-3.201-0.116
				c-2.147-0.154-4.281,0.476-6.081,1.658c-7.687,5.026-17.547,5.695-17.547,5.695c0.077-0.051,0.142-0.103,0.219-0.154
				c5.489-3.818,5.541-11.788,0.373-16.043c-6.698-5.502-10.837-13.112-10.837-21.519c0-16.84,16.596-30.479,37.074-30.479
				S442.401,42.075,442.401,58.915z"/>
		</g>
		<g>
			<g>
				
					<ellipse transform="matrix(0.6238 -0.7816 0.7816 0.6238 103.9927 332.2398)" style="fill:#E8A03F;" cx="397.107" cy="58.099" rx="22.468" ry="22.468"/>
			</g>
			<g>
				
					<ellipse transform="matrix(0.9459 -0.3243 0.3243 0.9459 2.6242 131.9413)" style="fill:#ECB45E;" cx="397.107" cy="58.099" rx="18.72" ry="18.72"/>
			</g>
			<g>
				<g>
					<path style="fill:#E8A03F;" d="M403.636,69.514l1.147,3.792l-4.817,1.457l-1.095-3.622c-3.479,0.827-7.072,0.909-9.505,0.263
						l0.82-6.661c2.658,0.651,5.924,0.595,8.554-0.2c2.29-0.692,2.964-1.419,2.716-2.239c-0.91-3.007-13.398,3.417-16.095-5.5
						c-1.168-3.862,0.652-7.956,6.018-10.435l-1.127-3.725l4.817-1.457l1.106,3.656c2.601-0.526,5.258-0.618,7.536-0.114
						l-0.659,6.576c-2.718-0.484-5.116-0.393-7.199,0.237c-2.358,0.713-2.902,1.625-2.654,2.445
						c0.867,2.868,13.367-3.52,16.032,5.294C410.346,62.97,408.652,66.989,403.636,69.514z"/>
				</g>
			</g>
		</g>
		<g>
			<g>
				<polygon style="fill:#6455E7;" points="415.56,80.997 402.71,68.148 408.676,62.182 415.56,69.066 433.608,51.019 
					439.574,56.985 				"/>
			</g>
		</g>
	</g>
	<g>
		<g>
			<path style="fill:#A0A8FB;" d="M64.384,63.611c0,14.823,14.619,26.849,32.659,26.849c0.951,0,1.891-0.034,2.82-0.102
				c1.891-0.136,3.771,0.419,5.356,1.461c6.772,4.428,15.457,5.016,15.457,5.016c-0.068-0.045-0.125-0.091-0.193-0.136
				c-4.835-3.363-4.881-10.384-0.328-14.132c5.9-4.847,9.546-11.55,9.546-18.956c0-14.835-14.619-26.849-32.659-26.849
				C79.003,36.761,64.384,48.776,64.384,63.611z"/>
		</g>
		<g>
			<g>
				<polygon style="fill:#6455E7;" points="136.938,32.498 131.996,50.937 127.589,46.529 109.012,65.09 101.006,57.068 
					87.92,70.154 81.423,63.656 72.485,72.578 68.169,68.262 81.423,55.024 87.92,61.521 101.006,48.451 109.012,56.458 
					123.272,42.213 118.499,37.439 				"/>
			</g>
		</g>
	</g>
	<g>
		<g>
			<g>
				<path style="fill:#E8A03F;" d="M376.017,146.016c-0.36,4.24-0.98,9.41-1.66,14.56c-0.07,0.57-0.14,1.15-0.23,1.72
					c-1.46,10.99-3.12,21.3-3.12,21.3s-0.92,0.21-2.5,0.45c-2.6,0.42-6.95,0.93-11.95,0.72l0.36,1.17l11.59,36.55
					c0,0-7.63,5.82-16.83,10.33h-0.02c-0.94,0.47-1.86,0.91-2.83,1.33c-6.01,2.68-12.41,4.51-17.6,3.69
					c-2.68-0.44-5.62-1.17-8.63-2.09c-0.94-0.3-1.89-0.61-2.84-0.93c-7.21-2.43-14.49-5.67-19.18-7.88c-0.75-0.35-1.44-0.68-2.05-1
					c-1.96-0.94-3.12-1.53-3.12-1.53l0.15-2.02l0.88-11.65l0.17-2.27v-0.01l1.22-16.31c0,0-5.57-17.01-5.66-20.01
					c-0.02-1.06,0.45-2.77,1.1-4.54c0.2-0.58,0.41-1.15,0.64-1.71c1.03-2.6,2.14-4.88,2.14-4.88l-9.12-9.28
					c0,0,3.55-6.79,7.29-13.03c0.3-0.49,0.6-0.97,0.91-1.46c2.39-3.9,4.77-7.35,6.23-8.43c0.47-0.35,1.15-0.73,2.01-1.15
					c6.2-3.12,20.86-7.84,20.86-7.84l-0.36,2.98c0,0-3.17,6.08,0,9.82c0.59,0.7,1.74,0.56,3.25-0.14c0.65-0.28,1.34-0.66,2.09-1.13
					c6.99-4.37,17.84-15.52,17.84-15.52l-0.23-3.72c0,0,8.24,2.57,10.73,8.23c0,0,0.25,0.14,0.7,0.41c0.04,0.01,0.08,0.04,0.12,0.06
					c0.03,0.02,0.06,0.04,0.09,0.06c0.21,0.13,0.46,0.28,0.75,0.45c0.2,0.12,0.42,0.26,0.66,0.4c0.19,0.12,0.39,0.25,0.6,0.38
					c0.47,0.3,0.99,0.63,1.54,0.99c0.32,0.21,0.64,0.43,0.98,0.65c1.51,1.02,3.2,2.21,4.84,3.5c4.11,3.22,7.99,7.09,8.43,10.36
					C376.467,139.176,376.347,142.216,376.017,146.016z"/>
			</g>
			<g>
				<path style="fill:#222A40;" d="M384.875,432.293l6.967,18.706l-49.464,18.392c0,0-5.121-4.737-5.8-6.793
					c-0.679-2.073,12.975-8.099,26.16-23.13c3.414-0.261,6.758-0.871,10.032-1.811c3.832-1.115,7.542-2.717,11.025-4.737
					L384.875,432.293z"/>
			</g>
			<g>
				<path style="fill:#7F85FA;" d="M295.143,447.69c-0.087-0.017-0.192-0.052-0.279-0.07l-1.724-0.488
					c0,0-1.62-114.411-1.62-125.384c0-10.973,3.884-97.343,3.884-97.343s21.614,11.164,35.827,13.428
					c14.195,2.247,37.272-15.344,37.272-15.344c16.302,13.881-2.421,111.242-2.421,111.242
					c21.269,17.917,19.054,98.423,19.054,98.423l-0.261,0.139l-1.08,0.627c-3.483,2.02-7.193,3.623-11.025,4.737
					c-3.274,0.94-6.618,1.55-10.032,1.811c-0.592,0.052-1.202,0.087-1.811,0.104l-29.191-117.39l-7.28,24.418
					c7.498,19.087-5.016,101.401-5.016,101.401l-1.359,0.296C310.487,449.902,302.632,449.693,295.143,447.69z"/>
			</g>
			<g>
				<path style="fill:#E48C59;" d="M325.013,113.565c-1.254-0.122-2.386-0.453-3.17-1.115c-2.038-1.724-9.649-11.443-10.398-16.981
					c-0.174-1.289-0.191-3.274-0.122-5.573c0.157-5.016,0.732-11.53,1.115-15.396c0-0.017,0-0.052,0.017-0.07
					c0.54-5.573,7.315-11.007,7.315-11.007s9.388-0.749,13.794,6.618c4.389,7.367,17.069,9.022,17.069,9.022
					c0.766-0.122,1.568-0.07,2.316,0.139c1.672,0.488,3.065,1.794,3.832,3.379c0.401,0.801,0.627,1.672,0.714,2.56
					c0.087,0.853,0.052,1.724-0.104,2.56c-0.435,2.508-1.846,4.842-3.866,6.409c-1.637,1.289-3.71,2.038-5.817,2.107
					c-0.366,1.742-0.906,3.309-1.585,4.72c-4.093,8.569-12.906,11.53-14.857,11.983
					C329.367,113.356,327.016,113.739,325.013,113.565z"/>
			</g>
			<g>
				<path style="fill:#E48C59;" d="M346.819,112.102l0.226,3.727c0,0-20.012,20.552-23.182,16.79c-3.17-3.745,0-9.823,0-9.823
					l0.366-2.978c16.546,2.386,21.893-18.88,21.893-18.88L346.819,112.102z"/>
			</g>
			<g>
				<path style="fill:#222A40;" d="M331.266,112.921c1.951-0.453,10.764-3.414,14.857-11.983c0,0-5.347,21.266-21.893,18.88
					l0.784-6.253C327.016,113.739,329.367,113.356,331.266,112.921z"/>
			</g>
			<g>
				<path style="fill:#222A40;" d="M319.44,448.004v20.116h-52.773c0,0-3.135-6.218-3.065-8.395
					c0.087-2.125,14.421-3.03,31.542-12.035c7.489,2.003,15.344,2.212,22.938,0.609L319.44,448.004z"/>
			</g>
			<g>
				<path style="fill:#ECB45E;" d="M329.21,131.348c-0.191,0.732-0.366,1.48-0.557,2.212c-1.185,4.476-2.508,9.562-5.748,13.028
					c-3.257,3.518-8.238,4.215-12.732,3.065c-6.479-1.689-10.955-6.758-15.954-10.955c0.296-0.488,0.592-0.975,0.906-1.463
					c1.184,0.958,2.316,1.968,3.448,2.978c3.518,3.135,7.245,6.444,11.896,7.716c4.511,1.202,9.283,0.261,12.105-3.658
					c1.324-1.846,2.177-3.989,2.891-6.131c0.627-1.864,1.184-3.762,1.655-5.661C327.765,132.201,328.462,131.818,329.21,131.348z"/>
			</g>
			<g>
				<path style="fill:#ECB45E;" d="M374.355,160.573c-0.07,0.575-0.139,1.15-0.226,1.724c-2.595-0.383-5.19-0.749-7.785-1.115
					c-4.859-0.697-9.945-1.428-13.951-4.493c-3.745-2.874-5.312-7.141-4.546-11.774c0.853-5.19,3.745-10.067,5.991-14.752
					c1.498-3.135,2.996-6.235,4.529-9.353c0.383,0.226,0.888,0.54,1.498,0.906c-1.655,3.361-3.274,6.723-4.894,10.102
					c-2.125,4.424-4.946,9.109-5.521,14.073c-0.575,4.807,2.02,8.639,6.2,10.799c4.354,2.282,9.579,2.595,14.369,3.274
					C371.464,160.173,372.909,160.382,374.355,160.573z"/>
			</g>
			<g>
				<path style="fill:#ECB45E;" d="M355.291,186.284c-6.071-7.458-13.395-16.001-23.805-16.409
					c-4.252-0.167-8.711,1.251-11.703,4.362c-3.402,3.537-4.608,8.665-6.093,13.19c-2.026,6.176-4.052,12.352-6.079,18.528
					c-0.35,1.067,1.331,1.525,1.679,0.463c1.666-5.078,3.332-10.156,4.998-15.234c0.831-2.532,1.648-5.069,2.494-7.596
					c0.687-2.05,1.432-4.097,2.569-5.946c2.295-3.732,6.313-5.803,10.642-6.019c4.534-0.225,8.868,1.552,12.537,4.103
					c4.541,3.157,8.066,7.536,11.528,11.789C354.767,188.386,355.993,187.147,355.291,186.284z"/>
			</g>
			<g>
				<path style="fill:#ECB45E;" d="M351.661,232.818c-0.94,0.47-1.864,0.906-2.839,1.324c-3.222-0.662-6.253-2.09-8.761-4.459
					c-5.538-5.243-8.099-14.717-16.163-16.86c-1.097-0.296-0.627-1.968,0.453-1.689c3.971,1.063,6.949,3.971,9.353,7.176
					c2.404,3.187,4.267,6.775,7.071,9.632c2.787,2.839,6.479,4.459,10.398,4.842C351.33,232.801,351.504,232.818,351.661,232.818z"
					/>
			</g>
			<g>
				<path style="fill:#ECB45E;" d="M300.281,203.018c-0.784,2.508-1.637,4.929-2.473,7.263c-0.226,0.627-0.94,0.714-1.376,0.453
					c-0.296-0.174-0.47-0.505-0.314-0.923c0.157-0.453,0.331-0.888,0.488-1.341v-0.017c1.184-3.292,2.334-6.601,3.257-9.98
					c1.776-6.636,2.578-13.794,0.522-20.465c-1.271-4.093-3.727-7.838-7.123-10.415c0.209-0.575,0.418-1.149,0.644-1.707
					c1.672,1.202,3.135,2.647,4.389,4.285C305.68,179.854,303.712,192.045,300.281,203.018z"/>
			</g>
			<g>
				<path style="fill:#ECB45E;" d="M322.592,235.744c-0.94-0.296-1.881-0.61-2.839-0.923c-2.16-2.769-4.72-5.208-7.907-6.845
					c-3.466-1.794-7.663-2.351-11.269-1.045c-0.749-0.348-1.445-0.679-2.055-0.993c4.041-2.055,9.039-1.829,13.254,0.07
					C316.34,228.063,319.771,231.703,322.592,235.744z"/>
			</g>
			<g>
				<g>
					<path style="fill:#E07045;" d="M323.231,82.971c0,0,1.387,2.795,1.372,6.243s-2.317,5.667-3.627,5.508
						c-1.31-0.159-3.731-1.633-3.535-3.421c0,0,0.506-1.217,1.51-2.197C319.955,88.124,323.231,82.971,323.231,82.971z"/>
				</g>
				<g>
					<path style="fill:#222A40;" d="M322.543,95.772c-0.043,0-0.087-0.005-0.13-0.017c-1.861-0.502-3.539-1.438-4.855-2.707
						c-0.845-0.817-0.859-2.092-0.036-3.033c2.292-2.615,4.277-5.438,5.899-8.393c0.134-0.243,0.439-0.328,0.679-0.198
						c0.242,0.133,0.331,0.437,0.198,0.679c-1.657,3.018-3.684,5.902-6.024,8.571c-0.467,0.534-0.476,1.214-0.021,1.654
						c1.193,1.151,2.721,2.002,4.419,2.46c0.267,0.072,0.425,0.346,0.352,0.613C322.966,95.625,322.763,95.772,322.543,95.772z"/>
				</g>
				<g>
					<path style="fill:#222A40;" d="M330.983,81.95c-0.081,1.633,1.006,3.014,2.427,3.084c1.421,0.07,2.638-1.197,2.719-2.831
						c0.08-1.633-1.006-3.014-2.428-3.084S331.063,80.317,330.983,81.95z"/>
				</g>
				<g>
					<path style="fill:#222A40;" d="M314.792,81.153c-0.081,1.633,1.006,3.014,2.427,3.084c1.421,0.07,2.638-1.197,2.719-2.831
						c0.08-1.633-1.006-3.014-2.428-3.084C316.09,78.252,314.873,79.52,314.792,81.153z"/>
				</g>
				<g>
					<path style="fill:#222A40;" d="M333.386,73.335c1.774,0.237,3.435,0.772,5.016,1.61c0.285,0.151,0.516,0.538,0.583,0.841
						c0.073,0.329,0.012,0.76-0.188,1.039c-0.201,0.28-0.492,0.522-0.841,0.583c-0.378,0.067-0.7-0.009-1.038-0.188
						c-0.085-0.045-0.172-0.087-0.257-0.13c-0.966-0.451-1.98-0.779-3.026-0.983c-0.127-0.021-0.254-0.043-0.382-0.06
						c-0.364-0.049-0.686-0.165-0.94-0.445c-0.224-0.247-0.382-0.642-0.35-0.979C332.027,73.942,332.632,73.234,333.386,73.335z"/>
				</g>
				<g>
					<path style="fill:#222A40;" d="M319.992,72.675c-1.789,0.062-3.494,0.431-5.15,1.109c-0.298,0.122-0.566,0.485-0.663,0.78
						c-0.105,0.32-0.086,0.755,0.085,1.052c0.172,0.299,0.438,0.567,0.78,0.663c0.37,0.104,0.698,0.06,1.052-0.085
						c0.089-0.036,0.179-0.07,0.269-0.104c1.005-0.354,2.047-0.581,3.108-0.68c0.128-0.008,0.257-0.018,0.385-0.022
						c0.367-0.013,0.699-0.097,0.979-0.35c0.247-0.224,0.443-0.601,0.444-0.939C321.285,73.413,320.752,72.649,319.992,72.675z"/>
				</g>
				<g>
					<path style="fill:#FFFFFF;" d="M318.462,100.744c0.847,1.775,3.051,4.994,7.752,4.444c4.29-0.485,5.535-4.367,5.873-6.39
						c0.116-0.623-0.419-1.159-1.035-1.071l-11.881,1.743C318.555,99.559,318.2,100.204,318.462,100.744z"/>
				</g>
				<g>
					<path style="fill:#222A40;" d="M348.726,93.925c-0.023,0-0.047-0.001-0.07-0.005c-0.273-0.039-0.464-0.292-0.426-0.565
						c0.518-3.673,2.642-7.137,5.681-9.266c0.227-0.157,0.538-0.104,0.696,0.123c0.159,0.226,0.104,0.538-0.122,0.696
						c-2.817,1.972-4.785,5.182-5.265,8.586C349.185,93.745,348.971,93.925,348.726,93.925z"/>
				</g>
			</g>
			<g>
				<path style="fill:#E07045;" d="M337.118,87.333c-5.604,0-5.613,8.708,0,8.708C342.721,96.041,342.73,87.333,337.118,87.333z"/>
			</g>
			<g>
				<path style="fill:#222A40;" d="M331.736,322.684c-0.223,0-0.426-0.149-0.484-0.374l-16.281-62.623l-14.385-10.804
					c-0.222-0.165-0.266-0.479-0.1-0.699c0.165-0.221,0.48-0.267,0.699-0.1l14.525,10.908c0.091,0.067,0.155,0.164,0.185,0.273
					l16.325,62.792c0.069,0.267-0.091,0.54-0.358,0.61C331.82,322.679,331.777,322.684,331.736,322.684z"/>
			</g>
			<g>
				<path style="fill:#222A40;" d="M380.07,435.364c-0.264,0-0.483-0.205-0.499-0.471c-0.041-0.716-4.186-71.677-8.78-82.607
					c-4.587-10.914-11.132-17.855-11.198-17.925c-0.102-0.107-0.151-0.253-0.135-0.4c0.076-0.679,7.595-68.1,8.546-82.287
					c0.941-14.04-5.151-25.153-5.213-25.265c-0.135-0.241-0.048-0.545,0.193-0.68c0.24-0.134,0.544-0.049,0.68,0.192
					c0.063,0.113,6.3,11.473,5.338,25.818c-0.925,13.796-8.041,77.763-8.525,82.105c1.046,1.15,6.978,7.921,11.235,18.054
					c4.66,11.087,8.688,80.008,8.856,82.936c0.016,0.276-0.194,0.513-0.47,0.528C380.089,435.364,380.079,435.364,380.07,435.364z"
					/>
			</g>
			<g>
				<path style="fill:#222A40;" d="M292.164,172.638c-0.232,0-0.44-0.162-0.488-0.398c-0.902-4.344,9.147-23.256,9.575-24.059
					c0.131-0.244,0.435-0.333,0.677-0.206c0.243,0.13,0.336,0.433,0.206,0.677c-2.87,5.381-10.168,20.071-9.48,23.385
					c0.057,0.27-0.117,0.535-0.388,0.591C292.232,172.634,292.198,172.638,292.164,172.638z"/>
			</g>
			<g>
				<path style="fill:#222A40;" d="M385.087,132.546c-1.27,4.18-3.35,8.17-6.43,11.25c-0.81,0.82-1.7,1.56-2.64,2.22
					c0.33-3.8,0.45-6.84,0.24-8.42c-0.44-3.27-4.32-7.14-8.43-10.36c-1.64-1.29-3.33-2.48-4.84-3.5c-0.33-0.22-0.66-0.44-0.98-0.65
					c-0.55-0.36-1.07-0.69-1.54-0.99c-0.21-0.13-0.41-0.26-0.6-0.38c-0.24-0.14-0.46-0.28-0.66-0.4c-0.29-0.17-0.54-0.32-0.75-0.45
					c-0.03-0.02-0.06-0.04-0.09-0.06c-0.04-0.02-0.08-0.05-0.12-0.06c-0.45-0.27-0.7-0.41-0.7-0.41
					c-2.49-5.66-10.73-8.23-10.73-8.23l-0.69-11.17c0.67-1.41,1.21-2.98,1.58-4.72c2.11-0.07,4.18-0.82,5.82-2.11
					c2.02-1.56,3.43-3.9,3.86-6.41c0.16-0.83,0.2-1.7,0.11-2.56c-0.09-0.88-0.31-1.75-0.72-2.56c-0.76-1.58-2.15-2.89-3.83-3.37
					c-0.75-0.21-1.55-0.27-2.31-0.14c0,0-12.68-1.66-17.07-9.03c-4.41-7.36-13.8-6.61-13.8-6.61s-6.77,5.43-7.31,11
					c-0.02,0.02-0.02,0.06-0.02,0.07c-0.31,3.11-0.74,7.93-0.97,12.31c-1.15-3.47-2.3-6.4-2.3-6.4c-0.44-3.57-3.35-8.05-2.55-15.24
					c0.79-7.18,16.59-13.81,16.59-13.81s3.46-0.77,8.09-1.01c6.24-0.32,14.6,0.33,19.34,5.13c6.49,6.56,8.22,19.25,9.41,27.96
					c2.39,6.73,6,12.95,11.12,17.9c4.4,4.25,9.9,7.59,12.87,12.94C387.087,119.756,386.927,126.556,385.087,132.546z"/>
			</g>
			<g>
				<path style="fill:#222A40;" d="M310.006,78.259c-0.134,0-0.268-0.054-0.366-0.159c-1.964-2.11-3.994-4.292-5.231-7.009
					c-1.408-3.09-1.396-6.364,0.035-8.755c1.406-2.354,3.999-3.665,6.083-4.718c4.222-2.134,8.452-4.251,12.691-6.353
					c0.245-0.123,0.546-0.022,0.67,0.226c0.122,0.248,0.022,0.547-0.227,0.67c-4.235,2.1-8.464,4.217-12.684,6.35
					c-1.969,0.995-4.418,2.233-5.677,4.338c-1.261,2.11-1.255,5.037,0.018,7.828c1.169,2.569,3.143,4.69,5.054,6.742
					c0.187,0.202,0.177,0.519-0.025,0.707C310.25,78.215,310.128,78.259,310.006,78.259z"/>
			</g>
			<g>
				<path style="fill:#222A40;" d="M381.711,136.447c-0.135,0-0.268-0.054-0.367-0.161c-0.188-0.203-0.175-0.519,0.027-0.707
					c4.179-3.864,7.992-7.742,8.754-12.691c0.634-4.116-1.057-8.848-4.64-12.982c-2.23-2.572-4.947-4.762-7.577-6.879
					c-1.108-0.893-2.255-1.816-3.353-2.759c-11.318-9.71-19.352-23.069-22.619-37.619c-0.061-0.269,0.109-0.537,0.379-0.597
					c0.273-0.06,0.537,0.109,0.598,0.378c3.221,14.341,11.138,27.509,22.293,37.079c1.088,0.933,2.228,1.851,3.331,2.739
					c2.663,2.145,5.417,4.363,7.705,7.002c3.775,4.356,5.551,9.382,4.872,13.79c-0.811,5.268-4.75,9.285-9.063,13.273
					C381.954,136.403,381.832,136.447,381.711,136.447z"/>
			</g>
			<g>
				<path style="fill:#222A40;" d="M324.994,133.58c-0.561,0-1.105-0.163-1.509-0.641c-3.349-3.95-0.197-10.113-0.062-10.373
					c0.128-0.245,0.434-0.339,0.674-0.212c0.245,0.127,0.34,0.429,0.213,0.674c-0.03,0.058-2.975,5.829-0.062,9.266
					c0.482,0.571,1.711,0.168,2.658-0.271c0.607-0.262,1.269-0.62,2.034-1.1c6.859-4.288,17.639-15.334,17.747-15.445
					c0.193-0.198,0.512-0.202,0.707-0.01c0.198,0.193,0.202,0.509,0.01,0.707c-0.109,0.112-10.973,11.244-17.934,15.595
					c-0.809,0.507-1.515,0.888-2.156,1.165C326.895,133.13,325.925,133.58,324.994,133.58z"/>
			</g>
		</g>
		<g>
			<g>
				<path style="fill:#7F85FA;" d="M223.09,128.073l-3.048,3.762l-1.445,1.777l-13.167,16.25l0.296,5.364l1.359,24.558v0.017
					l0.139,2.282l2.334,42.201l0.226,4.023h-0.017c-0.766,0.209-25.289,6.827-48.645,7.28c-18.619,0.366-30.532-10.45-34.799-15.118
					c-1.167-1.272-1.759-2.09-1.759-2.09l1.811-14.299l11.826-30.358v-0.052c-14.7,0.557-23.304-3.64-27.902-7.228
					c-3.274-2.56-4.528-4.79-4.528-4.79s3.239-14.508,6.444-27.902c0.139-0.575,0.279-1.167,0.4-1.742
					c2.003-8.395,3.919-16.058,4.929-19.106c2.665-8.064,28.25-15.362,28.25-15.362c0.035-0.035,0.07-0.07,0.104-0.104
					c0.47-0.54,0.958-0.993,1.428-1.393c3.17-2.735,6.026-3.013,6.026-3.013h0.017l-0.226,3.065c0,0,9.492,16.111,17.695,18.41
					c0.261,0.07,0.523,0.139,0.766,0.174c0.627,0.087,1.254,0.087,1.829,0c6.531-0.993,10.032-12.679,10.032-12.679l-1.254-4.459
					c0,0,5.504-1.132,11.007,1.237c0.522,0.226,1.045,0.488,1.568,0.784c0.906,0.505,1.794,1.132,2.647,1.881
					C203.896,107.173,223.09,128.073,223.09,128.073z"/>
			</g>
			<g>
				<path style="fill:#A0A8FB;" d="M194.13,202.207c-8.581,5.722-17.09,11.572-25.758,17.161c-3.776,2.435-8.091,4.795-12.747,4.119
					c-4.088-0.593-7.651-3.21-10.195-6.361c-3.289-4.073-5.042-9.158-6.759-14.031c-0.37-1.05-2.053-0.598-1.68,0.463
					c2.953,8.379,6.71,17.981,15.925,21.063c4.431,1.482,8.929,0.395,12.947-1.734c4.664-2.471,8.971-5.724,13.356-8.648
					c5.263-3.509,10.526-7.019,15.789-10.528C195.938,203.092,195.067,201.583,194.13,202.207z"/>
			</g>
			<g>
				<g>
					
						<ellipse transform="matrix(0.9148 -0.4039 0.4039 0.9148 -8.9047 117.653)" style="fill:#E8A03F;" cx="274.417" cy="79.933" rx="20.883" ry="20.883"/>
				</g>
				<g>
					
						<ellipse transform="matrix(0.8525 -0.5227 0.5227 0.8525 -1.3048 155.2419)" style="fill:#ECB45E;" cx="274.417" cy="79.933" rx="17.399" ry="17.399"/>
				</g>
				<g>
					<g>
						<path style="fill:#E8A03F;" d="M277.154,91.845v3.682h-4.678V92.01c-3.318-0.2-6.536-1.094-8.527-2.323l2.522-5.706
							c2.19,1.294,5.11,2.123,7.664,2.123c2.223,0,3.019-0.465,3.019-1.262c0-2.92-12.839-0.565-12.839-9.223
							c0-3.75,2.72-6.903,8.161-7.664v-3.617h4.678v3.55c2.456,0.232,4.844,0.865,6.735,1.926l-2.356,5.673
							c-2.288-1.162-4.445-1.726-6.469-1.726c-2.289,0-3.019,0.665-3.019,1.462c0,2.785,12.839,0.465,12.839,9.023
							C284.885,87.828,282.297,90.949,277.154,91.845z"/>
					</g>
				</g>
			</g>
			<g>
				<path style="fill:#E48C59;" d="M272.014,100.624v0.017l-0.017,0.087l-9.44,6.287c0,0-25.533,65-35.827,63.676
					c-10.294-1.341-21.005-15.466-21.005-15.466l-0.296-5.364l17.661-21.788l3.03,2.421l22.276-30.462
					c0,0,1.933-13.533,2.543-16.198c0.157-0.731,1.306-1.411,2.909-1.985c4.232-1.568,11.669-2.525,12.697-2.299
					c1.428,0.296,0.488,2.752-0.906,4.232c-1.393,1.48-6.235,4.058-6.235,4.058s2.073,2.734,1.306,7.82
					C263.793,98.377,267.694,100.189,272.014,100.624z"/>
			</g>
			<g>
				<path style="fill:#7F85FA;" d="M230.527,459.725c0.07,2.177-3.083,8.395-3.083,8.395h-52.756v-19.141
					c7.698,2.212,15.954,1.567,23.234-1.846C215.513,456.66,230.439,457.548,230.527,459.725z"/>
			</g>
			<g>
				<path style="fill:#222A40;" d="M138.078,452.149c-3.048,0.801-6.166,1.202-9.283,1.202c-3.658,0-7.315-0.557-10.833-1.655
					c-0.871-0.279-1.742-0.575-2.595-0.923c0,0,3.745-189.304,4.598-201.165c0.627-8.761,4.424-22.537,6.357-29.138
					c4.267,4.668,16.18,15.484,34.799,15.118c23.722-0.453,48.663-7.28,48.663-7.28l-11.861,218.825
					c-7.28,3.414-15.536,4.058-23.234,1.846c-0.523-0.157-1.028-0.314-1.533-0.488l-1.149-0.383l-7.019-124.67L142.24,450.773
					l-0.644,0.244C140.447,451.452,139.262,451.835,138.078,452.149z"/>
			</g>
			<g>
				<path style="fill:#E48C59;" d="M144.522,63.648c0.784-1.463,2.107-2.665,3.692-3.135c0.749-0.192,1.55-0.244,2.316-0.122
					c0,0,3.954-1.097,4.145-5.939c0.122-3.327,0.244-6.566,1.184-8.83c0.435-1.01,1.028-1.846,1.881-2.386
					c0,0,12.505,4.912,18.392-1.062c0,0,8.813,0.261,11.843,7.211c0.209,1.01,0.331,2.038,0.383,3.1h0.017
					c0,0,0.244,2.229,0.54,5.382c0.557,5.974,1.289,15.292,0.801,18.915c-0.749,5.556-3.954,15.118-6.009,16.842
					c-0.453,0.383-1.289,0.679-2.351,0.888c-3.623,0.749-9.788,0.505-11.443-0.261c-1.933-0.888-12.035-3.936-15.64-13.899
					c-0.313-0.871-0.592-1.811-0.801-2.804c-2.107-0.087-4.163-0.836-5.835-2.125c-2.02-1.55-3.431-3.884-3.867-6.392
					c-0.296-1.724-0.139-3.553,0.61-5.138C144.418,63.805,144.47,63.718,144.522,63.648z"/>
			</g>
			<g>
				<path style="fill:#222A40;" d="M182.212,97.541l1.254,4.459c-28.895,1.794-29.191-20.691-29.191-21.614v-0.035
					c3.605,9.962,13.707,13.01,15.64,13.899c1.655,0.766,7.82,1.01,11.443,0.261L182.212,97.541z"/>
			</g>
			<g>
				<path style="fill:#E48C59;" d="M154.276,80.386c0,0.923,0.296,23.408,29.191,21.614c0,0-4.441,14.804-12.627,12.505
					c-8.203-2.299-17.695-18.41-17.695-18.41l0.226-3.065L154.276,80.386z"/>
			</g>
			<g>
				<path style="fill:#222A40;" d="M192.457,42.416c0.08,1.5-0.44,2.94-0.89,4.36c-1.12,3.6-1.74,7.34-1.88,11.11l-0.77-0.02
					c-0.3-3.15-0.54-5.38-0.54-5.38h-0.02c-0.05-1.06-0.17-2.09-0.38-3.1c-0.45-1.03-1.03-1.9-1.69-2.65
					c-0.24,0.28-0.49,0.55-0.75,0.81c-3.79,3.68-9.43,4.32-14.41,3.34c-2.79-0.54-5.44-1.57-8.03-2.72
					c-2.34-1.04-4.74-2.16-7.32-2.3c-0.86,2.25-0.98,5.37-1.1,8.59c-0.19,4.84-4.15,5.93-4.15,5.93c-0.76-0.12-1.56-0.06-2.31,0.13
					c-1.59,0.47-2.91,1.67-3.69,3.13c-1.85-2.77-1.33-6.95,1.27-9.09c-1.71-2.77-2.67-6.01-2.69-9.25
					c-0.01-1.72,0.27-3.55,1.33-4.89c1.53-1.94,4.16-2.42,6.51-3.1c3.28-0.94,6.34-2.49,9.46-3.85c1.41-0.61,2.82-1.2,4.28-1.67
					c4.71-1.55,10.26-1.85,14.22,1.11c0.95,0.72,1.79,1.62,2.84,2.21c1.88,1.07,4.19,1.01,6.23,1.76
					C190.327,37.746,192.297,39.906,192.457,42.416z"/>
			</g>
			<g>
				<path style="fill:#7F85FA;" d="M142.641,469.409c0.853,3.466-1.777,7.42-1.777,7.42h-27.362c0,0-1.968-7.576-0.958-9.753
					c0.714-1.533,3.71-10.328,5.417-15.379c3.518,1.097,7.176,1.655,10.833,1.655c3.118,0,6.235-0.401,9.283-1.202
					C139.541,457.618,142.049,466.988,142.641,469.409z"/>
			</g>
			<g>
				<path style="fill:#A0A8FB;" d="M137.904,135.458c-4.894,3.013-10.781,3.379-16.285,2.073c-3.327-0.801-6.427-2.142-9.405-3.78
					c0.139-0.575,0.279-1.167,0.4-1.742c3.449,1.899,7.071,3.466,10.99,4.163c5.243,0.923,10.624,0.017,14.909-3.24
					c3.745-2.856,6.375-7.054,7.873-11.478c2.665-7.872,1.62-16.093-0.488-24.018c0.47-0.54,0.958-0.993,1.428-1.393
					c1.097,4.076,1.968,8.203,2.264,12.418C150.322,118.546,146.96,129.885,137.904,135.458z"/>
			</g>
			<g>
				<path style="fill:#A0A8FB;" d="M207.223,182.083c-2.595-1.881-5.504-3.361-8.378-4.441c-8.796-3.274-18.288-4.076-27.101-7.315
					c-7.716-2.839-15.066-7.942-18.026-15.936c-3.135-8.517,1.115-16.842,6.235-23.53c3.954-5.155,8.97-10.171,11.652-16.18
					c0.627,0.087,1.254,0.087,1.829,0c-2.891,6.932-8.674,12.471-13.08,18.549c-2.613,3.605-4.946,7.576-5.748,12.018
					c-0.749,4.163,0.209,8.343,2.404,11.93c4.79,7.872,13.637,11.426,22.172,13.585c8.97,2.282,18.427,3.466,26.543,8.186
					c0.453,0.261,0.906,0.54,1.359,0.836v0.017L207.223,182.083z"/>
			</g>
			<g>
				<path style="fill:#A0A8FB;" d="M220.042,131.835l-1.445,1.777c-1.254,0-2.508-0.035-3.762-0.139
					c-8.778-0.697-17.173-4.494-21.614-12.418c-3.867-6.897-3.779-15.431,0-22.276c0.522,0.226,1.045,0.488,1.568,0.784
					c-1.898,3.396-2.874,7.263-2.735,11.182c0.279,8.099,5.434,15.292,12.767,18.566
					C209.626,131.469,214.834,132.009,220.042,131.835z"/>
			</g>
			<g>
				<g>
					<path style="fill:#E07045;" d="M178.127,61.242c0,0-1.202,3.701-0.807,8.046s3.145,6.85,4.552,6.483
						c1.408-0.368,3.881-2.534,3.47-4.764c0,0-0.684-1.47-1.884-2.577C182.258,67.322,178.127,61.242,178.127,61.242z"/>
				</g>
				<g>
					<path style="fill:#222A40;" d="M180.229,77.164c-0.192,0-0.376-0.111-0.458-0.298c-0.111-0.253,0.003-0.548,0.256-0.659
						c1.803-0.796,3.379-2.07,4.558-3.686c0.495-0.677,0.405-1.653-0.212-2.321c-2.835-3.064-5.353-6.435-7.482-10.019
						c-0.141-0.237-0.063-0.544,0.174-0.685c0.237-0.142,0.544-0.063,0.685,0.174c2.094,3.524,4.569,6.838,7.357,9.851
						c0.941,1.017,1.062,2.527,0.286,3.59c-1.282,1.757-2.998,3.145-4.962,4.011C180.365,77.15,180.297,77.164,180.229,77.164z"/>
				</g>
				<g>
					<path style="fill:#222A40;" d="M171.77,62.886c0,1.635-1.154,2.961-2.576,2.961c-1.423,0-2.576-1.326-2.576-2.961
						s1.153-2.961,2.576-2.961C170.617,59.925,171.77,61.251,171.77,62.886z"/>
				</g>
				<g>
					<path style="fill:#222A40;" d="M187.981,62.886c0,1.635-1.153,2.961-2.576,2.961c-1.423,0-2.576-1.326-2.576-2.961
						s1.154-2.961,2.576-2.961C186.827,59.925,187.981,61.251,187.981,62.886z"/>
				</g>
				<g>
					<path style="fill:#222A40;" d="M170.344,53.678c-2.23,0.187-4.336,0.753-6.361,1.702c-0.365,0.171-0.677,0.64-0.78,1.014
						c-0.112,0.406-0.061,0.947,0.171,1.308c0.234,0.362,0.582,0.681,1.014,0.78c0.468,0.107,0.875,0.032,1.308-0.171
						c0.109-0.051,0.22-0.098,0.329-0.147c1.233-0.504,2.52-0.851,3.839-1.041c0.16-0.018,0.32-0.038,0.48-0.051
						c0.457-0.038,0.867-0.164,1.201-0.497c0.294-0.294,0.516-0.778,0.497-1.2C172.004,54.52,171.292,53.598,170.344,53.678z"/>
				</g>
				<g>
					<path style="fill:#222A40;" d="M189.625,57.703c-0.234,0.362-0.582,0.681-1.015,0.78c-0.468,0.107-0.875,0.032-1.308-0.171
						c-0.109-0.051-0.219-0.098-0.329-0.147c-1.233-0.504-2.52-0.851-3.839-1.041c-0.16-0.018-0.32-0.038-0.48-0.051
						c-0.457-0.038-0.867-0.164-1.2-0.497c-0.294-0.294-0.516-0.778-0.497-1.2c0.038-0.856,0.75-1.777,1.698-1.698
						c2.23,0.187,4.336,0.753,6.362,1.702"/>
				</g>
				<g>
					<path style="fill:#222A40;" d="M152.273,74.504c-0.256,0-0.474-0.195-0.497-0.455c-0.313-3.424-2.12-6.727-4.836-8.835
						c-0.218-0.169-0.258-0.483-0.088-0.702c0.17-0.217,0.483-0.257,0.702-0.088c2.931,2.275,4.881,5.839,5.219,9.534
						c0.025,0.275-0.178,0.518-0.453,0.543C152.303,74.503,152.288,74.504,152.273,74.504z"/>
				</g>
				<g>
					<path style="fill:#222A40;" d="M177.868,81.295c-1.603,0-3.186-0.475-4.525-1.367c-1.542-1.027-2.698-2.566-3.255-4.333
						c-0.083-0.263,0.064-0.544,0.327-0.628c0.264-0.081,0.545,0.063,0.628,0.327c0.489,1.55,1.503,2.9,2.856,3.802
						c1.353,0.901,2.992,1.317,4.608,1.17c0.273-0.021,0.518,0.178,0.543,0.453c0.025,0.275-0.178,0.518-0.453,0.543
						C178.353,81.284,178.11,81.295,177.868,81.295z"/>
				</g>
			</g>
			<g>
				<path style="fill:#10141C;" d="M164.988,323.939c-0.042,0-0.085-0.005-0.127-0.017c-0.267-0.07-0.427-0.343-0.357-0.61
					l18.163-69.23c0.029-0.113,0.098-0.212,0.192-0.28l17.189-12.287c0.224-0.159,0.537-0.108,0.697,0.116
					c0.161,0.225,0.109,0.537-0.116,0.698l-17.042,12.182l-18.117,69.056C165.412,323.79,165.209,323.939,164.988,323.939z"/>
			</g>
			<g>
				<path style="fill:#10141C;" d="M185.328,257.129c-0.245,0-0.458-0.18-0.494-0.428c-0.04-0.273,0.149-0.527,0.423-0.567
					l15.009-2.179c0.273-0.036,0.527,0.15,0.566,0.423c0.04,0.273-0.149,0.527-0.423,0.567l-15.009,2.179
					C185.376,257.127,185.352,257.129,185.328,257.129z"/>
			</g>
			<g>
				<path style="fill:#10141C;" d="M117.962,452.195c-0.009,0-0.019,0-0.028-0.001c-0.276-0.015-0.487-0.251-0.472-0.526
					c0.099-1.806,9.872-180.641,9.992-190.203c0.12-9.614,3.996-31.219,4.035-31.436c0.049-0.271,0.305-0.448,0.581-0.403
					c0.271,0.049,0.452,0.31,0.403,0.581c-0.039,0.216-3.9,21.739-4.02,31.27c-0.12,9.584-9.895,188.44-9.994,190.246
					C118.446,451.989,118.225,452.195,117.962,452.195z"/>
			</g>
			<g>
				<path style="fill:#222A40;" d="M148.208,161.182c-0.09,0-0.181-0.024-0.263-0.075c-0.235-0.145-0.307-0.454-0.162-0.688
					l7.101-11.459c0.144-0.235,0.453-0.308,0.688-0.162c0.235,0.145,0.307,0.454,0.162,0.688l-7.101,11.459
					C148.539,161.098,148.376,161.182,148.208,161.182z"/>
			</g>
			<g>
				<path style="fill:#222A40;" d="M206.124,162.949c-0.002,0-0.005,0-0.007,0c-0.276-0.004-0.497-0.231-0.493-0.507
					c0.215-15.025-4.277-35.822-4.322-36.03c-0.059-0.27,0.112-0.536,0.382-0.595c0.266-0.061,0.536,0.113,0.595,0.382
					c0.045,0.209,4.561,21.117,4.345,36.258C206.62,162.73,206.397,162.949,206.124,162.949z"/>
			</g>
			<g>
				<path style="fill:#222A40;" d="M216.961,144.074c-0.099,0-0.199-0.029-0.286-0.09c-0.227-0.159-0.281-0.47-0.123-0.696
					l9.158-13.08c0.158-0.227,0.472-0.281,0.696-0.123c0.227,0.159,0.281,0.47,0.123,0.696l-9.158,13.08
					C217.274,144,217.119,144.074,216.961,144.074z"/>
			</g>
			<g>
				<path style="fill:#222A40;" d="M260.134,99.53c-0.063,0-0.126-0.012-0.188-0.037c-0.256-0.104-0.379-0.395-0.276-0.65
					c0.021-0.053,2.076-5.303-0.711-10.776c-0.063-0.122-0.072-0.266-0.025-0.395c0.046-0.13,0.144-0.234,0.27-0.29
					c2.128-0.934,7.631-4.017,7.541-7.025c-0.008-0.276,0.209-0.506,0.485-0.515c0.273,0.014,0.507,0.21,0.515,0.485
					c0.111,3.744-5.898,6.904-7.667,7.751c2.661,5.712,0.611,10.914,0.521,11.139C260.518,99.412,260.331,99.53,260.134,99.53z"/>
			</g>
			<g>
				<path style="fill:#222A40;" d="M146.425,56.08c-0.16,0-0.317-0.077-0.414-0.219c-2.511-3.699-3.974-8.014-4.23-12.479
					c-0.16-2.783,0.351-4.816,1.561-6.216c1.598-1.849,4.169-2.32,6.436-2.736c7.833-1.437,15.453-3.793,22.69-7.012
					c1.797-0.799,4.257-1.895,6.426-0.866c1.537,0.727,2.355,2.294,2.77,3.481c0.985,2.814,0.751,6.071-0.628,8.715
					c-0.128,0.244-0.428,0.339-0.675,0.212c-0.245-0.128-0.339-0.43-0.212-0.675c1.253-2.403,1.467-5.365,0.572-7.922
					c-0.352-1.006-1.03-2.328-2.255-2.908c-1.621-0.769-3.569-0.023-5.592,0.876c-7.31,3.25-15.005,5.63-22.872,7.073
					c-2.252,0.413-4.536,0.832-5.903,2.414c-1.032,1.194-1.464,2.994-1.32,5.504c0.247,4.285,1.65,8.426,4.059,11.975
					c0.155,0.229,0.096,0.54-0.133,0.694C146.619,56.052,146.521,56.08,146.425,56.08z"/>
			</g>
		</g>
		<g>
			<g>
				<path style="fill:#A0A8FB;" d="M312.038,211.152c-3.083,9.057-8.36,15.762-15.031,20.204l-3.344-6.88
					c-12.383-1.219-21.162,5.399-21.162,5.399l0.418,8.221c-4.389,0-8.917-0.575-13.481-1.655c-1.306-0.296-2.647-0.662-3.971-1.062
					c-0.749-0.244-1.515-0.47-2.282-0.732l-9.335-3.17l-4.076-1.393c0.523-0.226,1.01-0.453,1.463-0.679
					c0.296-0.139,0.575-0.279,0.801-0.47c2.822-1.846,3.867-5.591,2.351-8.726l-2.299-4.755l-3.065-6.322
					c-12.366-1.202-21.162,5.434-21.162,5.434l0.383,7.437c-4.511-2.299-8.534-5.068-12.018-8.238
					c-6.061-5.469-10.398-12.139-12.366-19.646c-1.533-5.835-1.637-12.157-0.017-18.81c0.331-1.306,0.714-2.613,1.167-3.954
					c2.839-8.36,7.785-15.449,14.073-20.831c1.202-1.045,2.456-2.02,3.762-2.943c2.073-1.463,4.25-2.752,6.514-3.867
					c2.125-1.045,4.337-1.951,6.601-2.665c9.492-3.065,20.029-3.222,30.166,0.226l25.812,8.778
					c10.38,3.518,18.793,10.311,24.471,18.81c1.446,2.16,2.682,4.389,3.762,6.758C315.138,186.42,316.148,199.082,312.038,211.152z"
					/>
			</g>
			<g>
				<path style="fill:#6455E7;" d="M299.02,235.544c1.638,3.408,0.253,7.536-3.161,9.19c-3.894,1.877-9.392,3.871-15.557,4.203
					c-3.785,0.203-6.984-2.779-7.171-6.558l-0.217-4.286l-0.408-8.214c0,0,8.78-6.618,21.155-5.41l3.341,6.894L299.02,235.544z"/>
			</g>
			<g>
				<path style="fill:#C1C9FC;" d="M313.945,169.886c-0.713,2.204-2.003,4.268-3.768,5.728c-1.077-2.353-2.319-4.596-3.76-6.742
					c1.891-0.314,3.686-1.157,5.082-2.448c1.927-1.773,3.088-4.322,3.148-6.932C314.967,162.985,315.039,166.56,313.945,169.886z"/>
			</g>
			<g>
				<path style="fill:#222A40;" d="M288.455,155.191l-0.662,1.951l-7.089-2.404l-2.404-0.836c0,0,0,0.018-0.017,0l-16.006-5.434
					l-2.421-0.836l-10.45-3.553l0.662-1.933l9.544,3.24l2.177,0.749l18.322,6.218l2.16,0.732L288.455,155.191z"/>
			</g>
			<g>
				<path style="fill:#6455E7;" d="M255.476,235.384c1.32,0.393,2.65,0.754,3.965,1.053c-2.636,2.397-7.569,3.056-10.216,0.776
					c-2.077-1.791-3.855-3.757-5.369-5.743l9.333,3.173C253.948,234.901,254.712,235.142,255.476,235.384z"/>
			</g>
			<g>
				<path style="fill:#6455E7;" d="M268.765,152.301c0,0-1.507,9.844-4.249,12.499c-2.731,2.677-10.668-0.058-10.668-0.058
					l-4.489-8.332c0,0,2.868-9.032,5.406-8.868C257.314,147.727,268.765,152.301,268.765,152.301z"/>
			</g>
			<g>
				<path style="fill:#6455E7;" d="M244.391,220.21c1.512,3.126,0.477,6.877-2.343,8.732c-0.243,0.175-0.514,0.322-0.801,0.463
					c-0.464,0.228-0.944,0.451-1.464,0.68c-3.761,1.646-8.683,3.247-14.11,3.518c-3.769,0.209-6.973-2.757-7.16-6.536l-0.251-5.052
					l-0.017-0.006l-0.374-7.449c0,0,8.786-6.634,21.16-5.426l3.058,6.319L244.391,220.21z"/>
			</g>
			<g>
				<path style="fill:#222A40;" d="M242.601,160.919c2.127,0.723,3.08,3.549,2.144,6.303c-0.936,2.754-3.408,4.397-5.535,3.674
					c-2.127-0.723-3.085-3.532-2.149-6.286C237.997,161.855,240.474,160.196,242.601,160.919z"/>
			</g>
			<g>
				<path style="fill:#6455E7;" d="M232.668,186.295c-0.085,0.357-0.186,0.709-0.293,1.078c-2.865,8.426-11.762,7.812-21.82,4.392
					c-9.762-3.319-17.021-8.049-14.87-16c0.068-0.253,0.157-0.517,0.247-0.781c2.192-6.448,7.655-12.777,14.634-13.826
					c0.298-0.064,0.601-0.09,0.904-0.116c0.529-0.041,1.069-0.06,1.614-0.04c1.366,0.041,2.769,0.297,4.203,0.785
					c9.597,3.263,17.222,15.954,15.398,24.403C232.691,186.229,232.68,186.262,232.668,186.295z M219.396,184.211
					c1.583,0.538,3.632-1.267,4.568-4.021c0.931-2.737,0.407-5.417-1.176-5.955c-1.583-0.538-3.632,1.267-4.562,4.005
					C217.289,180.993,217.813,183.673,219.396,184.211z M208.018,174.824c0.936-2.754,0.429-5.428-1.154-5.966
					c-1.583-0.538-3.632,1.267-4.568,4.021c-0.936,2.754-0.407,5.417,1.176,5.955C205.055,179.372,207.081,177.578,208.018,174.824z
					"/>
			</g>
			<g>
				<path style="fill:#222A40;" d="M223.964,180.19c-0.936,2.754-2.985,4.559-4.568,4.021c-1.583-0.538-2.107-3.218-1.171-5.972
					c0.931-2.737,2.979-4.543,4.562-4.005C224.371,174.773,224.894,177.453,223.964,180.19z"/>
			</g>
			<g>
				<path style="fill:#6455E7;" d="M206.238,213.77l-5.264,6.176c-2.452,2.882-6.8,3.281-9.682,0.829
					c-4.685-4.021-7.823-8.969-9.766-12.831c-1.704-3.375-0.302-7.498,3.09-9.196l9.248-4.638
					C195.835,201.624,200.174,208.287,206.238,213.77z"/>
			</g>
			<g>
				<path style="fill:#6455E7;" d="M225.868,134.222c1.865,1.223,0.473,5.698,0.092,6.819c-2.251,0.725-4.471,1.626-6.592,2.671
					c-2.276,1.121-4.443,2.408-6.522,3.872l-0.262-0.365c-0.082-0.028-4.43-1.525-4.964-5.257
					c-0.534-3.787,4.249-12.499,4.249-12.499S223.75,132.822,225.868,134.222z"/>
			</g>
			<g>
				<path style="fill:#222A40;" d="M216.107,157.468c-0.224,0.66-0.536,1.253-0.914,1.768c-2.127,1.116-3.723,1.806-3.723,1.806
					c-0.303,0.026-0.606,0.051-0.904,0.116c-2.127-0.723-3.08-3.549-2.144-6.303c0.409-1.204,1.115-2.197,1.95-2.869
					c1.085-0.864,2.381-1.214,3.585-0.805C216.085,151.905,217.043,154.714,216.107,157.468z"/>
			</g>
			<g>
				<path style="fill:#222A40;" d="M206.863,168.858c1.583,0.538,2.09,3.212,1.154,5.966c-0.936,2.754-2.963,4.548-4.546,4.01
					c-1.583-0.538-2.113-3.202-1.176-5.955C203.232,170.125,205.28,168.32,206.863,168.858z"/>
			</g>
			<g>
				<path style="fill:#222A40;" d="M232.686,186.69c-0.035,0-0.07-0.003-0.106-0.011c-0.27-0.058-0.441-0.324-0.383-0.594
					c1.828-8.467-5.919-20.713-15.07-23.824c-1.363-0.464-2.729-0.719-4.058-0.759c-0.487-0.018-0.998-0.005-1.56,0.039
					c-0.242,0.022-0.47-0.145-0.526-0.386c-0.056-0.241,0.074-0.487,0.304-0.578c0.087-0.034,8.757-3.464,10.531-5.749
					c0.17-0.217,0.484-0.258,0.702-0.088c0.218,0.169,0.258,0.483,0.088,0.702c-1.339,1.726-5.872,3.889-8.673,5.113
					c1.16,0.106,2.338,0.361,3.513,0.761c9.561,3.25,17.644,16.091,15.725,24.981C233.123,186.53,232.916,186.69,232.686,186.69z"/>
			</g>
			<g>
				<path style="fill:#222A40;" d="M303.744,219.653c-0.115,0-0.23-0.04-0.325-0.12c-0.21-0.18-0.234-0.495-0.055-0.705
					c4.532-5.305,7.436-12.047,8.177-18.986c0.74-6.938-0.676-14.142-3.988-20.283c-0.131-0.243-0.04-0.546,0.203-0.677
					c0.242-0.132,0.546-0.04,0.678,0.203c3.406,6.317,4.863,13.727,4.102,20.864c-0.762,7.137-3.749,14.073-8.411,19.529
					C304.025,219.593,303.885,219.653,303.744,219.653z"/>
			</g>
			<g>
				<path style="fill:#222A40;" d="M252.747,158.029c-0.024,0-0.047-0.002-0.071-0.005c-0.273-0.039-0.464-0.292-0.425-0.565
					c0.386-2.729,2.984-4.518,5.352-4.875c2.142-0.321,4.482,0.195,7.138,1.584c0.245,0.128,0.34,0.43,0.212,0.674
					c-0.128,0.245-0.429,0.34-0.675,0.212c-2.463-1.287-4.602-1.772-6.526-1.48c-2.001,0.301-4.192,1.781-4.51,4.025
					C253.206,157.848,252.992,158.029,252.747,158.029z"/>
			</g>
			<g>
				<path style="fill:#222A40;" d="M222.218,141.169c-0.275,0-0.499-0.223-0.5-0.498c-0.006-1.706-0.702-3.375-1.909-4.579
					c-1.207-1.205-2.877-1.896-4.583-1.899c-0.276,0-0.499-0.225-0.499-0.501c0-0.276,0.23-0.482,0.501-0.499
					c1.967,0.003,3.895,0.802,5.287,2.191c1.393,1.39,2.196,3.315,2.203,5.283c0.001,0.276-0.222,0.501-0.498,0.502
					C222.219,141.169,222.218,141.169,222.218,141.169z"/>
			</g>
		</g>
		<g>
			<g>
				<path style="fill:#E48C59;" d="M218.805,222.49c-0.192,0.906-1.463,1.028-1.463,1.028c-0.801,0.819-4.999,1.062-7.785,0.766
					c-0.679-0.052-1.254-0.157-1.707-0.279c-2.299-0.662-11.634-4.11-15.013-6.409c-3.396-2.299-6.705-6.566-6.705-6.566
					s-30.985-2.665-48.088-4.668c-4.197-0.488-8.134-1.289-11.669-2.282c-10.938-2.996-18.218-7.872-18.357-11.774
					c-0.157-5.155,2.282-25.864,2.282-25.864c4.598,3.588,13.202,7.785,27.902,7.228v0.052l-0.644,3.257l49.342,15.188
					c3.553-2.961,13.324-3.205,16.947-3.379c0.906-0.052,2.229-0.244,3.71-0.488c4.459-0.784,10.328-2.107,10.572-1.689
					c0.331,0.54,0.157,3.745-1.08,4.894c-0.871,0.801-6.009,3.71-9.005,5.347c-1.271,0.714-2.142,1.184-2.142,1.184l2.543,6.253
					l5.086,12.453C213.528,216.742,218.979,221.584,218.805,222.49z"/>
			</g>
			<g>
				<path style="fill:#222A40;" d="M136.997,173.955c-4.762,0-11.897-0.391-18.305-2.304c-0.265-0.079-0.415-0.357-0.336-0.622
					c0.079-0.265,0.355-0.417,0.622-0.336c9.614,2.87,20.927,2.252,23.031,2.105l8.622-31.294c0.073-0.266,0.348-0.424,0.615-0.349
					c0.266,0.073,0.422,0.349,0.349,0.615l-8.715,31.633c-0.055,0.201-0.23,0.347-0.438,0.365
					C142.39,173.773,140.246,173.955,136.997,173.955z"/>
			</g>
			<g>
				<path style="fill:#222A40;" d="M123.031,183.938c-0.128,0-0.256-0.049-0.354-0.146c-0.195-0.195-0.195-0.512,0-0.707
					c0.232-0.232,5.796-5.71,14.829-6.602c0.067-0.006,0.133,0,0.196,0.02l15.588,4.798c0.264,0.081,0.412,0.361,0.331,0.625
					c-0.081,0.264-0.358,0.415-0.625,0.331l-15.491-4.768c-8.606,0.887-14.066,6.25-14.12,6.304
					C123.287,183.889,123.16,183.938,123.031,183.938z"/>
			</g>
			<g>
				<path style="fill:#222A40;" d="M217.343,224.018c-0.033,0-0.067-0.003-0.101-0.01c-0.208-0.043-5.127-1.07-7.767-3.145
					c-2.625-2.061-5.812-7.569-5.946-7.802c-0.138-0.239-0.056-0.545,0.184-0.683c0.24-0.139,0.545-0.056,0.683,0.184
					c0.032,0.056,3.225,5.573,5.698,7.515c2.454,1.927,7.302,2.941,7.351,2.951c0.271,0.056,0.445,0.32,0.389,0.59
					C217.783,223.855,217.575,224.018,217.343,224.018z"/>
			</g>
			<g>
				<path style="fill:#222A40;" d="M209.556,224.784c-0.069,0-0.14-0.015-0.207-0.045c-5.637-2.572-11.522-7.943-11.77-8.17
					c-0.204-0.186-0.217-0.503-0.031-0.706c0.187-0.204,0.503-0.217,0.707-0.031c0.06,0.055,6.019,5.492,11.509,7.997
					c0.252,0.115,0.362,0.412,0.248,0.663C209.928,224.675,209.746,224.784,209.556,224.784z"/>
			</g>
		</g>
		<g>
			<g>
				<path style="fill:#E48C59;" d="M368.503,184.051v0.018c0,0-1.637,14.944-5.295,23.46c-1.289,2.996-2.822,5.19-4.633,5.678
					c-6.932,1.864-53.888,2.961-53.888,2.961s-4.319,2.996-9.126,6.218c-5.556,3.71-11.791,7.733-12.714,7.733
					c-1.742,0-4.598-0.801-4.598-0.801s-1.306-0.052-4.372-0.731c-3.065-0.679-2.09-2.909-2.09-2.909l10.241-4.441l8.761-6.584
					c-0.383,0.122-3.501,1.132-6.253,1.341c-2.943,0.226-3.867-2.02-3.867-2.02l11.286-6.2c0.61-3.536,2.874-5.138,5.138-5.835
					c2.682-0.836,5.382-0.383,5.382-0.383l38.927-6.131l0.732-13.568C352.114,185.967,363.539,184.852,368.503,184.051z"/>
			</g>
			<g>
				<path style="fill:#222A40;" d="M359.936,185.313c-2.612,0-4.525-0.141-4.7-0.154c-11.018-0.792-18.259-4.14-18.331-4.174
					c-0.189-0.089-0.303-0.286-0.285-0.493l2.179-26.63c0.023-0.275,0.27-0.476,0.539-0.458c0.275,0.023,0.48,0.264,0.457,0.539
					l-2.149,26.275c1.487,0.634,8.124,3.257,17.665,3.943c0.097,0.006,9.603,0.705,15.556-1.045c0.262-0.08,0.542,0.073,0.62,0.338
					c0.078,0.265-0.073,0.543-0.339,0.621C367.715,185.085,363.26,185.313,359.936,185.313z"/>
			</g>
			<g>
				<path style="fill:#222A40;" d="M278.249,229.818c-0.195,0-0.381-0.115-0.461-0.307c-0.107-0.255,0.013-0.548,0.268-0.654
					c0.066-0.028,6.658-2.794,9.42-4.45c2.735-1.642,5.204-4.097,5.229-4.121c0.195-0.195,0.512-0.195,0.707,0
					c0.195,0.195,0.195,0.512,0,0.707c-0.103,0.104-2.577,2.564-5.422,4.271c-2.823,1.693-9.273,4.4-9.547,4.515
					C278.379,229.805,278.313,229.818,278.249,229.818z"/>
			</g>
		</g>
		<g>
			<g>
				<g>
					<path style="fill:#E8A03F;" d="M282.272,153.084c-0.47,0.592-0.993,1.15-1.568,1.654l-2.404-0.836c0,0,0,0.018-0.017,0
						l-16.006-5.434l-2.421-0.836c-0.017-0.052-0.017-0.122-0.035-0.174c-0.122-0.697-0.192-1.393-0.209-2.073
						c-0.052-4.912,2.717-9.632,7.472-11.791c6.392-2.891,13.916-0.07,16.825,6.322C285.947,144.41,285.146,149.479,282.272,153.084
						z"/>
				</g>
				<g>
					<path style="fill:#ECB45E;" d="M280.112,152.352c-0.54,0.575-1.132,1.097-1.811,1.55c0,0,0,0.018-0.017,0l-16.006-5.434
						c-0.261-0.766-0.418-1.55-0.488-2.334c-0.401-4.372,1.951-8.708,6.165-10.607c5.33-2.421,11.6-0.052,14.021,5.26
						C283.787,144.793,282.899,149.322,280.112,152.352z"/>
				</g>
			</g>
			<g>
				<g>
					<path style="fill:#E8A03F;" d="M273.563,113.214c1.759,6.305-1.929,12.847-8.234,14.606
						c-6.305,1.759-12.847-1.929-14.606-8.234c-1.759-6.305,1.929-12.847,8.234-14.606
						C265.262,103.221,271.804,106.909,273.563,113.214z"/>
				</g>
				<g>
					<path style="fill:#ECB45E;" d="M271.658,113.745c1.464,5.248-1.612,10.706-6.861,12.17c-5.248,1.464-10.706-1.612-12.17-6.86
						c-1.464-5.248,1.612-10.706,6.861-12.17C264.737,105.421,270.194,108.497,271.658,113.745z"/>
				</g>
			</g>
			<g>
				<g>
					<path style="fill:#E8A03F;" d="M301.365,116.039c1.313,4.707-1.44,9.591-6.147,10.904c-4.707,1.313-9.591-1.44-10.904-6.147
						c-1.313-4.707,1.44-9.591,6.147-10.904C295.168,108.579,300.051,111.332,301.365,116.039z"/>
				</g>
				<g>
					<path style="fill:#ECB45E;" d="M299.943,116.436c1.093,3.918-1.204,7.992-5.122,9.085c-3.918,1.093-7.992-1.204-9.085-5.121
						c-1.093-3.918,1.204-7.992,5.121-9.085C294.775,110.221,298.849,112.518,299.943,116.436z"/>
				</g>
			</g>
		</g>
	</g>
	<g>
		<g>
			<g>
				<circle style="fill:#C1C9FC;" cx="382.194" cy="238.462" r="3.301"/>
			</g>
			<g>
				<g>
					<circle style="fill:#C1C9FC;" cx="408.628" cy="238.462" r="3.301"/>
				</g>
			</g>
		</g>
		<g>
			<g>
				<circle style="fill:#C1C9FC;" cx="382.194" cy="212.028" r="3.301"/>
			</g>
			<g>
				<g>
					<circle style="fill:#C1C9FC;" cx="408.628" cy="212.028" r="3.301"/>
				</g>
			</g>
		</g>
		<g>
			<g>
				<path style="fill:#C1C9FC;" d="M382.194,182.293c1.823,0,3.301,1.478,3.301,3.301c0,1.823-1.478,3.301-3.301,3.301
					c-1.823,0-3.301-1.478-3.301-3.301C378.892,183.771,380.37,182.293,382.194,182.293z"/>
			</g>
			<g>
				<g>
					<path style="fill:#C1C9FC;" d="M408.628,182.293c1.823,0,3.301,1.478,3.301,3.301c0,1.823-1.478,3.301-3.301,3.301
						c-1.823,0-3.301-1.478-3.301-3.301C405.326,183.771,406.804,182.293,408.628,182.293z"/>
				</g>
			</g>
		</g>
		<g>
			<circle style="fill:#C1C9FC;" cx="435.813" cy="238.462" r="3.301"/>
		</g>
		<g>
			<g>
				<circle style="fill:#C1C9FC;" cx="462.246" cy="238.462" r="3.301"/>
			</g>
		</g>
		<g>
			<circle style="fill:#C1C9FC;" cx="435.813" cy="212.028" r="3.301"/>
		</g>
		<g>
			<g>
				<circle style="fill:#C1C9FC;" cx="462.246" cy="212.028" r="3.301"/>
			</g>
		</g>
		<g>
			<path style="fill:#C1C9FC;" d="M435.813,182.293c1.823,0,3.301,1.478,3.301,3.301c0,1.823-1.478,3.301-3.301,3.301
				c-1.823,0-3.301-1.478-3.301-3.301C432.511,183.771,433.989,182.293,435.813,182.293z"/>
		</g>
		<g>
			<g>
				<path style="fill:#C1C9FC;" d="M462.246,182.293c1.823,0,3.301,1.478,3.301,3.301c0,1.823-1.478,3.301-3.301,3.301
					c-1.823,0-3.301-1.478-3.301-3.301C458.945,183.771,460.423,182.293,462.246,182.293z"/>
			</g>
		</g>
	</g>
</g>
</svg>
