<?xml version="1.0" encoding="utf-8"?>
<!-- Generator: Adobe Illustrator 27.5.0, SVG Export Plug-In . SVG Version: 6.00 Build 0)  -->
<svg version="1.1" xmlns="http://www.w3.org/2000/svg" xmlns:xlink="http://www.w3.org/1999/xlink" x="0px" y="0px"
	 viewBox="0 0 500 500" style="enable-background:new 0 0 500 500;" xml:space="preserve">
<g id="Background_Complete">
	<g>
		<rect y="382.398" style="fill:#EBEBEB;" width="500" height="0.25"/>
		<rect x="416.779" y="398.494" style="fill:#EBEBEB;" width="33.122" height="0.25"/>
		<rect x="322.527" y="401.208" style="fill:#EBEBEB;" width="8.693" height="0.25"/>
		<rect x="396.586" y="389.208" style="fill:#EBEBEB;" width="19.192" height="0.25"/>
		<rect x="52.459" y="390.888" style="fill:#EBEBEB;" width="43.193" height="0.25"/>
		<rect x="104.556" y="390.888" style="fill:#EBEBEB;" width="6.333" height="0.25"/>
		<rect x="131.471" y="395.111" style="fill:#EBEBEB;" width="93.676" height="0.25"/>
		<path style="fill:#EBEBEB;" d="M237.014,337.8H43.915c-3.147,0-5.708-2.561-5.708-5.708V60.66c0-3.147,2.561-5.708,5.708-5.708
			h193.099c3.146,0,5.707,2.561,5.707,5.708v271.432C242.721,335.239,240.16,337.8,237.014,337.8z M43.915,55.203
			c-3.01,0-5.458,2.448-5.458,5.458v271.432c0,3.01,2.448,5.458,5.458,5.458h193.099c3.009,0,5.457-2.448,5.457-5.458V60.66
			c0-3.009-2.448-5.458-5.457-5.458H43.915z"/>
		<path style="fill:#EBEBEB;" d="M453.31,337.8H260.212c-3.147,0-5.707-2.561-5.707-5.708V60.66c0-3.147,2.561-5.708,5.707-5.708
			H453.31c3.148,0,5.708,2.561,5.708,5.708v271.432C459.019,335.239,456.458,337.8,453.31,337.8z M260.212,55.203
			c-3.009,0-5.457,2.448-5.457,5.458v271.432c0,3.01,2.448,5.458,5.457,5.458H453.31c3.01,0,5.458-2.448,5.458-5.458V60.66
			c0-3.009-2.448-5.458-5.458-5.458H260.212z"/>
	</g>
	<g>
		<g>
			<rect x="57.377" y="107.71" style="fill:#EBEBEB;" width="153.255" height="126.324"/>
			<rect x="67.703" y="120.086" style="fill:#F5F5F5;" width="19.889" height="19.889"/>
			<rect x="182.243" y="171.265" style="fill:#F5F5F5;" width="19.889" height="19.889"/>
			<rect x="92.327" y="130.571" style="fill:#F5F5F5;" width="19.889" height="19.889"/>
			<rect x="159.806" y="177.521" style="fill:#F5F5F5;" width="19.889" height="19.889"/>
			<rect x="73.637" y="177.984" style="fill:#F5F5F5;" width="28.634" height="38.036"/>
			<rect x="106.333" y="178.267" style="fill:#F5F5F5;" width="28.634" height="38.036"/>
			<rect x="163.554" y="121.498" style="fill:#F5F5F5;" width="28.634" height="38.036"/>
		</g>
		<g>
			<rect x="347.372" y="80.457" style="fill:#EBEBEB;" width="101.723" height="213.274"/>
			<rect x="345.025" y="77.681" style="fill:#E0E0E0;" width="106.418" height="10.037"/>
			<g>
				<rect x="345.025" y="91.83" style="fill:#E0E0E0;" width="106.418" height="5.018"/>
				<rect x="345.025" y="99.279" style="fill:#E0E0E0;" width="106.418" height="5.019"/>
				<rect x="345.025" y="106.727" style="fill:#E0E0E0;" width="106.418" height="5.019"/>
				<rect x="345.025" y="114.175" style="fill:#E0E0E0;" width="106.418" height="5.018"/>
				<rect x="345.025" y="121.623" style="fill:#E0E0E0;" width="106.418" height="5.019"/>
				<rect x="345.025" y="129.071" style="fill:#E0E0E0;" width="106.418" height="5.019"/>
				<rect x="345.025" y="136.52" style="fill:#E0E0E0;" width="106.418" height="5.018"/>
				<rect x="345.025" y="143.968" style="fill:#E0E0E0;" width="106.418" height="5.018"/>
				<rect x="345.025" y="151.416" style="fill:#E0E0E0;" width="106.418" height="5.019"/>
				<rect x="345.025" y="158.864" style="fill:#E0E0E0;" width="106.418" height="5.019"/>
				<rect x="345.025" y="166.313" style="fill:#E0E0E0;" width="106.418" height="5.018"/>
				<rect x="345.025" y="173.761" style="fill:#E0E0E0;" width="106.418" height="5.019"/>
				<rect x="345.025" y="181.209" style="fill:#E0E0E0;" width="106.418" height="5.019"/>
				<rect x="345.025" y="188.657" style="fill:#E0E0E0;" width="106.418" height="5.018"/>
				<rect x="345.025" y="196.105" style="fill:#E0E0E0;" width="106.418" height="5.019"/>
				<rect x="345.025" y="203.554" style="fill:#E0E0E0;" width="106.418" height="5.019"/>
				<rect x="345.025" y="211.002" style="fill:#E0E0E0;" width="106.418" height="5.018"/>
				<rect x="345.025" y="218.45" style="fill:#E0E0E0;" width="106.418" height="5.018"/>
				<rect x="345.025" y="225.898" style="fill:#E0E0E0;" width="106.418" height="5.019"/>
				<rect x="345.025" y="233.347" style="fill:#E0E0E0;" width="106.418" height="5.019"/>
				<rect x="345.025" y="240.795" style="fill:#E0E0E0;" width="106.418" height="5.018"/>
				<rect x="345.025" y="248.243" style="fill:#E0E0E0;" width="106.418" height="5.019"/>
				<rect x="345.025" y="255.691" style="fill:#E0E0E0;" width="106.418" height="5.019"/>
				<rect x="345.025" y="263.14" style="fill:#E0E0E0;" width="106.418" height="5.018"/>
				<rect x="345.025" y="270.588" style="fill:#E0E0E0;" width="106.418" height="5.019"/>
				<rect x="345.025" y="278.036" style="fill:#E0E0E0;" width="106.418" height="5.019"/>
				<rect x="345.025" y="285.484" style="fill:#E0E0E0;" width="106.418" height="5.018"/>
			</g>
		</g>
		<g>
			<g>
				<path style="fill:#EBEBEB;" d="M72.77,350.282c-0.152-1.024-3.652-25.172,3.359-33.509c1.552-1.845,3.51-2.81,5.821-2.867
					c14.153-0.332,16.089,11.036,16.106,11.152l-1.669,0.257c-0.065-0.407-1.743-10.027-14.396-9.721
					c-1.831,0.045-3.326,0.786-4.57,2.265c-6.527,7.761-3.018,31.93-2.981,32.173L72.77,350.282z"/>
			</g>
			<g>
				<path style="fill:#EBEBEB;" d="M71.914,349.181l-1.688-0.053c0.007-0.222,0.561-22.25-10.293-26.801
					c-10.637-4.456-15.422,4.706-15.62,5.099l-1.509-0.759c0.055-0.11,5.67-10.976,17.782-5.897
					C72.509,325.769,71.943,348.228,71.914,349.181z"/>
			</g>
			<g>
				<path style="fill:#EBEBEB;" d="M71.963,350.912c0-0.351-0.101-35.19-6.894-45.38c-6.522-9.782-17.043-5.177-17.487-4.975
					l-0.698-1.538c0.122-0.055,12.263-5.415,19.59,5.576c7.075,10.613,7.177,44.862,7.178,46.315L71.963,350.912z"/>
			</g>
			<path style="fill:#E0E0E0;" d="M83.976,314.743c0,0-6.179,2.278-4.342,7.656c1.837,5.378,21.377,14.23,21.377,14.23
				s8.184-7.501,0.668-19.7C94.163,304.73,84.143,310.894,83.976,314.743z"/>
			<path style="fill:#E0E0E0;" d="M64.763,303.698c0,0,4.387-0.471,4.034-3.143c-0.353-2.672-17.054-9.55-26.908,1.572
				c0,0,6.309,10.838,15.43,10.98C66.439,313.247,64.763,303.698,64.763,303.698z"/>
			<path style="fill:#E0E0E0;" d="M60.26,321.549c0,0,3.028-2.445-0.24-3.638c-3.268-1.193-19.301-0.854-19.468,15.028
				c0,0,18.673,3.103,20.985-2.946C63.849,323.943,60.26,321.549,60.26,321.549z"/>
			<polygon style="fill:#EBEBEB;" points="87.296,382.637 58.319,382.637 55.192,350.911 90.422,350.911 			"/>
			<rect x="53.645" y="347.41" style="fill:#E0E0E0;" width="38.324" height="7.001"/>
		</g>
		<g>
			<path style="fill:#E0E0E0;" d="M434.196,353.909c0,0-5.649-12.326,0.805-24.477c6.455-12.151,8.326-15.013,4.211-17.502
				c-4.115-2.489-6.002,9.72-6.002,9.72s-3.469-8.4-0.605-17.19c2.864-8.791,4.66-23.108,0.749-24.644
				c-3.911-1.536-0.747,17.861-4.14,24.473c0,0-2.85-7.361-3.319-14.421c-0.469-7.061,0.264-18.335-2.825-21.227
				c-3.088-2.892-5.067-0.891-2.032,14.69c3.035,15.581,3.013,28.247,3.013,28.247s-6.703-20.439-11.203-21.035
				c-4.499-0.596-4.493,6.023-0.642,11.764c3.851,5.741,11.278,16.026,12.496,21.319c0,0-7.358-15.381-13.977-10.667
				c-6.619,4.714,5.761,14.005,11.279,17.362c5.518,3.357,9.35,24.401,9.35,24.401L434.196,353.909z"/>
			<path style="fill:#EBEBEB;" d="M429.737,358.964c0,0,5.501-12.409-1.099-24.462c-6.6-12.053-8.505-14.887-4.421-17.438
				s6.118,9.63,6.118,9.63s3.367-8.451,0.398-17.198c-2.969-8.747-4.936-23.037-1.044-24.631c3.892-1.594,0.961,17.849,4.433,24.409
				c0,0,2.762-7.402,3.146-14.469c0.384-7.067-0.483-18.329,2.57-21.267c3.053-2.938,5.056-0.967,2.208,14.659
				c-2.848,15.625-2.674,28.29-2.674,28.29s6.458-20.537,10.949-21.201c4.492-0.663,4.565,5.956,0.783,11.754
				c-3.782,5.798-11.085,16.193-12.239,21.503c0,0,7.173-15.49,13.848-10.875c6.675,4.615-5.593,14.09-11.07,17.529
				c-5.477,3.439-9.056,24.538-9.056,24.538L429.737,358.964z"/>
			<g>
				<polygon style="fill:#EBEBEB;" points="455.108,350.118 409.665,350.118 413.343,382.637 451.43,382.637 				"/>
			</g>
		</g>
		<g>
			<g>
				<path style="fill:#E0E0E0;" d="M334.902,349.879l-2.969-0.428c0.534-3.739,3.659-10.811,11.66-10.811
					c9.475,0,14.192,5.471,14.664,10.893l-2.988,0.26c-0.354-4.059-4.1-8.153-11.675-8.153
					C336.211,341.64,334.952,349.543,334.902,349.879z"/>
			</g>
			<path style="fill:#EBEBEB;" d="M370.001,382.099h-48.725c-2.67,0-4.834-2.164-4.834-4.834V352.07c0-2.67,2.164-4.834,4.834-4.834
				h48.725c2.67,0,4.834,2.164,4.834,4.834v25.194C374.836,379.934,372.671,382.099,370.001,382.099z"/>
			<g>
				<path style="fill:#E0E0E0;" d="M358.256,382.637c-41.247,0-43.295-28.309-43.311-28.595l1.681-3.28
					c0.064,1.052,3.318,28.875,41.63,28.875c15.767,0,29.383,0,30.76-3.02c1.211-2.655-4.701-9.46-14.18-20.371v-4.176
					c12.079,13.904,18.92,21.382,16.909,25.792C389.651,382.454,380.529,382.637,358.256,382.637z"/>
			</g>
		</g>
	</g>
</g>
<g id="Background_Simple" style="display:none;">
	<g style="display:inline;">
		<path style="fill:#407BFF;" d="M125.864,190.872c-5.993-1.134-12.115-1.238-18.473,0.471
			c-31.709,8.521-31.984,48.658-22.845,73.861c14.808,40.836,49.26,73.49,90.021,88.501c40.761,15.011,87.082,12.829,127.311-3.555
			c40.229-16.383,74.327-46.423,97.947-82.877c26.334-40.643,50.31-99.616,21.787-145.173
			c-21.098-33.697-65.533-51.13-103.814-39.966c-7.86,2.292-15.359,5.767-22.176,10.304c-26.634,17.725-37.731,48.316-54.403,74.201
			c-11.382,17.672-28.121,35.465-49.472,39.918C168.282,211.451,148.016,195.063,125.864,190.872z"/>
		<path style="opacity:0.9;fill:#FFFFFF;" d="M125.864,190.872c-5.993-1.134-12.115-1.238-18.473,0.471
			c-31.709,8.521-31.984,48.658-22.845,73.861c14.808,40.836,49.26,73.49,90.021,88.501c40.761,15.011,87.082,12.829,127.311-3.555
			c40.229-16.383,74.327-46.423,97.947-82.877c26.334-40.643,50.31-99.616,21.787-145.173
			c-21.098-33.697-65.533-51.13-103.814-39.966c-7.86,2.292-15.359,5.767-22.176,10.304c-26.634,17.725-37.731,48.316-54.403,74.201
			c-11.382,17.672-28.121,35.465-49.472,39.918C168.282,211.451,148.016,195.063,125.864,190.872z"/>
	</g>
</g>
<g id="Shadow_1_">
	<ellipse id="_x3C_Path_x3E__359_" style="fill:#F5F5F5;" cx="250" cy="416.238" rx="193.889" ry="11.323"/>
</g>
<g id="Chart">
	<g>
		<path style="fill:#407BFF;" d="M332.722,92.08c2.735,0,4.961,2.225,4.961,4.961v163.272c0,2.735-2.225,4.961-4.961,4.961H113.552
			c-2.735,0-4.96-2.225-4.96-4.961V97.041c0-2.735,2.225-4.961,4.96-4.961H332.722 M332.722,90.83H113.552
			c-3.43,0-6.21,2.781-6.21,6.211v163.272c0,3.43,2.781,6.211,6.21,6.211h219.169c3.43,0,6.211-2.781,6.211-6.211V97.041
			C338.933,93.611,336.152,90.83,332.722,90.83L332.722,90.83z"/>
		<path style="opacity:0.7;fill:#FFFFFF;enable-background:new    ;" d="M332.722,266.524H113.552c-3.43,0-6.211-2.781-6.211-6.211
			V97.041c0-3.43,2.781-6.211,6.211-6.211h219.169c3.43,0,6.211,2.781,6.211,6.211v163.272
			C338.933,263.743,336.152,266.524,332.722,266.524z"/>
		<g>
			<g>
				<g>
					<g>
						<rect x="310.216" y="109.045" style="fill:#407BFF;" width="2.868" height="2.39"/>
					</g>
					<g>
						<path style="fill:#407BFF;" d="M313.085,242.956h-2.868v-4.697h2.868V242.956z M313.085,233.562h-2.868v-4.697h2.868V233.562z
							 M313.085,224.168h-2.868v-4.698h2.868V224.168z M313.085,214.773h-2.868v-4.697h2.868V214.773z M313.085,205.379h-2.868
							v-4.697h2.868V205.379z M313.085,195.985h-2.868v-4.698h2.868V195.985z M313.085,186.59h-2.868v-4.697h2.868V186.59z
							 M313.085,177.196h-2.868v-4.697h2.868V177.196z M313.085,167.801h-2.868v-4.697h2.868V167.801z M313.085,158.407h-2.868
							v-4.697h2.868V158.407z M313.085,149.013h-2.868v-4.697h2.868V149.013z M313.085,139.619h-2.868v-4.697h2.868V139.619z
							 M313.085,130.224h-2.868v-4.697h2.868V130.224z M313.085,120.83h-2.868v-4.697h2.868V120.83z"/>
					</g>
					<g>
						<rect x="310.216" y="247.653" style="fill:#407BFF;" width="2.868" height="2.39"/>
					</g>
				</g>
				<g>
					<g>
						<path style="fill:#407BFF;" d="M139.736,242.956h-2.868v-4.697h2.868V242.956z"/>
					</g>
					<g>
						<rect x="136.868" y="247.653" style="fill:#407BFF;" width="2.868" height="2.39"/>
					</g>
				</g>
				<g>
					<g>
						<path style="fill:#407BFF;" d="M174.406,242.956h-2.868v-4.697h2.868V242.956z M174.406,233.562h-2.868v-4.697h2.868V233.562z
							 M174.406,224.168h-2.868v-4.698h2.868V224.168z M174.406,214.773h-2.868v-4.697h2.868V214.773z"/>
					</g>
					<g>
						<rect x="171.538" y="247.653" style="fill:#407BFF;" width="2.868" height="2.39"/>
					</g>
				</g>
				<g>
					<g>
						<path style="fill:#407BFF;" d="M209.076,242.956h-2.868v-4.697h2.868V242.956z M209.076,233.562h-2.868v-4.697h2.868V233.562z
							 M209.076,224.168h-2.868v-4.698h2.868V224.168z M209.076,214.773h-2.868v-4.697h2.868V214.773z M209.076,205.379h-2.868
							v-4.697h2.868V205.379z"/>
					</g>
					<g>
						<rect x="206.207" y="247.653" style="fill:#407BFF;" width="2.868" height="2.39"/>
					</g>
				</g>
				<g>
					<g>
						<path style="fill:#407BFF;" d="M243.745,242.956h-2.868v-4.697h2.868V242.956z M243.745,233.562h-2.868v-4.697h2.868V233.562z
							 M243.745,224.168h-2.868v-4.698h2.868V224.168z M243.745,214.773h-2.868v-4.697h2.868V214.773z M243.745,205.379h-2.868
							v-4.697h2.868V205.379z M243.745,195.985h-2.868v-4.698h2.868V195.985z M243.745,186.59h-2.868v-4.697h2.868V186.59z
							 M243.745,177.196h-2.868v-4.697h2.868V177.196z"/>
					</g>
					<g>
						<rect x="240.877" y="247.653" style="fill:#407BFF;" width="2.868" height="2.39"/>
					</g>
				</g>
				<g>
					<g>
						<path style="fill:#407BFF;" d="M278.415,242.956h-2.868v-4.697h2.868V242.956z M278.415,233.562h-2.868v-4.697h2.868V233.562z
							 M278.415,224.168h-2.868v-4.698h2.868V224.168z M278.415,214.773h-2.868v-4.697h2.868V214.773z M278.415,205.379h-2.868
							v-4.697h2.868V205.379z M278.415,195.985h-2.868v-4.698h2.868V195.985z M278.415,186.59h-2.868v-4.697h2.868V186.59z
							 M278.415,177.196h-2.868v-4.697h2.868V177.196z M278.415,167.801h-2.868v-4.697h2.868V167.801z M278.415,158.407h-2.868
							v-4.697h2.868V158.407z"/>
					</g>
					<g>
						<rect x="275.547" y="247.653" style="fill:#407BFF;" width="2.868" height="2.39"/>
					</g>
				</g>
			</g>
			<g style="opacity:0.7;enable-background:new    ;">
				<g>
					<g>
						<rect x="310.216" y="109.045" style="fill:#FFFFFF;" width="2.868" height="2.39"/>
					</g>
					<g>
						<path style="fill:#FFFFFF;" d="M313.085,242.956h-2.868v-4.697h2.868V242.956z M313.085,233.562h-2.868v-4.697h2.868V233.562z
							 M313.085,224.168h-2.868v-4.698h2.868V224.168z M313.085,214.773h-2.868v-4.697h2.868V214.773z M313.085,205.379h-2.868
							v-4.697h2.868V205.379z M313.085,195.985h-2.868v-4.698h2.868V195.985z M313.085,186.59h-2.868v-4.697h2.868V186.59z
							 M313.085,177.196h-2.868v-4.697h2.868V177.196z M313.085,167.801h-2.868v-4.697h2.868V167.801z M313.085,158.407h-2.868
							v-4.697h2.868V158.407z M313.085,149.013h-2.868v-4.697h2.868V149.013z M313.085,139.619h-2.868v-4.697h2.868V139.619z
							 M313.085,130.224h-2.868v-4.697h2.868V130.224z M313.085,120.83h-2.868v-4.697h2.868V120.83z"/>
					</g>
					<g>
						<rect x="310.216" y="247.653" style="fill:#FFFFFF;" width="2.868" height="2.39"/>
					</g>
				</g>
				<g>
					<g>
						<path style="fill:#FFFFFF;" d="M139.736,242.956h-2.868v-4.697h2.868V242.956z"/>
					</g>
					<g>
						<rect x="136.868" y="247.653" style="fill:#FFFFFF;" width="2.868" height="2.39"/>
					</g>
				</g>
				<g>
					<g>
						<path style="fill:#FFFFFF;" d="M174.406,242.956h-2.868v-4.697h2.868V242.956z M174.406,233.562h-2.868v-4.697h2.868V233.562z
							 M174.406,224.168h-2.868v-4.698h2.868V224.168z M174.406,214.773h-2.868v-4.697h2.868V214.773z"/>
					</g>
					<g>
						<rect x="171.538" y="247.653" style="fill:#FFFFFF;" width="2.868" height="2.39"/>
					</g>
				</g>
				<g>
					<g>
						<path style="fill:#FFFFFF;" d="M209.076,242.956h-2.868v-4.697h2.868V242.956z M209.076,233.562h-2.868v-4.697h2.868V233.562z
							 M209.076,224.168h-2.868v-4.698h2.868V224.168z M209.076,214.773h-2.868v-4.697h2.868V214.773z M209.076,205.379h-2.868
							v-4.697h2.868V205.379z"/>
					</g>
					<g>
						<rect x="206.207" y="247.653" style="fill:#FFFFFF;" width="2.868" height="2.39"/>
					</g>
				</g>
				<g>
					<g>
						<path style="fill:#FFFFFF;" d="M243.745,242.956h-2.868v-4.697h2.868V242.956z M243.745,233.562h-2.868v-4.697h2.868V233.562z
							 M243.745,224.168h-2.868v-4.698h2.868V224.168z M243.745,214.773h-2.868v-4.697h2.868V214.773z M243.745,205.379h-2.868
							v-4.697h2.868V205.379z M243.745,195.985h-2.868v-4.698h2.868V195.985z M243.745,186.59h-2.868v-4.697h2.868V186.59z
							 M243.745,177.196h-2.868v-4.697h2.868V177.196z"/>
					</g>
					<g>
						<rect x="240.877" y="247.653" style="fill:#FFFFFF;" width="2.868" height="2.39"/>
					</g>
				</g>
				<g>
					<g>
						<path style="fill:#FFFFFF;" d="M278.415,242.956h-2.868v-4.697h2.868V242.956z M278.415,233.562h-2.868v-4.697h2.868V233.562z
							 M278.415,224.168h-2.868v-4.698h2.868V224.168z M278.415,214.773h-2.868v-4.697h2.868V214.773z M278.415,205.379h-2.868
							v-4.697h2.868V205.379z M278.415,195.985h-2.868v-4.698h2.868V195.985z M278.415,186.59h-2.868v-4.697h2.868V186.59z
							 M278.415,177.196h-2.868v-4.697h2.868V177.196z M278.415,167.801h-2.868v-4.697h2.868V167.801z M278.415,158.407h-2.868
							v-4.697h2.868V158.407z"/>
					</g>
					<g>
						<rect x="275.547" y="247.653" style="fill:#FFFFFF;" width="2.868" height="2.39"/>
					</g>
				</g>
			</g>
		</g>
		<path style="fill:#407BFF;" d="M311.651,104.253c-2.642,0-4.792,2.15-4.792,4.792c0,0.704,0.161,1.368,0.436,1.971l-28.619,30.265
			c-0.536-0.208-1.114-0.333-1.723-0.333c-2.642,0-4.792,2.15-4.792,4.792c0,0.166,0.033,0.323,0.049,0.485l-26.922,14.416
			c-0.829-0.685-1.877-1.113-3.033-1.113c-2.642,0-4.792,2.15-4.792,4.792c0,0.465,0.088,0.906,0.212,1.332l-27.796,22.139
			c-0.691-0.387-1.475-0.627-2.322-0.627c-2.443,0-4.443,1.846-4.733,4.212l-26.189,7.187c-0.877-1.133-2.235-1.877-3.776-1.877
			c-2.642,0-4.792,2.15-4.792,4.792c0,0.465,0.087,0.906,0.212,1.332l-27.796,22.139c-0.691-0.387-1.475-0.627-2.322-0.627
			c-2.642,0-4.792,2.15-4.792,4.792c0,2.642,2.15,4.791,4.792,4.791c2.642,0,4.792-2.149,4.792-4.791
			c0-0.465-0.087-0.906-0.212-1.332l27.796-22.14c0.691,0.387,1.475,0.627,2.322,0.627c2.443,0,4.443-1.846,4.733-4.212
			l26.189-7.187c0.877,1.133,2.235,1.877,3.776,1.877c2.642,0,4.792-2.15,4.792-4.792c0-0.465-0.088-0.906-0.212-1.332
			l27.796-22.139c0.691,0.387,1.475,0.627,2.322,0.627c2.642,0,4.792-2.15,4.792-4.792c0-0.166-0.032-0.323-0.049-0.485
			l26.922-14.416c0.829,0.685,1.877,1.113,3.033,1.113c2.642,0,4.792-2.15,4.792-4.792c0-0.704-0.162-1.368-0.436-1.971
			l28.619-30.265c0.536,0.208,1.114,0.333,1.723,0.333c2.642,0,4.792-2.15,4.792-4.792
			C316.443,106.403,314.293,104.253,311.651,104.253z"/>
		<g style="enable-background:new    ;">
			<circle style="opacity:0.2;fill:#FFFFFF;" cx="172.858" cy="201.477" r="3.433"/>
			<circle style="opacity:0.4;fill:#FFFFFF;" cx="207.556" cy="191.955" r="3.433"/>
			<circle style="opacity:0.6;fill:#FFFFFF;" cx="242.255" cy="164.318" r="3.433"/>
			<circle style="opacity:0.8;fill:#FFFFFF;" cx="276.953" cy="145.739" r="3.433"/>
			<circle style="fill:#FFFFFF;" cx="311.651" cy="109.045" r="3.433"/>
		</g>
		<g>
			<path style="fill:#407BFF;" d="M201.847,181.789c-0.563,0-1.046,0.333-1.271,0.811h-28.359c-1.03,0-1.869-0.838-1.869-1.869
				v-29.754h-1.195v29.754c0,1.69,1.374,3.064,3.064,3.064h28.359c0.225,0.478,0.708,0.81,1.271,0.81
				c0.778,0,1.408-0.63,1.408-1.408C203.255,182.419,202.624,181.789,201.847,181.789z"/>
			<path style="fill:#407BFF;" d="M186.4,157.299h-33.298c-1.429,0-2.587-1.158-2.587-2.587v-9.419c0-1.429,1.158-2.587,2.587-2.587
				H186.4c1.429,0,2.587,1.158,2.587,2.587v9.419C188.986,156.141,187.828,157.299,186.4,157.299z"/>
			<g style="opacity:0.4;enable-background:new    ;">
				<path style="fill:#FFFFFF;" d="M201.847,181.789c-0.563,0-1.046,0.333-1.271,0.811h-28.359c-1.03,0-1.869-0.838-1.869-1.869
					v-29.754h-1.195v29.754c0,1.69,1.374,3.064,3.064,3.064h28.359c0.225,0.478,0.708,0.81,1.271,0.81
					c0.778,0,1.408-0.63,1.408-1.408C203.255,182.419,202.624,181.789,201.847,181.789z"/>
				<path style="fill:#FFFFFF;" d="M186.4,157.299h-33.298c-1.429,0-2.587-1.158-2.587-2.587v-9.419
					c0-1.429,1.158-2.587,2.587-2.587H186.4c1.429,0,2.587,1.158,2.587,2.587v9.419C188.986,156.141,187.828,157.299,186.4,157.299z
					"/>
			</g>
		</g>
		<g>
			<path style="fill:#407BFF;" d="M242.852,151.574v-42.875h-1.195v42.875c-0.478,0.225-0.811,0.708-0.811,1.271
				c0,0.778,0.631,1.408,1.408,1.408c0.778,0,1.408-0.631,1.408-1.408C243.663,152.282,243.33,151.8,242.852,151.574z"/>
			<path style="fill:#407BFF;" d="M258.903,115.996h-33.298c-1.429,0-2.587-1.158-2.587-2.587v-9.419
				c0-1.429,1.158-2.587,2.587-2.587h33.298c1.429,0,2.587,1.158,2.587,2.587v9.419C261.49,114.837,260.332,115.996,258.903,115.996
				z"/>
			<g style="opacity:0.4;enable-background:new    ;">
				<path style="fill:#FFFFFF;" d="M242.852,151.574v-42.875h-1.195v42.875c-0.478,0.225-0.811,0.708-0.811,1.271
					c0,0.778,0.631,1.408,1.408,1.408c0.778,0,1.408-0.631,1.408-1.408C243.663,152.282,243.33,151.8,242.852,151.574z"/>
				<path style="fill:#FFFFFF;" d="M258.903,115.996h-33.298c-1.429,0-2.587-1.158-2.587-2.587v-9.419
					c0-1.429,1.158-2.587,2.587-2.587h33.298c1.429,0,2.587,1.158,2.587,2.587v9.419
					C261.49,114.837,260.332,115.996,258.903,115.996z"/>
			</g>
		</g>
		<g>
			<path style="fill:#407BFF;" d="M322.505,256.317h-197.82l0,0c0-2.089,1.693-3.782,3.783-3.782h190.255
				C320.812,252.535,322.505,254.228,322.505,256.317L322.505,256.317z"/>
			<path style="opacity:0.4;fill:#FFFFFF;enable-background:new    ;" d="M322.505,256.317h-197.82l0,0
				c0-2.089,1.693-3.782,3.783-3.782h190.255C320.812,252.535,322.505,254.228,322.505,256.317L322.505,256.317z"/>
		</g>
	</g>
</g>
<g id="Character_2">
	<g id="_x3C_Group_x3E__41_">
		<path style="fill:#E4897B;" d="M432.858,253.012l4.264,11.196c0,0,4.874,2.754,5.251,3.534c0.376,0.78,1.446,10.318,0.68,11.33
			c-0.766,1.012-10.714-1.626-10.737-2.662c-0.023-1.036-0.484-9.564-0.484-9.564l-5.723-12.237L432.858,253.012z"/>
		<g>
			<path style="fill:#407BFF;" d="M412.247,164.629c7.412,4.437,8.203,44.768,9.39,48.537c1.187,3.769,15.846,45.309,15.846,45.309
				l-10.308,3.954c0,0-14.644-30.845-17.802-39.575c-3.158-8.73-5.284-28.507-5.284-28.507L412.247,164.629z"/>
			<path style="opacity:0.2;enable-background:new    ;" d="M412.247,164.629c7.412,4.437,8.203,44.768,9.39,48.537
				c1.187,3.769,15.846,45.309,15.846,45.309l-10.308,3.954c0,0-14.644-30.845-17.802-39.575c-3.158-8.73-5.284-28.507-5.284-28.507
				L412.247,164.629z"/>
		</g>
		<g>
			<path style="fill:#407BFF;" d="M402.17,159.374c-11.159-6.132-25.582-4.846-25.582-4.846L363.73,172.71l-18.147,64.894
				l2.67,2.423l1.137-5.143l49.352,4.995l0.831,6.725l2.836-1.392l1.681-79.774L402.17,159.374z"/>
			<path style="opacity:0.4;enable-background:new    ;" d="M402.17,159.374c-11.159-6.132-25.582-4.846-25.582-4.846L363.73,172.71
				l-18.147,64.894l2.67,2.423l1.137-5.143l49.352,4.995l0.831,6.725l2.836-1.392l1.681-79.774L402.17,159.374z"/>
		</g>
		<path style="fill:#E4897B;" d="M332.218,112.072l-3.56-12.06c0,0,0.846-5.506,0.635-7.702c-0.211-2.196-5.38-6.408-6.962-7.888
			c-1.556-1.457-8.324,3.318-8.003,4.363c0.321,1.045,4.233,9.182,5.475,10.128l2.004,1.127l3.09,15.202L332.218,112.072z"/>
		<g>
			<path style="fill:#407BFF;" d="M366.688,155.521c-11.315-5.8-19.95-14.761-23.115-20.005
				c-3.165-5.244-12.508-32.645-12.508-32.645l-9.846,1.499c0,0,5.934,33.667,9.098,41.039c3.165,7.372,32.271,33.927,32.271,33.927
				L366.688,155.521z"/>
			<path style="opacity:0.2;enable-background:new    ;" d="M366.688,155.521c-11.315-5.8-19.95-14.761-23.115-20.005
				c-3.165-5.244-12.508-32.645-12.508-32.645l-9.846,1.499c0,0,5.934,33.667,9.098,41.039c3.165,7.372,32.271,33.927,32.271,33.927
				L366.688,155.521z"/>
		</g>
		<polygon style="fill:#E4897B;" points="359.329,408.551 351.216,409.408 349.694,391.911 357.806,391.054 		"/>
		<polygon style="fill:#E4897B;" points="399.808,407.96 391.948,407.96 391.298,389.75 399.168,389.75 		"/>
		<path style="fill:#263238;" d="M390.858,407.05h9.55c0.322,0.002,0.6,0.226,0.67,0.54l1.55,7c0.133,0.627-0.268,1.242-0.895,1.375
			c-0.084,0.018-0.169,0.026-0.255,0.025c-3.09-0.05-5.34-0.24-9.22-0.24c-2.39,0-9.6,0.25-12.9,0.25c-3.3,0-3.73-3.26-2.38-3.56
			c6.06-1.32,10.62-3.15,12.56-4.89C389.897,407.22,390.37,407.041,390.858,407.05z"/>
		<path style="fill:#407BFF;" d="M388.258,408.43c-0.534,0.043-1.067-0.098-1.51-0.4c-0.295-0.243-0.443-0.622-0.39-1
			c-0.006-0.221,0.12-0.425,0.32-0.52c0.87-0.45,3.41,1.11,3.69,1.29c0.066,0.034,0.103,0.107,0.09,0.18
			c-0.01,0.077-0.065,0.14-0.14,0.16C389.644,408.313,388.953,408.41,388.258,408.43z M387.088,406.8
			c-0.083-0.007-0.167,0.01-0.24,0.05c-0.05,0-0.11,0.07-0.12,0.22c-0.032,0.251,0.062,0.501,0.25,0.67
			c0.882,0.4,1.883,0.45,2.8,0.14C388.958,407.351,388.045,406.985,387.088,406.8z"/>
		<path style="fill:#407BFF;" d="M390.268,408.15h-0.09c-0.81-0.44-2.38-2.17-2.22-3c0.057-0.286,0.309-0.491,0.6-0.49
			c0.286-0.038,0.574,0.05,0.79,0.24c0.91,0.74,1.1,3,1.11,3.11c0.001,0.068-0.033,0.133-0.09,0.17
			C390.332,408.181,390.297,408.17,390.268,408.15z M388.688,404.96h-0.09c-0.24,0-0.26,0.14-0.27,0.19
			c-0.1,0.51,0.9,1.82,1.71,2.43c-0.053-0.896-0.377-1.754-0.93-2.46C388.992,405.018,388.843,404.961,388.688,404.96z"/>
		<path style="fill:#263238;" d="M350.358,406.8h9.55c0.322,0.002,0.6,0.226,0.67,0.54l1.55,7c0.133,0.627-0.268,1.242-0.895,1.375
			c-0.084,0.018-0.169,0.026-0.255,0.025c-3.09-0.05-5.34-0.24-9.22-0.24c-2.39,0-9.6,0.25-12.9,0.25c-3.3,0-3.73-3.26-2.38-3.56
			c6.06-1.32,10.62-3.15,12.56-4.89C349.397,406.97,349.87,406.791,350.358,406.8z"/>
		<path style="fill:#407BFF;" d="M347.758,408.18c-0.534,0.043-1.067-0.098-1.51-0.4c-0.295-0.243-0.443-0.622-0.39-1
			c-0.006-0.221,0.12-0.425,0.32-0.52c0.87-0.45,3.41,1.11,3.69,1.29c0.066,0.034,0.103,0.107,0.09,0.18
			c-0.01,0.077-0.065,0.14-0.14,0.16C349.144,408.063,348.453,408.16,347.758,408.18z M346.588,406.55
			c-0.083-0.007-0.167,0.01-0.24,0.05c-0.05,0-0.11,0.07-0.12,0.22c-0.032,0.251,0.062,0.501,0.25,0.67
			c0.882,0.4,1.883,0.45,2.8,0.14C348.458,407.101,347.545,406.735,346.588,406.55z"/>
		<path style="fill:#407BFF;" d="M349.768,407.9h-0.09c-0.81-0.44-2.38-2.17-2.22-3c0.057-0.286,0.309-0.491,0.6-0.49
			c0.286-0.038,0.574,0.05,0.79,0.24c0.91,0.74,1.1,3,1.11,3.11c0.001,0.068-0.033,0.133-0.09,0.17
			C349.832,407.931,349.797,407.92,349.768,407.9z M348.188,404.71h-0.09c-0.24,0-0.26,0.14-0.27,0.19c-0.1,0.51,0.9,1.82,1.71,2.43
			c-0.053-0.896-0.377-1.754-0.93-2.46C348.492,404.768,348.343,404.711,348.188,404.71z"/>
		<polygon style="opacity:0.2;enable-background:new    ;" points="357.806,391.054 349.694,391.911 350.486,400.936 
			358.598,400.079 		"/>
		<polygon style="opacity:0.2;enable-background:new    ;" points="399.168,389.76 391.298,389.76 391.638,399.15 399.508,399.15 		
			"/>
		<path style="fill:#263238;" d="M395.922,230.023h-41.724c-3.967,21.663-16.385,98.323-7.476,166.628l14.125-1.751
			c0,0-1.308-90.677,11.164-124.2c1.434,17.941,3.137,37.03,4.616,47.187c3.63,25,11.4,79.636,11.4,79.636h14.38
			c0,0-2.94-52.297-4.3-76.867C396.622,293.982,395.98,235.501,395.922,230.023z"/>
		<path style="opacity:0.2;enable-background:new    ;" d="M372.008,270.703c-1.84,4.94-3.37,11.11-4.66,18.05
			c-1.167-15.965,3.5-32.897,3.5-32.897L372.008,270.703z"/>
		<g>
			<polygon style="fill:#407BFF;" points="345.107,399.942 362.59,397.341 362.055,392.499 343.869,394.887 			"/>
			<polygon style="opacity:0.6;fill:#FFFFFF;enable-background:new    ;" points="345.107,399.942 362.59,397.341 362.055,392.499 
				343.869,394.887 			"/>
		</g>
		<g>
			<polygon style="fill:#407BFF;" points="386.298,397.64 403.258,397.64 403.258,392.57 385.658,392.24 			"/>
			<polygon style="opacity:0.6;fill:#FFFFFF;enable-background:new    ;" points="386.298,397.64 403.258,397.64 403.258,392.57 
				385.658,392.24 			"/>
		</g>
		<g>
			<polygon style="fill:#263238;" points="353.848,230.523 395.848,230.523 395.848,235.523 353.312,235.007 			"/>
			<polygon style="opacity:0.2;fill:#FFFFFF;enable-background:new    ;" points="353.848,230.523 395.848,230.523 395.848,235.523 
				353.312,235.007 			"/>
		</g>
		<rect x="380.848" y="228.273" style="fill:#263238;" width="1.5" height="8.875"/>
		<rect x="359.598" y="228.273" style="fill:#263238;" width="1.5" height="8.875"/>
		<g>
			<path style="fill:#407BFF;" d="M366.686,155.52c0,0,26.506,1.85,45.564,9.11c0,0-13.789,42.633-16.371,67.502l-42.031-1.609
				C353.848,230.523,356.835,180.343,366.686,155.52z"/>
			<path style="opacity:0.7;fill:#FFFFFF;enable-background:new    ;" d="M412.247,164.629c0,0-2.748,8.498-6.024,20.115
				c-1.211,4.318-2.504,9.07-3.754,13.978c-2.904,11.46-5.597,23.77-6.596,33.409l-42.026-1.608c0,0,2.992-50.181,12.84-75.003
				C366.688,155.521,393.193,157.37,412.247,164.629z"/>
		</g>
		<path style="fill:#E4897B;" d="M397.586,160.09c-4.209,3.01-13.379,0.639-13.379,0.639s-5.63-2.274-4.195-3.949
			c3.493-0.164,5.339-1.569,6.264-3.535c0.537-1.145,0.754-2.479,0.806-3.872c0.035-0.731,0.012-1.479-0.032-2.219l12.521-7.18
			C397.402,145.429,394.34,155.571,397.586,160.09z"/>
		<path style="opacity:0.2;enable-background:new    ;" d="M396.275,145.085c-1.267,6.859-7.172,8.1-9.999,8.161
			c0.537-1.145,0.754-2.479,0.806-3.872L396.275,145.085z"/>
		<g>
			<path style="fill:#263238;" d="M389.799,117.819c0,0-7.211,8.251-4.601,14.855c2.61,6.604,13.447-10.403,13.447-10.403
				L389.799,117.819z"/>
			<path style="fill:#E4897B;" d="M394.649,148.906c-4.508,1.883-8.909,0.323-11.569-2.854c-1.712-2.04-2.698-4.755-2.535-7.651
				c0.017-0.381,0.062-0.767,0.12-1.157c1.171-7.104,6.635-17.353,14.871-17.251c5.873,0.031,10.622,4.824,10.585,10.706
				c0.001,1.673-0.409,3.321-1.171,4.815C401.516,142.503,399.826,146.774,394.649,148.906z"/>
			<path style="fill:#263238;" d="M393.212,132.938c-0.203,0.596-0.749,0.928-1.137,0.764c-0.388-0.164-0.488-0.768-0.247-1.352
				c0.241-0.583,0.759-0.925,1.137-0.764C393.344,131.746,393.457,132.345,393.212,132.938z"/>
			<path style="fill:#263238;" d="M386.606,130.158c-0.203,0.596-0.759,0.925-1.137,0.764c-0.378-0.161-0.488-0.769-0.247-1.352
				c0.241-0.583,0.759-0.925,1.137-0.764C386.737,128.967,386.837,129.603,386.606,130.158z"/>
			<path style="fill:#DE5753;" d="M388.584,131.329c-1.448,1.495-3.095,2.782-4.895,3.825c0.568,0.923,1.516,1.547,2.588,1.706
				L388.584,131.329z"/>
			<path style="fill:#263238;" d="M396.162,131.661c-0.134-0.035-0.24-0.14-0.276-0.274c-0.212-0.923-0.847-1.691-1.713-2.073
				c-0.194-0.065-0.298-0.275-0.232-0.469c0.065-0.193,0.275-0.297,0.469-0.232c0,0,0.001,0,0.002,0.001
				c1.107,0.455,1.925,1.419,2.193,2.585c0.056,0.197-0.057,0.401-0.254,0.458c-0.003,0.001-0.006,0.002-0.009,0.002
				C396.283,131.669,396.222,131.669,396.162,131.661z"/>
			<path style="fill:#263238;" d="M385.953,140.286L385.953,140.286c1.589,0.971,3.552,1.107,5.259,0.363
				c0.096-0.051,0.134-0.168,0.086-0.265c-0.044-0.095-0.157-0.137-0.252-0.093c-0.005,0.002-0.009,0.004-0.013,0.007
				c-1.593,0.656-3.402,0.522-4.882-0.36c-0.088-0.057-0.206-0.032-0.263,0.057c-0.004,0.006-0.007,0.012-0.01,0.018
				c-0.057,0.088-0.031,0.206,0.057,0.263C385.94,140.279,385.947,140.283,385.953,140.286z"/>
			<path style="fill:#263238;" d="M384.725,126.686c-0.075-0.001-0.148-0.026-0.208-0.071c-0.137-0.151-0.126-0.385,0.026-0.523
				c0.002-0.002,0.004-0.004,0.006-0.005c0.884-0.813,2.109-1.144,3.282-0.889c0.197,0.055,0.312,0.259,0.256,0.456
				c0,0.001,0,0.001,0,0.001c-0.06,0.194-0.261,0.307-0.457,0.257l0,0c-0.932-0.175-1.892,0.102-2.589,0.745
				C384.945,126.712,384.83,126.723,384.725,126.686z"/>
			<path style="fill:#263238;" d="M403.451,124.345l-1.858,2.916c0.757,1.027,0.822,2.465-0.23,3.461
				c-2.245,2.127-2.698,6.873-1.469,9.439c0,0,0.602-1.099,1.426-0.376c0.824,0.723-2.247,6.473-5.444,8.389
				c0,0,4.021-1.193,8.556-6.603c4.194-5.004,6.649-9.671,6.531-12.439L403.451,124.345z"/>
			<path style="fill:#E4897B;" d="M405.61,142.717c-1.479,1.289-3.409,1.939-5.367,1.806c-2.591-0.193-3.005-2.726-1.553-4.716
				c1.307-1.756,4.246-3.842,6.487-2.641C407.418,138.368,407.406,141.112,405.61,142.717z"/>
			<path style="fill:#263238;" d="M398.646,123.659c0,0,1.249-1.157,1.34,1.454c0.091,2.612,1.674,4.379,5.234,6.215
				c3.56,1.836,4.686,1.961,4.686,1.961s5.798-5.466-0.26-11.699c0,0,0.288-3.214-3.524-5.305
				c-6.549-3.593-15.539-2.11-18.704,1.534c-2.372,2.731-1.142,5.447-1.142,5.447S396.619,117.819,398.646,123.659z"/>
		</g>
		<g>
			<path style="fill:#407BFF;" d="M396.402,155.504l-11.595,3.675l-0.179-4.056l-4.216,0.949c-1.513,0.341-2.595,1.676-2.614,3.227
				l-0.056,4.422l4.605-1.86c0,0-6.864,16.124-7.768,38.986c0,0,2.618-24.659,9.738-38.373l1.693,3.109l13.975-4.821
				L396.402,155.504z"/>
			<path style="opacity:0.6;fill:#FFFFFF;enable-background:new    ;" d="M396.402,155.504l-11.595,3.675l-0.179-4.056l-4.216,0.949
				c-1.513,0.341-2.595,1.676-2.614,3.227l-0.056,4.422l4.605-1.86c0,0-6.864,16.124-7.768,38.986c0,0,2.618-24.659,9.738-38.373
				l1.693,3.109l13.975-4.821L396.402,155.504z"/>
		</g>
		<g>
			<rect x="365.223" y="229.648" style="fill:#407BFF;" width="7.768" height="5.597"/>
			<rect x="365.223" y="229.648" style="opacity:0.4;fill:#FFFFFF;enable-background:new    ;" width="7.768" height="5.597"/>
		</g>
		<path style="fill:#407BFF;" d="M374.58,156.306c0,0-20.723,54.767-25.47,80.906l-3.165-1.689c0,0,11.948-59.922,20.743-80.003
			L374.58,156.306z"/>
		<path style="fill:#407BFF;" d="M403.421,161.777c0,0-8.778,44.08-4.775,80.212l4.775-1.055c0,0,5.766-57.666,8.826-76.305
			L403.421,161.777z"/>
		<g>
			<path style="fill:#407BFF;" d="M371.976,163.331l0.809-7.204l3.803-1.6C376.588,154.527,377.115,159.769,371.976,163.331z"/>
			<path style="opacity:0.2;enable-background:new    ;" d="M371.976,163.331l0.809-7.204l3.803-1.6
				C376.588,154.527,377.115,159.769,371.976,163.331z"/>
		</g>
		<g>
			<path style="fill:#407BFF;" d="M402.17,168.871c0,0-1.962-4.255,0-9.497l3.55,3.147L402.17,168.871z"/>
			<path style="opacity:0.2;enable-background:new    ;" d="M402.17,168.871c0,0-1.962-4.255,0-9.497l3.55,3.147L402.17,168.871z"/>
		</g>
		<g>
			<g>
				<path style="fill:#263238;" d="M421.152,299.006l-5.239-23.457c-0.143-0.64,0.26-1.274,0.9-1.417l35.585-7.947
					c0.64-0.143,1.274,0.26,1.417,0.9l5.239,23.456c0.143,0.64-0.26,1.274-0.9,1.417l-35.585,7.948
					C421.93,300.048,421.295,299.646,421.152,299.006z"/>
				<path style="opacity:0.2;fill:#FFFFFF;enable-background:new    ;" d="M421.152,299.006l-5.239-23.457
					c-0.143-0.64,0.26-1.274,0.9-1.417l35.585-7.947c0.64-0.143,1.274,0.26,1.417,0.9l5.239,23.456c0.143,0.64-0.26,1.274-0.9,1.417
					l-35.585,7.948C421.93,300.048,421.295,299.646,421.152,299.006z"/>
			</g>
			<g>
				<path style="fill:#407BFF;" d="M442.736,309.242l-14.769-13.582c1.978-20.789,23.152-27.447,23.152-27.447l5.015,22.455
					C456.134,290.667,438.912,292.231,442.736,309.242z"/>
				<path style="opacity:0.7;fill:#FFFFFF;enable-background:new    ;" d="M442.736,309.242l-14.769-13.582
					c1.978-20.789,23.152-27.447,23.152-27.447l5.015,22.455C456.134,290.667,438.912,292.231,442.736,309.242z"/>
			</g>
			<g>
				<g>
					<path style="fill:#407BFF;" d="M452.159,283.928l-1.77-7.926c-0.155-0.693,0.283-1.382,0.976-1.537l2.191-0.489
						c0.693-0.155,1.383,0.283,1.538,0.976l1.77,7.926c0.155,0.693-0.283,1.382-0.976,1.537l-2.191,0.489
						C453.003,285.059,452.314,284.621,452.159,283.928z M454.19,275.153c-0.043-0.194-0.238-0.317-0.432-0.274l-2.191,0.489
						c-0.194,0.043-0.318,0.237-0.274,0.431l1.77,7.926c0.043,0.194,0.238,0.317,0.432,0.274l2.191-0.489
						c0.194-0.043,0.318-0.237,0.274-0.431L454.19,275.153z"/>
				</g>
				<g style="opacity:0.4;enable-background:new    ;">
					<path style="fill:#FFFFFF;" d="M452.159,283.928l-1.77-7.926c-0.155-0.693,0.283-1.382,0.976-1.537l2.191-0.489
						c0.693-0.155,1.383,0.283,1.538,0.976l1.77,7.926c0.155,0.693-0.283,1.382-0.976,1.537l-2.191,0.489
						C453.003,285.059,452.314,284.621,452.159,283.928z M454.19,275.153c-0.043-0.194-0.238-0.317-0.432-0.274l-2.191,0.489
						c-0.194,0.043-0.318,0.237-0.274,0.431l1.77,7.926c0.043,0.194,0.238,0.317,0.432,0.274l2.191-0.489
						c0.194-0.043,0.318-0.237,0.274-0.431L454.19,275.153z"/>
				</g>
			</g>
		</g>
	</g>
</g>
<g id="Character_1">
	<g>
		<path style="fill:#EBB376;" d="M119.549,232.899h5.056c0,0,2.928,1.323,4.431,1.053c1.503-0.27,10.997-5.887,10.47-6.837
			c-0.527-0.95-20.77,1.066-20.77,1.066L119.549,232.899z"/>
		<path style="fill:#EBB376;" d="M125.47,288.82c0,0-0.5,7.45-1.53,19.04c-0.37,4.22-0.81,8.98-1.33,14.14
			c-2.24,22.32-5.84,51.91-10.93,75.82l-5.01-0.08c0,0-3.71-36.1,2.5-60.19l-0.63-17.11l-0.44-11.79l-0.73-19.83H125.47z"/>
		<path style="fill:#EBB376;" d="M103.13,292.32c0,0-1.58,6.53-4.29,16.79c-0.8,3.02-1.69,6.36-2.67,9.95
			c-6.03,22.07-15.3,53.66-25.17,78.33l-4.93-0.93c0,0,2.49-36.21,12.71-58.89l2.71-20.14l1.01-7.51l2.79-20.68L103.13,292.32z"/>
		<path style="opacity:0.2;enable-background:new    ;" d="M82.5,309.92l16.34-0.81c-0.8,3.02-1.69,6.36-2.67,9.95l-14.68-1.63
			L82.5,309.92z"/>
		<path style="opacity:0.2;enable-background:new    ;" d="M123.94,307.86c-0.37,4.22-0.81,8.98-1.33,14.14l-14.07-1.56l-0.44-11.79
			L123.94,307.86z"/>
		<path style="fill:#263238;" d="M79.865,200.093c-3.26,1.281-2.118,31.585,3.597,39.786c5.715,8.201,39.16-4.356,39.16-4.356
			l-0.805-7.342l-29.806,0.092L79.865,200.093z"/>
		<g>
			<path style="fill:#263238;" d="M157.357,224.222l-35.541,2.131l4.231-26.03c0.093-0.575,0.574-1.009,1.156-1.044l33.686-2.02
				c0.44-0.026,0.792,0.362,0.721,0.798L157.357,224.222z"/>
			<path style="opacity:0.2;fill:#FFFFFF;" d="M157.357,224.222l-35.541,2.131l4.231-26.03c0.093-0.575,0.574-1.009,1.156-1.044
				l33.686-2.02c0.44-0.026,0.792,0.362,0.721,0.798L157.357,224.222z"/>
			<path style="fill:#263238;" d="M156.896,224.25l-35.541,2.131l4.231-26.03c0.093-0.576,0.574-1.009,1.155-1.044l33.686-2.02
				c0.44-0.026,0.792,0.362,0.721,0.798L156.896,224.25z"/>
			<polygon style="fill:#407BFF;" points="155.909,223.461 122.621,225.457 126.734,200.155 160.022,198.159 			"/>
			<polygon style="opacity:0.4;fill:#FFFFFF;" points="155.909,223.461 122.621,225.457 126.734,200.155 160.022,198.159 			"/>
			<path style="fill:#263238;" d="M156.897,224.254l0.077,1.278c0.042,0.709-0.502,1.323-1.21,1.365l-51.328,3.077
				c-0.709,0.043-1.323-0.502-1.365-1.211l-0.077-1.278L156.897,224.254z"/>
			<path style="opacity:0.2;fill:#FFFFFF;" d="M156.897,224.254l0.077,1.278c0.042,0.709-0.502,1.323-1.21,1.365l-51.328,3.077
				c-0.709,0.043-1.323-0.502-1.365-1.211l-0.077-1.278L156.897,224.254z"/>
			<path style="opacity:0.2;fill:#FFFFFF;" d="M156.897,224.254l0.077,1.278c0.042,0.709-0.502,1.323-1.21,1.365l-21.382,1.282
				c-0.709,0.042-1.323-0.502-1.365-1.21l-0.077-1.278L156.897,224.254z"/>
			<g style="opacity:0.4;">
				<polygon style="fill:#FFFFFF;" points="128.264,220.239 126.899,220.324 127.466,217.066 128.831,216.981 				"/>
				<polygon style="fill:#FFFFFF;" points="130.848,220.079 129.483,220.163 130.403,214.883 131.768,214.799 				"/>
				<polygon style="fill:#FFFFFF;" points="133.433,219.919 132.068,220.003 133.34,212.702 134.704,212.617 				"/>
				<polygon style="fill:#FFFFFF;" points="136.017,219.758 134.652,219.843 136.1,211.53 137.465,211.446 				"/>
				<polygon style="fill:#FFFFFF;" points="138.602,219.598 137.237,219.683 138.861,210.359 140.226,210.275 				"/>
				<polygon style="fill:#FFFFFF;" points="141.186,219.438 139.822,219.523 141.798,208.177 143.162,208.093 				"/>
				<polygon style="fill:#FFFFFF;" points="143.771,219.278 142.406,219.362 144.206,209.028 145.571,208.943 				"/>
				<polygon style="fill:#FFFFFF;" points="146.356,219.117 144.991,219.202 146.615,209.878 147.98,209.794 				"/>
				<polygon style="fill:#FFFFFF;" points="148.94,218.957 147.575,219.042 149.551,207.697 150.916,207.612 				"/>
				<polygon style="fill:#FFFFFF;" points="151.525,218.797 150.16,218.881 152.664,204.504 154.029,204.419 				"/>
			</g>
		</g>
		<g>
			<g>
				<path style="fill:#407BFF;" d="M126.441,316.663c6.076-55.158-4.431-73.917-4.431-73.917l-29.663-5.069
					c-1.128,4.428-1.98,11.605-2.484,16.601c0,0-2.852,10.202-3.763,13.03c-8.176,25.355-6.551,49.355-6.551,49.355H126.441z"/>
			</g>
			<g style="opacity:0.2;enable-background:new    ;">
				<g>
					<path d="M126.44,316.66H79.55c0,0-0.24-3.53-0.07-9.32c0.26-9.3,1.58-24.4,6.62-40.03c0.91-2.83,3.76-13.03,3.76-13.03
						c0.07-0.64,0.14-1.31,0.21-2.01c0.52-4.77,1.29-10.73,2.28-14.59l29.66,5.07C122.01,242.75,132.52,261.51,126.44,316.66z"/>
				</g>
			</g>
			<path style="opacity:0.2;enable-background:new    ;" d="M107.791,286.56c0,0-12.001,15.24-28.311,20.78
				c0.26-9.3,1.58-24.4,6.62-40.03c0.91-2.83,3.76-13.03,3.76-13.03c0.07-0.64,0.14-1.31,0.21-2.01l30.58-2.27
				c0,0-11.076,11.111-22.947,14.011C97.703,264.011,98.191,280.49,107.791,286.56z"/>
		</g>
		<g>
			<g>
				<path style="fill:#263238;" d="M108.125,174.02c-0.04,0.629,0.339,1.143,0.76,1.14c0.421-0.004,0.744-0.524,0.744-1.156
					c0-0.631-0.349-1.144-0.76-1.14C108.458,172.869,108.126,173.379,108.125,174.02z"/>
				<path style="fill:#263238;" d="M106.821,172.497c0.138,0.018,0.275-0.038,0.36-0.148c0.548-0.772,1.428-1.24,2.374-1.263
					c0.204,0.013,0.38-0.141,0.393-0.345c0.013-0.204-0.141-0.38-0.345-0.393c-0.001,0-0.001,0-0.002,0
					c-1.197-0.002-2.321,0.577-3.014,1.553c-0.127,0.16-0.1,0.393,0.06,0.52c0.002,0.002,0.005,0.004,0.007,0.005
					C106.706,172.458,106.762,172.482,106.821,172.497z"/>
			</g>
			<path style="fill:#DE726F;" d="M108.619,175.581c0.436,1.373,1.06,2.679,1.854,3.88c-0.637,0.397-1.417,0.492-2.13,0.259
				L108.619,175.581z"/>
			<path style="fill:#EBB376;" d="M93.501,186.674c0.073,0.064,0.156,0.128,0.238,0.174c1.109,0.788,2.383,1.545,3.832,1.875
				c4.052,0.935,6.82,0.38,8.626-1.453c0.009,0,0.009,0,0.009,0c2.53-2.75,3.162-7.622,2.805-13.498
				c-0.156-2.695-0.541-5.039-1.284-6.864c-0.009-0.018-0.009-0.086-0.018-0.104c-0.037-0.073-0.064-0.176-0.101-0.249
				c-1.109-2.548-2.952-4.199-5.894-4.896c-1.017-0.238-2.172-0.372-3.474-0.39C86.782,161.15,84.72,180.129,93.501,186.674z"/>
			<path style="opacity:0.2;enable-background:new    ;" d="M93.905,187.326c1.129,0.759,2.418,1.322,3.875,1.615
				c4.075,0.83,6.824,0.071,8.581-1.836c-1.977,0.491-4.649,0.725-7.282-0.408C97.419,185.988,95.606,186.42,93.905,187.326z"/>
			<path style="fill:#EBB376;" d="M92.576,197.197c-0.706,3.263,3.52,4.592,3.52,4.592c6.912-2.952,8.195-6.628,8.195-6.628
				c-5.766-3.007-4.097-11.513-4.097-11.513l-1.174,0.577l-8.234,1.611c0,0,2.285,4.384,2.587,5.383
				c0,0.009,0.009,0.018,0.009,0.027C94.931,196.473,92.576,197.197,92.576,197.197z"/>
			<path style="fill:#263238;" d="M107.733,166.832c0,0,0.632,8.036-6.983,11.487c0,0-3.27,8.347-8.083,8.465
				c-6.563,0.161-12.346-9.178-10.073-18.688C85.541,155.763,104.226,154.76,107.733,166.832z"/>
			<path style="fill:#EBB376;" d="M104.606,176.012c-0.003-1.253-1.01-3.359-2.959-3.073c-2.017,0.296-3.134,5.267,1.822,6.378
				C104.18,179.476,104.611,178.627,104.606,176.012z"/>
			<path style="fill:#263238;" d="M93.74,158.292c0,0,7.666-1.939,11.903,1.144c4.948,3.6,6.825,7.323,0.966,13.103
				c0,0-12.871-4.172-17.15-3.289c-4.279,0.883-7.339,2.131-7.339,2.131C81.22,162.881,89.459,156.555,93.74,158.292z"/>
			<path style="fill:none;stroke:#263238;stroke-width:0.5;stroke-linecap:round;stroke-linejoin:round;stroke-miterlimit:10;" d="
				M109.104,163.425c0,0,3.547,2.424,1.915,6.153c-1.632,3.729-6.412,3.82-6.412,3.82"/>
			<path style="fill:#263238;" d="M104.606,174.077c0,0-2.049,9.266,1.141,17.159c0,0-18.198,6.314-24.527,2.885
				c-6.33-3.429-0.528-14.944-0.264-21.582c0.264-6.638,3.15-16.449,12.784-14.247C103.374,160.495,104.606,174.077,104.606,174.077
				z"/>
		</g>
		<path style="fill:#263238;" d="M121.461,414.36c-0.932-0.755-1.995-1.332-3.135-1.705l0,0c0,0-3.41-3.383-5.051-13.567
			l-4.464-1.164c-1.552-0.376-3.174,0.257-4.061,1.586c-0.124,0.18-0.22,0.378-0.284,0.587c-0.23,1.092-0.389,2.197-0.477,3.309
			c-0.449,3.447-0.064,11.183-0.064,11.183h0.807l0.321-7.022c0.119-2.383,1.943,0.413,2.466,2.979
			c0.522,2.567,1.632,5.298,6.857,5.427C120.471,416.092,123.001,415.854,121.461,414.36z"/>
		<path style="fill:#263238;" d="M104.594,399.592c-0.293-2.383-0.385-6.527-0.385-6.527l9.918,1.1c0,0-1.201,4.712-0.211,8.25
			C108.921,401.105,104.594,399.592,104.594,399.592z"/>
		<path style="fill:#263238;" d="M81.103,414.36c-0.932-0.755-1.995-1.332-3.135-1.705l0,0c0,0-3.41-3.383-5.051-13.567
			l-4.464-1.164c-1.552-0.376-3.174,0.257-4.061,1.586c-0.124,0.18-0.22,0.378-0.284,0.587c-0.23,1.092-0.389,2.197-0.477,3.309
			c-0.449,3.447-0.064,11.183-0.064,11.183h0.807l0.321-7.022c0.119-2.383,1.943,0.413,2.466,2.979
			c0.522,2.567,1.632,5.298,6.857,5.427C80.113,416.092,82.643,415.854,81.103,414.36z"/>
		<path style="fill:#263238;" d="M64.236,399.592c-0.293-2.383-0.385-6.527-0.385-6.527l9.918,1.1c0,0-1.201,4.712-0.211,8.25
			C68.563,401.105,64.236,399.592,64.236,399.592z"/>
		<g>
			<path style="fill:#263238;" d="M79.865,200.093c0,0,6.328-2.483,12.002-4.046c4.425-1.095,8.929-1.878,13.459-2.335
				c4.284-0.483,8.592-0.648,12.909-0.511c-0.126,2.075-0.217,4.035-0.294,5.877c-0.11,2.433-0.185,4.684-0.239,6.776
				c-0.098,3.916-0.088,7.276,0.007,10.261c0.234,7.978,1.093,13.281,2.349,19.316l6.383,15.548l-38.373,4.889l2.176-15.282l0,0
				c-6.366-18.537-9.094-28.297-10.12-33.838C79.002,200.576,79.865,200.093,79.865,200.093z"/>
			<path style="opacity:0.1;fill:#FFFFFF;" d="M79.865,200.093c0,0,6.328-2.483,12.002-4.046c4.425-1.095,8.929-1.878,13.459-2.335
				c4.284-0.483,8.592-0.648,12.909-0.511c-0.126,2.075-0.217,4.035-0.294,5.877c-0.11,2.433-0.185,4.684-0.239,6.776
				c-0.098,3.916-0.088,7.276,0.007,10.261c0.234,7.978,1.093,13.281,2.349,19.316l6.383,15.548l-38.373,4.889l2.176-15.282l0,0
				c-6.366-18.537-9.094-28.297-10.12-33.838C79.002,200.576,79.865,200.093,79.865,200.093z"/>
		</g>
		<path style="fill:#EBB376;" d="M155.989,233.988l8.703,2.594c0,0,2.242-0.659,3.165-0.659c0.923,0,8.835,3.033,9.89,3.956
			c1.055,0.923-4.98,6.33-5.325,6.593c-0.345,0.264-8.521-3.033-8.917-3.165c-0.396-0.132-0.527-1.388-0.527-1.388l-9.626-2.436
			L155.989,233.988z"/>
		<path style="fill:#263238;" d="M118.234,193.2c4.788,3.162,16.823,33.123,18.405,33.915c1.582,0.791,24.98,7.505,24.98,7.505
			l-2.915,7.3c0,0-25.643-4.565-28.214-6.356c-2.571-1.791-12.81-20.402-12.81-20.402s-2.143-6.535-2.16-12.469
			C115.506,196.758,118.234,193.2,118.234,193.2z"/>
	</g>
</g>
<g id="Device">
	<g>
		<rect x="261.44" y="378.06" style="fill:#407BFF;" width="7.12" height="37.94"/>
		<g>
			<rect x="264.44" y="378.06" style="fill:#407BFF;" width="4.12" height="37.94"/>
			<rect x="264.44" y="378.06" style="opacity:0.2;enable-background:new    ;" width="4.12" height="37.94"/>
		</g>
		<polygon style="opacity:0.2;enable-background:new    ;" points="268.56,378.06 268.56,393.69 264.44,392.29 261.44,391.27 
			261.44,378.06 		"/>
		<rect x="291.44" y="378.063" style="fill:#407BFF;" width="7.121" height="37.937"/>
		<g>
			<rect x="199.44" y="378.063" style="fill:#407BFF;" width="7.121" height="37.937"/>
			<rect x="199.44" y="378.063" style="opacity:0.2;enable-background:new    ;" width="7.121" height="37.937"/>
		</g>
		<polygon style="fill:#407BFF;" points="299.7,360.08 299.7,416 294.38,416 294.38,381.49 228.45,381.49 228.45,416 218.69,416 
			218.69,381.49 202.6,381.49 202.6,416 199.44,416 199.44,360.08 		"/>
		<polygon style="fill:#263238;" points="221.252,360.08 219.484,360.08 219.484,351.294 223.02,351.294 		"/>
		<polygon style="opacity:0.2;enable-background:new    ;" points="299.7,360.08 299.7,416 294.38,416 294.38,381.49 228.45,381.49 
			228.45,416 223.02,416 223.02,360.08 		"/>
		<g>
			<path style="fill:#263238;" d="M279.052,343.411l0.056-0.018l-17.239-4.173c-0.379-0.109-0.772-0.187-1.189-0.187H221.85
				c-2.22,0-4.076,1.69-4.283,3.901l-0.776,8.275c-0.192,2.049,1.09,3.85,2.932,4.463l-0.047,0.008l0.276,0.068
				c0.108,0.029,0.215,0.059,0.327,0.08l16.835,4.117l-0.005-0.013c0.345,0.089,0.702,0.15,1.077,0.15h38.831
				c2.22,0,4.076-1.69,4.283-3.9l0.776-8.275C282.271,345.822,280.943,343.993,279.052,343.411z"/>
			<path style="opacity:0.2;fill:#FFFFFF;enable-background:new    ;" d="M279.052,343.411l0.056-0.018l-17.239-4.173
				c-0.379-0.109-0.772-0.187-1.189-0.187H221.85c-2.22,0-4.076,1.69-4.283,3.901l-0.776,8.275c-0.192,2.049,1.09,3.85,2.932,4.463
				l-0.047,0.008l0.276,0.068c0.108,0.029,0.215,0.059,0.327,0.08l16.835,4.117l-0.005-0.013c0.345,0.089,0.702,0.15,1.077,0.15
				h38.831c2.22,0,4.076-1.69,4.283-3.9l0.776-8.275C282.271,345.822,280.943,343.993,279.052,343.411z"/>
			<path style="opacity:0.1;fill:#FFFFFF;enable-background:new    ;" d="M277.017,360.08h-38.831c-2.535,0-4.52-2.18-4.283-4.704
				l0.776-8.275c0.207-2.211,2.063-3.9,4.283-3.9h38.831c2.535,0,4.52,2.18,4.283,4.704l-0.776,8.275
				C281.092,358.39,279.237,360.08,277.017,360.08z"/>
			<g style="opacity:0.1;enable-background:new    ;">
				<path style="fill:#FFFFFF;" d="M266.343,352.323c-0.248,2.343-2.402,4.243-4.811,4.243s-4.162-1.9-3.914-4.243
					c0.247-2.343,2.401-4.243,4.811-4.243C264.838,348.08,266.591,349.98,266.343,352.323z"/>
				<path style="fill:#FFFFFF;" d="M277.621,353.851h-6.33c-0.364,0-0.629-0.287-0.592-0.641l0.19-1.796
					c0.037-0.354,0.363-0.641,0.727-0.641h6.33c0.364,0,0.629,0.287,0.592,0.641l-0.19,1.796
					C278.311,353.564,277.985,353.851,277.621,353.851z"/>
				<polygon style="fill:#FFFFFF;" points="243.615,357.443 241.374,357.443 241.604,355.262 243.846,355.262 				"/>
				<polygon style="fill:#FFFFFF;" points="246.714,357.443 244.473,357.443 244.703,355.262 246.945,355.262 				"/>
			</g>
		</g>
		<g>
			<g>
				<path style="fill:#407BFF;" d="M159.427,294.231c-0.228,0-0.457-0.077-0.645-0.235l-2.451-2.069
					c-0.422-0.356-0.476-0.987-0.12-1.409c0.355-0.422,0.987-0.476,1.409-0.12l2.452,2.069c0.422,0.356,0.476,0.987,0.119,1.409
					C159.994,294.11,159.711,294.231,159.427,294.231z"/>
			</g>
			<g>
				<path style="fill:#407BFF;" d="M171.966,304.771c-0.228,0-0.457-0.077-0.644-0.235c-2.658-2.241-5.321-4.477-7.993-6.701
					c-0.424-0.354-0.481-0.984-0.128-1.408c0.354-0.426,0.984-0.482,1.409-0.129c2.674,2.228,5.341,4.466,8.001,6.709
					c0.422,0.356,0.476,0.987,0.12,1.409C172.533,304.649,172.251,304.771,171.966,304.771z"/>
			</g>
			<g>
				<path style="fill:#407BFF;" d="M181.975,313.256c-0.229,0-0.46-0.078-0.647-0.238l-4.743-4.03
					c-0.421-0.357-0.473-0.988-0.116-1.41c0.357-0.42,0.988-0.473,1.41-0.115l4.745,4.032c0.421,0.358,0.472,0.989,0.114,1.41
					C182.54,313.137,182.258,313.256,181.975,313.256z"/>
			</g>
			<g>
				<path style="fill:#407BFF;" d="M203.592,331.611c-0.227,0-0.456-0.077-0.644-0.235c-5.564-4.685-11.101-9.4-16.638-14.116
					l-0.243-0.207c-0.42-0.358-0.471-0.989-0.113-1.41c0.358-0.422,0.99-0.472,1.41-0.113l0.243,0.208
					c5.534,4.714,11.068,9.427,16.629,14.109c0.422,0.355,0.477,0.986,0.121,1.408C204.16,331.49,203.876,331.611,203.592,331.611z"
					/>
			</g>
			<g>
				<path style="fill:#407BFF;" d="M213.681,340.032c-0.225,0-0.45-0.075-0.637-0.229c-1.6-1.323-3.198-2.649-4.792-3.98
					c-0.424-0.353-0.481-0.984-0.127-1.408c0.354-0.425,0.984-0.482,1.408-0.127c1.592,1.329,3.188,2.653,4.785,3.975
					c0.426,0.352,0.485,0.982,0.133,1.408C214.254,339.908,213.968,340.032,213.681,340.032z"/>
			</g>
			<g>
				<path style="fill:#407BFF;" d="M200.794,278.154c-0.379,0-0.742-0.217-0.91-0.584l-1.353-2.96
					c-0.23-0.502-0.009-1.096,0.493-1.325c0.503-0.229,1.096-0.009,1.325,0.493l1.354,2.96c0.23,0.502,0.009,1.096-0.493,1.325
					C201.075,278.125,200.933,278.154,200.794,278.154z"/>
			</g>
			<g>
				<path style="fill:#407BFF;" d="M209.717,297.252c-0.38,0-0.744-0.218-0.911-0.587c-2.113-4.654-4.021-8.691-5.832-12.34
					c-0.246-0.494-0.044-1.095,0.451-1.34c0.497-0.247,1.095-0.044,1.34,0.451c1.822,3.669,3.74,7.726,5.862,12.402
					c0.228,0.503,0.005,1.096-0.497,1.323C209.996,297.224,209.855,297.252,209.717,297.252z"/>
			</g>
			<g>
				<path style="fill:#407BFF;" d="M215.135,309.444c-0.385,0-0.752-0.224-0.917-0.599c-0.73-1.665-1.461-3.329-2.196-4.991
					c-0.224-0.505,0.005-1.096,0.51-1.318c0.505-0.225,1.095,0.004,1.319,0.51c0.736,1.664,1.468,3.33,2.199,4.997
					c0.222,0.506-0.009,1.096-0.515,1.317C215.406,309.417,215.27,309.444,215.135,309.444z"/>
			</g>
			<g>
				<path style="fill:#407BFF;" d="M226.737,334.888c-0.369,0-0.723-0.204-0.898-0.557c-3.279-6.628-6.337-13.464-9.153-19.863
					c-0.222-0.505,0.007-1.095,0.513-1.317c0.505-0.222,1.096,0.006,1.318,0.513c2.807,6.378,5.854,13.189,9.115,19.781
					c0.245,0.495,0.042,1.095-0.453,1.34C227.037,334.854,226.886,334.888,226.737,334.888z"/>
			</g>
			<g>
				<path style="fill:#407BFF;" d="M238.821,282.478c-0.552,0-1-0.447-1-1v-10.491c0-0.553,0.448-1,1-1c0.552,0,1,0.447,1,1v10.491
					C239.821,282.03,239.374,282.478,238.821,282.478z"/>
			</g>
			<g>
				<path style="fill:#407BFF;" d="M238.876,294.492c-0.548,0-0.995-0.441-1-0.991c-0.016-1.752-0.034-3.504-0.055-5.256
					c-0.006-0.552,0.436-1.005,0.988-1.012c0.546,0.027,1.005,0.435,1.012,0.988c0.021,1.754,0.039,3.508,0.055,5.262
					c0.005,0.552-0.439,1.004-0.991,1.009C238.882,294.492,238.879,294.492,238.876,294.492z"/>
			</g>
			<g>
				<path style="fill:#407BFF;" d="M238.933,321.811c-0.002,0-0.003,0-0.005,0c-0.552-0.003-0.998-0.453-0.995-1.005
					c0.034-6.955,0.03-14.13-0.012-21.324c-0.003-0.552,0.442-1.003,0.994-1.006c0.002,0,0.004,0,0.006,0
					c0.55,0,0.997,0.443,1,0.994c0.042,7.201,0.046,14.383,0.012,21.346C239.93,321.367,239.483,321.811,238.933,321.811z"/>
			</g>
			<g>
				<path style="fill:#407BFF;" d="M238.821,334.888c-0.004,0-0.008,0-0.012,0c-0.552-0.007-0.995-0.46-0.988-1.012
					c0.025-2.064,0.047-4.128,0.065-6.191c0.005-0.553,0.476-1.012,1.009-0.991c0.552,0.005,0.996,0.456,0.991,1.009
					c-0.018,2.066-0.04,4.132-0.065,6.197C239.814,334.448,239.368,334.888,238.821,334.888z"/>
			</g>
			<g>
				<path style="fill:#407BFF;" d="M275.559,293.149c-0.176,0-0.354-0.046-0.515-0.144c-0.473-0.285-0.625-0.899-0.34-1.373
					l2.981-4.943c0.285-0.474,0.9-0.626,1.373-0.34c0.473,0.285,0.625,0.9,0.34,1.373l-2.981,4.943
					C276.228,292.978,275.898,293.149,275.559,293.149z"/>
			</g>
			<g>
				<path style="fill:#407BFF;" d="M261.797,315.64c-0.172,0-0.347-0.045-0.506-0.139c-0.476-0.28-0.635-0.893-0.354-1.369
					c2.864-4.862,6.671-11.239,10.722-17.447c0.302-0.462,0.921-0.592,1.384-0.291c0.462,0.302,0.593,0.922,0.291,1.385
					c-4.028,6.174-7.82,12.525-10.673,17.369C262.473,315.464,262.14,315.64,261.797,315.64z"/>
			</g>
			<g>
				<path style="fill:#407BFF;" d="M255.36,326.617c-0.172,0-0.347-0.045-0.507-0.139c-0.476-0.28-0.634-0.893-0.354-1.369
					c1.029-1.747,2.054-3.497,3.078-5.248c0.278-0.478,0.891-0.638,1.368-0.358c0.477,0.278,0.637,0.892,0.358,1.368
					c-1.025,1.753-2.05,3.505-3.081,5.254C256.036,326.441,255.703,326.617,255.36,326.617z"/>
			</g>
			<g>
				<path style="fill:#407BFF;" d="M249.432,336.47c-0.18,0-0.361-0.048-0.525-0.149c-0.47-0.291-0.615-0.907-0.324-1.377
					c0.828-1.339,1.648-2.683,2.461-4.031c0.286-0.474,0.899-0.626,1.373-0.34c0.473,0.285,0.625,0.899,0.34,1.373
					c-0.817,1.354-1.641,2.706-2.474,4.051C250.094,336.302,249.767,336.47,249.432,336.47z"/>
			</g>
			<g style="opacity:0.7;enable-background:new    ;">
				<g>
					<path style="fill:#FFFFFF;" d="M159.427,294.231c-0.228,0-0.457-0.077-0.645-0.235l-2.451-2.069
						c-0.422-0.356-0.476-0.987-0.12-1.409c0.355-0.422,0.987-0.476,1.409-0.12l2.452,2.069c0.422,0.356,0.476,0.987,0.119,1.409
						C159.994,294.11,159.711,294.231,159.427,294.231z"/>
				</g>
				<g>
					<path style="fill:#FFFFFF;" d="M171.966,304.771c-0.228,0-0.457-0.077-0.644-0.235c-2.658-2.241-5.321-4.477-7.993-6.701
						c-0.424-0.354-0.481-0.984-0.128-1.408c0.354-0.426,0.984-0.482,1.409-0.129c2.674,2.228,5.341,4.466,8.001,6.709
						c0.422,0.356,0.476,0.987,0.12,1.409C172.533,304.649,172.251,304.771,171.966,304.771z"/>
				</g>
				<g>
					<path style="fill:#FFFFFF;" d="M181.975,313.256c-0.229,0-0.46-0.078-0.647-0.238l-4.743-4.03
						c-0.421-0.357-0.473-0.988-0.116-1.41c0.357-0.42,0.988-0.473,1.41-0.115l4.745,4.032c0.421,0.358,0.472,0.989,0.114,1.41
						C182.54,313.137,182.258,313.256,181.975,313.256z"/>
				</g>
				<g>
					<path style="fill:#FFFFFF;" d="M203.592,331.611c-0.227,0-0.456-0.077-0.644-0.235c-5.564-4.685-11.101-9.4-16.638-14.116
						l-0.243-0.207c-0.42-0.358-0.471-0.989-0.113-1.41c0.358-0.422,0.99-0.472,1.41-0.113l0.243,0.208
						c5.534,4.714,11.068,9.427,16.629,14.109c0.422,0.355,0.477,0.986,0.121,1.408C204.16,331.49,203.876,331.611,203.592,331.611z
						"/>
				</g>
				<g>
					<path style="fill:#FFFFFF;" d="M213.681,340.032c-0.225,0-0.45-0.075-0.637-0.229c-1.6-1.323-3.198-2.649-4.792-3.98
						c-0.424-0.353-0.481-0.984-0.127-1.408c0.354-0.425,0.984-0.482,1.408-0.127c1.592,1.329,3.188,2.653,4.785,3.975
						c0.426,0.352,0.485,0.982,0.133,1.408C214.254,339.908,213.968,340.032,213.681,340.032z"/>
				</g>
				<g>
					<path style="fill:#FFFFFF;" d="M200.794,278.154c-0.379,0-0.742-0.217-0.91-0.584l-1.353-2.96
						c-0.23-0.502-0.009-1.096,0.493-1.325c0.503-0.229,1.096-0.009,1.325,0.493l1.354,2.96c0.23,0.502,0.009,1.096-0.493,1.325
						C201.075,278.125,200.933,278.154,200.794,278.154z"/>
				</g>
				<g>
					<path style="fill:#FFFFFF;" d="M209.717,297.252c-0.38,0-0.744-0.218-0.911-0.587c-2.113-4.654-4.021-8.691-5.832-12.34
						c-0.246-0.494-0.044-1.095,0.451-1.34c0.497-0.247,1.095-0.044,1.34,0.451c1.822,3.669,3.74,7.726,5.862,12.402
						c0.228,0.503,0.005,1.096-0.497,1.323C209.996,297.224,209.855,297.252,209.717,297.252z"/>
				</g>
				<g>
					<path style="fill:#FFFFFF;" d="M215.135,309.444c-0.385,0-0.752-0.224-0.917-0.599c-0.73-1.665-1.461-3.329-2.196-4.991
						c-0.224-0.505,0.005-1.096,0.51-1.318c0.505-0.225,1.095,0.004,1.319,0.51c0.736,1.664,1.468,3.33,2.199,4.997
						c0.222,0.506-0.009,1.096-0.515,1.317C215.406,309.417,215.27,309.444,215.135,309.444z"/>
				</g>
				<g>
					<path style="fill:#FFFFFF;" d="M226.737,334.888c-0.369,0-0.723-0.204-0.898-0.557c-3.279-6.628-6.337-13.464-9.153-19.863
						c-0.222-0.505,0.007-1.095,0.513-1.317c0.505-0.222,1.096,0.006,1.318,0.513c2.807,6.378,5.854,13.189,9.115,19.781
						c0.245,0.495,0.042,1.095-0.453,1.34C227.037,334.854,226.886,334.888,226.737,334.888z"/>
				</g>
				<g>
					<path style="fill:#FFFFFF;" d="M238.821,282.478c-0.552,0-1-0.447-1-1v-10.491c0-0.553,0.448-1,1-1c0.552,0,1,0.447,1,1v10.491
						C239.821,282.03,239.374,282.478,238.821,282.478z"/>
				</g>
				<g>
					<path style="fill:#FFFFFF;" d="M238.876,294.492c-0.548,0-0.995-0.441-1-0.991c-0.016-1.752-0.034-3.504-0.055-5.256
						c-0.006-0.552,0.436-1.005,0.988-1.012c0.546,0.027,1.005,0.435,1.012,0.988c0.021,1.754,0.039,3.508,0.055,5.262
						c0.005,0.552-0.439,1.004-0.991,1.009C238.882,294.492,238.879,294.492,238.876,294.492z"/>
				</g>
				<g>
					<path style="fill:#FFFFFF;" d="M238.933,321.811c-0.002,0-0.003,0-0.005,0c-0.552-0.003-0.998-0.453-0.995-1.005
						c0.034-6.955,0.03-14.13-0.012-21.324c-0.003-0.552,0.442-1.003,0.994-1.006c0.002,0,0.004,0,0.006,0
						c0.55,0,0.997,0.443,1,0.994c0.042,7.201,0.046,14.383,0.012,21.346C239.93,321.367,239.483,321.811,238.933,321.811z"/>
				</g>
				<g>
					<path style="fill:#FFFFFF;" d="M238.821,334.888c-0.004,0-0.008,0-0.012,0c-0.552-0.007-0.995-0.46-0.988-1.012
						c0.025-2.064,0.047-4.128,0.065-6.191c0.005-0.553,0.476-1.012,1.009-0.991c0.552,0.005,0.996,0.456,0.991,1.009
						c-0.018,2.066-0.04,4.132-0.065,6.197C239.814,334.448,239.368,334.888,238.821,334.888z"/>
				</g>
				<g>
					<path style="fill:#FFFFFF;" d="M275.559,293.149c-0.176,0-0.354-0.046-0.515-0.144c-0.473-0.285-0.625-0.899-0.34-1.373
						l2.981-4.943c0.285-0.474,0.9-0.626,1.373-0.34c0.473,0.285,0.625,0.9,0.34,1.373l-2.981,4.943
						C276.228,292.978,275.898,293.149,275.559,293.149z"/>
				</g>
				<g>
					<path style="fill:#FFFFFF;" d="M261.797,315.64c-0.172,0-0.347-0.045-0.506-0.139c-0.476-0.28-0.635-0.893-0.354-1.369
						c2.864-4.862,6.671-11.239,10.722-17.447c0.302-0.462,0.921-0.592,1.384-0.291c0.462,0.302,0.593,0.922,0.291,1.385
						c-4.028,6.174-7.82,12.525-10.673,17.369C262.473,315.464,262.14,315.64,261.797,315.64z"/>
				</g>
				<g>
					<path style="fill:#FFFFFF;" d="M255.36,326.617c-0.172,0-0.347-0.045-0.507-0.139c-0.476-0.28-0.634-0.893-0.354-1.369
						c1.029-1.747,2.054-3.497,3.078-5.248c0.278-0.478,0.891-0.638,1.368-0.358c0.477,0.278,0.637,0.892,0.358,1.368
						c-1.025,1.753-2.05,3.505-3.081,5.254C256.036,326.441,255.703,326.617,255.36,326.617z"/>
				</g>
				<g>
					<path style="fill:#FFFFFF;" d="M249.432,336.47c-0.18,0-0.361-0.048-0.525-0.149c-0.47-0.291-0.615-0.907-0.324-1.377
						c0.828-1.339,1.648-2.683,2.461-4.031c0.286-0.474,0.899-0.626,1.373-0.34c0.473,0.285,0.625,0.899,0.34,1.373
						c-0.817,1.354-1.641,2.706-2.474,4.051C250.094,336.302,249.767,336.47,249.432,336.47z"/>
				</g>
			</g>
		</g>
	</g>
</g>
</svg>
